G75*
%MOIN*%
%OFA0B0*%
%FSLAX25Y25*%
%IPPOS*%
%LPD*%
%AMOC8*
5,1,8,0,0,1.08239X$1,22.5*
%
%ADD10C,0.00000*%
%ADD11C,0.07400*%
%ADD12C,0.06000*%
%ADD13C,0.00984*%
%ADD14C,0.01600*%
%ADD15C,0.03962*%
D10*
X0001000Y0001000D02*
X0001000Y0205961D01*
X0309701Y0205961D01*
X0309701Y0001000D01*
X0001000Y0001000D01*
D11*
X0116000Y0086000D03*
X0126000Y0086000D03*
X0136000Y0086000D03*
X0146000Y0086000D03*
X0156000Y0086000D03*
X0166000Y0086000D03*
X0176000Y0086000D03*
X0186000Y0086000D03*
X0196000Y0086000D03*
X0231000Y0106000D03*
X0241000Y0106000D03*
X0241000Y0126000D03*
X0231000Y0126000D03*
X0171000Y0056000D03*
X0171000Y0041000D03*
X0141000Y0041000D03*
X0141000Y0056000D03*
X0076000Y0101000D03*
X0066000Y0101000D03*
X0066000Y0121000D03*
X0076000Y0121000D03*
D12*
X0133000Y0161000D02*
X0139000Y0161000D01*
X0139000Y0171000D02*
X0133000Y0171000D01*
X0133000Y0181000D02*
X0139000Y0181000D01*
X0139000Y0191000D02*
X0133000Y0191000D01*
X0173000Y0191000D02*
X0179000Y0191000D01*
X0179000Y0181000D02*
X0173000Y0181000D01*
X0173000Y0171000D02*
X0179000Y0171000D01*
X0179000Y0161000D02*
X0173000Y0161000D01*
X0203000Y0061000D02*
X0209000Y0061000D01*
X0209000Y0051000D02*
X0203000Y0051000D01*
X0203000Y0041000D02*
X0209000Y0041000D01*
X0209000Y0031000D02*
X0203000Y0031000D01*
X0253000Y0031000D02*
X0259000Y0031000D01*
X0259000Y0041000D02*
X0253000Y0041000D01*
X0253000Y0051000D02*
X0259000Y0051000D01*
X0259000Y0061000D02*
X0253000Y0061000D01*
X0109000Y0061000D02*
X0103000Y0061000D01*
X0103000Y0051000D02*
X0109000Y0051000D01*
X0109000Y0041000D02*
X0103000Y0041000D01*
X0103000Y0031000D02*
X0109000Y0031000D01*
X0059000Y0031000D02*
X0053000Y0031000D01*
X0053000Y0041000D02*
X0059000Y0041000D01*
X0059000Y0051000D02*
X0053000Y0051000D01*
X0053000Y0061000D02*
X0059000Y0061000D01*
D13*
X0056000Y0041000D02*
X0056197Y0040449D01*
X0096551Y0040449D01*
X0101472Y0035528D01*
X0165449Y0035528D01*
X0170370Y0040449D01*
X0171000Y0041000D01*
X0171354Y0041433D01*
X0205803Y0041433D01*
X0206000Y0041000D01*
X0206000Y0051000D02*
X0205803Y0051276D01*
X0175291Y0051276D01*
X0171354Y0055213D01*
X0171000Y0056000D01*
X0141000Y0056000D02*
X0140843Y0055213D01*
X0140843Y0041433D01*
X0141000Y0041000D01*
X0141000Y0056000D02*
X0140843Y0056197D01*
X0110331Y0056197D01*
X0106394Y0060134D01*
X0106000Y0061000D01*
X0085724Y0080803D02*
X0066039Y0100488D01*
X0066000Y0101000D01*
X0070961Y0115252D02*
X0066039Y0120173D01*
X0066000Y0121000D01*
X0070961Y0115252D02*
X0104425Y0115252D01*
X0132969Y0086709D01*
X0135921Y0086709D01*
X0136000Y0086000D01*
X0138874Y0080803D02*
X0085724Y0080803D01*
X0138874Y0080803D02*
X0143795Y0085724D01*
X0145764Y0085724D01*
X0146000Y0086000D01*
X0155606Y0086709D02*
X0156000Y0086000D01*
X0155606Y0086709D02*
X0136906Y0105409D01*
X0136906Y0160528D01*
X0136000Y0161000D01*
X0135921Y0170370D02*
X0126079Y0170370D01*
X0076866Y0121157D01*
X0076000Y0121000D01*
X0135921Y0170370D02*
X0136000Y0171000D01*
X0136906Y0190055D02*
X0136000Y0191000D01*
X0136906Y0190055D02*
X0165449Y0161512D01*
X0165449Y0086709D01*
X0166000Y0086000D01*
X0168402Y0093598D02*
X0176000Y0086000D01*
X0185134Y0086709D02*
X0186000Y0086000D01*
X0185134Y0086709D02*
X0176276Y0095567D01*
X0176276Y0160528D01*
X0176000Y0161000D01*
X0168402Y0163480D02*
X0168402Y0093598D01*
X0196000Y0086000D02*
X0196945Y0085724D01*
X0241236Y0041433D01*
X0256000Y0041433D01*
X0256000Y0041000D01*
X0256000Y0051000D02*
X0256000Y0051276D01*
X0184150Y0123126D01*
X0184150Y0172339D01*
X0176276Y0180213D01*
X0176000Y0181000D01*
X0176000Y0171000D02*
X0175291Y0170370D01*
X0168402Y0163480D01*
D14*
X0166085Y0164400D02*
X0142778Y0187707D01*
X0143239Y0188168D01*
X0144000Y0190005D01*
X0144000Y0191995D01*
X0143239Y0193832D01*
X0141832Y0195239D01*
X0139995Y0196000D01*
X0132005Y0196000D01*
X0130168Y0195239D01*
X0128761Y0193832D01*
X0128000Y0191995D01*
X0128000Y0190005D01*
X0128761Y0188168D01*
X0130168Y0186761D01*
X0132005Y0186000D01*
X0130168Y0185239D01*
X0128761Y0183832D01*
X0128000Y0181995D01*
X0128000Y0180005D01*
X0128761Y0178168D01*
X0130168Y0176761D01*
X0132005Y0176000D01*
X0139995Y0176000D01*
X0141832Y0175239D01*
X0143239Y0173832D01*
X0144000Y0171995D01*
X0144000Y0170005D01*
X0143239Y0168168D01*
X0141832Y0166761D01*
X0139995Y0166000D01*
X0132005Y0166000D01*
X0130168Y0166761D01*
X0129051Y0167878D01*
X0127111Y0167878D01*
X0081602Y0122369D01*
X0081700Y0122134D01*
X0081700Y0119866D01*
X0080832Y0117771D01*
X0080805Y0117744D01*
X0104921Y0117744D01*
X0105837Y0117365D01*
X0106538Y0116664D01*
X0106538Y0116664D01*
X0132570Y0090631D01*
X0132771Y0090832D01*
X0134866Y0091700D01*
X0137134Y0091700D01*
X0139229Y0090832D01*
X0140832Y0089229D01*
X0141000Y0088824D01*
X0141168Y0089229D01*
X0142771Y0090832D01*
X0144866Y0091700D01*
X0147091Y0091700D01*
X0135494Y0103297D01*
X0135494Y0103297D01*
X0134793Y0103998D01*
X0134413Y0104914D01*
X0134413Y0156000D01*
X0132005Y0156000D01*
X0130168Y0156761D01*
X0128761Y0158168D01*
X0128000Y0160005D01*
X0128000Y0161995D01*
X0128761Y0163832D01*
X0130168Y0165239D01*
X0132005Y0166000D01*
X0139995Y0166000D01*
X0141832Y0165239D01*
X0143239Y0163832D01*
X0144000Y0161995D01*
X0144000Y0160005D01*
X0143239Y0158168D01*
X0141832Y0156761D01*
X0139995Y0156000D01*
X0139398Y0156000D01*
X0139398Y0106442D01*
X0154352Y0091487D01*
X0154866Y0091700D01*
X0157134Y0091700D01*
X0159229Y0090832D01*
X0160832Y0089229D01*
X0161000Y0088824D01*
X0161168Y0089229D01*
X0162771Y0090832D01*
X0162957Y0090909D01*
X0162957Y0160480D01*
X0143833Y0179603D01*
X0143239Y0178168D01*
X0141832Y0176761D01*
X0139995Y0176000D01*
X0132005Y0176000D01*
X0130168Y0175239D01*
X0128761Y0173832D01*
X0128359Y0172862D01*
X0125583Y0172862D01*
X0124667Y0172483D01*
X0078372Y0126187D01*
X0077134Y0126700D01*
X0074866Y0126700D01*
X0072771Y0125832D01*
X0071168Y0124229D01*
X0071000Y0123824D01*
X0070832Y0124229D01*
X0069229Y0125832D01*
X0067134Y0126700D01*
X0064866Y0126700D01*
X0062771Y0125832D01*
X0061168Y0124229D01*
X0060300Y0122134D01*
X0060300Y0119866D01*
X0061168Y0117771D01*
X0062771Y0116168D01*
X0064866Y0115300D01*
X0067134Y0115300D01*
X0067314Y0115375D01*
X0069549Y0113139D01*
X0070465Y0112760D01*
X0103393Y0112760D01*
X0124778Y0091375D01*
X0124712Y0091365D01*
X0123889Y0091097D01*
X0123117Y0090704D01*
X0122417Y0090195D01*
X0121805Y0089583D01*
X0121296Y0088883D01*
X0121119Y0088536D01*
X0120832Y0089229D01*
X0119229Y0090832D01*
X0117134Y0091700D01*
X0114866Y0091700D01*
X0112771Y0090832D01*
X0111168Y0089229D01*
X0110300Y0087134D01*
X0110300Y0084866D01*
X0110951Y0083295D01*
X0086757Y0083295D01*
X0074671Y0095381D01*
X0074866Y0095300D01*
X0077134Y0095300D01*
X0079229Y0096168D01*
X0080832Y0097771D01*
X0081700Y0099866D01*
X0081700Y0102134D01*
X0080832Y0104229D01*
X0079229Y0105832D01*
X0077134Y0106700D01*
X0074866Y0106700D01*
X0072771Y0105832D01*
X0071168Y0104229D01*
X0071000Y0103824D01*
X0070832Y0104229D01*
X0069229Y0105832D01*
X0067134Y0106700D01*
X0064866Y0106700D01*
X0062771Y0105832D01*
X0061168Y0104229D01*
X0060300Y0102134D01*
X0060300Y0099866D01*
X0061168Y0097771D01*
X0062771Y0096168D01*
X0064866Y0095300D01*
X0067134Y0095300D01*
X0067536Y0095467D01*
X0084313Y0078690D01*
X0085229Y0078311D01*
X0139370Y0078311D01*
X0140286Y0078690D01*
X0140987Y0079391D01*
X0142767Y0081172D01*
X0142771Y0081168D01*
X0144866Y0080300D01*
X0147134Y0080300D01*
X0149229Y0081168D01*
X0150832Y0082771D01*
X0151000Y0083176D01*
X0151168Y0082771D01*
X0152771Y0081168D01*
X0154866Y0080300D01*
X0157134Y0080300D01*
X0159229Y0081168D01*
X0160832Y0082771D01*
X0161000Y0083176D01*
X0161168Y0082771D01*
X0162771Y0081168D01*
X0164866Y0080300D01*
X0167134Y0080300D01*
X0169229Y0081168D01*
X0170832Y0082771D01*
X0171000Y0083176D01*
X0171168Y0082771D01*
X0172771Y0081168D01*
X0174866Y0080300D01*
X0177134Y0080300D01*
X0179229Y0081168D01*
X0180832Y0082771D01*
X0181000Y0083176D01*
X0181168Y0082771D01*
X0182771Y0081168D01*
X0184866Y0080300D01*
X0187134Y0080300D01*
X0189229Y0081168D01*
X0190832Y0082771D01*
X0191000Y0083176D01*
X0191168Y0082771D01*
X0192771Y0081168D01*
X0194866Y0080300D01*
X0197134Y0080300D01*
X0198344Y0080801D01*
X0239825Y0039320D01*
X0240741Y0038941D01*
X0248441Y0038941D01*
X0248761Y0038168D01*
X0250168Y0036761D01*
X0252005Y0036000D01*
X0250168Y0035239D01*
X0248761Y0033832D01*
X0248000Y0031995D01*
X0248000Y0030005D01*
X0248761Y0028168D01*
X0250168Y0026761D01*
X0252005Y0026000D01*
X0259995Y0026000D01*
X0261832Y0026761D01*
X0263239Y0028168D01*
X0264000Y0030005D01*
X0264000Y0031995D01*
X0263239Y0033832D01*
X0261832Y0035239D01*
X0259995Y0036000D01*
X0252005Y0036000D01*
X0259995Y0036000D01*
X0261832Y0036761D01*
X0263239Y0038168D01*
X0264000Y0040005D01*
X0264000Y0041995D01*
X0263239Y0043832D01*
X0261832Y0045239D01*
X0259995Y0046000D01*
X0252005Y0046000D01*
X0250168Y0045239D01*
X0248854Y0043925D01*
X0242268Y0043925D01*
X0201591Y0084603D01*
X0201700Y0084866D01*
X0201700Y0087134D01*
X0200832Y0089229D01*
X0199229Y0090832D01*
X0197134Y0091700D01*
X0194866Y0091700D01*
X0192771Y0090832D01*
X0191168Y0089229D01*
X0191000Y0088824D01*
X0190832Y0089229D01*
X0189229Y0090832D01*
X0187134Y0091700D01*
X0184866Y0091700D01*
X0184018Y0091349D01*
X0178768Y0096599D01*
X0178768Y0156000D01*
X0179995Y0156000D01*
X0181832Y0156761D01*
X0183239Y0158168D01*
X0184000Y0160005D01*
X0184000Y0161995D01*
X0183239Y0163832D01*
X0181832Y0165239D01*
X0179995Y0166000D01*
X0181832Y0166761D01*
X0183239Y0168168D01*
X0184000Y0170005D01*
X0184000Y0171995D01*
X0183239Y0173832D01*
X0181832Y0175239D01*
X0179995Y0176000D01*
X0172005Y0176000D01*
X0170168Y0175239D01*
X0168761Y0173832D01*
X0168000Y0171995D01*
X0168000Y0170005D01*
X0168761Y0168168D01*
X0169163Y0167766D01*
X0166990Y0165593D01*
X0166289Y0164892D01*
X0166085Y0164400D01*
X0167248Y0165851D02*
X0164634Y0165851D01*
X0163035Y0167450D02*
X0168847Y0167450D01*
X0168397Y0169048D02*
X0161437Y0169048D01*
X0159838Y0170647D02*
X0168000Y0170647D01*
X0168104Y0172245D02*
X0158240Y0172245D01*
X0156641Y0173844D02*
X0168773Y0173844D01*
X0170659Y0175442D02*
X0155043Y0175442D01*
X0153444Y0177041D02*
X0170283Y0177041D01*
X0170484Y0176895D02*
X0171157Y0176552D01*
X0171876Y0176318D01*
X0172622Y0176200D01*
X0175800Y0176200D01*
X0175800Y0180800D01*
X0176200Y0180800D01*
X0176200Y0181200D01*
X0175800Y0181200D01*
X0175800Y0185800D01*
X0172622Y0185800D01*
X0171876Y0185682D01*
X0171157Y0185448D01*
X0170484Y0185105D01*
X0169873Y0184661D01*
X0169339Y0184127D01*
X0168895Y0183516D01*
X0168552Y0182843D01*
X0168318Y0182124D01*
X0168200Y0181378D01*
X0168200Y0181200D01*
X0175800Y0181200D01*
X0175800Y0180800D01*
X0168200Y0180800D01*
X0168200Y0180622D01*
X0168318Y0179876D01*
X0168552Y0179157D01*
X0168895Y0178484D01*
X0169339Y0177873D01*
X0169873Y0177339D01*
X0170484Y0176895D01*
X0168816Y0178639D02*
X0151846Y0178639D01*
X0150247Y0180238D02*
X0168261Y0180238D01*
X0168273Y0181836D02*
X0148649Y0181836D01*
X0147050Y0183435D02*
X0168853Y0183435D01*
X0170385Y0185033D02*
X0145452Y0185033D01*
X0143853Y0186632D02*
X0170480Y0186632D01*
X0170168Y0186761D02*
X0172005Y0186000D01*
X0179995Y0186000D01*
X0181832Y0186761D01*
X0183239Y0188168D01*
X0184000Y0190005D01*
X0184000Y0191995D01*
X0183239Y0193832D01*
X0181832Y0195239D01*
X0179995Y0196000D01*
X0172005Y0196000D01*
X0170168Y0195239D01*
X0168761Y0193832D01*
X0168000Y0191995D01*
X0168000Y0190005D01*
X0168761Y0188168D01*
X0170168Y0186761D01*
X0168735Y0188230D02*
X0143265Y0188230D01*
X0143927Y0189829D02*
X0168073Y0189829D01*
X0168000Y0191427D02*
X0144000Y0191427D01*
X0143573Y0193026D02*
X0168427Y0193026D01*
X0169553Y0194624D02*
X0142447Y0194624D01*
X0129553Y0194624D02*
X0006000Y0194624D01*
X0006000Y0193026D02*
X0128427Y0193026D01*
X0128000Y0191427D02*
X0006000Y0191427D01*
X0006000Y0189829D02*
X0128073Y0189829D01*
X0128735Y0188230D02*
X0006000Y0188230D01*
X0006000Y0186632D02*
X0130480Y0186632D01*
X0132005Y0186000D02*
X0137436Y0186000D01*
X0137436Y0186000D01*
X0132005Y0186000D01*
X0129962Y0185033D02*
X0006000Y0185033D01*
X0006000Y0183435D02*
X0128597Y0183435D01*
X0128000Y0181836D02*
X0006000Y0181836D01*
X0006000Y0180238D02*
X0128000Y0180238D01*
X0128566Y0178639D02*
X0006000Y0178639D01*
X0006000Y0177041D02*
X0129888Y0177041D01*
X0130659Y0175442D02*
X0006000Y0175442D01*
X0006000Y0173844D02*
X0128773Y0173844D01*
X0124429Y0172245D02*
X0006000Y0172245D01*
X0006000Y0170647D02*
X0122831Y0170647D01*
X0121232Y0169048D02*
X0006000Y0169048D01*
X0006000Y0167450D02*
X0119634Y0167450D01*
X0118035Y0165851D02*
X0006000Y0165851D01*
X0006000Y0164253D02*
X0116437Y0164253D01*
X0114838Y0162654D02*
X0006000Y0162654D01*
X0006000Y0161056D02*
X0113240Y0161056D01*
X0111641Y0159457D02*
X0006000Y0159457D01*
X0006000Y0157859D02*
X0110043Y0157859D01*
X0108444Y0156260D02*
X0006000Y0156260D01*
X0006000Y0154662D02*
X0106846Y0154662D01*
X0105247Y0153063D02*
X0006000Y0153063D01*
X0006000Y0151465D02*
X0103649Y0151465D01*
X0102050Y0149866D02*
X0006000Y0149866D01*
X0006000Y0148268D02*
X0100452Y0148268D01*
X0098853Y0146669D02*
X0006000Y0146669D01*
X0006000Y0145070D02*
X0097255Y0145070D01*
X0095656Y0143472D02*
X0006000Y0143472D01*
X0006000Y0141873D02*
X0094058Y0141873D01*
X0092459Y0140275D02*
X0006000Y0140275D01*
X0006000Y0138676D02*
X0090861Y0138676D01*
X0089262Y0137078D02*
X0006000Y0137078D01*
X0006000Y0135479D02*
X0087664Y0135479D01*
X0086065Y0133881D02*
X0006000Y0133881D01*
X0006000Y0132282D02*
X0084467Y0132282D01*
X0082868Y0130684D02*
X0006000Y0130684D01*
X0006000Y0129085D02*
X0081270Y0129085D01*
X0079671Y0127487D02*
X0006000Y0127487D01*
X0006000Y0125888D02*
X0062907Y0125888D01*
X0061229Y0124290D02*
X0006000Y0124290D01*
X0006000Y0122691D02*
X0060531Y0122691D01*
X0060300Y0121093D02*
X0006000Y0121093D01*
X0006000Y0119494D02*
X0060454Y0119494D01*
X0061116Y0117896D02*
X0006000Y0117896D01*
X0006000Y0116297D02*
X0062642Y0116297D01*
X0067989Y0114699D02*
X0006000Y0114699D01*
X0006000Y0113100D02*
X0069643Y0113100D01*
X0069953Y0105108D02*
X0072047Y0105108D01*
X0079953Y0105108D02*
X0111045Y0105108D01*
X0109447Y0106706D02*
X0006000Y0106706D01*
X0006000Y0105108D02*
X0062047Y0105108D01*
X0060870Y0103509D02*
X0006000Y0103509D01*
X0006000Y0101911D02*
X0060300Y0101911D01*
X0060300Y0100312D02*
X0006000Y0100312D01*
X0006000Y0098714D02*
X0060777Y0098714D01*
X0061824Y0097115D02*
X0006000Y0097115D01*
X0006000Y0095517D02*
X0064343Y0095517D01*
X0069085Y0093918D02*
X0006000Y0093918D01*
X0006000Y0092320D02*
X0070684Y0092320D01*
X0072282Y0090721D02*
X0006000Y0090721D01*
X0006000Y0089123D02*
X0073881Y0089123D01*
X0075479Y0087524D02*
X0006000Y0087524D01*
X0006000Y0085926D02*
X0077078Y0085926D01*
X0078676Y0084327D02*
X0006000Y0084327D01*
X0006000Y0082729D02*
X0080275Y0082729D01*
X0081873Y0081130D02*
X0006000Y0081130D01*
X0006000Y0079532D02*
X0083472Y0079532D01*
X0085725Y0084327D02*
X0110523Y0084327D01*
X0110300Y0085926D02*
X0084126Y0085926D01*
X0082528Y0087524D02*
X0110462Y0087524D01*
X0111124Y0089123D02*
X0080929Y0089123D01*
X0079331Y0090721D02*
X0112660Y0090721D01*
X0119340Y0090721D02*
X0123151Y0090721D01*
X0123833Y0092320D02*
X0077732Y0092320D01*
X0076134Y0093918D02*
X0122235Y0093918D01*
X0120636Y0095517D02*
X0077657Y0095517D01*
X0080176Y0097115D02*
X0119038Y0097115D01*
X0117439Y0098714D02*
X0081223Y0098714D01*
X0081700Y0100312D02*
X0115841Y0100312D01*
X0114242Y0101911D02*
X0081700Y0101911D01*
X0081130Y0103509D02*
X0112644Y0103509D01*
X0116495Y0106706D02*
X0134413Y0106706D01*
X0134413Y0105108D02*
X0118094Y0105108D01*
X0119692Y0103509D02*
X0135281Y0103509D01*
X0136880Y0101911D02*
X0121291Y0101911D01*
X0122889Y0100312D02*
X0138478Y0100312D01*
X0140077Y0098714D02*
X0124488Y0098714D01*
X0126086Y0097115D02*
X0141675Y0097115D01*
X0143274Y0095517D02*
X0127685Y0095517D01*
X0129283Y0093918D02*
X0144872Y0093918D01*
X0146471Y0092320D02*
X0130882Y0092320D01*
X0132480Y0090721D02*
X0132660Y0090721D01*
X0139340Y0090721D02*
X0142660Y0090721D01*
X0141124Y0089123D02*
X0140876Y0089123D01*
X0148724Y0097115D02*
X0162957Y0097115D01*
X0162957Y0095517D02*
X0150323Y0095517D01*
X0151921Y0093918D02*
X0162957Y0093918D01*
X0162957Y0092320D02*
X0153520Y0092320D01*
X0159340Y0090721D02*
X0162660Y0090721D01*
X0161124Y0089123D02*
X0160876Y0089123D01*
X0160790Y0082729D02*
X0161210Y0082729D01*
X0162862Y0081130D02*
X0159138Y0081130D01*
X0152862Y0081130D02*
X0149138Y0081130D01*
X0150790Y0082729D02*
X0151210Y0082729D01*
X0142862Y0081130D02*
X0142725Y0081130D01*
X0141127Y0079532D02*
X0199613Y0079532D01*
X0201212Y0077933D02*
X0006000Y0077933D01*
X0006000Y0076334D02*
X0202810Y0076334D01*
X0204409Y0074736D02*
X0006000Y0074736D01*
X0006000Y0073137D02*
X0206007Y0073137D01*
X0207606Y0071539D02*
X0006000Y0071539D01*
X0006000Y0069940D02*
X0209204Y0069940D01*
X0210803Y0068342D02*
X0006000Y0068342D01*
X0006000Y0066743D02*
X0212401Y0066743D01*
X0211832Y0065239D02*
X0209995Y0066000D01*
X0202005Y0066000D01*
X0200168Y0065239D01*
X0198761Y0063832D01*
X0198000Y0061995D01*
X0198000Y0060005D01*
X0198761Y0058168D01*
X0200168Y0056761D01*
X0202005Y0056000D01*
X0200168Y0055239D01*
X0198761Y0053832D01*
X0198734Y0053768D01*
X0176324Y0053768D01*
X0176268Y0053823D01*
X0176700Y0054866D01*
X0176700Y0057134D01*
X0175832Y0059229D01*
X0174229Y0060832D01*
X0172134Y0061700D01*
X0169866Y0061700D01*
X0167771Y0060832D01*
X0166168Y0059229D01*
X0165300Y0057134D01*
X0165300Y0054866D01*
X0166168Y0052771D01*
X0167771Y0051168D01*
X0169866Y0050300D01*
X0172134Y0050300D01*
X0172564Y0050478D01*
X0173880Y0049163D01*
X0174796Y0048783D01*
X0198506Y0048783D01*
X0198761Y0048168D01*
X0200168Y0046761D01*
X0202005Y0046000D01*
X0200168Y0045239D01*
X0198854Y0043925D01*
X0175958Y0043925D01*
X0175832Y0044229D01*
X0174229Y0045832D01*
X0172134Y0046700D01*
X0169866Y0046700D01*
X0167771Y0045832D01*
X0166168Y0044229D01*
X0165300Y0042134D01*
X0165300Y0039866D01*
X0165582Y0039185D01*
X0164417Y0038020D01*
X0145935Y0038020D01*
X0146700Y0039866D01*
X0146700Y0042134D01*
X0145832Y0044229D01*
X0144229Y0045832D01*
X0143335Y0046203D01*
X0143335Y0050797D01*
X0144229Y0051168D01*
X0145832Y0052771D01*
X0146700Y0054866D01*
X0146700Y0057134D01*
X0145832Y0059229D01*
X0144229Y0060832D01*
X0142134Y0061700D01*
X0139866Y0061700D01*
X0137771Y0060832D01*
X0136168Y0059229D01*
X0135944Y0058689D01*
X0113455Y0058689D01*
X0114000Y0060005D01*
X0114000Y0061995D01*
X0113239Y0063832D01*
X0111832Y0065239D01*
X0109995Y0066000D01*
X0102005Y0066000D01*
X0100168Y0065239D01*
X0098761Y0063832D01*
X0098000Y0061995D01*
X0098000Y0060005D01*
X0098761Y0058168D01*
X0100168Y0056761D01*
X0102005Y0056000D01*
X0107003Y0056000D01*
X0107203Y0055800D01*
X0106200Y0055800D01*
X0106200Y0051200D01*
X0113800Y0051200D01*
X0113800Y0051378D01*
X0113682Y0052124D01*
X0113448Y0052843D01*
X0113105Y0053516D01*
X0112968Y0053705D01*
X0135781Y0053705D01*
X0136168Y0052771D01*
X0137771Y0051168D01*
X0138350Y0050928D01*
X0138350Y0046072D01*
X0137771Y0045832D01*
X0136168Y0044229D01*
X0135300Y0042134D01*
X0135300Y0039866D01*
X0136065Y0038020D01*
X0113091Y0038020D01*
X0113239Y0038168D01*
X0114000Y0040005D01*
X0114000Y0041995D01*
X0113239Y0043832D01*
X0111832Y0045239D01*
X0109995Y0046000D01*
X0102005Y0046000D01*
X0100168Y0045239D01*
X0098761Y0043832D01*
X0098155Y0042369D01*
X0097963Y0042562D01*
X0097047Y0042941D01*
X0063608Y0042941D01*
X0063239Y0043832D01*
X0061832Y0045239D01*
X0059995Y0046000D01*
X0052005Y0046000D01*
X0050168Y0045239D01*
X0048761Y0043832D01*
X0048000Y0041995D01*
X0048000Y0040005D01*
X0048761Y0038168D01*
X0050168Y0036761D01*
X0052005Y0036000D01*
X0059995Y0036000D01*
X0061832Y0036761D01*
X0063028Y0037957D01*
X0095519Y0037957D01*
X0099202Y0034273D01*
X0098761Y0033832D01*
X0098000Y0031995D01*
X0098000Y0030005D01*
X0098761Y0028168D01*
X0100168Y0026761D01*
X0102005Y0026000D01*
X0109995Y0026000D01*
X0111832Y0026761D01*
X0113239Y0028168D01*
X0114000Y0030005D01*
X0114000Y0031995D01*
X0113569Y0033035D01*
X0165945Y0033035D01*
X0166860Y0033415D01*
X0169074Y0035628D01*
X0169866Y0035300D01*
X0172134Y0035300D01*
X0174229Y0036168D01*
X0175832Y0037771D01*
X0176317Y0038941D01*
X0198441Y0038941D01*
X0198761Y0038168D01*
X0200168Y0036761D01*
X0202005Y0036000D01*
X0200168Y0035239D01*
X0198761Y0033832D01*
X0198000Y0031995D01*
X0198000Y0030005D01*
X0198761Y0028168D01*
X0200168Y0026761D01*
X0202005Y0026000D01*
X0209995Y0026000D01*
X0211832Y0026761D01*
X0213239Y0028168D01*
X0214000Y0030005D01*
X0214000Y0031995D01*
X0213239Y0033832D01*
X0211832Y0035239D01*
X0209995Y0036000D01*
X0202005Y0036000D01*
X0209995Y0036000D01*
X0211832Y0036761D01*
X0213239Y0038168D01*
X0214000Y0040005D01*
X0214000Y0041995D01*
X0213239Y0043832D01*
X0211832Y0045239D01*
X0209995Y0046000D01*
X0202005Y0046000D01*
X0209995Y0046000D01*
X0211832Y0046761D01*
X0213239Y0048168D01*
X0214000Y0050005D01*
X0214000Y0051995D01*
X0213239Y0053832D01*
X0211832Y0055239D01*
X0209995Y0056000D01*
X0202005Y0056000D01*
X0209995Y0056000D01*
X0211832Y0056761D01*
X0213239Y0058168D01*
X0214000Y0060005D01*
X0214000Y0061995D01*
X0213239Y0063832D01*
X0211832Y0065239D01*
X0211926Y0065145D02*
X0214000Y0065145D01*
X0213357Y0063546D02*
X0215598Y0063546D01*
X0214000Y0061948D02*
X0217197Y0061948D01*
X0218796Y0060349D02*
X0214000Y0060349D01*
X0213480Y0058751D02*
X0220394Y0058751D01*
X0221993Y0057152D02*
X0212223Y0057152D01*
X0211072Y0055554D02*
X0223591Y0055554D01*
X0225190Y0053955D02*
X0213116Y0053955D01*
X0213850Y0052357D02*
X0226788Y0052357D01*
X0228387Y0050758D02*
X0214000Y0050758D01*
X0213650Y0049160D02*
X0229985Y0049160D01*
X0231584Y0047561D02*
X0212632Y0047561D01*
X0210084Y0045963D02*
X0233182Y0045963D01*
X0234781Y0044364D02*
X0212707Y0044364D01*
X0213681Y0042766D02*
X0236379Y0042766D01*
X0237978Y0041167D02*
X0214000Y0041167D01*
X0213819Y0039569D02*
X0239576Y0039569D01*
X0241829Y0044364D02*
X0249293Y0044364D01*
X0250484Y0046895D02*
X0251157Y0046552D01*
X0251876Y0046318D01*
X0252622Y0046200D01*
X0255800Y0046200D01*
X0255800Y0050800D01*
X0256200Y0050800D01*
X0256200Y0051200D01*
X0255800Y0051200D01*
X0255800Y0055800D01*
X0252622Y0055800D01*
X0251876Y0055682D01*
X0251157Y0055448D01*
X0250484Y0055105D01*
X0249873Y0054661D01*
X0249339Y0054127D01*
X0248895Y0053516D01*
X0248552Y0052843D01*
X0248318Y0052124D01*
X0248200Y0051378D01*
X0248200Y0051200D01*
X0255800Y0051200D01*
X0255800Y0050800D01*
X0248200Y0050800D01*
X0248200Y0050622D01*
X0248318Y0049876D01*
X0248552Y0049157D01*
X0248895Y0048484D01*
X0249339Y0047873D01*
X0249873Y0047339D01*
X0250484Y0046895D01*
X0249650Y0047561D02*
X0238632Y0047561D01*
X0237034Y0049160D02*
X0248551Y0049160D01*
X0248200Y0050758D02*
X0235435Y0050758D01*
X0233837Y0052357D02*
X0248394Y0052357D01*
X0249214Y0053955D02*
X0232238Y0053955D01*
X0230640Y0055554D02*
X0251482Y0055554D01*
X0252005Y0056000D02*
X0250168Y0056761D01*
X0248761Y0058168D01*
X0248000Y0060005D01*
X0248000Y0061995D01*
X0248761Y0063832D01*
X0250168Y0065239D01*
X0252005Y0066000D01*
X0259995Y0066000D01*
X0261832Y0065239D01*
X0263239Y0063832D01*
X0264000Y0061995D01*
X0264000Y0060005D01*
X0263239Y0058168D01*
X0261832Y0056761D01*
X0259995Y0056000D01*
X0252005Y0056000D01*
X0249777Y0057152D02*
X0229041Y0057152D01*
X0227443Y0058751D02*
X0248520Y0058751D01*
X0248000Y0060349D02*
X0225844Y0060349D01*
X0224246Y0061948D02*
X0248000Y0061948D01*
X0248643Y0063546D02*
X0222647Y0063546D01*
X0221049Y0065145D02*
X0250074Y0065145D01*
X0261926Y0065145D02*
X0304901Y0065145D01*
X0304901Y0066743D02*
X0219450Y0066743D01*
X0217852Y0068342D02*
X0304901Y0068342D01*
X0304901Y0069940D02*
X0216253Y0069940D01*
X0214655Y0071539D02*
X0304901Y0071539D01*
X0304901Y0073137D02*
X0213056Y0073137D01*
X0211458Y0074736D02*
X0304901Y0074736D01*
X0304901Y0076334D02*
X0209859Y0076334D01*
X0208261Y0077933D02*
X0304901Y0077933D01*
X0304901Y0079532D02*
X0206662Y0079532D01*
X0205064Y0081130D02*
X0304901Y0081130D01*
X0304901Y0082729D02*
X0203465Y0082729D01*
X0201867Y0084327D02*
X0304901Y0084327D01*
X0304901Y0085926D02*
X0201700Y0085926D01*
X0201538Y0087524D02*
X0304901Y0087524D01*
X0304901Y0089123D02*
X0200876Y0089123D01*
X0199340Y0090721D02*
X0304901Y0090721D01*
X0304901Y0092320D02*
X0183047Y0092320D01*
X0181449Y0093918D02*
X0304901Y0093918D01*
X0304901Y0095517D02*
X0179850Y0095517D01*
X0178768Y0097115D02*
X0304901Y0097115D01*
X0304901Y0098714D02*
X0178768Y0098714D01*
X0178768Y0100312D02*
X0229837Y0100312D01*
X0229866Y0100300D02*
X0232134Y0100300D01*
X0234229Y0101168D01*
X0235832Y0102771D01*
X0236000Y0103176D01*
X0236168Y0102771D01*
X0237771Y0101168D01*
X0239866Y0100300D01*
X0242134Y0100300D01*
X0244229Y0101168D01*
X0245832Y0102771D01*
X0246700Y0104866D01*
X0246700Y0107134D01*
X0245832Y0109229D01*
X0244229Y0110832D01*
X0242134Y0111700D01*
X0239866Y0111700D01*
X0237771Y0110832D01*
X0236168Y0109229D01*
X0236000Y0108824D01*
X0235832Y0109229D01*
X0234229Y0110832D01*
X0232134Y0111700D01*
X0229866Y0111700D01*
X0227771Y0110832D01*
X0226168Y0109229D01*
X0225300Y0107134D01*
X0225300Y0104866D01*
X0226168Y0102771D01*
X0227771Y0101168D01*
X0229866Y0100300D01*
X0232163Y0100312D02*
X0239837Y0100312D01*
X0242163Y0100312D02*
X0304901Y0100312D01*
X0304901Y0101911D02*
X0244972Y0101911D01*
X0246138Y0103509D02*
X0304901Y0103509D01*
X0304901Y0105108D02*
X0246700Y0105108D01*
X0246700Y0106706D02*
X0304901Y0106706D01*
X0304901Y0108305D02*
X0246215Y0108305D01*
X0245158Y0109903D02*
X0304901Y0109903D01*
X0304901Y0111502D02*
X0242612Y0111502D01*
X0239388Y0111502D02*
X0232612Y0111502D01*
X0235158Y0109903D02*
X0236842Y0109903D01*
X0229388Y0111502D02*
X0178768Y0111502D01*
X0178768Y0113100D02*
X0304901Y0113100D01*
X0304901Y0114699D02*
X0178768Y0114699D01*
X0178768Y0116297D02*
X0304901Y0116297D01*
X0304901Y0117896D02*
X0178768Y0117896D01*
X0178768Y0119494D02*
X0304901Y0119494D01*
X0304901Y0121093D02*
X0244048Y0121093D01*
X0244229Y0121168D02*
X0245832Y0122771D01*
X0246700Y0124866D01*
X0246700Y0127134D01*
X0245832Y0129229D01*
X0244229Y0130832D01*
X0242134Y0131700D01*
X0239866Y0131700D01*
X0237771Y0130832D01*
X0236168Y0129229D01*
X0236000Y0128824D01*
X0235832Y0129229D01*
X0234229Y0130832D01*
X0232134Y0131700D01*
X0229866Y0131700D01*
X0227771Y0130832D01*
X0226168Y0129229D01*
X0225300Y0127134D01*
X0225300Y0124866D01*
X0226168Y0122771D01*
X0227771Y0121168D01*
X0229866Y0120300D01*
X0232134Y0120300D01*
X0234229Y0121168D01*
X0235832Y0122771D01*
X0236000Y0123176D01*
X0236168Y0122771D01*
X0237771Y0121168D01*
X0239866Y0120300D01*
X0242134Y0120300D01*
X0244229Y0121168D01*
X0245752Y0122691D02*
X0304901Y0122691D01*
X0304901Y0124290D02*
X0246461Y0124290D01*
X0246700Y0125888D02*
X0304901Y0125888D01*
X0304901Y0127487D02*
X0246554Y0127487D01*
X0245892Y0129085D02*
X0304901Y0129085D01*
X0304901Y0130684D02*
X0244377Y0130684D01*
X0237623Y0130684D02*
X0234377Y0130684D01*
X0235892Y0129085D02*
X0236108Y0129085D01*
X0227623Y0130684D02*
X0178768Y0130684D01*
X0178768Y0132282D02*
X0304901Y0132282D01*
X0304901Y0133881D02*
X0178768Y0133881D01*
X0178768Y0135479D02*
X0304901Y0135479D01*
X0304901Y0137078D02*
X0178768Y0137078D01*
X0178768Y0138676D02*
X0304901Y0138676D01*
X0304901Y0140275D02*
X0178768Y0140275D01*
X0178768Y0141873D02*
X0304901Y0141873D01*
X0304901Y0143472D02*
X0178768Y0143472D01*
X0178768Y0145070D02*
X0304901Y0145070D01*
X0304901Y0146669D02*
X0178768Y0146669D01*
X0178768Y0148268D02*
X0304901Y0148268D01*
X0304901Y0149866D02*
X0178768Y0149866D01*
X0178768Y0151465D02*
X0304901Y0151465D01*
X0304901Y0153063D02*
X0178768Y0153063D01*
X0178768Y0154662D02*
X0304901Y0154662D01*
X0304901Y0156260D02*
X0180622Y0156260D01*
X0182930Y0157859D02*
X0304901Y0157859D01*
X0304901Y0159457D02*
X0183773Y0159457D01*
X0184000Y0161056D02*
X0304901Y0161056D01*
X0304901Y0162654D02*
X0183727Y0162654D01*
X0182818Y0164253D02*
X0304901Y0164253D01*
X0304901Y0165851D02*
X0180354Y0165851D01*
X0179995Y0166000D02*
X0174446Y0166000D01*
X0174446Y0166000D01*
X0179995Y0166000D01*
X0182521Y0167450D02*
X0304901Y0167450D01*
X0304901Y0169048D02*
X0183603Y0169048D01*
X0184000Y0170647D02*
X0304901Y0170647D01*
X0304901Y0172245D02*
X0183896Y0172245D01*
X0183227Y0173844D02*
X0304901Y0173844D01*
X0304901Y0175442D02*
X0181341Y0175442D01*
X0180843Y0176552D02*
X0180124Y0176318D01*
X0179378Y0176200D01*
X0176200Y0176200D01*
X0176200Y0180800D01*
X0183800Y0180800D01*
X0183800Y0180622D01*
X0183682Y0179876D01*
X0183448Y0179157D01*
X0183105Y0178484D01*
X0182661Y0177873D01*
X0182127Y0177339D01*
X0181516Y0176895D01*
X0180843Y0176552D01*
X0181717Y0177041D02*
X0304901Y0177041D01*
X0304901Y0178639D02*
X0183184Y0178639D01*
X0183739Y0180238D02*
X0304901Y0180238D01*
X0304901Y0181836D02*
X0183727Y0181836D01*
X0183682Y0182124D02*
X0183448Y0182843D01*
X0183105Y0183516D01*
X0182661Y0184127D01*
X0182127Y0184661D01*
X0181516Y0185105D01*
X0180843Y0185448D01*
X0180124Y0185682D01*
X0179378Y0185800D01*
X0176200Y0185800D01*
X0176200Y0181200D01*
X0183800Y0181200D01*
X0183800Y0181378D01*
X0183682Y0182124D01*
X0183147Y0183435D02*
X0304901Y0183435D01*
X0304901Y0185033D02*
X0181615Y0185033D01*
X0181520Y0186632D02*
X0304901Y0186632D01*
X0304901Y0188230D02*
X0183265Y0188230D01*
X0183927Y0189829D02*
X0304901Y0189829D01*
X0304901Y0191427D02*
X0184000Y0191427D01*
X0183573Y0193026D02*
X0304901Y0193026D01*
X0304901Y0194624D02*
X0182447Y0194624D01*
X0176200Y0185033D02*
X0175800Y0185033D01*
X0175800Y0183435D02*
X0176200Y0183435D01*
X0176200Y0181836D02*
X0175800Y0181836D01*
X0175800Y0180238D02*
X0176200Y0180238D01*
X0176200Y0178639D02*
X0175800Y0178639D01*
X0175800Y0177041D02*
X0176200Y0177041D01*
X0159184Y0164253D02*
X0142818Y0164253D01*
X0143727Y0162654D02*
X0160782Y0162654D01*
X0162381Y0161056D02*
X0144000Y0161056D01*
X0143773Y0159457D02*
X0162957Y0159457D01*
X0162957Y0157859D02*
X0142930Y0157859D01*
X0140622Y0156260D02*
X0162957Y0156260D01*
X0162957Y0154662D02*
X0139398Y0154662D01*
X0139398Y0153063D02*
X0162957Y0153063D01*
X0162957Y0151465D02*
X0139398Y0151465D01*
X0139398Y0149866D02*
X0162957Y0149866D01*
X0162957Y0148268D02*
X0139398Y0148268D01*
X0139398Y0146669D02*
X0162957Y0146669D01*
X0162957Y0145070D02*
X0139398Y0145070D01*
X0139398Y0143472D02*
X0162957Y0143472D01*
X0162957Y0141873D02*
X0139398Y0141873D01*
X0139398Y0140275D02*
X0162957Y0140275D01*
X0162957Y0138676D02*
X0139398Y0138676D01*
X0139398Y0137078D02*
X0162957Y0137078D01*
X0162957Y0135479D02*
X0139398Y0135479D01*
X0139398Y0133881D02*
X0162957Y0133881D01*
X0162957Y0132282D02*
X0139398Y0132282D01*
X0139398Y0130684D02*
X0162957Y0130684D01*
X0162957Y0129085D02*
X0139398Y0129085D01*
X0139398Y0127487D02*
X0162957Y0127487D01*
X0162957Y0125888D02*
X0139398Y0125888D01*
X0139398Y0124290D02*
X0162957Y0124290D01*
X0162957Y0122691D02*
X0139398Y0122691D01*
X0139398Y0121093D02*
X0162957Y0121093D01*
X0162957Y0119494D02*
X0139398Y0119494D01*
X0139398Y0117896D02*
X0162957Y0117896D01*
X0162957Y0116297D02*
X0139398Y0116297D01*
X0139398Y0114699D02*
X0162957Y0114699D01*
X0162957Y0113100D02*
X0139398Y0113100D01*
X0139398Y0111502D02*
X0162957Y0111502D01*
X0162957Y0109903D02*
X0139398Y0109903D01*
X0139398Y0108305D02*
X0162957Y0108305D01*
X0162957Y0106706D02*
X0139398Y0106706D01*
X0140732Y0105108D02*
X0162957Y0105108D01*
X0162957Y0103509D02*
X0142330Y0103509D01*
X0143929Y0101911D02*
X0162957Y0101911D01*
X0162957Y0100312D02*
X0145527Y0100312D01*
X0147126Y0098714D02*
X0162957Y0098714D01*
X0178768Y0101911D02*
X0227028Y0101911D01*
X0225862Y0103509D02*
X0178768Y0103509D01*
X0178768Y0105108D02*
X0225300Y0105108D01*
X0225300Y0106706D02*
X0178768Y0106706D01*
X0178768Y0108305D02*
X0225785Y0108305D01*
X0226842Y0109903D02*
X0178768Y0109903D01*
X0178768Y0121093D02*
X0227952Y0121093D01*
X0226248Y0122691D02*
X0178768Y0122691D01*
X0178768Y0124290D02*
X0225539Y0124290D01*
X0225300Y0125888D02*
X0178768Y0125888D01*
X0178768Y0127487D02*
X0225446Y0127487D01*
X0226108Y0129085D02*
X0178768Y0129085D01*
X0134413Y0129085D02*
X0088318Y0129085D01*
X0086720Y0127487D02*
X0134413Y0127487D01*
X0134413Y0125888D02*
X0085121Y0125888D01*
X0083523Y0124290D02*
X0134413Y0124290D01*
X0134413Y0122691D02*
X0081924Y0122691D01*
X0081700Y0121093D02*
X0134413Y0121093D01*
X0134413Y0119494D02*
X0081546Y0119494D01*
X0080884Y0117896D02*
X0134413Y0117896D01*
X0134413Y0116297D02*
X0106904Y0116297D01*
X0108503Y0114699D02*
X0134413Y0114699D01*
X0134413Y0113100D02*
X0110101Y0113100D01*
X0111700Y0111502D02*
X0134413Y0111502D01*
X0134413Y0109903D02*
X0113298Y0109903D01*
X0114897Y0108305D02*
X0134413Y0108305D01*
X0121470Y0089123D02*
X0120876Y0089123D01*
X0107848Y0108305D02*
X0006000Y0108305D01*
X0006000Y0109903D02*
X0106250Y0109903D01*
X0104651Y0111502D02*
X0006000Y0111502D01*
X0069093Y0125888D02*
X0072907Y0125888D01*
X0071229Y0124290D02*
X0070771Y0124290D01*
X0089917Y0130684D02*
X0134413Y0130684D01*
X0134413Y0132282D02*
X0091515Y0132282D01*
X0093114Y0133881D02*
X0134413Y0133881D01*
X0134413Y0135479D02*
X0094712Y0135479D01*
X0096311Y0137078D02*
X0134413Y0137078D01*
X0134413Y0138676D02*
X0097909Y0138676D01*
X0099508Y0140275D02*
X0134413Y0140275D01*
X0134413Y0141873D02*
X0101107Y0141873D01*
X0102705Y0143472D02*
X0134413Y0143472D01*
X0134413Y0145070D02*
X0104304Y0145070D01*
X0105902Y0146669D02*
X0134413Y0146669D01*
X0134413Y0148268D02*
X0107501Y0148268D01*
X0109099Y0149866D02*
X0134413Y0149866D01*
X0134413Y0151465D02*
X0110698Y0151465D01*
X0112296Y0153063D02*
X0134413Y0153063D01*
X0134413Y0154662D02*
X0113895Y0154662D01*
X0115493Y0156260D02*
X0131378Y0156260D01*
X0129070Y0157859D02*
X0117092Y0157859D01*
X0118690Y0159457D02*
X0128227Y0159457D01*
X0128000Y0161056D02*
X0120289Y0161056D01*
X0121887Y0162654D02*
X0128273Y0162654D01*
X0129182Y0164253D02*
X0123486Y0164253D01*
X0125084Y0165851D02*
X0131646Y0165851D01*
X0129479Y0167450D02*
X0126683Y0167450D01*
X0140354Y0165851D02*
X0157585Y0165851D01*
X0155987Y0167450D02*
X0142521Y0167450D01*
X0143603Y0169048D02*
X0154388Y0169048D01*
X0152790Y0170647D02*
X0144000Y0170647D01*
X0143896Y0172245D02*
X0151191Y0172245D01*
X0149593Y0173844D02*
X0143227Y0173844D01*
X0141341Y0175442D02*
X0147994Y0175442D01*
X0146396Y0177041D02*
X0142112Y0177041D01*
X0143434Y0178639D02*
X0144797Y0178639D01*
X0234048Y0121093D02*
X0237952Y0121093D01*
X0236248Y0122691D02*
X0235752Y0122691D01*
X0234972Y0101911D02*
X0237028Y0101911D01*
X0192660Y0090721D02*
X0189340Y0090721D01*
X0190876Y0089123D02*
X0191124Y0089123D01*
X0191210Y0082729D02*
X0190790Y0082729D01*
X0189138Y0081130D02*
X0192862Y0081130D01*
X0182862Y0081130D02*
X0179138Y0081130D01*
X0180790Y0082729D02*
X0181210Y0082729D01*
X0172862Y0081130D02*
X0169138Y0081130D01*
X0170790Y0082729D02*
X0171210Y0082729D01*
X0198643Y0063546D02*
X0113357Y0063546D01*
X0114000Y0061948D02*
X0198000Y0061948D01*
X0198000Y0060349D02*
X0174712Y0060349D01*
X0176030Y0058751D02*
X0198520Y0058751D01*
X0199777Y0057152D02*
X0176692Y0057152D01*
X0176700Y0055554D02*
X0200928Y0055554D01*
X0198884Y0053955D02*
X0176323Y0053955D01*
X0168760Y0050758D02*
X0143335Y0050758D01*
X0143335Y0049160D02*
X0173887Y0049160D01*
X0173914Y0045963D02*
X0201916Y0045963D01*
X0199368Y0047561D02*
X0143335Y0047561D01*
X0143914Y0045963D02*
X0168086Y0045963D01*
X0166303Y0044364D02*
X0145697Y0044364D01*
X0146438Y0042766D02*
X0165562Y0042766D01*
X0165300Y0041167D02*
X0146700Y0041167D01*
X0146577Y0039569D02*
X0165423Y0039569D01*
X0168219Y0034773D02*
X0199702Y0034773D01*
X0198489Y0033175D02*
X0166281Y0033175D01*
X0174433Y0036372D02*
X0201108Y0036372D01*
X0198959Y0037970D02*
X0175915Y0037970D01*
X0175697Y0044364D02*
X0199293Y0044364D01*
X0210892Y0036372D02*
X0251108Y0036372D01*
X0249702Y0034773D02*
X0212298Y0034773D01*
X0213511Y0033175D02*
X0248489Y0033175D01*
X0248000Y0031576D02*
X0214000Y0031576D01*
X0213988Y0029978D02*
X0248011Y0029978D01*
X0248674Y0028379D02*
X0213326Y0028379D01*
X0211852Y0026781D02*
X0250148Y0026781D01*
X0261852Y0026781D02*
X0304901Y0026781D01*
X0304901Y0028379D02*
X0263326Y0028379D01*
X0263988Y0029978D02*
X0304901Y0029978D01*
X0304901Y0031576D02*
X0264000Y0031576D01*
X0263511Y0033175D02*
X0304901Y0033175D01*
X0304901Y0034773D02*
X0262298Y0034773D01*
X0260892Y0036372D02*
X0304901Y0036372D01*
X0304901Y0037970D02*
X0263041Y0037970D01*
X0263819Y0039569D02*
X0304901Y0039569D01*
X0304901Y0041167D02*
X0264000Y0041167D01*
X0263681Y0042766D02*
X0304901Y0042766D01*
X0304901Y0044364D02*
X0262707Y0044364D01*
X0261516Y0046895D02*
X0260843Y0046552D01*
X0260124Y0046318D01*
X0259378Y0046200D01*
X0256200Y0046200D01*
X0256200Y0050800D01*
X0263800Y0050800D01*
X0263800Y0050622D01*
X0263682Y0049876D01*
X0263448Y0049157D01*
X0263105Y0048484D01*
X0262661Y0047873D01*
X0262127Y0047339D01*
X0261516Y0046895D01*
X0262350Y0047561D02*
X0304901Y0047561D01*
X0304901Y0045963D02*
X0260084Y0045963D01*
X0256200Y0047561D02*
X0255800Y0047561D01*
X0255800Y0049160D02*
X0256200Y0049160D01*
X0256200Y0050758D02*
X0255800Y0050758D01*
X0256200Y0051200D02*
X0256200Y0055800D01*
X0259378Y0055800D01*
X0260124Y0055682D01*
X0260843Y0055448D01*
X0261516Y0055105D01*
X0262127Y0054661D01*
X0262661Y0054127D01*
X0263105Y0053516D01*
X0263448Y0052843D01*
X0263682Y0052124D01*
X0263800Y0051378D01*
X0263800Y0051200D01*
X0256200Y0051200D01*
X0256200Y0052357D02*
X0255800Y0052357D01*
X0255800Y0053955D02*
X0256200Y0053955D01*
X0256200Y0055554D02*
X0255800Y0055554D01*
X0260518Y0055554D02*
X0304901Y0055554D01*
X0304901Y0057152D02*
X0262223Y0057152D01*
X0263480Y0058751D02*
X0304901Y0058751D01*
X0304901Y0060349D02*
X0264000Y0060349D01*
X0264000Y0061948D02*
X0304901Y0061948D01*
X0304901Y0063546D02*
X0263357Y0063546D01*
X0262786Y0053955D02*
X0304901Y0053955D01*
X0304901Y0052357D02*
X0263606Y0052357D01*
X0263800Y0050758D02*
X0304901Y0050758D01*
X0304901Y0049160D02*
X0263449Y0049160D01*
X0251916Y0045963D02*
X0240231Y0045963D01*
X0248959Y0037970D02*
X0213041Y0037970D01*
X0198000Y0031576D02*
X0114000Y0031576D01*
X0113988Y0029978D02*
X0198011Y0029978D01*
X0198674Y0028379D02*
X0113326Y0028379D01*
X0111852Y0026781D02*
X0200148Y0026781D01*
X0166582Y0052357D02*
X0145418Y0052357D01*
X0146323Y0053955D02*
X0165677Y0053955D01*
X0165300Y0055554D02*
X0146700Y0055554D01*
X0146692Y0057152D02*
X0165308Y0057152D01*
X0165970Y0058751D02*
X0146030Y0058751D01*
X0144712Y0060349D02*
X0167288Y0060349D01*
X0137288Y0060349D02*
X0114000Y0060349D01*
X0113480Y0058751D02*
X0135970Y0058751D01*
X0136582Y0052357D02*
X0113606Y0052357D01*
X0113800Y0050800D02*
X0106200Y0050800D01*
X0106200Y0051200D01*
X0105800Y0051200D01*
X0105800Y0055800D01*
X0102622Y0055800D01*
X0101876Y0055682D01*
X0101157Y0055448D01*
X0100484Y0055105D01*
X0099873Y0054661D01*
X0099339Y0054127D01*
X0098895Y0053516D01*
X0098552Y0052843D01*
X0098318Y0052124D01*
X0098200Y0051378D01*
X0098200Y0051200D01*
X0105800Y0051200D01*
X0105800Y0050800D01*
X0106200Y0050800D01*
X0106200Y0046200D01*
X0109378Y0046200D01*
X0110124Y0046318D01*
X0110843Y0046552D01*
X0111516Y0046895D01*
X0112127Y0047339D01*
X0112661Y0047873D01*
X0113105Y0048484D01*
X0113448Y0049157D01*
X0113682Y0049876D01*
X0113800Y0050622D01*
X0113800Y0050800D01*
X0113800Y0050758D02*
X0138350Y0050758D01*
X0138350Y0049160D02*
X0113449Y0049160D01*
X0112350Y0047561D02*
X0138350Y0047561D01*
X0138086Y0045963D02*
X0110084Y0045963D01*
X0112707Y0044364D02*
X0136303Y0044364D01*
X0135562Y0042766D02*
X0113681Y0042766D01*
X0114000Y0041167D02*
X0135300Y0041167D01*
X0135423Y0039569D02*
X0113819Y0039569D01*
X0105800Y0046200D02*
X0102622Y0046200D01*
X0101876Y0046318D01*
X0101157Y0046552D01*
X0100484Y0046895D01*
X0099873Y0047339D01*
X0099339Y0047873D01*
X0098895Y0048484D01*
X0098552Y0049157D01*
X0098318Y0049876D01*
X0098200Y0050622D01*
X0098200Y0050800D01*
X0105800Y0050800D01*
X0105800Y0046200D01*
X0105800Y0047561D02*
X0106200Y0047561D01*
X0106200Y0049160D02*
X0105800Y0049160D01*
X0105800Y0050758D02*
X0106200Y0050758D01*
X0106200Y0052357D02*
X0105800Y0052357D01*
X0105800Y0053955D02*
X0106200Y0053955D01*
X0106200Y0055554D02*
X0105800Y0055554D01*
X0101482Y0055554D02*
X0061072Y0055554D01*
X0061832Y0055239D02*
X0059995Y0056000D01*
X0061832Y0056761D01*
X0063239Y0058168D01*
X0064000Y0060005D01*
X0064000Y0061995D01*
X0063239Y0063832D01*
X0061832Y0065239D01*
X0059995Y0066000D01*
X0052005Y0066000D01*
X0050168Y0065239D01*
X0048761Y0063832D01*
X0048000Y0061995D01*
X0048000Y0060005D01*
X0048761Y0058168D01*
X0050168Y0056761D01*
X0052005Y0056000D01*
X0059995Y0056000D01*
X0052005Y0056000D01*
X0050168Y0055239D01*
X0048761Y0053832D01*
X0048000Y0051995D01*
X0048000Y0050005D01*
X0048761Y0048168D01*
X0050168Y0046761D01*
X0052005Y0046000D01*
X0059995Y0046000D01*
X0061832Y0046761D01*
X0063239Y0048168D01*
X0064000Y0050005D01*
X0064000Y0051995D01*
X0063239Y0053832D01*
X0061832Y0055239D01*
X0063116Y0053955D02*
X0099214Y0053955D01*
X0098394Y0052357D02*
X0063850Y0052357D01*
X0064000Y0050758D02*
X0098200Y0050758D01*
X0098551Y0049160D02*
X0063650Y0049160D01*
X0062632Y0047561D02*
X0099650Y0047561D01*
X0101916Y0045963D02*
X0060084Y0045963D01*
X0062707Y0044364D02*
X0099293Y0044364D01*
X0098319Y0042766D02*
X0097470Y0042766D01*
X0097104Y0036372D02*
X0060892Y0036372D01*
X0059995Y0036000D02*
X0061832Y0035239D01*
X0063239Y0033832D01*
X0064000Y0031995D01*
X0064000Y0030005D01*
X0063239Y0028168D01*
X0061832Y0026761D01*
X0059995Y0026000D01*
X0052005Y0026000D01*
X0050168Y0026761D01*
X0048761Y0028168D01*
X0048000Y0030005D01*
X0048000Y0031995D01*
X0048761Y0033832D01*
X0050168Y0035239D01*
X0052005Y0036000D01*
X0059995Y0036000D01*
X0062298Y0034773D02*
X0098702Y0034773D01*
X0098489Y0033175D02*
X0063511Y0033175D01*
X0064000Y0031576D02*
X0098000Y0031576D01*
X0098011Y0029978D02*
X0063988Y0029978D01*
X0063326Y0028379D02*
X0098674Y0028379D01*
X0100148Y0026781D02*
X0061852Y0026781D01*
X0050148Y0026781D02*
X0006000Y0026781D01*
X0006000Y0028379D02*
X0048674Y0028379D01*
X0048011Y0029978D02*
X0006000Y0029978D01*
X0006000Y0031576D02*
X0048000Y0031576D01*
X0048489Y0033175D02*
X0006000Y0033175D01*
X0006000Y0034773D02*
X0049702Y0034773D01*
X0051108Y0036372D02*
X0006000Y0036372D01*
X0006000Y0037970D02*
X0048959Y0037970D01*
X0048181Y0039569D02*
X0006000Y0039569D01*
X0006000Y0041167D02*
X0048000Y0041167D01*
X0048319Y0042766D02*
X0006000Y0042766D01*
X0006000Y0044364D02*
X0049293Y0044364D01*
X0051916Y0045963D02*
X0006000Y0045963D01*
X0006000Y0047561D02*
X0049368Y0047561D01*
X0048350Y0049160D02*
X0006000Y0049160D01*
X0006000Y0050758D02*
X0048000Y0050758D01*
X0048150Y0052357D02*
X0006000Y0052357D01*
X0006000Y0053955D02*
X0048884Y0053955D01*
X0050928Y0055554D02*
X0006000Y0055554D01*
X0006000Y0057152D02*
X0049777Y0057152D01*
X0048520Y0058751D02*
X0006000Y0058751D01*
X0006000Y0060349D02*
X0048000Y0060349D01*
X0048000Y0061948D02*
X0006000Y0061948D01*
X0006000Y0063546D02*
X0048643Y0063546D01*
X0050074Y0065145D02*
X0006000Y0065145D01*
X0061926Y0065145D02*
X0100074Y0065145D01*
X0098643Y0063546D02*
X0063357Y0063546D01*
X0064000Y0061948D02*
X0098000Y0061948D01*
X0098000Y0060349D02*
X0064000Y0060349D01*
X0063480Y0058751D02*
X0098520Y0058751D01*
X0099777Y0057152D02*
X0062223Y0057152D01*
X0111926Y0065145D02*
X0200074Y0065145D01*
X0304901Y0025182D02*
X0006000Y0025182D01*
X0006000Y0023584D02*
X0304901Y0023584D01*
X0304901Y0021985D02*
X0006000Y0021985D01*
X0006000Y0020387D02*
X0304901Y0020387D01*
X0304901Y0018788D02*
X0006000Y0018788D01*
X0006000Y0017190D02*
X0304901Y0017190D01*
X0304901Y0015591D02*
X0006000Y0015591D01*
X0006000Y0013993D02*
X0304901Y0013993D01*
X0304901Y0012394D02*
X0006000Y0012394D01*
X0006000Y0010796D02*
X0304901Y0010796D01*
X0304901Y0009197D02*
X0006000Y0009197D01*
X0006000Y0007599D02*
X0304901Y0007599D01*
X0304901Y0006000D02*
X0006000Y0006000D01*
X0304901Y0006000D01*
X0304901Y0201000D01*
X0006000Y0201000D01*
X0006000Y0006000D01*
X0006000Y0196223D02*
X0304901Y0196223D01*
X0304901Y0197821D02*
X0006000Y0197821D01*
X0006000Y0199420D02*
X0304901Y0199420D01*
D15*
X0301000Y0196000D03*
X0301000Y0011000D03*
X0011000Y0011000D03*
X0011000Y0196000D03*
M02*
