G75*
%MOIN*%
%OFA0B0*%
%FSLAX25Y25*%
%IPPOS*%
%LPD*%
%AMOC8*
5,1,8,0,0,1.08239X$1,22.5*
%
%ADD10C,0.08200*%
%ADD11C,0.06800*%
%ADD12C,0.04762*%
D10*
X0116000Y0086000D03*
X0126000Y0086000D03*
X0136000Y0086000D03*
X0146000Y0086000D03*
X0156000Y0086000D03*
X0166000Y0086000D03*
X0176000Y0086000D03*
X0186000Y0086000D03*
X0196000Y0086000D03*
X0231000Y0106000D03*
X0241000Y0106000D03*
X0241000Y0126000D03*
X0231000Y0126000D03*
X0171000Y0056000D03*
X0171000Y0041000D03*
X0141000Y0041000D03*
X0141000Y0056000D03*
X0076000Y0101000D03*
X0066000Y0101000D03*
X0066000Y0121000D03*
X0076000Y0121000D03*
D11*
X0133000Y0161000D02*
X0139000Y0161000D01*
X0139000Y0171000D02*
X0133000Y0171000D01*
X0133000Y0181000D02*
X0139000Y0181000D01*
X0139000Y0191000D02*
X0133000Y0191000D01*
X0173000Y0191000D02*
X0179000Y0191000D01*
X0179000Y0181000D02*
X0173000Y0181000D01*
X0173000Y0171000D02*
X0179000Y0171000D01*
X0179000Y0161000D02*
X0173000Y0161000D01*
X0203000Y0061000D02*
X0209000Y0061000D01*
X0209000Y0051000D02*
X0203000Y0051000D01*
X0203000Y0041000D02*
X0209000Y0041000D01*
X0209000Y0031000D02*
X0203000Y0031000D01*
X0253000Y0031000D02*
X0259000Y0031000D01*
X0259000Y0041000D02*
X0253000Y0041000D01*
X0253000Y0051000D02*
X0259000Y0051000D01*
X0259000Y0061000D02*
X0253000Y0061000D01*
X0109000Y0061000D02*
X0103000Y0061000D01*
X0103000Y0051000D02*
X0109000Y0051000D01*
X0109000Y0041000D02*
X0103000Y0041000D01*
X0103000Y0031000D02*
X0109000Y0031000D01*
X0059000Y0031000D02*
X0053000Y0031000D01*
X0053000Y0041000D02*
X0059000Y0041000D01*
X0059000Y0051000D02*
X0053000Y0051000D01*
X0053000Y0061000D02*
X0059000Y0061000D01*
D12*
X0011000Y0011000D03*
X0011000Y0196000D03*
X0301000Y0196000D03*
X0301000Y0011000D03*
M02*
