G75*
%MOIN*%
%OFA0B0*%
%FSLAX25Y25*%
%IPPOS*%
%LPD*%
%AMOC8*
5,1,8,0,0,1.08239X$1,22.5*
%
%ADD10C,0.07400*%
%ADD11C,0.06000*%
%ADD12C,0.00984*%
%ADD13C,0.01600*%
%ADD14C,0.03962*%
D10*
X0116000Y0086000D03*
X0126000Y0086000D03*
X0136000Y0086000D03*
X0146000Y0086000D03*
X0156000Y0086000D03*
X0166000Y0086000D03*
X0176000Y0086000D03*
X0186000Y0086000D03*
X0196000Y0086000D03*
X0231000Y0106000D03*
X0241000Y0106000D03*
X0241000Y0126000D03*
X0231000Y0126000D03*
X0171000Y0056000D03*
X0171000Y0041000D03*
X0141000Y0041000D03*
X0141000Y0056000D03*
X0076000Y0101000D03*
X0066000Y0101000D03*
X0066000Y0121000D03*
X0076000Y0121000D03*
D11*
X0133000Y0161000D02*
X0139000Y0161000D01*
X0139000Y0171000D02*
X0133000Y0171000D01*
X0133000Y0181000D02*
X0139000Y0181000D01*
X0139000Y0191000D02*
X0133000Y0191000D01*
X0173000Y0191000D02*
X0179000Y0191000D01*
X0179000Y0181000D02*
X0173000Y0181000D01*
X0173000Y0171000D02*
X0179000Y0171000D01*
X0179000Y0161000D02*
X0173000Y0161000D01*
X0203000Y0061000D02*
X0209000Y0061000D01*
X0209000Y0051000D02*
X0203000Y0051000D01*
X0203000Y0041000D02*
X0209000Y0041000D01*
X0209000Y0031000D02*
X0203000Y0031000D01*
X0253000Y0031000D02*
X0259000Y0031000D01*
X0259000Y0041000D02*
X0253000Y0041000D01*
X0253000Y0051000D02*
X0259000Y0051000D01*
X0259000Y0061000D02*
X0253000Y0061000D01*
X0109000Y0061000D02*
X0103000Y0061000D01*
X0103000Y0051000D02*
X0109000Y0051000D01*
X0109000Y0041000D02*
X0103000Y0041000D01*
X0103000Y0031000D02*
X0109000Y0031000D01*
X0059000Y0031000D02*
X0053000Y0031000D01*
X0053000Y0041000D02*
X0059000Y0041000D01*
X0059000Y0051000D02*
X0053000Y0051000D01*
X0053000Y0061000D02*
X0059000Y0061000D01*
D12*
X0056000Y0051000D02*
X0056197Y0050291D01*
X0096551Y0050291D01*
X0100488Y0046354D01*
X0161512Y0046354D01*
X0170370Y0055213D01*
X0171000Y0056000D01*
X0146748Y0035528D02*
X0141827Y0040449D01*
X0141000Y0041000D01*
X0146748Y0035528D02*
X0210724Y0035528D01*
X0235331Y0060134D01*
X0256000Y0060134D01*
X0256000Y0061000D01*
X0247142Y0081787D02*
X0206787Y0041433D01*
X0206000Y0041000D01*
X0206000Y0051000D02*
X0206787Y0051276D01*
X0240252Y0084740D01*
X0240252Y0105409D01*
X0241000Y0106000D01*
X0247142Y0107378D02*
X0247142Y0081787D01*
X0230409Y0105409D02*
X0231000Y0106000D01*
X0230409Y0105409D02*
X0165449Y0105409D01*
X0146748Y0086709D01*
X0146000Y0086000D01*
X0136906Y0086709D02*
X0136000Y0086000D01*
X0136906Y0086709D02*
X0175291Y0125094D01*
X0230409Y0125094D01*
X0231000Y0126000D01*
X0241000Y0126000D02*
X0241236Y0125094D01*
X0241236Y0113283D01*
X0247142Y0107378D01*
X0175291Y0180213D02*
X0176000Y0181000D01*
X0175291Y0180213D02*
X0126079Y0131000D01*
X0126079Y0086709D01*
X0126000Y0086000D01*
X0125094Y0085724D01*
X0125094Y0069976D01*
X0106394Y0051276D01*
X0106000Y0051000D01*
X0106000Y0061000D02*
X0106394Y0061118D01*
X0106394Y0076866D01*
X0115252Y0085724D01*
X0116000Y0086000D01*
X0116236Y0086709D01*
X0116236Y0131000D01*
X0175291Y0190055D01*
X0176000Y0191000D01*
X0136000Y0181000D02*
X0135921Y0180213D01*
X0131984Y0176276D01*
X0131000Y0176276D01*
X0081787Y0127063D01*
X0081787Y0106394D01*
X0076866Y0101472D01*
X0076000Y0101000D01*
D13*
X0006000Y0006000D02*
X0304901Y0006000D01*
X0006000Y0006000D01*
X0006000Y0201000D01*
X0304901Y0201000D01*
X0304901Y0006000D01*
X0006000Y0006000D01*
X0304901Y0006000D01*
X0304901Y0201000D01*
X0006000Y0201000D01*
X0006000Y0006000D01*
X0006000Y0007599D02*
X0304901Y0007599D01*
X0006000Y0007599D01*
X0006000Y0009197D02*
X0304901Y0009197D01*
X0006000Y0009197D01*
X0006000Y0010796D02*
X0304901Y0010796D01*
X0006000Y0010796D01*
X0006000Y0012394D02*
X0304901Y0012394D01*
X0006000Y0012394D01*
X0006000Y0013993D02*
X0304901Y0013993D01*
X0006000Y0013993D01*
X0006000Y0015591D02*
X0304901Y0015591D01*
X0006000Y0015591D01*
X0006000Y0017190D02*
X0304901Y0017190D01*
X0006000Y0017190D01*
X0006000Y0018788D02*
X0304901Y0018788D01*
X0006000Y0018788D01*
X0006000Y0020387D02*
X0304901Y0020387D01*
X0006000Y0020387D01*
X0006000Y0021985D02*
X0304901Y0021985D01*
X0006000Y0021985D01*
X0006000Y0023584D02*
X0304901Y0023584D01*
X0006000Y0023584D01*
X0006000Y0025182D02*
X0304901Y0025182D01*
X0006000Y0025182D01*
X0006000Y0026781D02*
X0050148Y0026781D01*
X0006000Y0026781D01*
X0006000Y0028379D02*
X0048674Y0028379D01*
X0006000Y0028379D01*
X0006000Y0029978D02*
X0048011Y0029978D01*
X0006000Y0029978D01*
X0006000Y0031576D02*
X0048000Y0031576D01*
X0006000Y0031576D01*
X0006000Y0033175D02*
X0048489Y0033175D01*
X0006000Y0033175D01*
X0006000Y0034773D02*
X0049702Y0034773D01*
X0006000Y0034773D01*
X0006000Y0036372D02*
X0051108Y0036372D01*
X0006000Y0036372D01*
X0006000Y0037970D02*
X0048959Y0037970D01*
X0006000Y0037970D01*
X0006000Y0039569D02*
X0048181Y0039569D01*
X0006000Y0039569D01*
X0006000Y0041167D02*
X0048000Y0041167D01*
X0006000Y0041167D01*
X0006000Y0042766D02*
X0048319Y0042766D01*
X0006000Y0042766D01*
X0006000Y0044364D02*
X0049293Y0044364D01*
X0006000Y0044364D01*
X0006000Y0045963D02*
X0051916Y0045963D01*
X0006000Y0045963D01*
X0006000Y0047561D02*
X0049368Y0047561D01*
X0006000Y0047561D01*
X0006000Y0049160D02*
X0048350Y0049160D01*
X0006000Y0049160D01*
X0006000Y0050758D02*
X0048000Y0050758D01*
X0006000Y0050758D01*
X0006000Y0052357D02*
X0048150Y0052357D01*
X0006000Y0052357D01*
X0006000Y0053955D02*
X0048884Y0053955D01*
X0006000Y0053955D01*
X0006000Y0055554D02*
X0050928Y0055554D01*
X0006000Y0055554D01*
X0006000Y0057152D02*
X0049777Y0057152D01*
X0006000Y0057152D01*
X0006000Y0058751D02*
X0048520Y0058751D01*
X0006000Y0058751D01*
X0006000Y0060349D02*
X0048000Y0060349D01*
X0006000Y0060349D01*
X0006000Y0061948D02*
X0048000Y0061948D01*
X0006000Y0061948D01*
X0006000Y0063546D02*
X0048643Y0063546D01*
X0006000Y0063546D01*
X0006000Y0065145D02*
X0050074Y0065145D01*
X0006000Y0065145D01*
X0006000Y0066743D02*
X0103902Y0066743D01*
X0006000Y0066743D01*
X0006000Y0068342D02*
X0103902Y0068342D01*
X0006000Y0068342D01*
X0006000Y0069940D02*
X0103902Y0069940D01*
X0006000Y0069940D01*
X0006000Y0071539D02*
X0103902Y0071539D01*
X0006000Y0071539D01*
X0006000Y0073137D02*
X0103902Y0073137D01*
X0006000Y0073137D01*
X0006000Y0074736D02*
X0103902Y0074736D01*
X0006000Y0074736D01*
X0006000Y0076334D02*
X0103902Y0076334D01*
X0006000Y0076334D01*
X0006000Y0077933D02*
X0104138Y0077933D01*
X0006000Y0077933D01*
X0006000Y0079532D02*
X0105535Y0079532D01*
X0006000Y0079532D01*
X0006000Y0081130D02*
X0107133Y0081130D01*
X0006000Y0081130D01*
X0006000Y0082729D02*
X0108732Y0082729D01*
X0006000Y0082729D01*
X0006000Y0084327D02*
X0110330Y0084327D01*
X0006000Y0084327D01*
X0006000Y0085926D02*
X0110300Y0085926D01*
X0006000Y0085926D01*
X0006000Y0087524D02*
X0110462Y0087524D01*
X0006000Y0087524D01*
X0006000Y0089123D02*
X0111124Y0089123D01*
X0006000Y0089123D01*
X0006000Y0090721D02*
X0112660Y0090721D01*
X0006000Y0090721D01*
X0006000Y0092320D02*
X0113744Y0092320D01*
X0006000Y0092320D01*
X0006000Y0093918D02*
X0113744Y0093918D01*
X0006000Y0093918D01*
X0006000Y0095517D02*
X0064343Y0095517D01*
X0006000Y0095517D01*
X0006000Y0097115D02*
X0061824Y0097115D01*
X0006000Y0097115D01*
X0006000Y0098714D02*
X0060777Y0098714D01*
X0006000Y0098714D01*
X0006000Y0100312D02*
X0060300Y0100312D01*
X0006000Y0100312D01*
X0006000Y0101911D02*
X0060300Y0101911D01*
X0006000Y0101911D01*
X0006000Y0103509D02*
X0060870Y0103509D01*
X0006000Y0103509D01*
X0006000Y0105108D02*
X0062047Y0105108D01*
X0006000Y0105108D01*
X0006000Y0106706D02*
X0078576Y0106706D01*
X0006000Y0106706D01*
X0006000Y0108305D02*
X0079295Y0108305D01*
X0006000Y0108305D01*
X0006000Y0109903D02*
X0079295Y0109903D01*
X0006000Y0109903D01*
X0006000Y0111502D02*
X0079295Y0111502D01*
X0006000Y0111502D01*
X0006000Y0113100D02*
X0079295Y0113100D01*
X0006000Y0113100D01*
X0006000Y0114699D02*
X0079295Y0114699D01*
X0006000Y0114699D01*
X0006000Y0116297D02*
X0062642Y0116297D01*
X0006000Y0116297D01*
X0006000Y0117896D02*
X0061116Y0117896D01*
X0006000Y0117896D01*
X0006000Y0119494D02*
X0060454Y0119494D01*
X0006000Y0119494D01*
X0006000Y0121093D02*
X0060300Y0121093D01*
X0006000Y0121093D01*
X0006000Y0122691D02*
X0060531Y0122691D01*
X0006000Y0122691D01*
X0006000Y0124290D02*
X0061229Y0124290D01*
X0006000Y0124290D01*
X0006000Y0125888D02*
X0062907Y0125888D01*
X0006000Y0125888D01*
X0006000Y0127487D02*
X0079295Y0127487D01*
X0006000Y0127487D01*
X0006000Y0129085D02*
X0080285Y0129085D01*
X0006000Y0129085D01*
X0006000Y0130684D02*
X0081884Y0130684D01*
X0006000Y0130684D01*
X0006000Y0132282D02*
X0083482Y0132282D01*
X0006000Y0132282D01*
X0006000Y0133881D02*
X0085081Y0133881D01*
X0006000Y0133881D01*
X0006000Y0135479D02*
X0086679Y0135479D01*
X0006000Y0135479D01*
X0006000Y0137078D02*
X0088278Y0137078D01*
X0006000Y0137078D01*
X0006000Y0138676D02*
X0089876Y0138676D01*
X0006000Y0138676D01*
X0006000Y0140275D02*
X0091475Y0140275D01*
X0006000Y0140275D01*
X0006000Y0141873D02*
X0093073Y0141873D01*
X0006000Y0141873D01*
X0006000Y0143472D02*
X0094672Y0143472D01*
X0006000Y0143472D01*
X0006000Y0145070D02*
X0096271Y0145070D01*
X0006000Y0145070D01*
X0006000Y0146669D02*
X0097869Y0146669D01*
X0006000Y0146669D01*
X0006000Y0148268D02*
X0099468Y0148268D01*
X0006000Y0148268D01*
X0006000Y0149866D02*
X0101066Y0149866D01*
X0006000Y0149866D01*
X0006000Y0151465D02*
X0102665Y0151465D01*
X0006000Y0151465D01*
X0006000Y0153063D02*
X0104263Y0153063D01*
X0006000Y0153063D01*
X0006000Y0154662D02*
X0105862Y0154662D01*
X0006000Y0154662D01*
X0006000Y0156260D02*
X0107460Y0156260D01*
X0006000Y0156260D01*
X0006000Y0157859D02*
X0109059Y0157859D01*
X0006000Y0157859D01*
X0006000Y0159457D02*
X0110657Y0159457D01*
X0006000Y0159457D01*
X0006000Y0161056D02*
X0112256Y0161056D01*
X0006000Y0161056D01*
X0006000Y0162654D02*
X0113854Y0162654D01*
X0006000Y0162654D01*
X0006000Y0164253D02*
X0115453Y0164253D01*
X0006000Y0164253D01*
X0006000Y0165851D02*
X0117051Y0165851D01*
X0006000Y0165851D01*
X0006000Y0167450D02*
X0118650Y0167450D01*
X0006000Y0167450D01*
X0006000Y0169048D02*
X0120248Y0169048D01*
X0006000Y0169048D01*
X0006000Y0170647D02*
X0121847Y0170647D01*
X0006000Y0170647D01*
X0006000Y0172245D02*
X0123445Y0172245D01*
X0006000Y0172245D01*
X0006000Y0173844D02*
X0125044Y0173844D01*
X0006000Y0173844D01*
X0006000Y0175442D02*
X0126642Y0175442D01*
X0006000Y0175442D01*
X0006000Y0177041D02*
X0128241Y0177041D01*
X0006000Y0177041D01*
X0006000Y0178639D02*
X0128566Y0178639D01*
X0006000Y0178639D01*
X0006000Y0180238D02*
X0128000Y0180238D01*
X0006000Y0180238D01*
X0006000Y0181836D02*
X0128000Y0181836D01*
X0006000Y0181836D01*
X0006000Y0183435D02*
X0128597Y0183435D01*
X0006000Y0183435D01*
X0006000Y0185033D02*
X0129962Y0185033D01*
X0006000Y0185033D01*
X0006000Y0186632D02*
X0130480Y0186632D01*
X0006000Y0186632D01*
X0006000Y0188230D02*
X0128735Y0188230D01*
X0006000Y0188230D01*
X0006000Y0189829D02*
X0128073Y0189829D01*
X0006000Y0189829D01*
X0006000Y0191427D02*
X0128000Y0191427D01*
X0006000Y0191427D01*
X0006000Y0193026D02*
X0128427Y0193026D01*
X0006000Y0193026D01*
X0006000Y0194624D02*
X0129553Y0194624D01*
X0006000Y0194624D01*
X0006000Y0196223D02*
X0304901Y0196223D01*
X0006000Y0196223D01*
X0006000Y0197821D02*
X0304901Y0197821D01*
X0006000Y0197821D01*
X0006000Y0199420D02*
X0304901Y0199420D01*
X0006000Y0199420D01*
X0095327Y0137078D02*
X0118790Y0137078D01*
X0095327Y0137078D01*
X0096925Y0138676D02*
X0120388Y0138676D01*
X0096925Y0138676D01*
X0098524Y0140275D02*
X0121987Y0140275D01*
X0098524Y0140275D01*
X0100122Y0141873D02*
X0123585Y0141873D01*
X0100122Y0141873D01*
X0101721Y0143472D02*
X0125184Y0143472D01*
X0101721Y0143472D01*
X0103319Y0145070D02*
X0126782Y0145070D01*
X0103319Y0145070D01*
X0104918Y0146669D02*
X0128381Y0146669D01*
X0104918Y0146669D01*
X0106516Y0148268D02*
X0129979Y0148268D01*
X0106516Y0148268D01*
X0108115Y0149866D02*
X0131578Y0149866D01*
X0108115Y0149866D01*
X0109713Y0151465D02*
X0133176Y0151465D01*
X0109713Y0151465D01*
X0111312Y0153063D02*
X0134775Y0153063D01*
X0111312Y0153063D01*
X0112910Y0154662D02*
X0136373Y0154662D01*
X0112910Y0154662D01*
X0114509Y0156260D02*
X0131378Y0156260D01*
X0114509Y0156260D01*
X0116107Y0157859D02*
X0129070Y0157859D01*
X0116107Y0157859D01*
X0117706Y0159457D02*
X0128227Y0159457D01*
X0117706Y0159457D01*
X0119304Y0161056D02*
X0128000Y0161056D01*
X0119304Y0161056D01*
X0120903Y0162654D02*
X0128273Y0162654D01*
X0120903Y0162654D01*
X0122501Y0164253D02*
X0129182Y0164253D01*
X0122501Y0164253D01*
X0124100Y0165851D02*
X0131646Y0165851D01*
X0124100Y0165851D01*
X0125698Y0167450D02*
X0129479Y0167450D01*
X0125698Y0167450D01*
X0127297Y0169048D02*
X0128397Y0169048D01*
X0127297Y0169048D01*
X0128074Y0169826D02*
X0128761Y0168168D01*
X0130168Y0166761D01*
X0132005Y0166000D01*
X0139995Y0166000D01*
X0141832Y0166761D01*
X0143239Y0168168D01*
X0144000Y0170005D01*
X0144000Y0171995D01*
X0143239Y0173832D01*
X0141832Y0175239D01*
X0139995Y0176000D01*
X0141832Y0176761D01*
X0143239Y0178168D01*
X0144000Y0180005D01*
X0144000Y0181995D01*
X0143239Y0183832D01*
X0141832Y0185239D01*
X0139995Y0186000D01*
X0141832Y0186761D01*
X0143239Y0188168D01*
X0144000Y0190005D01*
X0144000Y0191995D01*
X0143239Y0193832D01*
X0141832Y0195239D01*
X0139995Y0196000D01*
X0132005Y0196000D01*
X0130168Y0195239D01*
X0128761Y0193832D01*
X0128000Y0191995D01*
X0128000Y0190005D01*
X0128761Y0188168D01*
X0130168Y0186761D01*
X0132005Y0186000D01*
X0139995Y0186000D01*
X0132005Y0186000D01*
X0130168Y0185239D01*
X0128761Y0183832D01*
X0128000Y0181995D01*
X0128000Y0180005D01*
X0128761Y0178168D01*
X0129064Y0177864D01*
X0080376Y0129176D01*
X0079675Y0128475D01*
X0079295Y0127559D01*
X0079295Y0125766D01*
X0079229Y0125832D01*
X0077134Y0126700D01*
X0074866Y0126700D01*
X0072771Y0125832D01*
X0071168Y0124229D01*
X0071000Y0123824D01*
X0070832Y0124229D01*
X0069229Y0125832D01*
X0067134Y0126700D01*
X0064866Y0126700D01*
X0062771Y0125832D01*
X0061168Y0124229D01*
X0060300Y0122134D01*
X0060300Y0119866D01*
X0061168Y0117771D01*
X0062771Y0116168D01*
X0064866Y0115300D01*
X0067134Y0115300D01*
X0069229Y0116168D01*
X0070832Y0117771D01*
X0071000Y0118176D01*
X0071168Y0117771D01*
X0072771Y0116168D01*
X0074866Y0115300D01*
X0077134Y0115300D01*
X0079229Y0116168D01*
X0079295Y0116234D01*
X0079295Y0107426D01*
X0078149Y0106280D01*
X0077134Y0106700D01*
X0074866Y0106700D01*
X0072771Y0105832D01*
X0071168Y0104229D01*
X0071000Y0103824D01*
X0070832Y0104229D01*
X0069229Y0105832D01*
X0067134Y0106700D01*
X0064866Y0106700D01*
X0062771Y0105832D01*
X0061168Y0104229D01*
X0060300Y0102134D01*
X0060300Y0099866D01*
X0061168Y0097771D01*
X0062771Y0096168D01*
X0064866Y0095300D01*
X0067134Y0095300D01*
X0069229Y0096168D01*
X0070832Y0097771D01*
X0071000Y0098176D01*
X0071168Y0097771D01*
X0072771Y0096168D01*
X0074866Y0095300D01*
X0077134Y0095300D01*
X0079229Y0096168D01*
X0080832Y0097771D01*
X0081700Y0099866D01*
X0081700Y0102134D01*
X0081510Y0102592D01*
X0083900Y0104982D01*
X0084280Y0105898D01*
X0084280Y0126031D01*
X0128074Y0169826D01*
X0128761Y0168168D01*
X0130168Y0166761D01*
X0132005Y0166000D01*
X0130168Y0165239D01*
X0128761Y0163832D01*
X0128000Y0161995D01*
X0128000Y0160005D01*
X0128761Y0158168D01*
X0130168Y0156761D01*
X0132005Y0156000D01*
X0137712Y0156000D01*
X0114825Y0133113D01*
X0114825Y0133113D01*
X0114825Y0133113D01*
X0137712Y0156000D01*
X0132005Y0156000D01*
X0130168Y0156761D01*
X0128761Y0158168D01*
X0128000Y0160005D01*
X0128000Y0161995D01*
X0128761Y0163832D01*
X0130168Y0165239D01*
X0132005Y0166000D01*
X0139995Y0166000D01*
X0141832Y0165239D01*
X0143239Y0163832D01*
X0143914Y0162202D01*
X0169320Y0187609D01*
X0168761Y0188168D01*
X0168000Y0190005D01*
X0168000Y0191995D01*
X0168761Y0193832D01*
X0170168Y0195239D01*
X0172005Y0196000D01*
X0179995Y0196000D01*
X0181832Y0195239D01*
X0183239Y0193832D01*
X0184000Y0191995D01*
X0184000Y0190005D01*
X0183239Y0188168D01*
X0181832Y0186761D01*
X0179995Y0186000D01*
X0174761Y0186000D01*
X0174561Y0185800D01*
X0175800Y0185800D01*
X0175800Y0181200D01*
X0176200Y0181200D01*
X0176200Y0185800D01*
X0179378Y0185800D01*
X0180124Y0185682D01*
X0180843Y0185448D01*
X0181516Y0185105D01*
X0182127Y0184661D01*
X0182661Y0184127D01*
X0183105Y0183516D01*
X0183448Y0182843D01*
X0183682Y0182124D01*
X0183800Y0181378D01*
X0183800Y0181200D01*
X0176200Y0181200D01*
X0176200Y0180800D01*
X0183800Y0180800D01*
X0183800Y0180622D01*
X0183682Y0179876D01*
X0183448Y0179157D01*
X0183105Y0178484D01*
X0182661Y0177873D01*
X0182127Y0177339D01*
X0181516Y0176895D01*
X0180843Y0176552D01*
X0180124Y0176318D01*
X0179378Y0176200D01*
X0176200Y0176200D01*
X0176200Y0180800D01*
X0176200Y0181200D01*
X0175800Y0181200D01*
X0175800Y0185800D01*
X0174561Y0185800D01*
X0174761Y0186000D01*
X0179995Y0186000D01*
X0181832Y0186761D01*
X0183239Y0188168D01*
X0184000Y0190005D01*
X0184000Y0191995D01*
X0183239Y0193832D01*
X0181832Y0195239D01*
X0179995Y0196000D01*
X0172005Y0196000D01*
X0170168Y0195239D01*
X0168761Y0193832D01*
X0168000Y0191995D01*
X0168000Y0190005D01*
X0168761Y0188168D01*
X0169320Y0187609D01*
X0143914Y0162202D01*
X0143239Y0163832D01*
X0141832Y0165239D01*
X0139995Y0166000D01*
X0141832Y0166761D01*
X0143239Y0168168D01*
X0144000Y0170005D01*
X0144000Y0171995D01*
X0143239Y0173832D01*
X0141832Y0175239D01*
X0139995Y0176000D01*
X0135233Y0176000D01*
X0135233Y0176000D01*
X0139995Y0176000D01*
X0141832Y0176761D01*
X0143239Y0178168D01*
X0144000Y0180005D01*
X0144000Y0181995D01*
X0143239Y0183832D01*
X0141832Y0185239D01*
X0139995Y0186000D01*
X0141832Y0186761D01*
X0143239Y0188168D01*
X0144000Y0190005D01*
X0144000Y0191995D01*
X0143239Y0193832D01*
X0141832Y0195239D01*
X0139995Y0196000D01*
X0132005Y0196000D01*
X0130168Y0195239D01*
X0128761Y0193832D01*
X0128000Y0191995D01*
X0128000Y0190005D01*
X0128761Y0188168D01*
X0130168Y0186761D01*
X0132005Y0186000D01*
X0139995Y0186000D01*
X0132005Y0186000D01*
X0130168Y0185239D01*
X0128761Y0183832D01*
X0128000Y0181995D01*
X0128000Y0180005D01*
X0128761Y0178168D01*
X0129064Y0177864D01*
X0080376Y0129176D01*
X0079675Y0128475D01*
X0079295Y0127559D01*
X0079295Y0125766D01*
X0079229Y0125832D01*
X0077134Y0126700D01*
X0074866Y0126700D01*
X0072771Y0125832D01*
X0071168Y0124229D01*
X0071000Y0123824D01*
X0070832Y0124229D01*
X0069229Y0125832D01*
X0067134Y0126700D01*
X0064866Y0126700D01*
X0062771Y0125832D01*
X0061168Y0124229D01*
X0060300Y0122134D01*
X0060300Y0119866D01*
X0061168Y0117771D01*
X0062771Y0116168D01*
X0064866Y0115300D01*
X0067134Y0115300D01*
X0069229Y0116168D01*
X0070832Y0117771D01*
X0071000Y0118176D01*
X0071168Y0117771D01*
X0072771Y0116168D01*
X0074866Y0115300D01*
X0077134Y0115300D01*
X0079229Y0116168D01*
X0079295Y0116234D01*
X0079295Y0107426D01*
X0078149Y0106280D01*
X0077134Y0106700D01*
X0074866Y0106700D01*
X0072771Y0105832D01*
X0071168Y0104229D01*
X0071000Y0103824D01*
X0070832Y0104229D01*
X0069229Y0105832D01*
X0067134Y0106700D01*
X0064866Y0106700D01*
X0062771Y0105832D01*
X0061168Y0104229D01*
X0060300Y0102134D01*
X0060300Y0099866D01*
X0061168Y0097771D01*
X0062771Y0096168D01*
X0064866Y0095300D01*
X0067134Y0095300D01*
X0069229Y0096168D01*
X0070832Y0097771D01*
X0071000Y0098176D01*
X0071168Y0097771D01*
X0072771Y0096168D01*
X0074866Y0095300D01*
X0077134Y0095300D01*
X0079229Y0096168D01*
X0080832Y0097771D01*
X0081700Y0099866D01*
X0081700Y0102134D01*
X0081510Y0102592D01*
X0083900Y0104982D01*
X0084280Y0105898D01*
X0084280Y0126031D01*
X0128074Y0169826D01*
X0132005Y0166000D02*
X0139995Y0166000D01*
X0132005Y0166000D01*
X0140354Y0165851D02*
X0147563Y0165851D01*
X0140354Y0165851D01*
X0142521Y0167450D02*
X0149161Y0167450D01*
X0142521Y0167450D01*
X0143603Y0169048D02*
X0150760Y0169048D01*
X0143603Y0169048D01*
X0144000Y0170647D02*
X0152359Y0170647D01*
X0144000Y0170647D01*
X0143896Y0172245D02*
X0153957Y0172245D01*
X0143896Y0172245D01*
X0143227Y0173844D02*
X0155556Y0173844D01*
X0143227Y0173844D01*
X0141341Y0175442D02*
X0157154Y0175442D01*
X0141341Y0175442D01*
X0139995Y0176000D02*
X0135233Y0176000D01*
X0135233Y0176000D01*
X0139995Y0176000D01*
X0142112Y0177041D02*
X0158753Y0177041D01*
X0142112Y0177041D01*
X0143434Y0178639D02*
X0160351Y0178639D01*
X0143434Y0178639D01*
X0144000Y0180238D02*
X0161950Y0180238D01*
X0144000Y0180238D01*
X0144000Y0181836D02*
X0163548Y0181836D01*
X0144000Y0181836D01*
X0143403Y0183435D02*
X0165147Y0183435D01*
X0143403Y0183435D01*
X0142038Y0185033D02*
X0166745Y0185033D01*
X0142038Y0185033D01*
X0141520Y0186632D02*
X0168344Y0186632D01*
X0141520Y0186632D01*
X0143265Y0188230D02*
X0168735Y0188230D01*
X0143265Y0188230D01*
X0143927Y0189829D02*
X0168073Y0189829D01*
X0143927Y0189829D01*
X0144000Y0191427D02*
X0168000Y0191427D01*
X0144000Y0191427D01*
X0143573Y0193026D02*
X0168427Y0193026D01*
X0143573Y0193026D01*
X0142447Y0194624D02*
X0169553Y0194624D01*
X0142447Y0194624D01*
X0167400Y0178639D02*
X0168816Y0178639D01*
X0167400Y0178639D01*
X0168552Y0179157D02*
X0168895Y0178484D01*
X0169339Y0177873D01*
X0169873Y0177339D01*
X0170484Y0176895D01*
X0171157Y0176552D01*
X0171876Y0176318D01*
X0172622Y0176200D01*
X0175800Y0176200D01*
X0175800Y0180800D01*
X0176200Y0180800D01*
X0183800Y0180800D01*
X0183800Y0180622D01*
X0183682Y0179876D01*
X0183448Y0179157D01*
X0183105Y0178484D01*
X0182661Y0177873D01*
X0182127Y0177339D01*
X0181516Y0176895D01*
X0180843Y0176552D01*
X0180124Y0176318D01*
X0179378Y0176200D01*
X0176200Y0176200D01*
X0176200Y0180800D01*
X0175800Y0180800D01*
X0175800Y0176200D01*
X0172622Y0176200D01*
X0171876Y0176318D01*
X0171157Y0176552D01*
X0170484Y0176895D01*
X0169873Y0177339D01*
X0169339Y0177873D01*
X0168895Y0178484D01*
X0168552Y0179157D01*
X0168396Y0179636D01*
X0118728Y0129968D01*
X0118728Y0091040D01*
X0119229Y0090832D01*
X0120832Y0089229D01*
X0121119Y0088536D01*
X0121296Y0088883D01*
X0121805Y0089583D01*
X0122417Y0090195D01*
X0123117Y0090704D01*
X0123889Y0091097D01*
X0124712Y0091365D01*
X0125567Y0091500D01*
X0125800Y0091500D01*
X0125800Y0086200D01*
X0126200Y0086200D01*
X0126200Y0091500D01*
X0126433Y0091500D01*
X0127288Y0091365D01*
X0128111Y0091097D01*
X0128883Y0090704D01*
X0129583Y0090195D01*
X0130195Y0089583D01*
X0130704Y0088883D01*
X0130881Y0088536D01*
X0131168Y0089229D01*
X0132771Y0090832D01*
X0134866Y0091700D01*
X0137134Y0091700D01*
X0138010Y0091337D01*
X0173880Y0127207D01*
X0174796Y0127587D01*
X0225488Y0127587D01*
X0226168Y0129229D01*
X0227771Y0130832D01*
X0229866Y0131700D01*
X0232134Y0131700D01*
X0234229Y0130832D01*
X0235832Y0129229D01*
X0236000Y0128824D01*
X0236168Y0129229D01*
X0237771Y0130832D01*
X0239866Y0131700D01*
X0242134Y0131700D01*
X0244229Y0130832D01*
X0245832Y0129229D01*
X0246700Y0127134D01*
X0246700Y0124866D01*
X0245832Y0122771D01*
X0244229Y0121168D01*
X0243728Y0120960D01*
X0243728Y0114316D01*
X0248553Y0109491D01*
X0249254Y0108790D01*
X0249634Y0107874D01*
X0249634Y0081292D01*
X0249254Y0080376D01*
X0212975Y0044096D01*
X0213239Y0043832D01*
X0213902Y0042230D01*
X0233919Y0062247D01*
X0234835Y0062626D01*
X0248262Y0062626D01*
X0248761Y0063832D01*
X0250168Y0065239D01*
X0252005Y0066000D01*
X0259995Y0066000D01*
X0261832Y0065239D01*
X0263239Y0063832D01*
X0264000Y0061995D01*
X0264000Y0060005D01*
X0263239Y0058168D01*
X0261832Y0056761D01*
X0259995Y0056000D01*
X0252005Y0056000D01*
X0250168Y0056761D01*
X0249287Y0057642D01*
X0236363Y0057642D01*
X0212896Y0034175D01*
X0213239Y0033832D01*
X0214000Y0031995D01*
X0214000Y0030005D01*
X0213239Y0028168D01*
X0211832Y0026761D01*
X0209995Y0026000D01*
X0202005Y0026000D01*
X0200168Y0026761D01*
X0198761Y0028168D01*
X0198000Y0030005D01*
X0198000Y0031995D01*
X0198431Y0033035D01*
X0146252Y0033035D01*
X0145336Y0033415D01*
X0143065Y0035686D01*
X0142134Y0035300D01*
X0139866Y0035300D01*
X0137771Y0036168D01*
X0136168Y0037771D01*
X0135300Y0039866D01*
X0135300Y0042134D01*
X0136016Y0043862D01*
X0113209Y0043862D01*
X0113239Y0043832D01*
X0114000Y0041995D01*
X0114000Y0040005D01*
X0113239Y0038168D01*
X0111832Y0036761D01*
X0109995Y0036000D01*
X0111832Y0035239D01*
X0113239Y0033832D01*
X0114000Y0031995D01*
X0114000Y0030005D01*
X0113239Y0028168D01*
X0111832Y0026761D01*
X0109995Y0026000D01*
X0102005Y0026000D01*
X0100168Y0026761D01*
X0098761Y0028168D01*
X0098000Y0030005D01*
X0098000Y0031995D01*
X0098761Y0033832D01*
X0100168Y0035239D01*
X0102005Y0036000D01*
X0109995Y0036000D01*
X0102005Y0036000D01*
X0100168Y0036761D01*
X0098761Y0038168D01*
X0098000Y0040005D01*
X0098000Y0041995D01*
X0098761Y0043832D01*
X0099143Y0044214D01*
X0099077Y0044242D01*
X0098375Y0044943D01*
X0095519Y0047799D01*
X0062870Y0047799D01*
X0061832Y0046761D01*
X0059995Y0046000D01*
X0061832Y0045239D01*
X0063239Y0043832D01*
X0064000Y0041995D01*
X0064000Y0040005D01*
X0063239Y0038168D01*
X0061832Y0036761D01*
X0059995Y0036000D01*
X0052005Y0036000D01*
X0050168Y0036761D01*
X0048761Y0038168D01*
X0048000Y0040005D01*
X0048000Y0041995D01*
X0048761Y0043832D01*
X0050168Y0045239D01*
X0052005Y0046000D01*
X0059995Y0046000D01*
X0052005Y0046000D01*
X0050168Y0046761D01*
X0048761Y0048168D01*
X0048000Y0050005D01*
X0048000Y0051995D01*
X0048761Y0053832D01*
X0050168Y0055239D01*
X0052005Y0056000D01*
X0059995Y0056000D01*
X0061832Y0056761D01*
X0063239Y0058168D01*
X0064000Y0060005D01*
X0064000Y0061995D01*
X0063239Y0063832D01*
X0061832Y0065239D01*
X0059995Y0066000D01*
X0052005Y0066000D01*
X0050168Y0065239D01*
X0048761Y0063832D01*
X0048000Y0061995D01*
X0048000Y0060005D01*
X0048761Y0058168D01*
X0050168Y0056761D01*
X0052005Y0056000D01*
X0059995Y0056000D01*
X0061832Y0055239D01*
X0063239Y0053832D01*
X0063673Y0052783D01*
X0097047Y0052783D01*
X0097963Y0052404D01*
X0098308Y0052059D01*
X0098318Y0052124D01*
X0098552Y0052843D01*
X0098895Y0053516D01*
X0099339Y0054127D01*
X0099873Y0054661D01*
X0100484Y0055105D01*
X0101157Y0055448D01*
X0101876Y0055682D01*
X0102622Y0055800D01*
X0105800Y0055800D01*
X0105800Y0051200D01*
X0106200Y0051200D01*
X0106200Y0055800D01*
X0109378Y0055800D01*
X0110124Y0055682D01*
X0110843Y0055448D01*
X0111516Y0055105D01*
X0112127Y0054661D01*
X0112661Y0054127D01*
X0113105Y0053516D01*
X0113448Y0052843D01*
X0113682Y0052124D01*
X0113800Y0051378D01*
X0113800Y0051200D01*
X0106200Y0051200D01*
X0106200Y0050800D01*
X0113800Y0050800D01*
X0113800Y0050622D01*
X0113682Y0049876D01*
X0113448Y0049157D01*
X0113290Y0048846D01*
X0160480Y0048846D01*
X0165651Y0054018D01*
X0165300Y0054866D01*
X0165300Y0057134D01*
X0166168Y0059229D01*
X0167771Y0060832D01*
X0169866Y0061700D01*
X0172134Y0061700D01*
X0174229Y0060832D01*
X0175832Y0059229D01*
X0176700Y0057134D01*
X0176700Y0054866D01*
X0175832Y0052771D01*
X0174229Y0051168D01*
X0172134Y0050300D01*
X0169866Y0050300D01*
X0169241Y0050559D01*
X0162923Y0044242D01*
X0162008Y0043862D01*
X0145984Y0043862D01*
X0146700Y0042134D01*
X0146700Y0039866D01*
X0146476Y0039324D01*
X0147780Y0038020D01*
X0166065Y0038020D01*
X0165300Y0039866D01*
X0165300Y0042134D01*
X0166168Y0044229D01*
X0167771Y0045832D01*
X0169866Y0046700D01*
X0172134Y0046700D01*
X0174229Y0045832D01*
X0175832Y0044229D01*
X0176700Y0042134D01*
X0176700Y0039866D01*
X0175935Y0038020D01*
X0198909Y0038020D01*
X0198761Y0038168D01*
X0198000Y0040005D01*
X0198000Y0041995D01*
X0198761Y0043832D01*
X0200168Y0045239D01*
X0202005Y0046000D01*
X0207830Y0046000D01*
X0207830Y0046000D01*
X0202005Y0046000D01*
X0200168Y0046761D01*
X0198761Y0048168D01*
X0198000Y0050005D01*
X0198000Y0051995D01*
X0198761Y0053832D01*
X0200168Y0055239D01*
X0202005Y0056000D01*
X0207987Y0056000D01*
X0207987Y0056000D01*
X0202005Y0056000D01*
X0207987Y0056000D01*
X0207987Y0056000D01*
X0202005Y0056000D01*
X0200168Y0056761D01*
X0198761Y0058168D01*
X0198000Y0060005D01*
X0198000Y0061995D01*
X0198761Y0063832D01*
X0200168Y0065239D01*
X0202005Y0066000D01*
X0209995Y0066000D01*
X0211832Y0065239D01*
X0213239Y0063832D01*
X0213995Y0062007D01*
X0237760Y0085772D01*
X0237760Y0101179D01*
X0236168Y0102771D01*
X0236000Y0103176D01*
X0235832Y0102771D01*
X0234229Y0101168D01*
X0232134Y0100300D01*
X0229866Y0100300D01*
X0227771Y0101168D01*
X0226168Y0102771D01*
X0226107Y0102917D01*
X0166481Y0102917D01*
X0155264Y0091700D01*
X0157134Y0091700D01*
X0159229Y0090832D01*
X0160832Y0089229D01*
X0161000Y0088824D01*
X0161168Y0089229D01*
X0162771Y0090832D01*
X0164866Y0091700D01*
X0167134Y0091700D01*
X0169229Y0090832D01*
X0170832Y0089229D01*
X0171000Y0088824D01*
X0171168Y0089229D01*
X0172771Y0090832D01*
X0174866Y0091700D01*
X0177134Y0091700D01*
X0179229Y0090832D01*
X0180832Y0089229D01*
X0181000Y0088824D01*
X0181168Y0089229D01*
X0182771Y0090832D01*
X0184866Y0091700D01*
X0187134Y0091700D01*
X0189229Y0090832D01*
X0190832Y0089229D01*
X0191000Y0088824D01*
X0191168Y0089229D01*
X0192771Y0090832D01*
X0194866Y0091700D01*
X0197134Y0091700D01*
X0199229Y0090832D01*
X0200832Y0089229D01*
X0201700Y0087134D01*
X0201700Y0084866D01*
X0200832Y0082771D01*
X0199229Y0081168D01*
X0197134Y0080300D01*
X0194866Y0080300D01*
X0192771Y0081168D01*
X0191168Y0082771D01*
X0191000Y0083176D01*
X0190832Y0082771D01*
X0189229Y0081168D01*
X0187134Y0080300D01*
X0184866Y0080300D01*
X0182771Y0081168D01*
X0181168Y0082771D01*
X0181000Y0083176D01*
X0180832Y0082771D01*
X0179229Y0081168D01*
X0177134Y0080300D01*
X0174866Y0080300D01*
X0172771Y0081168D01*
X0171168Y0082771D01*
X0171000Y0083176D01*
X0170832Y0082771D01*
X0169229Y0081168D01*
X0167134Y0080300D01*
X0164866Y0080300D01*
X0162771Y0081168D01*
X0161168Y0082771D01*
X0161000Y0083176D01*
X0160832Y0082771D01*
X0159229Y0081168D01*
X0157134Y0080300D01*
X0154866Y0080300D01*
X0152771Y0081168D01*
X0151168Y0082771D01*
X0151000Y0083176D01*
X0150832Y0082771D01*
X0149229Y0081168D01*
X0147134Y0080300D01*
X0144866Y0080300D01*
X0142771Y0081168D01*
X0141168Y0082771D01*
X0141000Y0083176D01*
X0140832Y0082771D01*
X0139229Y0081168D01*
X0137134Y0080300D01*
X0134866Y0080300D01*
X0132771Y0081168D01*
X0131168Y0082771D01*
X0130881Y0083464D01*
X0130704Y0083117D01*
X0130195Y0082417D01*
X0129583Y0081805D01*
X0128883Y0081296D01*
X0128111Y0080903D01*
X0127288Y0080635D01*
X0126433Y0080500D01*
X0126200Y0080500D01*
X0126200Y0085800D01*
X0125800Y0085800D01*
X0125800Y0080500D01*
X0125567Y0080500D01*
X0124712Y0080635D01*
X0123889Y0080903D01*
X0123117Y0081296D01*
X0122417Y0081805D01*
X0121805Y0082417D01*
X0121296Y0083117D01*
X0121119Y0083464D01*
X0120832Y0082771D01*
X0119229Y0081168D01*
X0117134Y0080300D01*
X0114866Y0080300D01*
X0113795Y0080744D01*
X0108886Y0075834D01*
X0108886Y0066000D01*
X0109995Y0066000D01*
X0111832Y0065239D01*
X0113239Y0063832D01*
X0114000Y0061995D01*
X0114000Y0060005D01*
X0113239Y0058168D01*
X0111832Y0056761D01*
X0109995Y0056000D01*
X0102005Y0056000D01*
X0100168Y0056761D01*
X0098761Y0058168D01*
X0098000Y0060005D01*
X0098000Y0061995D01*
X0098761Y0063832D01*
X0100168Y0065239D01*
X0102005Y0066000D01*
X0103902Y0066000D01*
X0103902Y0077362D01*
X0104281Y0078278D01*
X0110467Y0084464D01*
X0110300Y0084866D01*
X0110300Y0087134D01*
X0111168Y0089229D01*
X0112771Y0090832D01*
X0113744Y0091235D01*
X0113744Y0131496D01*
X0114123Y0132412D01*
X0114825Y0133113D01*
X0114123Y0132412D01*
X0113744Y0131496D01*
X0113744Y0091235D01*
X0112771Y0090832D01*
X0111168Y0089229D01*
X0110300Y0087134D01*
X0110300Y0084866D01*
X0110467Y0084464D01*
X0104281Y0078278D01*
X0103902Y0077362D01*
X0103902Y0066000D01*
X0102005Y0066000D01*
X0100168Y0065239D01*
X0098761Y0063832D01*
X0098000Y0061995D01*
X0098000Y0060005D01*
X0098761Y0058168D01*
X0100168Y0056761D01*
X0102005Y0056000D01*
X0109995Y0056000D01*
X0111832Y0056761D01*
X0113239Y0058168D01*
X0114000Y0060005D01*
X0114000Y0061995D01*
X0113239Y0063832D01*
X0111832Y0065239D01*
X0109995Y0066000D01*
X0108886Y0066000D01*
X0108886Y0075834D01*
X0113795Y0080744D01*
X0114866Y0080300D01*
X0117134Y0080300D01*
X0119229Y0081168D01*
X0120832Y0082771D01*
X0121119Y0083464D01*
X0121296Y0083117D01*
X0121805Y0082417D01*
X0122417Y0081805D01*
X0123117Y0081296D01*
X0123889Y0080903D01*
X0124712Y0080635D01*
X0125567Y0080500D01*
X0125800Y0080500D01*
X0125800Y0085800D01*
X0126200Y0085800D01*
X0126200Y0080500D01*
X0126433Y0080500D01*
X0127288Y0080635D01*
X0128111Y0080903D01*
X0128883Y0081296D01*
X0129583Y0081805D01*
X0130195Y0082417D01*
X0130704Y0083117D01*
X0130881Y0083464D01*
X0131168Y0082771D01*
X0132771Y0081168D01*
X0134866Y0080300D01*
X0137134Y0080300D01*
X0139229Y0081168D01*
X0140832Y0082771D01*
X0141000Y0083176D01*
X0141168Y0082771D01*
X0142771Y0081168D01*
X0144866Y0080300D01*
X0147134Y0080300D01*
X0149229Y0081168D01*
X0150832Y0082771D01*
X0151000Y0083176D01*
X0151168Y0082771D01*
X0152771Y0081168D01*
X0154866Y0080300D01*
X0157134Y0080300D01*
X0159229Y0081168D01*
X0160832Y0082771D01*
X0161000Y0083176D01*
X0161168Y0082771D01*
X0162771Y0081168D01*
X0164866Y0080300D01*
X0167134Y0080300D01*
X0169229Y0081168D01*
X0170832Y0082771D01*
X0171000Y0083176D01*
X0171168Y0082771D01*
X0172771Y0081168D01*
X0174866Y0080300D01*
X0177134Y0080300D01*
X0179229Y0081168D01*
X0180832Y0082771D01*
X0181000Y0083176D01*
X0181168Y0082771D01*
X0182771Y0081168D01*
X0184866Y0080300D01*
X0187134Y0080300D01*
X0189229Y0081168D01*
X0190832Y0082771D01*
X0191000Y0083176D01*
X0191168Y0082771D01*
X0192771Y0081168D01*
X0194866Y0080300D01*
X0197134Y0080300D01*
X0199229Y0081168D01*
X0200832Y0082771D01*
X0201700Y0084866D01*
X0201700Y0087134D01*
X0200832Y0089229D01*
X0199229Y0090832D01*
X0197134Y0091700D01*
X0194866Y0091700D01*
X0192771Y0090832D01*
X0191168Y0089229D01*
X0191000Y0088824D01*
X0190832Y0089229D01*
X0189229Y0090832D01*
X0187134Y0091700D01*
X0184866Y0091700D01*
X0182771Y0090832D01*
X0181168Y0089229D01*
X0181000Y0088824D01*
X0180832Y0089229D01*
X0179229Y0090832D01*
X0177134Y0091700D01*
X0174866Y0091700D01*
X0172771Y0090832D01*
X0171168Y0089229D01*
X0171000Y0088824D01*
X0170832Y0089229D01*
X0169229Y0090832D01*
X0167134Y0091700D01*
X0164866Y0091700D01*
X0162771Y0090832D01*
X0161168Y0089229D01*
X0161000Y0088824D01*
X0160832Y0089229D01*
X0159229Y0090832D01*
X0157134Y0091700D01*
X0155264Y0091700D01*
X0166481Y0102917D01*
X0226107Y0102917D01*
X0226168Y0102771D01*
X0227771Y0101168D01*
X0229866Y0100300D01*
X0232134Y0100300D01*
X0234229Y0101168D01*
X0235832Y0102771D01*
X0236000Y0103176D01*
X0236168Y0102771D01*
X0237760Y0101179D01*
X0237760Y0085772D01*
X0213995Y0062007D01*
X0213239Y0063832D01*
X0211832Y0065239D01*
X0209995Y0066000D01*
X0202005Y0066000D01*
X0200168Y0065239D01*
X0198761Y0063832D01*
X0198000Y0061995D01*
X0198000Y0060005D01*
X0198761Y0058168D01*
X0200168Y0056761D01*
X0202005Y0056000D01*
X0200168Y0055239D01*
X0198761Y0053832D01*
X0198000Y0051995D01*
X0198000Y0050005D01*
X0198761Y0048168D01*
X0200168Y0046761D01*
X0202005Y0046000D01*
X0200168Y0045239D01*
X0198761Y0043832D01*
X0198000Y0041995D01*
X0198000Y0040005D01*
X0198761Y0038168D01*
X0198909Y0038020D01*
X0175935Y0038020D01*
X0176700Y0039866D01*
X0176700Y0042134D01*
X0175832Y0044229D01*
X0174229Y0045832D01*
X0172134Y0046700D01*
X0169866Y0046700D01*
X0167771Y0045832D01*
X0166168Y0044229D01*
X0165300Y0042134D01*
X0165300Y0039866D01*
X0166065Y0038020D01*
X0147780Y0038020D01*
X0146476Y0039324D01*
X0146700Y0039866D01*
X0146700Y0042134D01*
X0145984Y0043862D01*
X0162008Y0043862D01*
X0162923Y0044242D01*
X0169241Y0050559D01*
X0169866Y0050300D01*
X0172134Y0050300D01*
X0174229Y0051168D01*
X0175832Y0052771D01*
X0176700Y0054866D01*
X0176700Y0057134D01*
X0175832Y0059229D01*
X0174229Y0060832D01*
X0172134Y0061700D01*
X0169866Y0061700D01*
X0167771Y0060832D01*
X0166168Y0059229D01*
X0165300Y0057134D01*
X0165300Y0054866D01*
X0165651Y0054018D01*
X0160480Y0048846D01*
X0113290Y0048846D01*
X0113448Y0049157D01*
X0113682Y0049876D01*
X0113800Y0050622D01*
X0113800Y0050800D01*
X0106200Y0050800D01*
X0106200Y0051200D01*
X0105800Y0051200D01*
X0105800Y0055800D01*
X0102622Y0055800D01*
X0101876Y0055682D01*
X0101157Y0055448D01*
X0100484Y0055105D01*
X0099873Y0054661D01*
X0099339Y0054127D01*
X0098895Y0053516D01*
X0098552Y0052843D01*
X0098318Y0052124D01*
X0098308Y0052059D01*
X0097963Y0052404D01*
X0097047Y0052783D01*
X0063673Y0052783D01*
X0063239Y0053832D01*
X0061832Y0055239D01*
X0059995Y0056000D01*
X0061832Y0056761D01*
X0063239Y0058168D01*
X0064000Y0060005D01*
X0064000Y0061995D01*
X0063239Y0063832D01*
X0061832Y0065239D01*
X0059995Y0066000D01*
X0052005Y0066000D01*
X0050168Y0065239D01*
X0048761Y0063832D01*
X0048000Y0061995D01*
X0048000Y0060005D01*
X0048761Y0058168D01*
X0050168Y0056761D01*
X0052005Y0056000D01*
X0059995Y0056000D01*
X0052005Y0056000D01*
X0050168Y0055239D01*
X0048761Y0053832D01*
X0048000Y0051995D01*
X0048000Y0050005D01*
X0048761Y0048168D01*
X0050168Y0046761D01*
X0052005Y0046000D01*
X0050168Y0045239D01*
X0048761Y0043832D01*
X0048000Y0041995D01*
X0048000Y0040005D01*
X0048761Y0038168D01*
X0050168Y0036761D01*
X0052005Y0036000D01*
X0050168Y0035239D01*
X0048761Y0033832D01*
X0048000Y0031995D01*
X0048000Y0030005D01*
X0048761Y0028168D01*
X0050168Y0026761D01*
X0052005Y0026000D01*
X0059995Y0026000D01*
X0061832Y0026761D01*
X0063239Y0028168D01*
X0064000Y0030005D01*
X0064000Y0031995D01*
X0063239Y0033832D01*
X0061832Y0035239D01*
X0059995Y0036000D01*
X0052005Y0036000D01*
X0059995Y0036000D01*
X0061832Y0036761D01*
X0063239Y0038168D01*
X0064000Y0040005D01*
X0064000Y0041995D01*
X0063239Y0043832D01*
X0061832Y0045239D01*
X0059995Y0046000D01*
X0052005Y0046000D01*
X0059995Y0046000D01*
X0061832Y0046761D01*
X0062870Y0047799D01*
X0095519Y0047799D01*
X0098375Y0044943D01*
X0099077Y0044242D01*
X0099143Y0044214D01*
X0098761Y0043832D01*
X0098000Y0041995D01*
X0098000Y0040005D01*
X0098761Y0038168D01*
X0100168Y0036761D01*
X0102005Y0036000D01*
X0100168Y0035239D01*
X0098761Y0033832D01*
X0098000Y0031995D01*
X0098000Y0030005D01*
X0098761Y0028168D01*
X0100168Y0026761D01*
X0102005Y0026000D01*
X0109995Y0026000D01*
X0111832Y0026761D01*
X0113239Y0028168D01*
X0114000Y0030005D01*
X0114000Y0031995D01*
X0113239Y0033832D01*
X0111832Y0035239D01*
X0109995Y0036000D01*
X0102005Y0036000D01*
X0109995Y0036000D01*
X0111832Y0036761D01*
X0113239Y0038168D01*
X0114000Y0040005D01*
X0114000Y0041995D01*
X0113239Y0043832D01*
X0113209Y0043862D01*
X0136016Y0043862D01*
X0135300Y0042134D01*
X0135300Y0039866D01*
X0136168Y0037771D01*
X0137771Y0036168D01*
X0139866Y0035300D01*
X0142134Y0035300D01*
X0143065Y0035686D01*
X0145336Y0033415D01*
X0146252Y0033035D01*
X0198431Y0033035D01*
X0198000Y0031995D01*
X0198000Y0030005D01*
X0198761Y0028168D01*
X0200168Y0026761D01*
X0202005Y0026000D01*
X0209995Y0026000D01*
X0211832Y0026761D01*
X0213239Y0028168D01*
X0214000Y0030005D01*
X0214000Y0031995D01*
X0213239Y0033832D01*
X0212896Y0034175D01*
X0236363Y0057642D01*
X0249287Y0057642D01*
X0250168Y0056761D01*
X0252005Y0056000D01*
X0259995Y0056000D01*
X0261832Y0056761D01*
X0263239Y0058168D01*
X0264000Y0060005D01*
X0264000Y0061995D01*
X0263239Y0063832D01*
X0261832Y0065239D01*
X0259995Y0066000D01*
X0252005Y0066000D01*
X0250168Y0065239D01*
X0248761Y0063832D01*
X0248262Y0062626D01*
X0234835Y0062626D01*
X0233919Y0062247D01*
X0213902Y0042230D01*
X0213239Y0043832D01*
X0212975Y0044096D01*
X0249254Y0080376D01*
X0249634Y0081292D01*
X0249634Y0107874D01*
X0249254Y0108790D01*
X0248553Y0109491D01*
X0243728Y0114316D01*
X0243728Y0120960D01*
X0244229Y0121168D01*
X0245832Y0122771D01*
X0246700Y0124866D01*
X0246700Y0127134D01*
X0245832Y0129229D01*
X0244229Y0130832D01*
X0242134Y0131700D01*
X0239866Y0131700D01*
X0237771Y0130832D01*
X0236168Y0129229D01*
X0236000Y0128824D01*
X0235832Y0129229D01*
X0234229Y0130832D01*
X0232134Y0131700D01*
X0229866Y0131700D01*
X0227771Y0130832D01*
X0226168Y0129229D01*
X0225488Y0127587D01*
X0174796Y0127587D01*
X0173880Y0127207D01*
X0138010Y0091337D01*
X0137134Y0091700D01*
X0134866Y0091700D01*
X0132771Y0090832D01*
X0131168Y0089229D01*
X0130881Y0088536D01*
X0130704Y0088883D01*
X0130195Y0089583D01*
X0129583Y0090195D01*
X0128883Y0090704D01*
X0128111Y0091097D01*
X0127288Y0091365D01*
X0126433Y0091500D01*
X0126200Y0091500D01*
X0126200Y0086200D01*
X0125800Y0086200D01*
X0125800Y0091500D01*
X0125567Y0091500D01*
X0124712Y0091365D01*
X0123889Y0091097D01*
X0123117Y0090704D01*
X0122417Y0090195D01*
X0121805Y0089583D01*
X0121296Y0088883D01*
X0121119Y0088536D01*
X0120832Y0089229D01*
X0119229Y0090832D01*
X0118728Y0091040D01*
X0118728Y0129968D01*
X0168396Y0179636D01*
X0168552Y0179157D01*
X0170283Y0177041D02*
X0165801Y0177041D01*
X0170283Y0177041D01*
X0170659Y0175442D02*
X0164203Y0175442D01*
X0170659Y0175442D01*
X0170168Y0175239D02*
X0168761Y0173832D01*
X0168000Y0171995D01*
X0168000Y0170005D01*
X0168761Y0168168D01*
X0170168Y0166761D01*
X0172005Y0166000D01*
X0170168Y0165239D01*
X0168761Y0163832D01*
X0168000Y0161995D01*
X0168000Y0160005D01*
X0168761Y0158168D01*
X0170168Y0156761D01*
X0172005Y0156000D01*
X0179995Y0156000D01*
X0181832Y0156761D01*
X0183239Y0158168D01*
X0184000Y0160005D01*
X0184000Y0161995D01*
X0183239Y0163832D01*
X0181832Y0165239D01*
X0179995Y0166000D01*
X0172005Y0166000D01*
X0179995Y0166000D01*
X0181832Y0166761D01*
X0183239Y0168168D01*
X0184000Y0170005D01*
X0184000Y0171995D01*
X0183239Y0173832D01*
X0181832Y0175239D01*
X0179995Y0176000D01*
X0172005Y0176000D01*
X0170168Y0175239D01*
X0168761Y0173832D01*
X0168000Y0171995D01*
X0168000Y0170005D01*
X0168761Y0168168D01*
X0170168Y0166761D01*
X0172005Y0166000D01*
X0170168Y0165239D01*
X0168761Y0163832D01*
X0168000Y0161995D01*
X0168000Y0160005D01*
X0168761Y0158168D01*
X0170168Y0156761D01*
X0172005Y0156000D01*
X0179995Y0156000D01*
X0181832Y0156761D01*
X0183239Y0158168D01*
X0184000Y0160005D01*
X0184000Y0161995D01*
X0183239Y0163832D01*
X0181832Y0165239D01*
X0179995Y0166000D01*
X0172005Y0166000D01*
X0179995Y0166000D01*
X0181832Y0166761D01*
X0183239Y0168168D01*
X0184000Y0170005D01*
X0184000Y0171995D01*
X0183239Y0173832D01*
X0181832Y0175239D01*
X0179995Y0176000D01*
X0172005Y0176000D01*
X0170168Y0175239D01*
X0168773Y0173844D02*
X0162604Y0173844D01*
X0168773Y0173844D01*
X0168104Y0172245D02*
X0161006Y0172245D01*
X0168104Y0172245D01*
X0168000Y0170647D02*
X0159407Y0170647D01*
X0168000Y0170647D01*
X0168397Y0169048D02*
X0157809Y0169048D01*
X0168397Y0169048D01*
X0169479Y0167450D02*
X0156210Y0167450D01*
X0169479Y0167450D01*
X0171646Y0165851D02*
X0154612Y0165851D01*
X0171646Y0165851D01*
X0169182Y0164253D02*
X0153013Y0164253D01*
X0169182Y0164253D01*
X0168273Y0162654D02*
X0151415Y0162654D01*
X0168273Y0162654D01*
X0168000Y0161056D02*
X0149816Y0161056D01*
X0168000Y0161056D01*
X0168227Y0159457D02*
X0148218Y0159457D01*
X0168227Y0159457D01*
X0169070Y0157859D02*
X0146619Y0157859D01*
X0169070Y0157859D01*
X0171378Y0156260D02*
X0145021Y0156260D01*
X0171378Y0156260D01*
X0180622Y0156260D02*
X0304901Y0156260D01*
X0180622Y0156260D01*
X0182930Y0157859D02*
X0304901Y0157859D01*
X0182930Y0157859D01*
X0183773Y0159457D02*
X0304901Y0159457D01*
X0183773Y0159457D01*
X0184000Y0161056D02*
X0304901Y0161056D01*
X0184000Y0161056D01*
X0183727Y0162654D02*
X0304901Y0162654D01*
X0183727Y0162654D01*
X0182818Y0164253D02*
X0304901Y0164253D01*
X0182818Y0164253D01*
X0180354Y0165851D02*
X0304901Y0165851D01*
X0180354Y0165851D01*
X0182521Y0167450D02*
X0304901Y0167450D01*
X0182521Y0167450D01*
X0183603Y0169048D02*
X0304901Y0169048D01*
X0183603Y0169048D01*
X0184000Y0170647D02*
X0304901Y0170647D01*
X0184000Y0170647D01*
X0183896Y0172245D02*
X0304901Y0172245D01*
X0183896Y0172245D01*
X0183227Y0173844D02*
X0304901Y0173844D01*
X0183227Y0173844D01*
X0181341Y0175442D02*
X0304901Y0175442D01*
X0181341Y0175442D01*
X0181717Y0177041D02*
X0304901Y0177041D01*
X0181717Y0177041D01*
X0183184Y0178639D02*
X0304901Y0178639D01*
X0183184Y0178639D01*
X0183739Y0180238D02*
X0304901Y0180238D01*
X0183739Y0180238D01*
X0183800Y0181200D02*
X0183800Y0181378D01*
X0183682Y0182124D01*
X0183448Y0182843D01*
X0183105Y0183516D01*
X0182661Y0184127D01*
X0182127Y0184661D01*
X0181516Y0185105D01*
X0180843Y0185448D01*
X0180124Y0185682D01*
X0179378Y0185800D01*
X0176200Y0185800D01*
X0176200Y0181200D01*
X0183800Y0181200D01*
X0183727Y0181836D02*
X0304901Y0181836D01*
X0183727Y0181836D01*
X0183147Y0183435D02*
X0304901Y0183435D01*
X0183147Y0183435D01*
X0181615Y0185033D02*
X0304901Y0185033D01*
X0181615Y0185033D01*
X0181520Y0186632D02*
X0304901Y0186632D01*
X0181520Y0186632D01*
X0183265Y0188230D02*
X0304901Y0188230D01*
X0183265Y0188230D01*
X0183927Y0189829D02*
X0304901Y0189829D01*
X0183927Y0189829D01*
X0184000Y0191427D02*
X0304901Y0191427D01*
X0184000Y0191427D01*
X0183573Y0193026D02*
X0304901Y0193026D01*
X0183573Y0193026D01*
X0182447Y0194624D02*
X0304901Y0194624D01*
X0182447Y0194624D01*
X0176200Y0185033D02*
X0175800Y0185033D01*
X0176200Y0185033D01*
X0176200Y0183435D02*
X0175800Y0183435D01*
X0176200Y0183435D01*
X0176200Y0181836D02*
X0175800Y0181836D01*
X0176200Y0181836D01*
X0176200Y0180238D02*
X0175800Y0180238D01*
X0176200Y0180238D01*
X0176200Y0178639D02*
X0175800Y0178639D01*
X0176200Y0178639D01*
X0176200Y0177041D02*
X0175800Y0177041D01*
X0176200Y0177041D01*
X0145964Y0164253D02*
X0142818Y0164253D01*
X0145964Y0164253D01*
X0144366Y0162654D02*
X0143727Y0162654D01*
X0144366Y0162654D01*
X0143422Y0154662D02*
X0304901Y0154662D01*
X0143422Y0154662D01*
X0141824Y0153063D02*
X0304901Y0153063D01*
X0141824Y0153063D01*
X0140225Y0151465D02*
X0304901Y0151465D01*
X0140225Y0151465D01*
X0138627Y0149866D02*
X0304901Y0149866D01*
X0138627Y0149866D01*
X0137028Y0148268D02*
X0304901Y0148268D01*
X0137028Y0148268D01*
X0135430Y0146669D02*
X0304901Y0146669D01*
X0135430Y0146669D01*
X0133831Y0145070D02*
X0304901Y0145070D01*
X0133831Y0145070D01*
X0132233Y0143472D02*
X0304901Y0143472D01*
X0132233Y0143472D01*
X0130634Y0141873D02*
X0304901Y0141873D01*
X0130634Y0141873D01*
X0129036Y0140275D02*
X0304901Y0140275D01*
X0129036Y0140275D01*
X0127437Y0138676D02*
X0304901Y0138676D01*
X0127437Y0138676D01*
X0125839Y0137078D02*
X0304901Y0137078D01*
X0125839Y0137078D01*
X0124240Y0135479D02*
X0304901Y0135479D01*
X0124240Y0135479D01*
X0122641Y0133881D02*
X0304901Y0133881D01*
X0122641Y0133881D01*
X0121043Y0132282D02*
X0304901Y0132282D01*
X0121043Y0132282D01*
X0119444Y0130684D02*
X0227623Y0130684D01*
X0119444Y0130684D01*
X0118728Y0129085D02*
X0226108Y0129085D01*
X0118728Y0129085D01*
X0118728Y0127487D02*
X0174555Y0127487D01*
X0118728Y0127487D01*
X0118728Y0125888D02*
X0172561Y0125888D01*
X0118728Y0125888D01*
X0118728Y0124290D02*
X0170962Y0124290D01*
X0118728Y0124290D01*
X0118728Y0122691D02*
X0169364Y0122691D01*
X0118728Y0122691D01*
X0118728Y0121093D02*
X0167765Y0121093D01*
X0118728Y0121093D01*
X0118728Y0119494D02*
X0166167Y0119494D01*
X0118728Y0119494D01*
X0118728Y0117896D02*
X0164568Y0117896D01*
X0118728Y0117896D01*
X0118728Y0116297D02*
X0162970Y0116297D01*
X0118728Y0116297D01*
X0118728Y0114699D02*
X0161371Y0114699D01*
X0118728Y0114699D01*
X0118728Y0113100D02*
X0159773Y0113100D01*
X0118728Y0113100D01*
X0118728Y0111502D02*
X0158174Y0111502D01*
X0118728Y0111502D01*
X0118728Y0109903D02*
X0156576Y0109903D01*
X0118728Y0109903D01*
X0118728Y0108305D02*
X0154977Y0108305D01*
X0118728Y0108305D01*
X0118728Y0106706D02*
X0153379Y0106706D01*
X0118728Y0106706D01*
X0118728Y0105108D02*
X0151780Y0105108D01*
X0118728Y0105108D01*
X0118728Y0103509D02*
X0150182Y0103509D01*
X0118728Y0103509D01*
X0118728Y0101911D02*
X0148583Y0101911D01*
X0118728Y0101911D01*
X0118728Y0100312D02*
X0146985Y0100312D01*
X0118728Y0100312D01*
X0118728Y0098714D02*
X0145386Y0098714D01*
X0118728Y0098714D01*
X0118728Y0097115D02*
X0143788Y0097115D01*
X0118728Y0097115D01*
X0118728Y0095517D02*
X0142189Y0095517D01*
X0118728Y0095517D01*
X0118728Y0093918D02*
X0140591Y0093918D01*
X0118728Y0093918D01*
X0118728Y0092320D02*
X0138992Y0092320D01*
X0118728Y0092320D01*
X0119340Y0090721D02*
X0123151Y0090721D01*
X0119340Y0090721D01*
X0120876Y0089123D02*
X0121470Y0089123D01*
X0120876Y0089123D01*
X0125800Y0089123D02*
X0126200Y0089123D01*
X0125800Y0089123D01*
X0125800Y0090721D02*
X0126200Y0090721D01*
X0125800Y0090721D01*
X0128849Y0090721D02*
X0132660Y0090721D01*
X0128849Y0090721D01*
X0130530Y0089123D02*
X0131124Y0089123D01*
X0130530Y0089123D01*
X0126200Y0087524D02*
X0125800Y0087524D01*
X0126200Y0087524D01*
X0126200Y0084327D02*
X0125800Y0084327D01*
X0126200Y0084327D01*
X0126200Y0082729D02*
X0125800Y0082729D01*
X0126200Y0082729D01*
X0126200Y0081130D02*
X0125800Y0081130D01*
X0126200Y0081130D01*
X0128557Y0081130D02*
X0132862Y0081130D01*
X0128557Y0081130D01*
X0130422Y0082729D02*
X0131210Y0082729D01*
X0130422Y0082729D01*
X0123443Y0081130D02*
X0119138Y0081130D01*
X0123443Y0081130D01*
X0121578Y0082729D02*
X0120790Y0082729D01*
X0121578Y0082729D01*
X0112583Y0079532D02*
X0231519Y0079532D01*
X0112583Y0079532D01*
X0110985Y0077933D02*
X0229920Y0077933D01*
X0110985Y0077933D01*
X0109386Y0076334D02*
X0228322Y0076334D01*
X0109386Y0076334D01*
X0108886Y0074736D02*
X0226723Y0074736D01*
X0108886Y0074736D01*
X0108886Y0073137D02*
X0225125Y0073137D01*
X0108886Y0073137D01*
X0108886Y0071539D02*
X0223526Y0071539D01*
X0108886Y0071539D01*
X0108886Y0069940D02*
X0221928Y0069940D01*
X0108886Y0069940D01*
X0108886Y0068342D02*
X0220329Y0068342D01*
X0108886Y0068342D01*
X0108886Y0066743D02*
X0218731Y0066743D01*
X0108886Y0066743D01*
X0111926Y0065145D02*
X0200074Y0065145D01*
X0111926Y0065145D01*
X0113357Y0063546D02*
X0198643Y0063546D01*
X0113357Y0063546D01*
X0114000Y0061948D02*
X0198000Y0061948D01*
X0114000Y0061948D01*
X0114000Y0060349D02*
X0137288Y0060349D01*
X0114000Y0060349D01*
X0113480Y0058751D02*
X0135970Y0058751D01*
X0113480Y0058751D01*
X0112223Y0057152D02*
X0135308Y0057152D01*
X0112223Y0057152D01*
X0111516Y0055105D02*
X0110843Y0055448D01*
X0110124Y0055682D01*
X0109378Y0055800D01*
X0106200Y0055800D01*
X0106200Y0051200D01*
X0113800Y0051200D01*
X0113800Y0051378D01*
X0113682Y0052124D01*
X0113448Y0052843D01*
X0113105Y0053516D01*
X0112661Y0054127D01*
X0112127Y0054661D01*
X0111516Y0055105D01*
X0110518Y0055554D02*
X0135300Y0055554D01*
X0110518Y0055554D01*
X0112786Y0053955D02*
X0135677Y0053955D01*
X0112786Y0053955D01*
X0113606Y0052357D02*
X0136582Y0052357D01*
X0113606Y0052357D01*
X0113800Y0050758D02*
X0138760Y0050758D01*
X0113800Y0050758D01*
X0113449Y0049160D02*
X0160793Y0049160D01*
X0113449Y0049160D01*
X0106200Y0052357D02*
X0105800Y0052357D01*
X0106200Y0052357D01*
X0106200Y0053955D02*
X0105800Y0053955D01*
X0106200Y0053955D01*
X0106200Y0055554D02*
X0105800Y0055554D01*
X0106200Y0055554D01*
X0101482Y0055554D02*
X0061072Y0055554D01*
X0101482Y0055554D01*
X0099777Y0057152D02*
X0062223Y0057152D01*
X0099777Y0057152D01*
X0098520Y0058751D02*
X0063480Y0058751D01*
X0098520Y0058751D01*
X0098000Y0060349D02*
X0064000Y0060349D01*
X0098000Y0060349D01*
X0098000Y0061948D02*
X0064000Y0061948D01*
X0098000Y0061948D01*
X0098643Y0063546D02*
X0063357Y0063546D01*
X0098643Y0063546D01*
X0100074Y0065145D02*
X0061926Y0065145D01*
X0100074Y0065145D01*
X0099214Y0053955D02*
X0063116Y0053955D01*
X0099214Y0053955D01*
X0098394Y0052357D02*
X0098010Y0052357D01*
X0098394Y0052357D01*
X0095757Y0047561D02*
X0062632Y0047561D01*
X0095757Y0047561D01*
X0097355Y0045963D02*
X0060084Y0045963D01*
X0097355Y0045963D01*
X0098954Y0044364D02*
X0062707Y0044364D01*
X0098954Y0044364D01*
X0098319Y0042766D02*
X0063681Y0042766D01*
X0098319Y0042766D01*
X0098000Y0041167D02*
X0064000Y0041167D01*
X0098000Y0041167D01*
X0098181Y0039569D02*
X0063819Y0039569D01*
X0098181Y0039569D01*
X0098959Y0037970D02*
X0063041Y0037970D01*
X0098959Y0037970D01*
X0101108Y0036372D02*
X0060892Y0036372D01*
X0101108Y0036372D01*
X0099702Y0034773D02*
X0062298Y0034773D01*
X0099702Y0034773D01*
X0098489Y0033175D02*
X0063511Y0033175D01*
X0098489Y0033175D01*
X0098000Y0031576D02*
X0064000Y0031576D01*
X0098000Y0031576D01*
X0098011Y0029978D02*
X0063988Y0029978D01*
X0098011Y0029978D01*
X0098674Y0028379D02*
X0063326Y0028379D01*
X0098674Y0028379D01*
X0100148Y0026781D02*
X0061852Y0026781D01*
X0100148Y0026781D01*
X0111852Y0026781D02*
X0200148Y0026781D01*
X0111852Y0026781D01*
X0113326Y0028379D02*
X0198674Y0028379D01*
X0113326Y0028379D01*
X0113988Y0029978D02*
X0198011Y0029978D01*
X0113988Y0029978D01*
X0114000Y0031576D02*
X0198000Y0031576D01*
X0114000Y0031576D01*
X0113511Y0033175D02*
X0145916Y0033175D01*
X0113511Y0033175D01*
X0112298Y0034773D02*
X0143978Y0034773D01*
X0112298Y0034773D01*
X0110892Y0036372D02*
X0137567Y0036372D01*
X0110892Y0036372D01*
X0113041Y0037970D02*
X0136085Y0037970D01*
X0113041Y0037970D01*
X0113819Y0039569D02*
X0135423Y0039569D01*
X0113819Y0039569D01*
X0114000Y0041167D02*
X0135300Y0041167D01*
X0114000Y0041167D01*
X0113681Y0042766D02*
X0135562Y0042766D01*
X0113681Y0042766D01*
X0136168Y0052771D02*
X0137771Y0051168D01*
X0139866Y0050300D01*
X0142134Y0050300D01*
X0144229Y0051168D01*
X0145832Y0052771D01*
X0146700Y0054866D01*
X0146700Y0057134D01*
X0145832Y0059229D01*
X0144229Y0060832D01*
X0142134Y0061700D01*
X0139866Y0061700D01*
X0137771Y0060832D01*
X0136168Y0059229D01*
X0135300Y0057134D01*
X0135300Y0054866D01*
X0136168Y0052771D01*
X0137771Y0051168D01*
X0139866Y0050300D01*
X0142134Y0050300D01*
X0144229Y0051168D01*
X0145832Y0052771D01*
X0146700Y0054866D01*
X0146700Y0057134D01*
X0145832Y0059229D01*
X0144229Y0060832D01*
X0142134Y0061700D01*
X0139866Y0061700D01*
X0137771Y0060832D01*
X0136168Y0059229D01*
X0135300Y0057134D01*
X0135300Y0054866D01*
X0136168Y0052771D01*
X0143240Y0050758D02*
X0162391Y0050758D01*
X0143240Y0050758D01*
X0145418Y0052357D02*
X0163990Y0052357D01*
X0145418Y0052357D01*
X0146323Y0053955D02*
X0165588Y0053955D01*
X0146323Y0053955D01*
X0146700Y0055554D02*
X0165300Y0055554D01*
X0146700Y0055554D01*
X0146692Y0057152D02*
X0165308Y0057152D01*
X0146692Y0057152D01*
X0146030Y0058751D02*
X0165970Y0058751D01*
X0146030Y0058751D01*
X0144712Y0060349D02*
X0167288Y0060349D01*
X0144712Y0060349D01*
X0164645Y0045963D02*
X0168086Y0045963D01*
X0164645Y0045963D01*
X0166243Y0047561D02*
X0199368Y0047561D01*
X0166243Y0047561D01*
X0167842Y0049160D02*
X0198350Y0049160D01*
X0167842Y0049160D01*
X0173240Y0050758D02*
X0198000Y0050758D01*
X0173240Y0050758D01*
X0175418Y0052357D02*
X0198150Y0052357D01*
X0175418Y0052357D01*
X0176323Y0053955D02*
X0198884Y0053955D01*
X0176323Y0053955D01*
X0176700Y0055554D02*
X0200928Y0055554D01*
X0176700Y0055554D01*
X0176692Y0057152D02*
X0199777Y0057152D01*
X0176692Y0057152D01*
X0176030Y0058751D02*
X0198520Y0058751D01*
X0176030Y0058751D01*
X0174712Y0060349D02*
X0198000Y0060349D01*
X0174712Y0060349D01*
X0173914Y0045963D02*
X0201916Y0045963D01*
X0173914Y0045963D01*
X0175697Y0044364D02*
X0199293Y0044364D01*
X0175697Y0044364D01*
X0176438Y0042766D02*
X0198319Y0042766D01*
X0176438Y0042766D01*
X0176700Y0041167D02*
X0198000Y0041167D01*
X0176700Y0041167D01*
X0176577Y0039569D02*
X0198181Y0039569D01*
X0176577Y0039569D01*
X0165423Y0039569D02*
X0146577Y0039569D01*
X0165423Y0039569D01*
X0165300Y0041167D02*
X0146700Y0041167D01*
X0165300Y0041167D01*
X0165562Y0042766D02*
X0146438Y0042766D01*
X0165562Y0042766D01*
X0166303Y0044364D02*
X0163046Y0044364D01*
X0166303Y0044364D01*
X0202005Y0046000D02*
X0207830Y0046000D01*
X0207830Y0046000D01*
X0202005Y0046000D01*
X0213243Y0044364D02*
X0216037Y0044364D01*
X0213243Y0044364D01*
X0213681Y0042766D02*
X0214438Y0042766D01*
X0213681Y0042766D01*
X0214841Y0045963D02*
X0217635Y0045963D01*
X0214841Y0045963D01*
X0216440Y0047561D02*
X0219234Y0047561D01*
X0216440Y0047561D01*
X0218039Y0049160D02*
X0220832Y0049160D01*
X0218039Y0049160D01*
X0219637Y0050758D02*
X0222431Y0050758D01*
X0219637Y0050758D01*
X0221236Y0052357D02*
X0224029Y0052357D01*
X0221236Y0052357D01*
X0222834Y0053955D02*
X0225628Y0053955D01*
X0222834Y0053955D01*
X0224433Y0055554D02*
X0227226Y0055554D01*
X0224433Y0055554D01*
X0226031Y0057152D02*
X0228825Y0057152D01*
X0226031Y0057152D01*
X0227630Y0058751D02*
X0230423Y0058751D01*
X0227630Y0058751D01*
X0229228Y0060349D02*
X0232022Y0060349D01*
X0229228Y0060349D01*
X0230827Y0061948D02*
X0233620Y0061948D01*
X0230827Y0061948D01*
X0232425Y0063546D02*
X0248643Y0063546D01*
X0232425Y0063546D01*
X0234024Y0065145D02*
X0250074Y0065145D01*
X0234024Y0065145D01*
X0235622Y0066743D02*
X0304901Y0066743D01*
X0235622Y0066743D01*
X0237221Y0068342D02*
X0304901Y0068342D01*
X0237221Y0068342D01*
X0238819Y0069940D02*
X0304901Y0069940D01*
X0238819Y0069940D01*
X0240418Y0071539D02*
X0304901Y0071539D01*
X0240418Y0071539D01*
X0242016Y0073137D02*
X0304901Y0073137D01*
X0242016Y0073137D01*
X0243615Y0074736D02*
X0304901Y0074736D01*
X0243615Y0074736D01*
X0245213Y0076334D02*
X0304901Y0076334D01*
X0245213Y0076334D01*
X0246812Y0077933D02*
X0304901Y0077933D01*
X0246812Y0077933D01*
X0248410Y0079532D02*
X0304901Y0079532D01*
X0248410Y0079532D01*
X0249567Y0081130D02*
X0304901Y0081130D01*
X0249567Y0081130D01*
X0249634Y0082729D02*
X0304901Y0082729D01*
X0249634Y0082729D01*
X0249634Y0084327D02*
X0304901Y0084327D01*
X0249634Y0084327D01*
X0249634Y0085926D02*
X0304901Y0085926D01*
X0249634Y0085926D01*
X0249634Y0087524D02*
X0304901Y0087524D01*
X0249634Y0087524D01*
X0249634Y0089123D02*
X0304901Y0089123D01*
X0249634Y0089123D01*
X0249634Y0090721D02*
X0304901Y0090721D01*
X0249634Y0090721D01*
X0249634Y0092320D02*
X0304901Y0092320D01*
X0249634Y0092320D01*
X0249634Y0093918D02*
X0304901Y0093918D01*
X0249634Y0093918D01*
X0249634Y0095517D02*
X0304901Y0095517D01*
X0249634Y0095517D01*
X0249634Y0097115D02*
X0304901Y0097115D01*
X0249634Y0097115D01*
X0249634Y0098714D02*
X0304901Y0098714D01*
X0249634Y0098714D01*
X0249634Y0100312D02*
X0304901Y0100312D01*
X0249634Y0100312D01*
X0249634Y0101911D02*
X0304901Y0101911D01*
X0249634Y0101911D01*
X0249634Y0103509D02*
X0304901Y0103509D01*
X0249634Y0103509D01*
X0249634Y0105108D02*
X0304901Y0105108D01*
X0249634Y0105108D01*
X0249634Y0106706D02*
X0304901Y0106706D01*
X0249634Y0106706D01*
X0249455Y0108305D02*
X0304901Y0108305D01*
X0249455Y0108305D01*
X0248141Y0109903D02*
X0304901Y0109903D01*
X0248141Y0109903D01*
X0246542Y0111502D02*
X0304901Y0111502D01*
X0246542Y0111502D01*
X0244944Y0113100D02*
X0304901Y0113100D01*
X0244944Y0113100D01*
X0243728Y0114699D02*
X0304901Y0114699D01*
X0243728Y0114699D01*
X0243728Y0116297D02*
X0304901Y0116297D01*
X0243728Y0116297D01*
X0243728Y0117896D02*
X0304901Y0117896D01*
X0243728Y0117896D01*
X0243728Y0119494D02*
X0304901Y0119494D01*
X0243728Y0119494D01*
X0244048Y0121093D02*
X0304901Y0121093D01*
X0244048Y0121093D01*
X0245752Y0122691D02*
X0304901Y0122691D01*
X0245752Y0122691D01*
X0246461Y0124290D02*
X0304901Y0124290D01*
X0246461Y0124290D01*
X0246700Y0125888D02*
X0304901Y0125888D01*
X0246700Y0125888D01*
X0246554Y0127487D02*
X0304901Y0127487D01*
X0246554Y0127487D01*
X0245892Y0129085D02*
X0304901Y0129085D01*
X0245892Y0129085D01*
X0244377Y0130684D02*
X0304901Y0130684D01*
X0244377Y0130684D01*
X0237623Y0130684D02*
X0234377Y0130684D01*
X0237623Y0130684D01*
X0236108Y0129085D02*
X0235892Y0129085D01*
X0236108Y0129085D01*
X0237028Y0101911D02*
X0234972Y0101911D01*
X0237028Y0101911D01*
X0237760Y0100312D02*
X0232163Y0100312D01*
X0237760Y0100312D01*
X0237760Y0098714D02*
X0162277Y0098714D01*
X0237760Y0098714D01*
X0237760Y0097115D02*
X0160679Y0097115D01*
X0237760Y0097115D01*
X0237760Y0095517D02*
X0159080Y0095517D01*
X0237760Y0095517D01*
X0237760Y0093918D02*
X0157482Y0093918D01*
X0237760Y0093918D01*
X0237760Y0092320D02*
X0155883Y0092320D01*
X0237760Y0092320D01*
X0237760Y0090721D02*
X0199340Y0090721D01*
X0237760Y0090721D01*
X0237760Y0089123D02*
X0200876Y0089123D01*
X0237760Y0089123D01*
X0237760Y0087524D02*
X0201538Y0087524D01*
X0237760Y0087524D01*
X0237760Y0085926D02*
X0201700Y0085926D01*
X0237760Y0085926D01*
X0236314Y0084327D02*
X0201477Y0084327D01*
X0236314Y0084327D01*
X0234716Y0082729D02*
X0200790Y0082729D01*
X0234716Y0082729D01*
X0233117Y0081130D02*
X0199138Y0081130D01*
X0233117Y0081130D01*
X0217132Y0065145D02*
X0211926Y0065145D01*
X0217132Y0065145D01*
X0215534Y0063546D02*
X0213357Y0063546D01*
X0215534Y0063546D01*
X0231078Y0052357D02*
X0248394Y0052357D01*
X0231078Y0052357D01*
X0232677Y0053955D02*
X0249214Y0053955D01*
X0232677Y0053955D01*
X0234275Y0055554D02*
X0251482Y0055554D01*
X0234275Y0055554D01*
X0235874Y0057152D02*
X0249777Y0057152D01*
X0235874Y0057152D01*
X0229480Y0050758D02*
X0248200Y0050758D01*
X0229480Y0050758D01*
X0227881Y0049160D02*
X0248551Y0049160D01*
X0227881Y0049160D01*
X0226283Y0047561D02*
X0249650Y0047561D01*
X0226283Y0047561D01*
X0224684Y0045963D02*
X0251916Y0045963D01*
X0224684Y0045963D01*
X0223086Y0044364D02*
X0249293Y0044364D01*
X0223086Y0044364D01*
X0221487Y0042766D02*
X0248319Y0042766D01*
X0221487Y0042766D01*
X0219888Y0041167D02*
X0248000Y0041167D01*
X0219888Y0041167D01*
X0218290Y0039569D02*
X0248181Y0039569D01*
X0218290Y0039569D01*
X0216691Y0037970D02*
X0248959Y0037970D01*
X0216691Y0037970D01*
X0215093Y0036372D02*
X0251108Y0036372D01*
X0215093Y0036372D01*
X0213494Y0034773D02*
X0249702Y0034773D01*
X0213494Y0034773D01*
X0213511Y0033175D02*
X0248489Y0033175D01*
X0213511Y0033175D01*
X0214000Y0031576D02*
X0248000Y0031576D01*
X0214000Y0031576D01*
X0213988Y0029978D02*
X0248011Y0029978D01*
X0213988Y0029978D01*
X0213326Y0028379D02*
X0248674Y0028379D01*
X0213326Y0028379D01*
X0211852Y0026781D02*
X0250148Y0026781D01*
X0211852Y0026781D01*
X0248000Y0030005D02*
X0248761Y0028168D01*
X0250168Y0026761D01*
X0252005Y0026000D01*
X0259995Y0026000D01*
X0261832Y0026761D01*
X0263239Y0028168D01*
X0264000Y0030005D01*
X0264000Y0031995D01*
X0263239Y0033832D01*
X0261832Y0035239D01*
X0259995Y0036000D01*
X0261832Y0036761D01*
X0263239Y0038168D01*
X0264000Y0040005D01*
X0264000Y0041995D01*
X0263239Y0043832D01*
X0261832Y0045239D01*
X0259995Y0046000D01*
X0252005Y0046000D01*
X0250168Y0045239D01*
X0248761Y0043832D01*
X0248000Y0041995D01*
X0248000Y0040005D01*
X0248761Y0038168D01*
X0250168Y0036761D01*
X0252005Y0036000D01*
X0259995Y0036000D01*
X0252005Y0036000D01*
X0250168Y0035239D01*
X0248761Y0033832D01*
X0248000Y0031995D01*
X0248000Y0030005D01*
X0248761Y0028168D01*
X0250168Y0026761D01*
X0252005Y0026000D01*
X0259995Y0026000D01*
X0261832Y0026761D01*
X0263239Y0028168D01*
X0264000Y0030005D01*
X0264000Y0031995D01*
X0263239Y0033832D01*
X0261832Y0035239D01*
X0259995Y0036000D01*
X0261832Y0036761D01*
X0263239Y0038168D01*
X0264000Y0040005D01*
X0264000Y0041995D01*
X0263239Y0043832D01*
X0261832Y0045239D01*
X0259995Y0046000D01*
X0252005Y0046000D01*
X0250168Y0045239D01*
X0248761Y0043832D01*
X0248000Y0041995D01*
X0248000Y0040005D01*
X0248761Y0038168D01*
X0250168Y0036761D01*
X0252005Y0036000D01*
X0259995Y0036000D01*
X0252005Y0036000D01*
X0250168Y0035239D01*
X0248761Y0033832D01*
X0248000Y0031995D01*
X0248000Y0030005D01*
X0260892Y0036372D02*
X0304901Y0036372D01*
X0260892Y0036372D01*
X0262298Y0034773D02*
X0304901Y0034773D01*
X0262298Y0034773D01*
X0263511Y0033175D02*
X0304901Y0033175D01*
X0263511Y0033175D01*
X0264000Y0031576D02*
X0304901Y0031576D01*
X0264000Y0031576D01*
X0263988Y0029978D02*
X0304901Y0029978D01*
X0263988Y0029978D01*
X0263326Y0028379D02*
X0304901Y0028379D01*
X0263326Y0028379D01*
X0261852Y0026781D02*
X0304901Y0026781D01*
X0261852Y0026781D01*
X0263041Y0037970D02*
X0304901Y0037970D01*
X0263041Y0037970D01*
X0263819Y0039569D02*
X0304901Y0039569D01*
X0263819Y0039569D01*
X0264000Y0041167D02*
X0304901Y0041167D01*
X0264000Y0041167D01*
X0263681Y0042766D02*
X0304901Y0042766D01*
X0263681Y0042766D01*
X0262707Y0044364D02*
X0304901Y0044364D01*
X0262707Y0044364D01*
X0261516Y0046895D02*
X0260843Y0046552D01*
X0260124Y0046318D01*
X0259378Y0046200D01*
X0256200Y0046200D01*
X0256200Y0050800D01*
X0256200Y0051200D01*
X0255800Y0051200D01*
X0255800Y0055800D01*
X0252622Y0055800D01*
X0251876Y0055682D01*
X0251157Y0055448D01*
X0250484Y0055105D01*
X0249873Y0054661D01*
X0249339Y0054127D01*
X0248895Y0053516D01*
X0248552Y0052843D01*
X0248318Y0052124D01*
X0248200Y0051378D01*
X0248200Y0051200D01*
X0255800Y0051200D01*
X0255800Y0055800D01*
X0252622Y0055800D01*
X0251876Y0055682D01*
X0251157Y0055448D01*
X0250484Y0055105D01*
X0249873Y0054661D01*
X0249339Y0054127D01*
X0248895Y0053516D01*
X0248552Y0052843D01*
X0248318Y0052124D01*
X0248200Y0051378D01*
X0248200Y0051200D01*
X0255800Y0051200D01*
X0256200Y0051200D01*
X0256200Y0055800D01*
X0259378Y0055800D01*
X0260124Y0055682D01*
X0260843Y0055448D01*
X0261516Y0055105D01*
X0262127Y0054661D01*
X0262661Y0054127D01*
X0263105Y0053516D01*
X0263448Y0052843D01*
X0263682Y0052124D01*
X0263800Y0051378D01*
X0263800Y0051200D01*
X0256200Y0051200D01*
X0256200Y0055800D01*
X0259378Y0055800D01*
X0260124Y0055682D01*
X0260843Y0055448D01*
X0261516Y0055105D01*
X0262127Y0054661D01*
X0262661Y0054127D01*
X0263105Y0053516D01*
X0263448Y0052843D01*
X0263682Y0052124D01*
X0263800Y0051378D01*
X0263800Y0051200D01*
X0256200Y0051200D01*
X0256200Y0050800D01*
X0263800Y0050800D01*
X0263800Y0050622D01*
X0263682Y0049876D01*
X0263448Y0049157D01*
X0263105Y0048484D01*
X0262661Y0047873D01*
X0262127Y0047339D01*
X0261516Y0046895D01*
X0262127Y0047339D01*
X0262661Y0047873D01*
X0263105Y0048484D01*
X0263448Y0049157D01*
X0263682Y0049876D01*
X0263800Y0050622D01*
X0263800Y0050800D01*
X0256200Y0050800D01*
X0255800Y0050800D01*
X0255800Y0046200D01*
X0252622Y0046200D01*
X0251876Y0046318D01*
X0251157Y0046552D01*
X0250484Y0046895D01*
X0249873Y0047339D01*
X0249339Y0047873D01*
X0248895Y0048484D01*
X0248552Y0049157D01*
X0248318Y0049876D01*
X0248200Y0050622D01*
X0248200Y0050800D01*
X0255800Y0050800D01*
X0255800Y0051200D01*
X0255800Y0050800D01*
X0256200Y0050800D01*
X0256200Y0046200D01*
X0259378Y0046200D01*
X0260124Y0046318D01*
X0260843Y0046552D01*
X0261516Y0046895D01*
X0262350Y0047561D02*
X0304901Y0047561D01*
X0262350Y0047561D01*
X0263449Y0049160D02*
X0304901Y0049160D01*
X0263449Y0049160D01*
X0263800Y0050758D02*
X0304901Y0050758D01*
X0263800Y0050758D01*
X0263606Y0052357D02*
X0304901Y0052357D01*
X0263606Y0052357D01*
X0262786Y0053955D02*
X0304901Y0053955D01*
X0262786Y0053955D01*
X0260518Y0055554D02*
X0304901Y0055554D01*
X0260518Y0055554D01*
X0262223Y0057152D02*
X0304901Y0057152D01*
X0262223Y0057152D01*
X0263480Y0058751D02*
X0304901Y0058751D01*
X0263480Y0058751D01*
X0264000Y0060349D02*
X0304901Y0060349D01*
X0264000Y0060349D01*
X0264000Y0061948D02*
X0304901Y0061948D01*
X0264000Y0061948D01*
X0263357Y0063546D02*
X0304901Y0063546D01*
X0263357Y0063546D01*
X0261926Y0065145D02*
X0304901Y0065145D01*
X0261926Y0065145D01*
X0256200Y0055554D02*
X0255800Y0055554D01*
X0256200Y0055554D01*
X0256200Y0053955D02*
X0255800Y0053955D01*
X0256200Y0053955D01*
X0256200Y0052357D02*
X0255800Y0052357D01*
X0256200Y0052357D01*
X0256200Y0050758D02*
X0255800Y0050758D01*
X0256200Y0050758D01*
X0255800Y0050800D02*
X0255800Y0046200D01*
X0252622Y0046200D01*
X0251876Y0046318D01*
X0251157Y0046552D01*
X0250484Y0046895D01*
X0249873Y0047339D01*
X0249339Y0047873D01*
X0248895Y0048484D01*
X0248552Y0049157D01*
X0248318Y0049876D01*
X0248200Y0050622D01*
X0248200Y0050800D01*
X0255800Y0050800D01*
X0255800Y0049160D02*
X0256200Y0049160D01*
X0255800Y0049160D01*
X0255800Y0047561D02*
X0256200Y0047561D01*
X0255800Y0047561D01*
X0260084Y0045963D02*
X0304901Y0045963D01*
X0260084Y0045963D01*
X0192862Y0081130D02*
X0189138Y0081130D01*
X0192862Y0081130D01*
X0191210Y0082729D02*
X0190790Y0082729D01*
X0191210Y0082729D01*
X0182862Y0081130D02*
X0179138Y0081130D01*
X0182862Y0081130D01*
X0181210Y0082729D02*
X0180790Y0082729D01*
X0181210Y0082729D01*
X0172862Y0081130D02*
X0169138Y0081130D01*
X0172862Y0081130D01*
X0171210Y0082729D02*
X0170790Y0082729D01*
X0171210Y0082729D01*
X0162862Y0081130D02*
X0159138Y0081130D01*
X0162862Y0081130D01*
X0161210Y0082729D02*
X0160790Y0082729D01*
X0161210Y0082729D01*
X0152862Y0081130D02*
X0149138Y0081130D01*
X0152862Y0081130D01*
X0151210Y0082729D02*
X0150790Y0082729D01*
X0151210Y0082729D01*
X0142862Y0081130D02*
X0139138Y0081130D01*
X0142862Y0081130D01*
X0141210Y0082729D02*
X0140790Y0082729D01*
X0141210Y0082729D01*
X0159340Y0090721D02*
X0162660Y0090721D01*
X0159340Y0090721D01*
X0160876Y0089123D02*
X0161124Y0089123D01*
X0160876Y0089123D01*
X0169340Y0090721D02*
X0172660Y0090721D01*
X0169340Y0090721D01*
X0170876Y0089123D02*
X0171124Y0089123D01*
X0170876Y0089123D01*
X0179340Y0090721D02*
X0182660Y0090721D01*
X0179340Y0090721D01*
X0180876Y0089123D02*
X0181124Y0089123D01*
X0180876Y0089123D01*
X0189340Y0090721D02*
X0192660Y0090721D01*
X0189340Y0090721D01*
X0190876Y0089123D02*
X0191124Y0089123D01*
X0190876Y0089123D01*
X0165474Y0101911D02*
X0227028Y0101911D01*
X0165474Y0101911D01*
X0163876Y0100312D02*
X0229837Y0100312D01*
X0163876Y0100312D01*
X0113744Y0100312D02*
X0081700Y0100312D01*
X0113744Y0100312D01*
X0113744Y0098714D02*
X0081223Y0098714D01*
X0113744Y0098714D01*
X0113744Y0097115D02*
X0080176Y0097115D01*
X0113744Y0097115D01*
X0113744Y0095517D02*
X0077657Y0095517D01*
X0113744Y0095517D01*
X0113744Y0101911D02*
X0081700Y0101911D01*
X0113744Y0101911D01*
X0113744Y0103509D02*
X0082427Y0103509D01*
X0113744Y0103509D01*
X0113744Y0105108D02*
X0083952Y0105108D01*
X0113744Y0105108D01*
X0113744Y0106706D02*
X0084280Y0106706D01*
X0113744Y0106706D01*
X0113744Y0108305D02*
X0084280Y0108305D01*
X0113744Y0108305D01*
X0113744Y0109903D02*
X0084280Y0109903D01*
X0113744Y0109903D01*
X0113744Y0111502D02*
X0084280Y0111502D01*
X0113744Y0111502D01*
X0113744Y0113100D02*
X0084280Y0113100D01*
X0113744Y0113100D01*
X0113744Y0114699D02*
X0084280Y0114699D01*
X0113744Y0114699D01*
X0113744Y0116297D02*
X0084280Y0116297D01*
X0113744Y0116297D01*
X0113744Y0117896D02*
X0084280Y0117896D01*
X0113744Y0117896D01*
X0113744Y0119494D02*
X0084280Y0119494D01*
X0113744Y0119494D01*
X0113744Y0121093D02*
X0084280Y0121093D01*
X0113744Y0121093D01*
X0113744Y0122691D02*
X0084280Y0122691D01*
X0113744Y0122691D01*
X0113744Y0124290D02*
X0084280Y0124290D01*
X0113744Y0124290D01*
X0113744Y0125888D02*
X0084280Y0125888D01*
X0113744Y0125888D01*
X0113744Y0127487D02*
X0085736Y0127487D01*
X0113744Y0127487D01*
X0113744Y0129085D02*
X0087334Y0129085D01*
X0113744Y0129085D01*
X0113744Y0130684D02*
X0088933Y0130684D01*
X0113744Y0130684D01*
X0114070Y0132282D02*
X0090531Y0132282D01*
X0114070Y0132282D01*
X0115593Y0133881D02*
X0092130Y0133881D01*
X0115593Y0133881D01*
X0117191Y0135479D02*
X0093728Y0135479D01*
X0117191Y0135479D01*
X0079295Y0125888D02*
X0079093Y0125888D01*
X0079295Y0125888D01*
X0072907Y0125888D02*
X0069093Y0125888D01*
X0072907Y0125888D01*
X0071229Y0124290D02*
X0070771Y0124290D01*
X0071229Y0124290D01*
X0071116Y0117896D02*
X0070884Y0117896D01*
X0071116Y0117896D01*
X0072642Y0116297D02*
X0069358Y0116297D01*
X0072642Y0116297D01*
X0072047Y0105108D02*
X0069953Y0105108D01*
X0072047Y0105108D01*
X0071824Y0097115D02*
X0070176Y0097115D01*
X0071824Y0097115D01*
X0074343Y0095517D02*
X0067657Y0095517D01*
X0074343Y0095517D01*
X0059995Y0036000D02*
X0052005Y0036000D01*
X0050168Y0035239D01*
X0048761Y0033832D01*
X0048000Y0031995D01*
X0048000Y0030005D01*
X0048761Y0028168D01*
X0050168Y0026761D01*
X0052005Y0026000D01*
X0059995Y0026000D01*
X0061832Y0026761D01*
X0063239Y0028168D01*
X0064000Y0030005D01*
X0064000Y0031995D01*
X0063239Y0033832D01*
X0061832Y0035239D01*
X0059995Y0036000D01*
D14*
X0011000Y0011000D03*
X0011000Y0196000D03*
X0301000Y0196000D03*
X0301000Y0011000D03*
M02*
