G75*
%MOIN*%
%OFA0B0*%
%FSLAX25Y25*%
%IPPOS*%
%LPD*%
%AMOC8*
5,1,8,0,0,1.08239X$1,22.5*
%
%ADD10C,0.00100*%
D10*
X0007000Y0015000D02*
X0015000Y0007000D01*
X0007000Y0007000D02*
X0015000Y0015000D01*
X0052100Y0031000D02*
X0052102Y0031124D01*
X0052108Y0031249D01*
X0052118Y0031373D01*
X0052132Y0031496D01*
X0052149Y0031619D01*
X0052171Y0031742D01*
X0052197Y0031864D01*
X0052226Y0031984D01*
X0052260Y0032104D01*
X0052297Y0032223D01*
X0052338Y0032340D01*
X0052382Y0032456D01*
X0052430Y0032571D01*
X0052482Y0032684D01*
X0052538Y0032795D01*
X0052597Y0032905D01*
X0052659Y0033012D01*
X0052725Y0033118D01*
X0052794Y0033221D01*
X0052867Y0033322D01*
X0052943Y0033421D01*
X0053021Y0033517D01*
X0053103Y0033611D01*
X0053188Y0033702D01*
X0053275Y0033791D01*
X0053366Y0033876D01*
X0053459Y0033959D01*
X0053555Y0034038D01*
X0053653Y0034114D01*
X0053753Y0034188D01*
X0053856Y0034258D01*
X0053961Y0034324D01*
X0054068Y0034388D01*
X0054177Y0034448D01*
X0054288Y0034504D01*
X0054400Y0034557D01*
X0054515Y0034606D01*
X0054630Y0034652D01*
X0054748Y0034693D01*
X0054866Y0034732D01*
X0054986Y0034766D01*
X0055106Y0034796D01*
X0055228Y0034823D01*
X0055350Y0034845D01*
X0055473Y0034864D01*
X0055596Y0034879D01*
X0055720Y0034890D01*
X0055845Y0034897D01*
X0055969Y0034900D01*
X0056093Y0034899D01*
X0056218Y0034894D01*
X0056342Y0034885D01*
X0056465Y0034872D01*
X0056589Y0034855D01*
X0056711Y0034835D01*
X0056833Y0034810D01*
X0056954Y0034781D01*
X0057074Y0034749D01*
X0057193Y0034713D01*
X0057311Y0034673D01*
X0057428Y0034629D01*
X0057543Y0034582D01*
X0057656Y0034531D01*
X0057768Y0034476D01*
X0057878Y0034418D01*
X0057986Y0034357D01*
X0058092Y0034292D01*
X0058196Y0034223D01*
X0058297Y0034152D01*
X0058397Y0034077D01*
X0058494Y0033999D01*
X0058588Y0033918D01*
X0058680Y0033834D01*
X0058769Y0033747D01*
X0058855Y0033657D01*
X0058938Y0033565D01*
X0059018Y0033470D01*
X0059096Y0033372D01*
X0059170Y0033272D01*
X0059241Y0033170D01*
X0059308Y0033066D01*
X0059372Y0032959D01*
X0059433Y0032850D01*
X0059490Y0032740D01*
X0059544Y0032628D01*
X0059594Y0032514D01*
X0059641Y0032399D01*
X0059683Y0032282D01*
X0059722Y0032164D01*
X0059758Y0032044D01*
X0059789Y0031924D01*
X0059816Y0031803D01*
X0059840Y0031681D01*
X0059860Y0031558D01*
X0059876Y0031434D01*
X0059888Y0031311D01*
X0059896Y0031187D01*
X0059900Y0031062D01*
X0059900Y0030938D01*
X0059896Y0030813D01*
X0059888Y0030689D01*
X0059876Y0030566D01*
X0059860Y0030442D01*
X0059840Y0030319D01*
X0059816Y0030197D01*
X0059789Y0030076D01*
X0059758Y0029956D01*
X0059722Y0029836D01*
X0059683Y0029718D01*
X0059641Y0029601D01*
X0059594Y0029486D01*
X0059544Y0029372D01*
X0059490Y0029260D01*
X0059433Y0029150D01*
X0059372Y0029041D01*
X0059308Y0028934D01*
X0059241Y0028830D01*
X0059170Y0028728D01*
X0059096Y0028628D01*
X0059018Y0028530D01*
X0058938Y0028435D01*
X0058855Y0028343D01*
X0058769Y0028253D01*
X0058680Y0028166D01*
X0058588Y0028082D01*
X0058494Y0028001D01*
X0058397Y0027923D01*
X0058297Y0027848D01*
X0058196Y0027777D01*
X0058092Y0027708D01*
X0057986Y0027643D01*
X0057878Y0027582D01*
X0057768Y0027524D01*
X0057656Y0027469D01*
X0057543Y0027418D01*
X0057428Y0027371D01*
X0057311Y0027327D01*
X0057193Y0027287D01*
X0057074Y0027251D01*
X0056954Y0027219D01*
X0056833Y0027190D01*
X0056711Y0027165D01*
X0056589Y0027145D01*
X0056465Y0027128D01*
X0056342Y0027115D01*
X0056218Y0027106D01*
X0056093Y0027101D01*
X0055969Y0027100D01*
X0055845Y0027103D01*
X0055720Y0027110D01*
X0055596Y0027121D01*
X0055473Y0027136D01*
X0055350Y0027155D01*
X0055228Y0027177D01*
X0055106Y0027204D01*
X0054986Y0027234D01*
X0054866Y0027268D01*
X0054748Y0027307D01*
X0054630Y0027348D01*
X0054515Y0027394D01*
X0054400Y0027443D01*
X0054288Y0027496D01*
X0054177Y0027552D01*
X0054068Y0027612D01*
X0053961Y0027676D01*
X0053856Y0027742D01*
X0053753Y0027812D01*
X0053653Y0027886D01*
X0053555Y0027962D01*
X0053459Y0028041D01*
X0053366Y0028124D01*
X0053275Y0028209D01*
X0053188Y0028298D01*
X0053103Y0028389D01*
X0053021Y0028483D01*
X0052943Y0028579D01*
X0052867Y0028678D01*
X0052794Y0028779D01*
X0052725Y0028882D01*
X0052659Y0028988D01*
X0052597Y0029095D01*
X0052538Y0029205D01*
X0052482Y0029316D01*
X0052430Y0029429D01*
X0052382Y0029544D01*
X0052338Y0029660D01*
X0052297Y0029777D01*
X0052260Y0029896D01*
X0052226Y0030016D01*
X0052197Y0030136D01*
X0052171Y0030258D01*
X0052149Y0030381D01*
X0052132Y0030504D01*
X0052118Y0030627D01*
X0052108Y0030751D01*
X0052102Y0030876D01*
X0052100Y0031000D01*
X0052000Y0027000D02*
X0060000Y0035000D01*
X0052100Y0041000D02*
X0052102Y0041124D01*
X0052108Y0041249D01*
X0052118Y0041373D01*
X0052132Y0041496D01*
X0052149Y0041619D01*
X0052171Y0041742D01*
X0052197Y0041864D01*
X0052226Y0041984D01*
X0052260Y0042104D01*
X0052297Y0042223D01*
X0052338Y0042340D01*
X0052382Y0042456D01*
X0052430Y0042571D01*
X0052482Y0042684D01*
X0052538Y0042795D01*
X0052597Y0042905D01*
X0052659Y0043012D01*
X0052725Y0043118D01*
X0052794Y0043221D01*
X0052867Y0043322D01*
X0052943Y0043421D01*
X0053021Y0043517D01*
X0053103Y0043611D01*
X0053188Y0043702D01*
X0053275Y0043791D01*
X0053366Y0043876D01*
X0053459Y0043959D01*
X0053555Y0044038D01*
X0053653Y0044114D01*
X0053753Y0044188D01*
X0053856Y0044258D01*
X0053961Y0044324D01*
X0054068Y0044388D01*
X0054177Y0044448D01*
X0054288Y0044504D01*
X0054400Y0044557D01*
X0054515Y0044606D01*
X0054630Y0044652D01*
X0054748Y0044693D01*
X0054866Y0044732D01*
X0054986Y0044766D01*
X0055106Y0044796D01*
X0055228Y0044823D01*
X0055350Y0044845D01*
X0055473Y0044864D01*
X0055596Y0044879D01*
X0055720Y0044890D01*
X0055845Y0044897D01*
X0055969Y0044900D01*
X0056093Y0044899D01*
X0056218Y0044894D01*
X0056342Y0044885D01*
X0056465Y0044872D01*
X0056589Y0044855D01*
X0056711Y0044835D01*
X0056833Y0044810D01*
X0056954Y0044781D01*
X0057074Y0044749D01*
X0057193Y0044713D01*
X0057311Y0044673D01*
X0057428Y0044629D01*
X0057543Y0044582D01*
X0057656Y0044531D01*
X0057768Y0044476D01*
X0057878Y0044418D01*
X0057986Y0044357D01*
X0058092Y0044292D01*
X0058196Y0044223D01*
X0058297Y0044152D01*
X0058397Y0044077D01*
X0058494Y0043999D01*
X0058588Y0043918D01*
X0058680Y0043834D01*
X0058769Y0043747D01*
X0058855Y0043657D01*
X0058938Y0043565D01*
X0059018Y0043470D01*
X0059096Y0043372D01*
X0059170Y0043272D01*
X0059241Y0043170D01*
X0059308Y0043066D01*
X0059372Y0042959D01*
X0059433Y0042850D01*
X0059490Y0042740D01*
X0059544Y0042628D01*
X0059594Y0042514D01*
X0059641Y0042399D01*
X0059683Y0042282D01*
X0059722Y0042164D01*
X0059758Y0042044D01*
X0059789Y0041924D01*
X0059816Y0041803D01*
X0059840Y0041681D01*
X0059860Y0041558D01*
X0059876Y0041434D01*
X0059888Y0041311D01*
X0059896Y0041187D01*
X0059900Y0041062D01*
X0059900Y0040938D01*
X0059896Y0040813D01*
X0059888Y0040689D01*
X0059876Y0040566D01*
X0059860Y0040442D01*
X0059840Y0040319D01*
X0059816Y0040197D01*
X0059789Y0040076D01*
X0059758Y0039956D01*
X0059722Y0039836D01*
X0059683Y0039718D01*
X0059641Y0039601D01*
X0059594Y0039486D01*
X0059544Y0039372D01*
X0059490Y0039260D01*
X0059433Y0039150D01*
X0059372Y0039041D01*
X0059308Y0038934D01*
X0059241Y0038830D01*
X0059170Y0038728D01*
X0059096Y0038628D01*
X0059018Y0038530D01*
X0058938Y0038435D01*
X0058855Y0038343D01*
X0058769Y0038253D01*
X0058680Y0038166D01*
X0058588Y0038082D01*
X0058494Y0038001D01*
X0058397Y0037923D01*
X0058297Y0037848D01*
X0058196Y0037777D01*
X0058092Y0037708D01*
X0057986Y0037643D01*
X0057878Y0037582D01*
X0057768Y0037524D01*
X0057656Y0037469D01*
X0057543Y0037418D01*
X0057428Y0037371D01*
X0057311Y0037327D01*
X0057193Y0037287D01*
X0057074Y0037251D01*
X0056954Y0037219D01*
X0056833Y0037190D01*
X0056711Y0037165D01*
X0056589Y0037145D01*
X0056465Y0037128D01*
X0056342Y0037115D01*
X0056218Y0037106D01*
X0056093Y0037101D01*
X0055969Y0037100D01*
X0055845Y0037103D01*
X0055720Y0037110D01*
X0055596Y0037121D01*
X0055473Y0037136D01*
X0055350Y0037155D01*
X0055228Y0037177D01*
X0055106Y0037204D01*
X0054986Y0037234D01*
X0054866Y0037268D01*
X0054748Y0037307D01*
X0054630Y0037348D01*
X0054515Y0037394D01*
X0054400Y0037443D01*
X0054288Y0037496D01*
X0054177Y0037552D01*
X0054068Y0037612D01*
X0053961Y0037676D01*
X0053856Y0037742D01*
X0053753Y0037812D01*
X0053653Y0037886D01*
X0053555Y0037962D01*
X0053459Y0038041D01*
X0053366Y0038124D01*
X0053275Y0038209D01*
X0053188Y0038298D01*
X0053103Y0038389D01*
X0053021Y0038483D01*
X0052943Y0038579D01*
X0052867Y0038678D01*
X0052794Y0038779D01*
X0052725Y0038882D01*
X0052659Y0038988D01*
X0052597Y0039095D01*
X0052538Y0039205D01*
X0052482Y0039316D01*
X0052430Y0039429D01*
X0052382Y0039544D01*
X0052338Y0039660D01*
X0052297Y0039777D01*
X0052260Y0039896D01*
X0052226Y0040016D01*
X0052197Y0040136D01*
X0052171Y0040258D01*
X0052149Y0040381D01*
X0052132Y0040504D01*
X0052118Y0040627D01*
X0052108Y0040751D01*
X0052102Y0040876D01*
X0052100Y0041000D01*
X0052000Y0037000D02*
X0060000Y0045000D01*
X0052100Y0051000D02*
X0052102Y0051124D01*
X0052108Y0051249D01*
X0052118Y0051373D01*
X0052132Y0051496D01*
X0052149Y0051619D01*
X0052171Y0051742D01*
X0052197Y0051864D01*
X0052226Y0051984D01*
X0052260Y0052104D01*
X0052297Y0052223D01*
X0052338Y0052340D01*
X0052382Y0052456D01*
X0052430Y0052571D01*
X0052482Y0052684D01*
X0052538Y0052795D01*
X0052597Y0052905D01*
X0052659Y0053012D01*
X0052725Y0053118D01*
X0052794Y0053221D01*
X0052867Y0053322D01*
X0052943Y0053421D01*
X0053021Y0053517D01*
X0053103Y0053611D01*
X0053188Y0053702D01*
X0053275Y0053791D01*
X0053366Y0053876D01*
X0053459Y0053959D01*
X0053555Y0054038D01*
X0053653Y0054114D01*
X0053753Y0054188D01*
X0053856Y0054258D01*
X0053961Y0054324D01*
X0054068Y0054388D01*
X0054177Y0054448D01*
X0054288Y0054504D01*
X0054400Y0054557D01*
X0054515Y0054606D01*
X0054630Y0054652D01*
X0054748Y0054693D01*
X0054866Y0054732D01*
X0054986Y0054766D01*
X0055106Y0054796D01*
X0055228Y0054823D01*
X0055350Y0054845D01*
X0055473Y0054864D01*
X0055596Y0054879D01*
X0055720Y0054890D01*
X0055845Y0054897D01*
X0055969Y0054900D01*
X0056093Y0054899D01*
X0056218Y0054894D01*
X0056342Y0054885D01*
X0056465Y0054872D01*
X0056589Y0054855D01*
X0056711Y0054835D01*
X0056833Y0054810D01*
X0056954Y0054781D01*
X0057074Y0054749D01*
X0057193Y0054713D01*
X0057311Y0054673D01*
X0057428Y0054629D01*
X0057543Y0054582D01*
X0057656Y0054531D01*
X0057768Y0054476D01*
X0057878Y0054418D01*
X0057986Y0054357D01*
X0058092Y0054292D01*
X0058196Y0054223D01*
X0058297Y0054152D01*
X0058397Y0054077D01*
X0058494Y0053999D01*
X0058588Y0053918D01*
X0058680Y0053834D01*
X0058769Y0053747D01*
X0058855Y0053657D01*
X0058938Y0053565D01*
X0059018Y0053470D01*
X0059096Y0053372D01*
X0059170Y0053272D01*
X0059241Y0053170D01*
X0059308Y0053066D01*
X0059372Y0052959D01*
X0059433Y0052850D01*
X0059490Y0052740D01*
X0059544Y0052628D01*
X0059594Y0052514D01*
X0059641Y0052399D01*
X0059683Y0052282D01*
X0059722Y0052164D01*
X0059758Y0052044D01*
X0059789Y0051924D01*
X0059816Y0051803D01*
X0059840Y0051681D01*
X0059860Y0051558D01*
X0059876Y0051434D01*
X0059888Y0051311D01*
X0059896Y0051187D01*
X0059900Y0051062D01*
X0059900Y0050938D01*
X0059896Y0050813D01*
X0059888Y0050689D01*
X0059876Y0050566D01*
X0059860Y0050442D01*
X0059840Y0050319D01*
X0059816Y0050197D01*
X0059789Y0050076D01*
X0059758Y0049956D01*
X0059722Y0049836D01*
X0059683Y0049718D01*
X0059641Y0049601D01*
X0059594Y0049486D01*
X0059544Y0049372D01*
X0059490Y0049260D01*
X0059433Y0049150D01*
X0059372Y0049041D01*
X0059308Y0048934D01*
X0059241Y0048830D01*
X0059170Y0048728D01*
X0059096Y0048628D01*
X0059018Y0048530D01*
X0058938Y0048435D01*
X0058855Y0048343D01*
X0058769Y0048253D01*
X0058680Y0048166D01*
X0058588Y0048082D01*
X0058494Y0048001D01*
X0058397Y0047923D01*
X0058297Y0047848D01*
X0058196Y0047777D01*
X0058092Y0047708D01*
X0057986Y0047643D01*
X0057878Y0047582D01*
X0057768Y0047524D01*
X0057656Y0047469D01*
X0057543Y0047418D01*
X0057428Y0047371D01*
X0057311Y0047327D01*
X0057193Y0047287D01*
X0057074Y0047251D01*
X0056954Y0047219D01*
X0056833Y0047190D01*
X0056711Y0047165D01*
X0056589Y0047145D01*
X0056465Y0047128D01*
X0056342Y0047115D01*
X0056218Y0047106D01*
X0056093Y0047101D01*
X0055969Y0047100D01*
X0055845Y0047103D01*
X0055720Y0047110D01*
X0055596Y0047121D01*
X0055473Y0047136D01*
X0055350Y0047155D01*
X0055228Y0047177D01*
X0055106Y0047204D01*
X0054986Y0047234D01*
X0054866Y0047268D01*
X0054748Y0047307D01*
X0054630Y0047348D01*
X0054515Y0047394D01*
X0054400Y0047443D01*
X0054288Y0047496D01*
X0054177Y0047552D01*
X0054068Y0047612D01*
X0053961Y0047676D01*
X0053856Y0047742D01*
X0053753Y0047812D01*
X0053653Y0047886D01*
X0053555Y0047962D01*
X0053459Y0048041D01*
X0053366Y0048124D01*
X0053275Y0048209D01*
X0053188Y0048298D01*
X0053103Y0048389D01*
X0053021Y0048483D01*
X0052943Y0048579D01*
X0052867Y0048678D01*
X0052794Y0048779D01*
X0052725Y0048882D01*
X0052659Y0048988D01*
X0052597Y0049095D01*
X0052538Y0049205D01*
X0052482Y0049316D01*
X0052430Y0049429D01*
X0052382Y0049544D01*
X0052338Y0049660D01*
X0052297Y0049777D01*
X0052260Y0049896D01*
X0052226Y0050016D01*
X0052197Y0050136D01*
X0052171Y0050258D01*
X0052149Y0050381D01*
X0052132Y0050504D01*
X0052118Y0050627D01*
X0052108Y0050751D01*
X0052102Y0050876D01*
X0052100Y0051000D01*
X0052000Y0047000D02*
X0060000Y0055000D01*
X0052100Y0061000D02*
X0052102Y0061124D01*
X0052108Y0061249D01*
X0052118Y0061373D01*
X0052132Y0061496D01*
X0052149Y0061619D01*
X0052171Y0061742D01*
X0052197Y0061864D01*
X0052226Y0061984D01*
X0052260Y0062104D01*
X0052297Y0062223D01*
X0052338Y0062340D01*
X0052382Y0062456D01*
X0052430Y0062571D01*
X0052482Y0062684D01*
X0052538Y0062795D01*
X0052597Y0062905D01*
X0052659Y0063012D01*
X0052725Y0063118D01*
X0052794Y0063221D01*
X0052867Y0063322D01*
X0052943Y0063421D01*
X0053021Y0063517D01*
X0053103Y0063611D01*
X0053188Y0063702D01*
X0053275Y0063791D01*
X0053366Y0063876D01*
X0053459Y0063959D01*
X0053555Y0064038D01*
X0053653Y0064114D01*
X0053753Y0064188D01*
X0053856Y0064258D01*
X0053961Y0064324D01*
X0054068Y0064388D01*
X0054177Y0064448D01*
X0054288Y0064504D01*
X0054400Y0064557D01*
X0054515Y0064606D01*
X0054630Y0064652D01*
X0054748Y0064693D01*
X0054866Y0064732D01*
X0054986Y0064766D01*
X0055106Y0064796D01*
X0055228Y0064823D01*
X0055350Y0064845D01*
X0055473Y0064864D01*
X0055596Y0064879D01*
X0055720Y0064890D01*
X0055845Y0064897D01*
X0055969Y0064900D01*
X0056093Y0064899D01*
X0056218Y0064894D01*
X0056342Y0064885D01*
X0056465Y0064872D01*
X0056589Y0064855D01*
X0056711Y0064835D01*
X0056833Y0064810D01*
X0056954Y0064781D01*
X0057074Y0064749D01*
X0057193Y0064713D01*
X0057311Y0064673D01*
X0057428Y0064629D01*
X0057543Y0064582D01*
X0057656Y0064531D01*
X0057768Y0064476D01*
X0057878Y0064418D01*
X0057986Y0064357D01*
X0058092Y0064292D01*
X0058196Y0064223D01*
X0058297Y0064152D01*
X0058397Y0064077D01*
X0058494Y0063999D01*
X0058588Y0063918D01*
X0058680Y0063834D01*
X0058769Y0063747D01*
X0058855Y0063657D01*
X0058938Y0063565D01*
X0059018Y0063470D01*
X0059096Y0063372D01*
X0059170Y0063272D01*
X0059241Y0063170D01*
X0059308Y0063066D01*
X0059372Y0062959D01*
X0059433Y0062850D01*
X0059490Y0062740D01*
X0059544Y0062628D01*
X0059594Y0062514D01*
X0059641Y0062399D01*
X0059683Y0062282D01*
X0059722Y0062164D01*
X0059758Y0062044D01*
X0059789Y0061924D01*
X0059816Y0061803D01*
X0059840Y0061681D01*
X0059860Y0061558D01*
X0059876Y0061434D01*
X0059888Y0061311D01*
X0059896Y0061187D01*
X0059900Y0061062D01*
X0059900Y0060938D01*
X0059896Y0060813D01*
X0059888Y0060689D01*
X0059876Y0060566D01*
X0059860Y0060442D01*
X0059840Y0060319D01*
X0059816Y0060197D01*
X0059789Y0060076D01*
X0059758Y0059956D01*
X0059722Y0059836D01*
X0059683Y0059718D01*
X0059641Y0059601D01*
X0059594Y0059486D01*
X0059544Y0059372D01*
X0059490Y0059260D01*
X0059433Y0059150D01*
X0059372Y0059041D01*
X0059308Y0058934D01*
X0059241Y0058830D01*
X0059170Y0058728D01*
X0059096Y0058628D01*
X0059018Y0058530D01*
X0058938Y0058435D01*
X0058855Y0058343D01*
X0058769Y0058253D01*
X0058680Y0058166D01*
X0058588Y0058082D01*
X0058494Y0058001D01*
X0058397Y0057923D01*
X0058297Y0057848D01*
X0058196Y0057777D01*
X0058092Y0057708D01*
X0057986Y0057643D01*
X0057878Y0057582D01*
X0057768Y0057524D01*
X0057656Y0057469D01*
X0057543Y0057418D01*
X0057428Y0057371D01*
X0057311Y0057327D01*
X0057193Y0057287D01*
X0057074Y0057251D01*
X0056954Y0057219D01*
X0056833Y0057190D01*
X0056711Y0057165D01*
X0056589Y0057145D01*
X0056465Y0057128D01*
X0056342Y0057115D01*
X0056218Y0057106D01*
X0056093Y0057101D01*
X0055969Y0057100D01*
X0055845Y0057103D01*
X0055720Y0057110D01*
X0055596Y0057121D01*
X0055473Y0057136D01*
X0055350Y0057155D01*
X0055228Y0057177D01*
X0055106Y0057204D01*
X0054986Y0057234D01*
X0054866Y0057268D01*
X0054748Y0057307D01*
X0054630Y0057348D01*
X0054515Y0057394D01*
X0054400Y0057443D01*
X0054288Y0057496D01*
X0054177Y0057552D01*
X0054068Y0057612D01*
X0053961Y0057676D01*
X0053856Y0057742D01*
X0053753Y0057812D01*
X0053653Y0057886D01*
X0053555Y0057962D01*
X0053459Y0058041D01*
X0053366Y0058124D01*
X0053275Y0058209D01*
X0053188Y0058298D01*
X0053103Y0058389D01*
X0053021Y0058483D01*
X0052943Y0058579D01*
X0052867Y0058678D01*
X0052794Y0058779D01*
X0052725Y0058882D01*
X0052659Y0058988D01*
X0052597Y0059095D01*
X0052538Y0059205D01*
X0052482Y0059316D01*
X0052430Y0059429D01*
X0052382Y0059544D01*
X0052338Y0059660D01*
X0052297Y0059777D01*
X0052260Y0059896D01*
X0052226Y0060016D01*
X0052197Y0060136D01*
X0052171Y0060258D01*
X0052149Y0060381D01*
X0052132Y0060504D01*
X0052118Y0060627D01*
X0052108Y0060751D01*
X0052102Y0060876D01*
X0052100Y0061000D01*
X0052000Y0057000D02*
X0060000Y0065000D01*
X0102100Y0061000D02*
X0102102Y0061124D01*
X0102108Y0061249D01*
X0102118Y0061373D01*
X0102132Y0061496D01*
X0102149Y0061619D01*
X0102171Y0061742D01*
X0102197Y0061864D01*
X0102226Y0061984D01*
X0102260Y0062104D01*
X0102297Y0062223D01*
X0102338Y0062340D01*
X0102382Y0062456D01*
X0102430Y0062571D01*
X0102482Y0062684D01*
X0102538Y0062795D01*
X0102597Y0062905D01*
X0102659Y0063012D01*
X0102725Y0063118D01*
X0102794Y0063221D01*
X0102867Y0063322D01*
X0102943Y0063421D01*
X0103021Y0063517D01*
X0103103Y0063611D01*
X0103188Y0063702D01*
X0103275Y0063791D01*
X0103366Y0063876D01*
X0103459Y0063959D01*
X0103555Y0064038D01*
X0103653Y0064114D01*
X0103753Y0064188D01*
X0103856Y0064258D01*
X0103961Y0064324D01*
X0104068Y0064388D01*
X0104177Y0064448D01*
X0104288Y0064504D01*
X0104400Y0064557D01*
X0104515Y0064606D01*
X0104630Y0064652D01*
X0104748Y0064693D01*
X0104866Y0064732D01*
X0104986Y0064766D01*
X0105106Y0064796D01*
X0105228Y0064823D01*
X0105350Y0064845D01*
X0105473Y0064864D01*
X0105596Y0064879D01*
X0105720Y0064890D01*
X0105845Y0064897D01*
X0105969Y0064900D01*
X0106093Y0064899D01*
X0106218Y0064894D01*
X0106342Y0064885D01*
X0106465Y0064872D01*
X0106589Y0064855D01*
X0106711Y0064835D01*
X0106833Y0064810D01*
X0106954Y0064781D01*
X0107074Y0064749D01*
X0107193Y0064713D01*
X0107311Y0064673D01*
X0107428Y0064629D01*
X0107543Y0064582D01*
X0107656Y0064531D01*
X0107768Y0064476D01*
X0107878Y0064418D01*
X0107986Y0064357D01*
X0108092Y0064292D01*
X0108196Y0064223D01*
X0108297Y0064152D01*
X0108397Y0064077D01*
X0108494Y0063999D01*
X0108588Y0063918D01*
X0108680Y0063834D01*
X0108769Y0063747D01*
X0108855Y0063657D01*
X0108938Y0063565D01*
X0109018Y0063470D01*
X0109096Y0063372D01*
X0109170Y0063272D01*
X0109241Y0063170D01*
X0109308Y0063066D01*
X0109372Y0062959D01*
X0109433Y0062850D01*
X0109490Y0062740D01*
X0109544Y0062628D01*
X0109594Y0062514D01*
X0109641Y0062399D01*
X0109683Y0062282D01*
X0109722Y0062164D01*
X0109758Y0062044D01*
X0109789Y0061924D01*
X0109816Y0061803D01*
X0109840Y0061681D01*
X0109860Y0061558D01*
X0109876Y0061434D01*
X0109888Y0061311D01*
X0109896Y0061187D01*
X0109900Y0061062D01*
X0109900Y0060938D01*
X0109896Y0060813D01*
X0109888Y0060689D01*
X0109876Y0060566D01*
X0109860Y0060442D01*
X0109840Y0060319D01*
X0109816Y0060197D01*
X0109789Y0060076D01*
X0109758Y0059956D01*
X0109722Y0059836D01*
X0109683Y0059718D01*
X0109641Y0059601D01*
X0109594Y0059486D01*
X0109544Y0059372D01*
X0109490Y0059260D01*
X0109433Y0059150D01*
X0109372Y0059041D01*
X0109308Y0058934D01*
X0109241Y0058830D01*
X0109170Y0058728D01*
X0109096Y0058628D01*
X0109018Y0058530D01*
X0108938Y0058435D01*
X0108855Y0058343D01*
X0108769Y0058253D01*
X0108680Y0058166D01*
X0108588Y0058082D01*
X0108494Y0058001D01*
X0108397Y0057923D01*
X0108297Y0057848D01*
X0108196Y0057777D01*
X0108092Y0057708D01*
X0107986Y0057643D01*
X0107878Y0057582D01*
X0107768Y0057524D01*
X0107656Y0057469D01*
X0107543Y0057418D01*
X0107428Y0057371D01*
X0107311Y0057327D01*
X0107193Y0057287D01*
X0107074Y0057251D01*
X0106954Y0057219D01*
X0106833Y0057190D01*
X0106711Y0057165D01*
X0106589Y0057145D01*
X0106465Y0057128D01*
X0106342Y0057115D01*
X0106218Y0057106D01*
X0106093Y0057101D01*
X0105969Y0057100D01*
X0105845Y0057103D01*
X0105720Y0057110D01*
X0105596Y0057121D01*
X0105473Y0057136D01*
X0105350Y0057155D01*
X0105228Y0057177D01*
X0105106Y0057204D01*
X0104986Y0057234D01*
X0104866Y0057268D01*
X0104748Y0057307D01*
X0104630Y0057348D01*
X0104515Y0057394D01*
X0104400Y0057443D01*
X0104288Y0057496D01*
X0104177Y0057552D01*
X0104068Y0057612D01*
X0103961Y0057676D01*
X0103856Y0057742D01*
X0103753Y0057812D01*
X0103653Y0057886D01*
X0103555Y0057962D01*
X0103459Y0058041D01*
X0103366Y0058124D01*
X0103275Y0058209D01*
X0103188Y0058298D01*
X0103103Y0058389D01*
X0103021Y0058483D01*
X0102943Y0058579D01*
X0102867Y0058678D01*
X0102794Y0058779D01*
X0102725Y0058882D01*
X0102659Y0058988D01*
X0102597Y0059095D01*
X0102538Y0059205D01*
X0102482Y0059316D01*
X0102430Y0059429D01*
X0102382Y0059544D01*
X0102338Y0059660D01*
X0102297Y0059777D01*
X0102260Y0059896D01*
X0102226Y0060016D01*
X0102197Y0060136D01*
X0102171Y0060258D01*
X0102149Y0060381D01*
X0102132Y0060504D01*
X0102118Y0060627D01*
X0102108Y0060751D01*
X0102102Y0060876D01*
X0102100Y0061000D01*
X0102000Y0057000D02*
X0110000Y0065000D01*
X0102100Y0051000D02*
X0102102Y0051124D01*
X0102108Y0051249D01*
X0102118Y0051373D01*
X0102132Y0051496D01*
X0102149Y0051619D01*
X0102171Y0051742D01*
X0102197Y0051864D01*
X0102226Y0051984D01*
X0102260Y0052104D01*
X0102297Y0052223D01*
X0102338Y0052340D01*
X0102382Y0052456D01*
X0102430Y0052571D01*
X0102482Y0052684D01*
X0102538Y0052795D01*
X0102597Y0052905D01*
X0102659Y0053012D01*
X0102725Y0053118D01*
X0102794Y0053221D01*
X0102867Y0053322D01*
X0102943Y0053421D01*
X0103021Y0053517D01*
X0103103Y0053611D01*
X0103188Y0053702D01*
X0103275Y0053791D01*
X0103366Y0053876D01*
X0103459Y0053959D01*
X0103555Y0054038D01*
X0103653Y0054114D01*
X0103753Y0054188D01*
X0103856Y0054258D01*
X0103961Y0054324D01*
X0104068Y0054388D01*
X0104177Y0054448D01*
X0104288Y0054504D01*
X0104400Y0054557D01*
X0104515Y0054606D01*
X0104630Y0054652D01*
X0104748Y0054693D01*
X0104866Y0054732D01*
X0104986Y0054766D01*
X0105106Y0054796D01*
X0105228Y0054823D01*
X0105350Y0054845D01*
X0105473Y0054864D01*
X0105596Y0054879D01*
X0105720Y0054890D01*
X0105845Y0054897D01*
X0105969Y0054900D01*
X0106093Y0054899D01*
X0106218Y0054894D01*
X0106342Y0054885D01*
X0106465Y0054872D01*
X0106589Y0054855D01*
X0106711Y0054835D01*
X0106833Y0054810D01*
X0106954Y0054781D01*
X0107074Y0054749D01*
X0107193Y0054713D01*
X0107311Y0054673D01*
X0107428Y0054629D01*
X0107543Y0054582D01*
X0107656Y0054531D01*
X0107768Y0054476D01*
X0107878Y0054418D01*
X0107986Y0054357D01*
X0108092Y0054292D01*
X0108196Y0054223D01*
X0108297Y0054152D01*
X0108397Y0054077D01*
X0108494Y0053999D01*
X0108588Y0053918D01*
X0108680Y0053834D01*
X0108769Y0053747D01*
X0108855Y0053657D01*
X0108938Y0053565D01*
X0109018Y0053470D01*
X0109096Y0053372D01*
X0109170Y0053272D01*
X0109241Y0053170D01*
X0109308Y0053066D01*
X0109372Y0052959D01*
X0109433Y0052850D01*
X0109490Y0052740D01*
X0109544Y0052628D01*
X0109594Y0052514D01*
X0109641Y0052399D01*
X0109683Y0052282D01*
X0109722Y0052164D01*
X0109758Y0052044D01*
X0109789Y0051924D01*
X0109816Y0051803D01*
X0109840Y0051681D01*
X0109860Y0051558D01*
X0109876Y0051434D01*
X0109888Y0051311D01*
X0109896Y0051187D01*
X0109900Y0051062D01*
X0109900Y0050938D01*
X0109896Y0050813D01*
X0109888Y0050689D01*
X0109876Y0050566D01*
X0109860Y0050442D01*
X0109840Y0050319D01*
X0109816Y0050197D01*
X0109789Y0050076D01*
X0109758Y0049956D01*
X0109722Y0049836D01*
X0109683Y0049718D01*
X0109641Y0049601D01*
X0109594Y0049486D01*
X0109544Y0049372D01*
X0109490Y0049260D01*
X0109433Y0049150D01*
X0109372Y0049041D01*
X0109308Y0048934D01*
X0109241Y0048830D01*
X0109170Y0048728D01*
X0109096Y0048628D01*
X0109018Y0048530D01*
X0108938Y0048435D01*
X0108855Y0048343D01*
X0108769Y0048253D01*
X0108680Y0048166D01*
X0108588Y0048082D01*
X0108494Y0048001D01*
X0108397Y0047923D01*
X0108297Y0047848D01*
X0108196Y0047777D01*
X0108092Y0047708D01*
X0107986Y0047643D01*
X0107878Y0047582D01*
X0107768Y0047524D01*
X0107656Y0047469D01*
X0107543Y0047418D01*
X0107428Y0047371D01*
X0107311Y0047327D01*
X0107193Y0047287D01*
X0107074Y0047251D01*
X0106954Y0047219D01*
X0106833Y0047190D01*
X0106711Y0047165D01*
X0106589Y0047145D01*
X0106465Y0047128D01*
X0106342Y0047115D01*
X0106218Y0047106D01*
X0106093Y0047101D01*
X0105969Y0047100D01*
X0105845Y0047103D01*
X0105720Y0047110D01*
X0105596Y0047121D01*
X0105473Y0047136D01*
X0105350Y0047155D01*
X0105228Y0047177D01*
X0105106Y0047204D01*
X0104986Y0047234D01*
X0104866Y0047268D01*
X0104748Y0047307D01*
X0104630Y0047348D01*
X0104515Y0047394D01*
X0104400Y0047443D01*
X0104288Y0047496D01*
X0104177Y0047552D01*
X0104068Y0047612D01*
X0103961Y0047676D01*
X0103856Y0047742D01*
X0103753Y0047812D01*
X0103653Y0047886D01*
X0103555Y0047962D01*
X0103459Y0048041D01*
X0103366Y0048124D01*
X0103275Y0048209D01*
X0103188Y0048298D01*
X0103103Y0048389D01*
X0103021Y0048483D01*
X0102943Y0048579D01*
X0102867Y0048678D01*
X0102794Y0048779D01*
X0102725Y0048882D01*
X0102659Y0048988D01*
X0102597Y0049095D01*
X0102538Y0049205D01*
X0102482Y0049316D01*
X0102430Y0049429D01*
X0102382Y0049544D01*
X0102338Y0049660D01*
X0102297Y0049777D01*
X0102260Y0049896D01*
X0102226Y0050016D01*
X0102197Y0050136D01*
X0102171Y0050258D01*
X0102149Y0050381D01*
X0102132Y0050504D01*
X0102118Y0050627D01*
X0102108Y0050751D01*
X0102102Y0050876D01*
X0102100Y0051000D01*
X0102000Y0047000D02*
X0110000Y0055000D01*
X0102100Y0041000D02*
X0102102Y0041124D01*
X0102108Y0041249D01*
X0102118Y0041373D01*
X0102132Y0041496D01*
X0102149Y0041619D01*
X0102171Y0041742D01*
X0102197Y0041864D01*
X0102226Y0041984D01*
X0102260Y0042104D01*
X0102297Y0042223D01*
X0102338Y0042340D01*
X0102382Y0042456D01*
X0102430Y0042571D01*
X0102482Y0042684D01*
X0102538Y0042795D01*
X0102597Y0042905D01*
X0102659Y0043012D01*
X0102725Y0043118D01*
X0102794Y0043221D01*
X0102867Y0043322D01*
X0102943Y0043421D01*
X0103021Y0043517D01*
X0103103Y0043611D01*
X0103188Y0043702D01*
X0103275Y0043791D01*
X0103366Y0043876D01*
X0103459Y0043959D01*
X0103555Y0044038D01*
X0103653Y0044114D01*
X0103753Y0044188D01*
X0103856Y0044258D01*
X0103961Y0044324D01*
X0104068Y0044388D01*
X0104177Y0044448D01*
X0104288Y0044504D01*
X0104400Y0044557D01*
X0104515Y0044606D01*
X0104630Y0044652D01*
X0104748Y0044693D01*
X0104866Y0044732D01*
X0104986Y0044766D01*
X0105106Y0044796D01*
X0105228Y0044823D01*
X0105350Y0044845D01*
X0105473Y0044864D01*
X0105596Y0044879D01*
X0105720Y0044890D01*
X0105845Y0044897D01*
X0105969Y0044900D01*
X0106093Y0044899D01*
X0106218Y0044894D01*
X0106342Y0044885D01*
X0106465Y0044872D01*
X0106589Y0044855D01*
X0106711Y0044835D01*
X0106833Y0044810D01*
X0106954Y0044781D01*
X0107074Y0044749D01*
X0107193Y0044713D01*
X0107311Y0044673D01*
X0107428Y0044629D01*
X0107543Y0044582D01*
X0107656Y0044531D01*
X0107768Y0044476D01*
X0107878Y0044418D01*
X0107986Y0044357D01*
X0108092Y0044292D01*
X0108196Y0044223D01*
X0108297Y0044152D01*
X0108397Y0044077D01*
X0108494Y0043999D01*
X0108588Y0043918D01*
X0108680Y0043834D01*
X0108769Y0043747D01*
X0108855Y0043657D01*
X0108938Y0043565D01*
X0109018Y0043470D01*
X0109096Y0043372D01*
X0109170Y0043272D01*
X0109241Y0043170D01*
X0109308Y0043066D01*
X0109372Y0042959D01*
X0109433Y0042850D01*
X0109490Y0042740D01*
X0109544Y0042628D01*
X0109594Y0042514D01*
X0109641Y0042399D01*
X0109683Y0042282D01*
X0109722Y0042164D01*
X0109758Y0042044D01*
X0109789Y0041924D01*
X0109816Y0041803D01*
X0109840Y0041681D01*
X0109860Y0041558D01*
X0109876Y0041434D01*
X0109888Y0041311D01*
X0109896Y0041187D01*
X0109900Y0041062D01*
X0109900Y0040938D01*
X0109896Y0040813D01*
X0109888Y0040689D01*
X0109876Y0040566D01*
X0109860Y0040442D01*
X0109840Y0040319D01*
X0109816Y0040197D01*
X0109789Y0040076D01*
X0109758Y0039956D01*
X0109722Y0039836D01*
X0109683Y0039718D01*
X0109641Y0039601D01*
X0109594Y0039486D01*
X0109544Y0039372D01*
X0109490Y0039260D01*
X0109433Y0039150D01*
X0109372Y0039041D01*
X0109308Y0038934D01*
X0109241Y0038830D01*
X0109170Y0038728D01*
X0109096Y0038628D01*
X0109018Y0038530D01*
X0108938Y0038435D01*
X0108855Y0038343D01*
X0108769Y0038253D01*
X0108680Y0038166D01*
X0108588Y0038082D01*
X0108494Y0038001D01*
X0108397Y0037923D01*
X0108297Y0037848D01*
X0108196Y0037777D01*
X0108092Y0037708D01*
X0107986Y0037643D01*
X0107878Y0037582D01*
X0107768Y0037524D01*
X0107656Y0037469D01*
X0107543Y0037418D01*
X0107428Y0037371D01*
X0107311Y0037327D01*
X0107193Y0037287D01*
X0107074Y0037251D01*
X0106954Y0037219D01*
X0106833Y0037190D01*
X0106711Y0037165D01*
X0106589Y0037145D01*
X0106465Y0037128D01*
X0106342Y0037115D01*
X0106218Y0037106D01*
X0106093Y0037101D01*
X0105969Y0037100D01*
X0105845Y0037103D01*
X0105720Y0037110D01*
X0105596Y0037121D01*
X0105473Y0037136D01*
X0105350Y0037155D01*
X0105228Y0037177D01*
X0105106Y0037204D01*
X0104986Y0037234D01*
X0104866Y0037268D01*
X0104748Y0037307D01*
X0104630Y0037348D01*
X0104515Y0037394D01*
X0104400Y0037443D01*
X0104288Y0037496D01*
X0104177Y0037552D01*
X0104068Y0037612D01*
X0103961Y0037676D01*
X0103856Y0037742D01*
X0103753Y0037812D01*
X0103653Y0037886D01*
X0103555Y0037962D01*
X0103459Y0038041D01*
X0103366Y0038124D01*
X0103275Y0038209D01*
X0103188Y0038298D01*
X0103103Y0038389D01*
X0103021Y0038483D01*
X0102943Y0038579D01*
X0102867Y0038678D01*
X0102794Y0038779D01*
X0102725Y0038882D01*
X0102659Y0038988D01*
X0102597Y0039095D01*
X0102538Y0039205D01*
X0102482Y0039316D01*
X0102430Y0039429D01*
X0102382Y0039544D01*
X0102338Y0039660D01*
X0102297Y0039777D01*
X0102260Y0039896D01*
X0102226Y0040016D01*
X0102197Y0040136D01*
X0102171Y0040258D01*
X0102149Y0040381D01*
X0102132Y0040504D01*
X0102118Y0040627D01*
X0102108Y0040751D01*
X0102102Y0040876D01*
X0102100Y0041000D01*
X0102000Y0037000D02*
X0110000Y0045000D01*
X0102100Y0031000D02*
X0102102Y0031124D01*
X0102108Y0031249D01*
X0102118Y0031373D01*
X0102132Y0031496D01*
X0102149Y0031619D01*
X0102171Y0031742D01*
X0102197Y0031864D01*
X0102226Y0031984D01*
X0102260Y0032104D01*
X0102297Y0032223D01*
X0102338Y0032340D01*
X0102382Y0032456D01*
X0102430Y0032571D01*
X0102482Y0032684D01*
X0102538Y0032795D01*
X0102597Y0032905D01*
X0102659Y0033012D01*
X0102725Y0033118D01*
X0102794Y0033221D01*
X0102867Y0033322D01*
X0102943Y0033421D01*
X0103021Y0033517D01*
X0103103Y0033611D01*
X0103188Y0033702D01*
X0103275Y0033791D01*
X0103366Y0033876D01*
X0103459Y0033959D01*
X0103555Y0034038D01*
X0103653Y0034114D01*
X0103753Y0034188D01*
X0103856Y0034258D01*
X0103961Y0034324D01*
X0104068Y0034388D01*
X0104177Y0034448D01*
X0104288Y0034504D01*
X0104400Y0034557D01*
X0104515Y0034606D01*
X0104630Y0034652D01*
X0104748Y0034693D01*
X0104866Y0034732D01*
X0104986Y0034766D01*
X0105106Y0034796D01*
X0105228Y0034823D01*
X0105350Y0034845D01*
X0105473Y0034864D01*
X0105596Y0034879D01*
X0105720Y0034890D01*
X0105845Y0034897D01*
X0105969Y0034900D01*
X0106093Y0034899D01*
X0106218Y0034894D01*
X0106342Y0034885D01*
X0106465Y0034872D01*
X0106589Y0034855D01*
X0106711Y0034835D01*
X0106833Y0034810D01*
X0106954Y0034781D01*
X0107074Y0034749D01*
X0107193Y0034713D01*
X0107311Y0034673D01*
X0107428Y0034629D01*
X0107543Y0034582D01*
X0107656Y0034531D01*
X0107768Y0034476D01*
X0107878Y0034418D01*
X0107986Y0034357D01*
X0108092Y0034292D01*
X0108196Y0034223D01*
X0108297Y0034152D01*
X0108397Y0034077D01*
X0108494Y0033999D01*
X0108588Y0033918D01*
X0108680Y0033834D01*
X0108769Y0033747D01*
X0108855Y0033657D01*
X0108938Y0033565D01*
X0109018Y0033470D01*
X0109096Y0033372D01*
X0109170Y0033272D01*
X0109241Y0033170D01*
X0109308Y0033066D01*
X0109372Y0032959D01*
X0109433Y0032850D01*
X0109490Y0032740D01*
X0109544Y0032628D01*
X0109594Y0032514D01*
X0109641Y0032399D01*
X0109683Y0032282D01*
X0109722Y0032164D01*
X0109758Y0032044D01*
X0109789Y0031924D01*
X0109816Y0031803D01*
X0109840Y0031681D01*
X0109860Y0031558D01*
X0109876Y0031434D01*
X0109888Y0031311D01*
X0109896Y0031187D01*
X0109900Y0031062D01*
X0109900Y0030938D01*
X0109896Y0030813D01*
X0109888Y0030689D01*
X0109876Y0030566D01*
X0109860Y0030442D01*
X0109840Y0030319D01*
X0109816Y0030197D01*
X0109789Y0030076D01*
X0109758Y0029956D01*
X0109722Y0029836D01*
X0109683Y0029718D01*
X0109641Y0029601D01*
X0109594Y0029486D01*
X0109544Y0029372D01*
X0109490Y0029260D01*
X0109433Y0029150D01*
X0109372Y0029041D01*
X0109308Y0028934D01*
X0109241Y0028830D01*
X0109170Y0028728D01*
X0109096Y0028628D01*
X0109018Y0028530D01*
X0108938Y0028435D01*
X0108855Y0028343D01*
X0108769Y0028253D01*
X0108680Y0028166D01*
X0108588Y0028082D01*
X0108494Y0028001D01*
X0108397Y0027923D01*
X0108297Y0027848D01*
X0108196Y0027777D01*
X0108092Y0027708D01*
X0107986Y0027643D01*
X0107878Y0027582D01*
X0107768Y0027524D01*
X0107656Y0027469D01*
X0107543Y0027418D01*
X0107428Y0027371D01*
X0107311Y0027327D01*
X0107193Y0027287D01*
X0107074Y0027251D01*
X0106954Y0027219D01*
X0106833Y0027190D01*
X0106711Y0027165D01*
X0106589Y0027145D01*
X0106465Y0027128D01*
X0106342Y0027115D01*
X0106218Y0027106D01*
X0106093Y0027101D01*
X0105969Y0027100D01*
X0105845Y0027103D01*
X0105720Y0027110D01*
X0105596Y0027121D01*
X0105473Y0027136D01*
X0105350Y0027155D01*
X0105228Y0027177D01*
X0105106Y0027204D01*
X0104986Y0027234D01*
X0104866Y0027268D01*
X0104748Y0027307D01*
X0104630Y0027348D01*
X0104515Y0027394D01*
X0104400Y0027443D01*
X0104288Y0027496D01*
X0104177Y0027552D01*
X0104068Y0027612D01*
X0103961Y0027676D01*
X0103856Y0027742D01*
X0103753Y0027812D01*
X0103653Y0027886D01*
X0103555Y0027962D01*
X0103459Y0028041D01*
X0103366Y0028124D01*
X0103275Y0028209D01*
X0103188Y0028298D01*
X0103103Y0028389D01*
X0103021Y0028483D01*
X0102943Y0028579D01*
X0102867Y0028678D01*
X0102794Y0028779D01*
X0102725Y0028882D01*
X0102659Y0028988D01*
X0102597Y0029095D01*
X0102538Y0029205D01*
X0102482Y0029316D01*
X0102430Y0029429D01*
X0102382Y0029544D01*
X0102338Y0029660D01*
X0102297Y0029777D01*
X0102260Y0029896D01*
X0102226Y0030016D01*
X0102197Y0030136D01*
X0102171Y0030258D01*
X0102149Y0030381D01*
X0102132Y0030504D01*
X0102118Y0030627D01*
X0102108Y0030751D01*
X0102102Y0030876D01*
X0102100Y0031000D01*
X0102000Y0027000D02*
X0110000Y0035000D01*
X0137000Y0037000D02*
X0145000Y0045000D01*
X0137000Y0045000D01*
X0145000Y0037000D01*
X0137000Y0037000D01*
X0137000Y0052000D02*
X0145000Y0060000D01*
X0137000Y0060000D01*
X0145000Y0052000D01*
X0137000Y0052000D01*
X0167000Y0052000D02*
X0175000Y0060000D01*
X0167000Y0060000D01*
X0175000Y0052000D01*
X0167000Y0052000D01*
X0175000Y0045000D02*
X0167000Y0037000D01*
X0167000Y0045000D02*
X0175000Y0045000D01*
X0167000Y0045000D02*
X0175000Y0037000D01*
X0167000Y0037000D01*
X0202100Y0041000D02*
X0202102Y0041124D01*
X0202108Y0041249D01*
X0202118Y0041373D01*
X0202132Y0041496D01*
X0202149Y0041619D01*
X0202171Y0041742D01*
X0202197Y0041864D01*
X0202226Y0041984D01*
X0202260Y0042104D01*
X0202297Y0042223D01*
X0202338Y0042340D01*
X0202382Y0042456D01*
X0202430Y0042571D01*
X0202482Y0042684D01*
X0202538Y0042795D01*
X0202597Y0042905D01*
X0202659Y0043012D01*
X0202725Y0043118D01*
X0202794Y0043221D01*
X0202867Y0043322D01*
X0202943Y0043421D01*
X0203021Y0043517D01*
X0203103Y0043611D01*
X0203188Y0043702D01*
X0203275Y0043791D01*
X0203366Y0043876D01*
X0203459Y0043959D01*
X0203555Y0044038D01*
X0203653Y0044114D01*
X0203753Y0044188D01*
X0203856Y0044258D01*
X0203961Y0044324D01*
X0204068Y0044388D01*
X0204177Y0044448D01*
X0204288Y0044504D01*
X0204400Y0044557D01*
X0204515Y0044606D01*
X0204630Y0044652D01*
X0204748Y0044693D01*
X0204866Y0044732D01*
X0204986Y0044766D01*
X0205106Y0044796D01*
X0205228Y0044823D01*
X0205350Y0044845D01*
X0205473Y0044864D01*
X0205596Y0044879D01*
X0205720Y0044890D01*
X0205845Y0044897D01*
X0205969Y0044900D01*
X0206093Y0044899D01*
X0206218Y0044894D01*
X0206342Y0044885D01*
X0206465Y0044872D01*
X0206589Y0044855D01*
X0206711Y0044835D01*
X0206833Y0044810D01*
X0206954Y0044781D01*
X0207074Y0044749D01*
X0207193Y0044713D01*
X0207311Y0044673D01*
X0207428Y0044629D01*
X0207543Y0044582D01*
X0207656Y0044531D01*
X0207768Y0044476D01*
X0207878Y0044418D01*
X0207986Y0044357D01*
X0208092Y0044292D01*
X0208196Y0044223D01*
X0208297Y0044152D01*
X0208397Y0044077D01*
X0208494Y0043999D01*
X0208588Y0043918D01*
X0208680Y0043834D01*
X0208769Y0043747D01*
X0208855Y0043657D01*
X0208938Y0043565D01*
X0209018Y0043470D01*
X0209096Y0043372D01*
X0209170Y0043272D01*
X0209241Y0043170D01*
X0209308Y0043066D01*
X0209372Y0042959D01*
X0209433Y0042850D01*
X0209490Y0042740D01*
X0209544Y0042628D01*
X0209594Y0042514D01*
X0209641Y0042399D01*
X0209683Y0042282D01*
X0209722Y0042164D01*
X0209758Y0042044D01*
X0209789Y0041924D01*
X0209816Y0041803D01*
X0209840Y0041681D01*
X0209860Y0041558D01*
X0209876Y0041434D01*
X0209888Y0041311D01*
X0209896Y0041187D01*
X0209900Y0041062D01*
X0209900Y0040938D01*
X0209896Y0040813D01*
X0209888Y0040689D01*
X0209876Y0040566D01*
X0209860Y0040442D01*
X0209840Y0040319D01*
X0209816Y0040197D01*
X0209789Y0040076D01*
X0209758Y0039956D01*
X0209722Y0039836D01*
X0209683Y0039718D01*
X0209641Y0039601D01*
X0209594Y0039486D01*
X0209544Y0039372D01*
X0209490Y0039260D01*
X0209433Y0039150D01*
X0209372Y0039041D01*
X0209308Y0038934D01*
X0209241Y0038830D01*
X0209170Y0038728D01*
X0209096Y0038628D01*
X0209018Y0038530D01*
X0208938Y0038435D01*
X0208855Y0038343D01*
X0208769Y0038253D01*
X0208680Y0038166D01*
X0208588Y0038082D01*
X0208494Y0038001D01*
X0208397Y0037923D01*
X0208297Y0037848D01*
X0208196Y0037777D01*
X0208092Y0037708D01*
X0207986Y0037643D01*
X0207878Y0037582D01*
X0207768Y0037524D01*
X0207656Y0037469D01*
X0207543Y0037418D01*
X0207428Y0037371D01*
X0207311Y0037327D01*
X0207193Y0037287D01*
X0207074Y0037251D01*
X0206954Y0037219D01*
X0206833Y0037190D01*
X0206711Y0037165D01*
X0206589Y0037145D01*
X0206465Y0037128D01*
X0206342Y0037115D01*
X0206218Y0037106D01*
X0206093Y0037101D01*
X0205969Y0037100D01*
X0205845Y0037103D01*
X0205720Y0037110D01*
X0205596Y0037121D01*
X0205473Y0037136D01*
X0205350Y0037155D01*
X0205228Y0037177D01*
X0205106Y0037204D01*
X0204986Y0037234D01*
X0204866Y0037268D01*
X0204748Y0037307D01*
X0204630Y0037348D01*
X0204515Y0037394D01*
X0204400Y0037443D01*
X0204288Y0037496D01*
X0204177Y0037552D01*
X0204068Y0037612D01*
X0203961Y0037676D01*
X0203856Y0037742D01*
X0203753Y0037812D01*
X0203653Y0037886D01*
X0203555Y0037962D01*
X0203459Y0038041D01*
X0203366Y0038124D01*
X0203275Y0038209D01*
X0203188Y0038298D01*
X0203103Y0038389D01*
X0203021Y0038483D01*
X0202943Y0038579D01*
X0202867Y0038678D01*
X0202794Y0038779D01*
X0202725Y0038882D01*
X0202659Y0038988D01*
X0202597Y0039095D01*
X0202538Y0039205D01*
X0202482Y0039316D01*
X0202430Y0039429D01*
X0202382Y0039544D01*
X0202338Y0039660D01*
X0202297Y0039777D01*
X0202260Y0039896D01*
X0202226Y0040016D01*
X0202197Y0040136D01*
X0202171Y0040258D01*
X0202149Y0040381D01*
X0202132Y0040504D01*
X0202118Y0040627D01*
X0202108Y0040751D01*
X0202102Y0040876D01*
X0202100Y0041000D01*
X0202000Y0037000D02*
X0210000Y0045000D01*
X0202100Y0051000D02*
X0202102Y0051124D01*
X0202108Y0051249D01*
X0202118Y0051373D01*
X0202132Y0051496D01*
X0202149Y0051619D01*
X0202171Y0051742D01*
X0202197Y0051864D01*
X0202226Y0051984D01*
X0202260Y0052104D01*
X0202297Y0052223D01*
X0202338Y0052340D01*
X0202382Y0052456D01*
X0202430Y0052571D01*
X0202482Y0052684D01*
X0202538Y0052795D01*
X0202597Y0052905D01*
X0202659Y0053012D01*
X0202725Y0053118D01*
X0202794Y0053221D01*
X0202867Y0053322D01*
X0202943Y0053421D01*
X0203021Y0053517D01*
X0203103Y0053611D01*
X0203188Y0053702D01*
X0203275Y0053791D01*
X0203366Y0053876D01*
X0203459Y0053959D01*
X0203555Y0054038D01*
X0203653Y0054114D01*
X0203753Y0054188D01*
X0203856Y0054258D01*
X0203961Y0054324D01*
X0204068Y0054388D01*
X0204177Y0054448D01*
X0204288Y0054504D01*
X0204400Y0054557D01*
X0204515Y0054606D01*
X0204630Y0054652D01*
X0204748Y0054693D01*
X0204866Y0054732D01*
X0204986Y0054766D01*
X0205106Y0054796D01*
X0205228Y0054823D01*
X0205350Y0054845D01*
X0205473Y0054864D01*
X0205596Y0054879D01*
X0205720Y0054890D01*
X0205845Y0054897D01*
X0205969Y0054900D01*
X0206093Y0054899D01*
X0206218Y0054894D01*
X0206342Y0054885D01*
X0206465Y0054872D01*
X0206589Y0054855D01*
X0206711Y0054835D01*
X0206833Y0054810D01*
X0206954Y0054781D01*
X0207074Y0054749D01*
X0207193Y0054713D01*
X0207311Y0054673D01*
X0207428Y0054629D01*
X0207543Y0054582D01*
X0207656Y0054531D01*
X0207768Y0054476D01*
X0207878Y0054418D01*
X0207986Y0054357D01*
X0208092Y0054292D01*
X0208196Y0054223D01*
X0208297Y0054152D01*
X0208397Y0054077D01*
X0208494Y0053999D01*
X0208588Y0053918D01*
X0208680Y0053834D01*
X0208769Y0053747D01*
X0208855Y0053657D01*
X0208938Y0053565D01*
X0209018Y0053470D01*
X0209096Y0053372D01*
X0209170Y0053272D01*
X0209241Y0053170D01*
X0209308Y0053066D01*
X0209372Y0052959D01*
X0209433Y0052850D01*
X0209490Y0052740D01*
X0209544Y0052628D01*
X0209594Y0052514D01*
X0209641Y0052399D01*
X0209683Y0052282D01*
X0209722Y0052164D01*
X0209758Y0052044D01*
X0209789Y0051924D01*
X0209816Y0051803D01*
X0209840Y0051681D01*
X0209860Y0051558D01*
X0209876Y0051434D01*
X0209888Y0051311D01*
X0209896Y0051187D01*
X0209900Y0051062D01*
X0209900Y0050938D01*
X0209896Y0050813D01*
X0209888Y0050689D01*
X0209876Y0050566D01*
X0209860Y0050442D01*
X0209840Y0050319D01*
X0209816Y0050197D01*
X0209789Y0050076D01*
X0209758Y0049956D01*
X0209722Y0049836D01*
X0209683Y0049718D01*
X0209641Y0049601D01*
X0209594Y0049486D01*
X0209544Y0049372D01*
X0209490Y0049260D01*
X0209433Y0049150D01*
X0209372Y0049041D01*
X0209308Y0048934D01*
X0209241Y0048830D01*
X0209170Y0048728D01*
X0209096Y0048628D01*
X0209018Y0048530D01*
X0208938Y0048435D01*
X0208855Y0048343D01*
X0208769Y0048253D01*
X0208680Y0048166D01*
X0208588Y0048082D01*
X0208494Y0048001D01*
X0208397Y0047923D01*
X0208297Y0047848D01*
X0208196Y0047777D01*
X0208092Y0047708D01*
X0207986Y0047643D01*
X0207878Y0047582D01*
X0207768Y0047524D01*
X0207656Y0047469D01*
X0207543Y0047418D01*
X0207428Y0047371D01*
X0207311Y0047327D01*
X0207193Y0047287D01*
X0207074Y0047251D01*
X0206954Y0047219D01*
X0206833Y0047190D01*
X0206711Y0047165D01*
X0206589Y0047145D01*
X0206465Y0047128D01*
X0206342Y0047115D01*
X0206218Y0047106D01*
X0206093Y0047101D01*
X0205969Y0047100D01*
X0205845Y0047103D01*
X0205720Y0047110D01*
X0205596Y0047121D01*
X0205473Y0047136D01*
X0205350Y0047155D01*
X0205228Y0047177D01*
X0205106Y0047204D01*
X0204986Y0047234D01*
X0204866Y0047268D01*
X0204748Y0047307D01*
X0204630Y0047348D01*
X0204515Y0047394D01*
X0204400Y0047443D01*
X0204288Y0047496D01*
X0204177Y0047552D01*
X0204068Y0047612D01*
X0203961Y0047676D01*
X0203856Y0047742D01*
X0203753Y0047812D01*
X0203653Y0047886D01*
X0203555Y0047962D01*
X0203459Y0048041D01*
X0203366Y0048124D01*
X0203275Y0048209D01*
X0203188Y0048298D01*
X0203103Y0048389D01*
X0203021Y0048483D01*
X0202943Y0048579D01*
X0202867Y0048678D01*
X0202794Y0048779D01*
X0202725Y0048882D01*
X0202659Y0048988D01*
X0202597Y0049095D01*
X0202538Y0049205D01*
X0202482Y0049316D01*
X0202430Y0049429D01*
X0202382Y0049544D01*
X0202338Y0049660D01*
X0202297Y0049777D01*
X0202260Y0049896D01*
X0202226Y0050016D01*
X0202197Y0050136D01*
X0202171Y0050258D01*
X0202149Y0050381D01*
X0202132Y0050504D01*
X0202118Y0050627D01*
X0202108Y0050751D01*
X0202102Y0050876D01*
X0202100Y0051000D01*
X0202000Y0047000D02*
X0210000Y0055000D01*
X0202100Y0061000D02*
X0202102Y0061124D01*
X0202108Y0061249D01*
X0202118Y0061373D01*
X0202132Y0061496D01*
X0202149Y0061619D01*
X0202171Y0061742D01*
X0202197Y0061864D01*
X0202226Y0061984D01*
X0202260Y0062104D01*
X0202297Y0062223D01*
X0202338Y0062340D01*
X0202382Y0062456D01*
X0202430Y0062571D01*
X0202482Y0062684D01*
X0202538Y0062795D01*
X0202597Y0062905D01*
X0202659Y0063012D01*
X0202725Y0063118D01*
X0202794Y0063221D01*
X0202867Y0063322D01*
X0202943Y0063421D01*
X0203021Y0063517D01*
X0203103Y0063611D01*
X0203188Y0063702D01*
X0203275Y0063791D01*
X0203366Y0063876D01*
X0203459Y0063959D01*
X0203555Y0064038D01*
X0203653Y0064114D01*
X0203753Y0064188D01*
X0203856Y0064258D01*
X0203961Y0064324D01*
X0204068Y0064388D01*
X0204177Y0064448D01*
X0204288Y0064504D01*
X0204400Y0064557D01*
X0204515Y0064606D01*
X0204630Y0064652D01*
X0204748Y0064693D01*
X0204866Y0064732D01*
X0204986Y0064766D01*
X0205106Y0064796D01*
X0205228Y0064823D01*
X0205350Y0064845D01*
X0205473Y0064864D01*
X0205596Y0064879D01*
X0205720Y0064890D01*
X0205845Y0064897D01*
X0205969Y0064900D01*
X0206093Y0064899D01*
X0206218Y0064894D01*
X0206342Y0064885D01*
X0206465Y0064872D01*
X0206589Y0064855D01*
X0206711Y0064835D01*
X0206833Y0064810D01*
X0206954Y0064781D01*
X0207074Y0064749D01*
X0207193Y0064713D01*
X0207311Y0064673D01*
X0207428Y0064629D01*
X0207543Y0064582D01*
X0207656Y0064531D01*
X0207768Y0064476D01*
X0207878Y0064418D01*
X0207986Y0064357D01*
X0208092Y0064292D01*
X0208196Y0064223D01*
X0208297Y0064152D01*
X0208397Y0064077D01*
X0208494Y0063999D01*
X0208588Y0063918D01*
X0208680Y0063834D01*
X0208769Y0063747D01*
X0208855Y0063657D01*
X0208938Y0063565D01*
X0209018Y0063470D01*
X0209096Y0063372D01*
X0209170Y0063272D01*
X0209241Y0063170D01*
X0209308Y0063066D01*
X0209372Y0062959D01*
X0209433Y0062850D01*
X0209490Y0062740D01*
X0209544Y0062628D01*
X0209594Y0062514D01*
X0209641Y0062399D01*
X0209683Y0062282D01*
X0209722Y0062164D01*
X0209758Y0062044D01*
X0209789Y0061924D01*
X0209816Y0061803D01*
X0209840Y0061681D01*
X0209860Y0061558D01*
X0209876Y0061434D01*
X0209888Y0061311D01*
X0209896Y0061187D01*
X0209900Y0061062D01*
X0209900Y0060938D01*
X0209896Y0060813D01*
X0209888Y0060689D01*
X0209876Y0060566D01*
X0209860Y0060442D01*
X0209840Y0060319D01*
X0209816Y0060197D01*
X0209789Y0060076D01*
X0209758Y0059956D01*
X0209722Y0059836D01*
X0209683Y0059718D01*
X0209641Y0059601D01*
X0209594Y0059486D01*
X0209544Y0059372D01*
X0209490Y0059260D01*
X0209433Y0059150D01*
X0209372Y0059041D01*
X0209308Y0058934D01*
X0209241Y0058830D01*
X0209170Y0058728D01*
X0209096Y0058628D01*
X0209018Y0058530D01*
X0208938Y0058435D01*
X0208855Y0058343D01*
X0208769Y0058253D01*
X0208680Y0058166D01*
X0208588Y0058082D01*
X0208494Y0058001D01*
X0208397Y0057923D01*
X0208297Y0057848D01*
X0208196Y0057777D01*
X0208092Y0057708D01*
X0207986Y0057643D01*
X0207878Y0057582D01*
X0207768Y0057524D01*
X0207656Y0057469D01*
X0207543Y0057418D01*
X0207428Y0057371D01*
X0207311Y0057327D01*
X0207193Y0057287D01*
X0207074Y0057251D01*
X0206954Y0057219D01*
X0206833Y0057190D01*
X0206711Y0057165D01*
X0206589Y0057145D01*
X0206465Y0057128D01*
X0206342Y0057115D01*
X0206218Y0057106D01*
X0206093Y0057101D01*
X0205969Y0057100D01*
X0205845Y0057103D01*
X0205720Y0057110D01*
X0205596Y0057121D01*
X0205473Y0057136D01*
X0205350Y0057155D01*
X0205228Y0057177D01*
X0205106Y0057204D01*
X0204986Y0057234D01*
X0204866Y0057268D01*
X0204748Y0057307D01*
X0204630Y0057348D01*
X0204515Y0057394D01*
X0204400Y0057443D01*
X0204288Y0057496D01*
X0204177Y0057552D01*
X0204068Y0057612D01*
X0203961Y0057676D01*
X0203856Y0057742D01*
X0203753Y0057812D01*
X0203653Y0057886D01*
X0203555Y0057962D01*
X0203459Y0058041D01*
X0203366Y0058124D01*
X0203275Y0058209D01*
X0203188Y0058298D01*
X0203103Y0058389D01*
X0203021Y0058483D01*
X0202943Y0058579D01*
X0202867Y0058678D01*
X0202794Y0058779D01*
X0202725Y0058882D01*
X0202659Y0058988D01*
X0202597Y0059095D01*
X0202538Y0059205D01*
X0202482Y0059316D01*
X0202430Y0059429D01*
X0202382Y0059544D01*
X0202338Y0059660D01*
X0202297Y0059777D01*
X0202260Y0059896D01*
X0202226Y0060016D01*
X0202197Y0060136D01*
X0202171Y0060258D01*
X0202149Y0060381D01*
X0202132Y0060504D01*
X0202118Y0060627D01*
X0202108Y0060751D01*
X0202102Y0060876D01*
X0202100Y0061000D01*
X0202000Y0057000D02*
X0210000Y0065000D01*
X0192100Y0086000D02*
X0192102Y0086124D01*
X0192108Y0086249D01*
X0192118Y0086373D01*
X0192132Y0086496D01*
X0192149Y0086619D01*
X0192171Y0086742D01*
X0192197Y0086864D01*
X0192226Y0086984D01*
X0192260Y0087104D01*
X0192297Y0087223D01*
X0192338Y0087340D01*
X0192382Y0087456D01*
X0192430Y0087571D01*
X0192482Y0087684D01*
X0192538Y0087795D01*
X0192597Y0087905D01*
X0192659Y0088012D01*
X0192725Y0088118D01*
X0192794Y0088221D01*
X0192867Y0088322D01*
X0192943Y0088421D01*
X0193021Y0088517D01*
X0193103Y0088611D01*
X0193188Y0088702D01*
X0193275Y0088791D01*
X0193366Y0088876D01*
X0193459Y0088959D01*
X0193555Y0089038D01*
X0193653Y0089114D01*
X0193753Y0089188D01*
X0193856Y0089258D01*
X0193961Y0089324D01*
X0194068Y0089388D01*
X0194177Y0089448D01*
X0194288Y0089504D01*
X0194400Y0089557D01*
X0194515Y0089606D01*
X0194630Y0089652D01*
X0194748Y0089693D01*
X0194866Y0089732D01*
X0194986Y0089766D01*
X0195106Y0089796D01*
X0195228Y0089823D01*
X0195350Y0089845D01*
X0195473Y0089864D01*
X0195596Y0089879D01*
X0195720Y0089890D01*
X0195845Y0089897D01*
X0195969Y0089900D01*
X0196093Y0089899D01*
X0196218Y0089894D01*
X0196342Y0089885D01*
X0196465Y0089872D01*
X0196589Y0089855D01*
X0196711Y0089835D01*
X0196833Y0089810D01*
X0196954Y0089781D01*
X0197074Y0089749D01*
X0197193Y0089713D01*
X0197311Y0089673D01*
X0197428Y0089629D01*
X0197543Y0089582D01*
X0197656Y0089531D01*
X0197768Y0089476D01*
X0197878Y0089418D01*
X0197986Y0089357D01*
X0198092Y0089292D01*
X0198196Y0089223D01*
X0198297Y0089152D01*
X0198397Y0089077D01*
X0198494Y0088999D01*
X0198588Y0088918D01*
X0198680Y0088834D01*
X0198769Y0088747D01*
X0198855Y0088657D01*
X0198938Y0088565D01*
X0199018Y0088470D01*
X0199096Y0088372D01*
X0199170Y0088272D01*
X0199241Y0088170D01*
X0199308Y0088066D01*
X0199372Y0087959D01*
X0199433Y0087850D01*
X0199490Y0087740D01*
X0199544Y0087628D01*
X0199594Y0087514D01*
X0199641Y0087399D01*
X0199683Y0087282D01*
X0199722Y0087164D01*
X0199758Y0087044D01*
X0199789Y0086924D01*
X0199816Y0086803D01*
X0199840Y0086681D01*
X0199860Y0086558D01*
X0199876Y0086434D01*
X0199888Y0086311D01*
X0199896Y0086187D01*
X0199900Y0086062D01*
X0199900Y0085938D01*
X0199896Y0085813D01*
X0199888Y0085689D01*
X0199876Y0085566D01*
X0199860Y0085442D01*
X0199840Y0085319D01*
X0199816Y0085197D01*
X0199789Y0085076D01*
X0199758Y0084956D01*
X0199722Y0084836D01*
X0199683Y0084718D01*
X0199641Y0084601D01*
X0199594Y0084486D01*
X0199544Y0084372D01*
X0199490Y0084260D01*
X0199433Y0084150D01*
X0199372Y0084041D01*
X0199308Y0083934D01*
X0199241Y0083830D01*
X0199170Y0083728D01*
X0199096Y0083628D01*
X0199018Y0083530D01*
X0198938Y0083435D01*
X0198855Y0083343D01*
X0198769Y0083253D01*
X0198680Y0083166D01*
X0198588Y0083082D01*
X0198494Y0083001D01*
X0198397Y0082923D01*
X0198297Y0082848D01*
X0198196Y0082777D01*
X0198092Y0082708D01*
X0197986Y0082643D01*
X0197878Y0082582D01*
X0197768Y0082524D01*
X0197656Y0082469D01*
X0197543Y0082418D01*
X0197428Y0082371D01*
X0197311Y0082327D01*
X0197193Y0082287D01*
X0197074Y0082251D01*
X0196954Y0082219D01*
X0196833Y0082190D01*
X0196711Y0082165D01*
X0196589Y0082145D01*
X0196465Y0082128D01*
X0196342Y0082115D01*
X0196218Y0082106D01*
X0196093Y0082101D01*
X0195969Y0082100D01*
X0195845Y0082103D01*
X0195720Y0082110D01*
X0195596Y0082121D01*
X0195473Y0082136D01*
X0195350Y0082155D01*
X0195228Y0082177D01*
X0195106Y0082204D01*
X0194986Y0082234D01*
X0194866Y0082268D01*
X0194748Y0082307D01*
X0194630Y0082348D01*
X0194515Y0082394D01*
X0194400Y0082443D01*
X0194288Y0082496D01*
X0194177Y0082552D01*
X0194068Y0082612D01*
X0193961Y0082676D01*
X0193856Y0082742D01*
X0193753Y0082812D01*
X0193653Y0082886D01*
X0193555Y0082962D01*
X0193459Y0083041D01*
X0193366Y0083124D01*
X0193275Y0083209D01*
X0193188Y0083298D01*
X0193103Y0083389D01*
X0193021Y0083483D01*
X0192943Y0083579D01*
X0192867Y0083678D01*
X0192794Y0083779D01*
X0192725Y0083882D01*
X0192659Y0083988D01*
X0192597Y0084095D01*
X0192538Y0084205D01*
X0192482Y0084316D01*
X0192430Y0084429D01*
X0192382Y0084544D01*
X0192338Y0084660D01*
X0192297Y0084777D01*
X0192260Y0084896D01*
X0192226Y0085016D01*
X0192197Y0085136D01*
X0192171Y0085258D01*
X0192149Y0085381D01*
X0192132Y0085504D01*
X0192118Y0085627D01*
X0192108Y0085751D01*
X0192102Y0085876D01*
X0192100Y0086000D01*
X0192000Y0082000D02*
X0200000Y0090000D01*
X0182100Y0086000D02*
X0182102Y0086124D01*
X0182108Y0086249D01*
X0182118Y0086373D01*
X0182132Y0086496D01*
X0182149Y0086619D01*
X0182171Y0086742D01*
X0182197Y0086864D01*
X0182226Y0086984D01*
X0182260Y0087104D01*
X0182297Y0087223D01*
X0182338Y0087340D01*
X0182382Y0087456D01*
X0182430Y0087571D01*
X0182482Y0087684D01*
X0182538Y0087795D01*
X0182597Y0087905D01*
X0182659Y0088012D01*
X0182725Y0088118D01*
X0182794Y0088221D01*
X0182867Y0088322D01*
X0182943Y0088421D01*
X0183021Y0088517D01*
X0183103Y0088611D01*
X0183188Y0088702D01*
X0183275Y0088791D01*
X0183366Y0088876D01*
X0183459Y0088959D01*
X0183555Y0089038D01*
X0183653Y0089114D01*
X0183753Y0089188D01*
X0183856Y0089258D01*
X0183961Y0089324D01*
X0184068Y0089388D01*
X0184177Y0089448D01*
X0184288Y0089504D01*
X0184400Y0089557D01*
X0184515Y0089606D01*
X0184630Y0089652D01*
X0184748Y0089693D01*
X0184866Y0089732D01*
X0184986Y0089766D01*
X0185106Y0089796D01*
X0185228Y0089823D01*
X0185350Y0089845D01*
X0185473Y0089864D01*
X0185596Y0089879D01*
X0185720Y0089890D01*
X0185845Y0089897D01*
X0185969Y0089900D01*
X0186093Y0089899D01*
X0186218Y0089894D01*
X0186342Y0089885D01*
X0186465Y0089872D01*
X0186589Y0089855D01*
X0186711Y0089835D01*
X0186833Y0089810D01*
X0186954Y0089781D01*
X0187074Y0089749D01*
X0187193Y0089713D01*
X0187311Y0089673D01*
X0187428Y0089629D01*
X0187543Y0089582D01*
X0187656Y0089531D01*
X0187768Y0089476D01*
X0187878Y0089418D01*
X0187986Y0089357D01*
X0188092Y0089292D01*
X0188196Y0089223D01*
X0188297Y0089152D01*
X0188397Y0089077D01*
X0188494Y0088999D01*
X0188588Y0088918D01*
X0188680Y0088834D01*
X0188769Y0088747D01*
X0188855Y0088657D01*
X0188938Y0088565D01*
X0189018Y0088470D01*
X0189096Y0088372D01*
X0189170Y0088272D01*
X0189241Y0088170D01*
X0189308Y0088066D01*
X0189372Y0087959D01*
X0189433Y0087850D01*
X0189490Y0087740D01*
X0189544Y0087628D01*
X0189594Y0087514D01*
X0189641Y0087399D01*
X0189683Y0087282D01*
X0189722Y0087164D01*
X0189758Y0087044D01*
X0189789Y0086924D01*
X0189816Y0086803D01*
X0189840Y0086681D01*
X0189860Y0086558D01*
X0189876Y0086434D01*
X0189888Y0086311D01*
X0189896Y0086187D01*
X0189900Y0086062D01*
X0189900Y0085938D01*
X0189896Y0085813D01*
X0189888Y0085689D01*
X0189876Y0085566D01*
X0189860Y0085442D01*
X0189840Y0085319D01*
X0189816Y0085197D01*
X0189789Y0085076D01*
X0189758Y0084956D01*
X0189722Y0084836D01*
X0189683Y0084718D01*
X0189641Y0084601D01*
X0189594Y0084486D01*
X0189544Y0084372D01*
X0189490Y0084260D01*
X0189433Y0084150D01*
X0189372Y0084041D01*
X0189308Y0083934D01*
X0189241Y0083830D01*
X0189170Y0083728D01*
X0189096Y0083628D01*
X0189018Y0083530D01*
X0188938Y0083435D01*
X0188855Y0083343D01*
X0188769Y0083253D01*
X0188680Y0083166D01*
X0188588Y0083082D01*
X0188494Y0083001D01*
X0188397Y0082923D01*
X0188297Y0082848D01*
X0188196Y0082777D01*
X0188092Y0082708D01*
X0187986Y0082643D01*
X0187878Y0082582D01*
X0187768Y0082524D01*
X0187656Y0082469D01*
X0187543Y0082418D01*
X0187428Y0082371D01*
X0187311Y0082327D01*
X0187193Y0082287D01*
X0187074Y0082251D01*
X0186954Y0082219D01*
X0186833Y0082190D01*
X0186711Y0082165D01*
X0186589Y0082145D01*
X0186465Y0082128D01*
X0186342Y0082115D01*
X0186218Y0082106D01*
X0186093Y0082101D01*
X0185969Y0082100D01*
X0185845Y0082103D01*
X0185720Y0082110D01*
X0185596Y0082121D01*
X0185473Y0082136D01*
X0185350Y0082155D01*
X0185228Y0082177D01*
X0185106Y0082204D01*
X0184986Y0082234D01*
X0184866Y0082268D01*
X0184748Y0082307D01*
X0184630Y0082348D01*
X0184515Y0082394D01*
X0184400Y0082443D01*
X0184288Y0082496D01*
X0184177Y0082552D01*
X0184068Y0082612D01*
X0183961Y0082676D01*
X0183856Y0082742D01*
X0183753Y0082812D01*
X0183653Y0082886D01*
X0183555Y0082962D01*
X0183459Y0083041D01*
X0183366Y0083124D01*
X0183275Y0083209D01*
X0183188Y0083298D01*
X0183103Y0083389D01*
X0183021Y0083483D01*
X0182943Y0083579D01*
X0182867Y0083678D01*
X0182794Y0083779D01*
X0182725Y0083882D01*
X0182659Y0083988D01*
X0182597Y0084095D01*
X0182538Y0084205D01*
X0182482Y0084316D01*
X0182430Y0084429D01*
X0182382Y0084544D01*
X0182338Y0084660D01*
X0182297Y0084777D01*
X0182260Y0084896D01*
X0182226Y0085016D01*
X0182197Y0085136D01*
X0182171Y0085258D01*
X0182149Y0085381D01*
X0182132Y0085504D01*
X0182118Y0085627D01*
X0182108Y0085751D01*
X0182102Y0085876D01*
X0182100Y0086000D01*
X0182000Y0082000D02*
X0190000Y0090000D01*
X0172100Y0086000D02*
X0172102Y0086124D01*
X0172108Y0086249D01*
X0172118Y0086373D01*
X0172132Y0086496D01*
X0172149Y0086619D01*
X0172171Y0086742D01*
X0172197Y0086864D01*
X0172226Y0086984D01*
X0172260Y0087104D01*
X0172297Y0087223D01*
X0172338Y0087340D01*
X0172382Y0087456D01*
X0172430Y0087571D01*
X0172482Y0087684D01*
X0172538Y0087795D01*
X0172597Y0087905D01*
X0172659Y0088012D01*
X0172725Y0088118D01*
X0172794Y0088221D01*
X0172867Y0088322D01*
X0172943Y0088421D01*
X0173021Y0088517D01*
X0173103Y0088611D01*
X0173188Y0088702D01*
X0173275Y0088791D01*
X0173366Y0088876D01*
X0173459Y0088959D01*
X0173555Y0089038D01*
X0173653Y0089114D01*
X0173753Y0089188D01*
X0173856Y0089258D01*
X0173961Y0089324D01*
X0174068Y0089388D01*
X0174177Y0089448D01*
X0174288Y0089504D01*
X0174400Y0089557D01*
X0174515Y0089606D01*
X0174630Y0089652D01*
X0174748Y0089693D01*
X0174866Y0089732D01*
X0174986Y0089766D01*
X0175106Y0089796D01*
X0175228Y0089823D01*
X0175350Y0089845D01*
X0175473Y0089864D01*
X0175596Y0089879D01*
X0175720Y0089890D01*
X0175845Y0089897D01*
X0175969Y0089900D01*
X0176093Y0089899D01*
X0176218Y0089894D01*
X0176342Y0089885D01*
X0176465Y0089872D01*
X0176589Y0089855D01*
X0176711Y0089835D01*
X0176833Y0089810D01*
X0176954Y0089781D01*
X0177074Y0089749D01*
X0177193Y0089713D01*
X0177311Y0089673D01*
X0177428Y0089629D01*
X0177543Y0089582D01*
X0177656Y0089531D01*
X0177768Y0089476D01*
X0177878Y0089418D01*
X0177986Y0089357D01*
X0178092Y0089292D01*
X0178196Y0089223D01*
X0178297Y0089152D01*
X0178397Y0089077D01*
X0178494Y0088999D01*
X0178588Y0088918D01*
X0178680Y0088834D01*
X0178769Y0088747D01*
X0178855Y0088657D01*
X0178938Y0088565D01*
X0179018Y0088470D01*
X0179096Y0088372D01*
X0179170Y0088272D01*
X0179241Y0088170D01*
X0179308Y0088066D01*
X0179372Y0087959D01*
X0179433Y0087850D01*
X0179490Y0087740D01*
X0179544Y0087628D01*
X0179594Y0087514D01*
X0179641Y0087399D01*
X0179683Y0087282D01*
X0179722Y0087164D01*
X0179758Y0087044D01*
X0179789Y0086924D01*
X0179816Y0086803D01*
X0179840Y0086681D01*
X0179860Y0086558D01*
X0179876Y0086434D01*
X0179888Y0086311D01*
X0179896Y0086187D01*
X0179900Y0086062D01*
X0179900Y0085938D01*
X0179896Y0085813D01*
X0179888Y0085689D01*
X0179876Y0085566D01*
X0179860Y0085442D01*
X0179840Y0085319D01*
X0179816Y0085197D01*
X0179789Y0085076D01*
X0179758Y0084956D01*
X0179722Y0084836D01*
X0179683Y0084718D01*
X0179641Y0084601D01*
X0179594Y0084486D01*
X0179544Y0084372D01*
X0179490Y0084260D01*
X0179433Y0084150D01*
X0179372Y0084041D01*
X0179308Y0083934D01*
X0179241Y0083830D01*
X0179170Y0083728D01*
X0179096Y0083628D01*
X0179018Y0083530D01*
X0178938Y0083435D01*
X0178855Y0083343D01*
X0178769Y0083253D01*
X0178680Y0083166D01*
X0178588Y0083082D01*
X0178494Y0083001D01*
X0178397Y0082923D01*
X0178297Y0082848D01*
X0178196Y0082777D01*
X0178092Y0082708D01*
X0177986Y0082643D01*
X0177878Y0082582D01*
X0177768Y0082524D01*
X0177656Y0082469D01*
X0177543Y0082418D01*
X0177428Y0082371D01*
X0177311Y0082327D01*
X0177193Y0082287D01*
X0177074Y0082251D01*
X0176954Y0082219D01*
X0176833Y0082190D01*
X0176711Y0082165D01*
X0176589Y0082145D01*
X0176465Y0082128D01*
X0176342Y0082115D01*
X0176218Y0082106D01*
X0176093Y0082101D01*
X0175969Y0082100D01*
X0175845Y0082103D01*
X0175720Y0082110D01*
X0175596Y0082121D01*
X0175473Y0082136D01*
X0175350Y0082155D01*
X0175228Y0082177D01*
X0175106Y0082204D01*
X0174986Y0082234D01*
X0174866Y0082268D01*
X0174748Y0082307D01*
X0174630Y0082348D01*
X0174515Y0082394D01*
X0174400Y0082443D01*
X0174288Y0082496D01*
X0174177Y0082552D01*
X0174068Y0082612D01*
X0173961Y0082676D01*
X0173856Y0082742D01*
X0173753Y0082812D01*
X0173653Y0082886D01*
X0173555Y0082962D01*
X0173459Y0083041D01*
X0173366Y0083124D01*
X0173275Y0083209D01*
X0173188Y0083298D01*
X0173103Y0083389D01*
X0173021Y0083483D01*
X0172943Y0083579D01*
X0172867Y0083678D01*
X0172794Y0083779D01*
X0172725Y0083882D01*
X0172659Y0083988D01*
X0172597Y0084095D01*
X0172538Y0084205D01*
X0172482Y0084316D01*
X0172430Y0084429D01*
X0172382Y0084544D01*
X0172338Y0084660D01*
X0172297Y0084777D01*
X0172260Y0084896D01*
X0172226Y0085016D01*
X0172197Y0085136D01*
X0172171Y0085258D01*
X0172149Y0085381D01*
X0172132Y0085504D01*
X0172118Y0085627D01*
X0172108Y0085751D01*
X0172102Y0085876D01*
X0172100Y0086000D01*
X0172000Y0082000D02*
X0180000Y0090000D01*
X0162100Y0086000D02*
X0162102Y0086124D01*
X0162108Y0086249D01*
X0162118Y0086373D01*
X0162132Y0086496D01*
X0162149Y0086619D01*
X0162171Y0086742D01*
X0162197Y0086864D01*
X0162226Y0086984D01*
X0162260Y0087104D01*
X0162297Y0087223D01*
X0162338Y0087340D01*
X0162382Y0087456D01*
X0162430Y0087571D01*
X0162482Y0087684D01*
X0162538Y0087795D01*
X0162597Y0087905D01*
X0162659Y0088012D01*
X0162725Y0088118D01*
X0162794Y0088221D01*
X0162867Y0088322D01*
X0162943Y0088421D01*
X0163021Y0088517D01*
X0163103Y0088611D01*
X0163188Y0088702D01*
X0163275Y0088791D01*
X0163366Y0088876D01*
X0163459Y0088959D01*
X0163555Y0089038D01*
X0163653Y0089114D01*
X0163753Y0089188D01*
X0163856Y0089258D01*
X0163961Y0089324D01*
X0164068Y0089388D01*
X0164177Y0089448D01*
X0164288Y0089504D01*
X0164400Y0089557D01*
X0164515Y0089606D01*
X0164630Y0089652D01*
X0164748Y0089693D01*
X0164866Y0089732D01*
X0164986Y0089766D01*
X0165106Y0089796D01*
X0165228Y0089823D01*
X0165350Y0089845D01*
X0165473Y0089864D01*
X0165596Y0089879D01*
X0165720Y0089890D01*
X0165845Y0089897D01*
X0165969Y0089900D01*
X0166093Y0089899D01*
X0166218Y0089894D01*
X0166342Y0089885D01*
X0166465Y0089872D01*
X0166589Y0089855D01*
X0166711Y0089835D01*
X0166833Y0089810D01*
X0166954Y0089781D01*
X0167074Y0089749D01*
X0167193Y0089713D01*
X0167311Y0089673D01*
X0167428Y0089629D01*
X0167543Y0089582D01*
X0167656Y0089531D01*
X0167768Y0089476D01*
X0167878Y0089418D01*
X0167986Y0089357D01*
X0168092Y0089292D01*
X0168196Y0089223D01*
X0168297Y0089152D01*
X0168397Y0089077D01*
X0168494Y0088999D01*
X0168588Y0088918D01*
X0168680Y0088834D01*
X0168769Y0088747D01*
X0168855Y0088657D01*
X0168938Y0088565D01*
X0169018Y0088470D01*
X0169096Y0088372D01*
X0169170Y0088272D01*
X0169241Y0088170D01*
X0169308Y0088066D01*
X0169372Y0087959D01*
X0169433Y0087850D01*
X0169490Y0087740D01*
X0169544Y0087628D01*
X0169594Y0087514D01*
X0169641Y0087399D01*
X0169683Y0087282D01*
X0169722Y0087164D01*
X0169758Y0087044D01*
X0169789Y0086924D01*
X0169816Y0086803D01*
X0169840Y0086681D01*
X0169860Y0086558D01*
X0169876Y0086434D01*
X0169888Y0086311D01*
X0169896Y0086187D01*
X0169900Y0086062D01*
X0169900Y0085938D01*
X0169896Y0085813D01*
X0169888Y0085689D01*
X0169876Y0085566D01*
X0169860Y0085442D01*
X0169840Y0085319D01*
X0169816Y0085197D01*
X0169789Y0085076D01*
X0169758Y0084956D01*
X0169722Y0084836D01*
X0169683Y0084718D01*
X0169641Y0084601D01*
X0169594Y0084486D01*
X0169544Y0084372D01*
X0169490Y0084260D01*
X0169433Y0084150D01*
X0169372Y0084041D01*
X0169308Y0083934D01*
X0169241Y0083830D01*
X0169170Y0083728D01*
X0169096Y0083628D01*
X0169018Y0083530D01*
X0168938Y0083435D01*
X0168855Y0083343D01*
X0168769Y0083253D01*
X0168680Y0083166D01*
X0168588Y0083082D01*
X0168494Y0083001D01*
X0168397Y0082923D01*
X0168297Y0082848D01*
X0168196Y0082777D01*
X0168092Y0082708D01*
X0167986Y0082643D01*
X0167878Y0082582D01*
X0167768Y0082524D01*
X0167656Y0082469D01*
X0167543Y0082418D01*
X0167428Y0082371D01*
X0167311Y0082327D01*
X0167193Y0082287D01*
X0167074Y0082251D01*
X0166954Y0082219D01*
X0166833Y0082190D01*
X0166711Y0082165D01*
X0166589Y0082145D01*
X0166465Y0082128D01*
X0166342Y0082115D01*
X0166218Y0082106D01*
X0166093Y0082101D01*
X0165969Y0082100D01*
X0165845Y0082103D01*
X0165720Y0082110D01*
X0165596Y0082121D01*
X0165473Y0082136D01*
X0165350Y0082155D01*
X0165228Y0082177D01*
X0165106Y0082204D01*
X0164986Y0082234D01*
X0164866Y0082268D01*
X0164748Y0082307D01*
X0164630Y0082348D01*
X0164515Y0082394D01*
X0164400Y0082443D01*
X0164288Y0082496D01*
X0164177Y0082552D01*
X0164068Y0082612D01*
X0163961Y0082676D01*
X0163856Y0082742D01*
X0163753Y0082812D01*
X0163653Y0082886D01*
X0163555Y0082962D01*
X0163459Y0083041D01*
X0163366Y0083124D01*
X0163275Y0083209D01*
X0163188Y0083298D01*
X0163103Y0083389D01*
X0163021Y0083483D01*
X0162943Y0083579D01*
X0162867Y0083678D01*
X0162794Y0083779D01*
X0162725Y0083882D01*
X0162659Y0083988D01*
X0162597Y0084095D01*
X0162538Y0084205D01*
X0162482Y0084316D01*
X0162430Y0084429D01*
X0162382Y0084544D01*
X0162338Y0084660D01*
X0162297Y0084777D01*
X0162260Y0084896D01*
X0162226Y0085016D01*
X0162197Y0085136D01*
X0162171Y0085258D01*
X0162149Y0085381D01*
X0162132Y0085504D01*
X0162118Y0085627D01*
X0162108Y0085751D01*
X0162102Y0085876D01*
X0162100Y0086000D01*
X0162000Y0082000D02*
X0170000Y0090000D01*
X0152100Y0086000D02*
X0152102Y0086124D01*
X0152108Y0086249D01*
X0152118Y0086373D01*
X0152132Y0086496D01*
X0152149Y0086619D01*
X0152171Y0086742D01*
X0152197Y0086864D01*
X0152226Y0086984D01*
X0152260Y0087104D01*
X0152297Y0087223D01*
X0152338Y0087340D01*
X0152382Y0087456D01*
X0152430Y0087571D01*
X0152482Y0087684D01*
X0152538Y0087795D01*
X0152597Y0087905D01*
X0152659Y0088012D01*
X0152725Y0088118D01*
X0152794Y0088221D01*
X0152867Y0088322D01*
X0152943Y0088421D01*
X0153021Y0088517D01*
X0153103Y0088611D01*
X0153188Y0088702D01*
X0153275Y0088791D01*
X0153366Y0088876D01*
X0153459Y0088959D01*
X0153555Y0089038D01*
X0153653Y0089114D01*
X0153753Y0089188D01*
X0153856Y0089258D01*
X0153961Y0089324D01*
X0154068Y0089388D01*
X0154177Y0089448D01*
X0154288Y0089504D01*
X0154400Y0089557D01*
X0154515Y0089606D01*
X0154630Y0089652D01*
X0154748Y0089693D01*
X0154866Y0089732D01*
X0154986Y0089766D01*
X0155106Y0089796D01*
X0155228Y0089823D01*
X0155350Y0089845D01*
X0155473Y0089864D01*
X0155596Y0089879D01*
X0155720Y0089890D01*
X0155845Y0089897D01*
X0155969Y0089900D01*
X0156093Y0089899D01*
X0156218Y0089894D01*
X0156342Y0089885D01*
X0156465Y0089872D01*
X0156589Y0089855D01*
X0156711Y0089835D01*
X0156833Y0089810D01*
X0156954Y0089781D01*
X0157074Y0089749D01*
X0157193Y0089713D01*
X0157311Y0089673D01*
X0157428Y0089629D01*
X0157543Y0089582D01*
X0157656Y0089531D01*
X0157768Y0089476D01*
X0157878Y0089418D01*
X0157986Y0089357D01*
X0158092Y0089292D01*
X0158196Y0089223D01*
X0158297Y0089152D01*
X0158397Y0089077D01*
X0158494Y0088999D01*
X0158588Y0088918D01*
X0158680Y0088834D01*
X0158769Y0088747D01*
X0158855Y0088657D01*
X0158938Y0088565D01*
X0159018Y0088470D01*
X0159096Y0088372D01*
X0159170Y0088272D01*
X0159241Y0088170D01*
X0159308Y0088066D01*
X0159372Y0087959D01*
X0159433Y0087850D01*
X0159490Y0087740D01*
X0159544Y0087628D01*
X0159594Y0087514D01*
X0159641Y0087399D01*
X0159683Y0087282D01*
X0159722Y0087164D01*
X0159758Y0087044D01*
X0159789Y0086924D01*
X0159816Y0086803D01*
X0159840Y0086681D01*
X0159860Y0086558D01*
X0159876Y0086434D01*
X0159888Y0086311D01*
X0159896Y0086187D01*
X0159900Y0086062D01*
X0159900Y0085938D01*
X0159896Y0085813D01*
X0159888Y0085689D01*
X0159876Y0085566D01*
X0159860Y0085442D01*
X0159840Y0085319D01*
X0159816Y0085197D01*
X0159789Y0085076D01*
X0159758Y0084956D01*
X0159722Y0084836D01*
X0159683Y0084718D01*
X0159641Y0084601D01*
X0159594Y0084486D01*
X0159544Y0084372D01*
X0159490Y0084260D01*
X0159433Y0084150D01*
X0159372Y0084041D01*
X0159308Y0083934D01*
X0159241Y0083830D01*
X0159170Y0083728D01*
X0159096Y0083628D01*
X0159018Y0083530D01*
X0158938Y0083435D01*
X0158855Y0083343D01*
X0158769Y0083253D01*
X0158680Y0083166D01*
X0158588Y0083082D01*
X0158494Y0083001D01*
X0158397Y0082923D01*
X0158297Y0082848D01*
X0158196Y0082777D01*
X0158092Y0082708D01*
X0157986Y0082643D01*
X0157878Y0082582D01*
X0157768Y0082524D01*
X0157656Y0082469D01*
X0157543Y0082418D01*
X0157428Y0082371D01*
X0157311Y0082327D01*
X0157193Y0082287D01*
X0157074Y0082251D01*
X0156954Y0082219D01*
X0156833Y0082190D01*
X0156711Y0082165D01*
X0156589Y0082145D01*
X0156465Y0082128D01*
X0156342Y0082115D01*
X0156218Y0082106D01*
X0156093Y0082101D01*
X0155969Y0082100D01*
X0155845Y0082103D01*
X0155720Y0082110D01*
X0155596Y0082121D01*
X0155473Y0082136D01*
X0155350Y0082155D01*
X0155228Y0082177D01*
X0155106Y0082204D01*
X0154986Y0082234D01*
X0154866Y0082268D01*
X0154748Y0082307D01*
X0154630Y0082348D01*
X0154515Y0082394D01*
X0154400Y0082443D01*
X0154288Y0082496D01*
X0154177Y0082552D01*
X0154068Y0082612D01*
X0153961Y0082676D01*
X0153856Y0082742D01*
X0153753Y0082812D01*
X0153653Y0082886D01*
X0153555Y0082962D01*
X0153459Y0083041D01*
X0153366Y0083124D01*
X0153275Y0083209D01*
X0153188Y0083298D01*
X0153103Y0083389D01*
X0153021Y0083483D01*
X0152943Y0083579D01*
X0152867Y0083678D01*
X0152794Y0083779D01*
X0152725Y0083882D01*
X0152659Y0083988D01*
X0152597Y0084095D01*
X0152538Y0084205D01*
X0152482Y0084316D01*
X0152430Y0084429D01*
X0152382Y0084544D01*
X0152338Y0084660D01*
X0152297Y0084777D01*
X0152260Y0084896D01*
X0152226Y0085016D01*
X0152197Y0085136D01*
X0152171Y0085258D01*
X0152149Y0085381D01*
X0152132Y0085504D01*
X0152118Y0085627D01*
X0152108Y0085751D01*
X0152102Y0085876D01*
X0152100Y0086000D01*
X0152000Y0082000D02*
X0160000Y0090000D01*
X0142100Y0086000D02*
X0142102Y0086124D01*
X0142108Y0086249D01*
X0142118Y0086373D01*
X0142132Y0086496D01*
X0142149Y0086619D01*
X0142171Y0086742D01*
X0142197Y0086864D01*
X0142226Y0086984D01*
X0142260Y0087104D01*
X0142297Y0087223D01*
X0142338Y0087340D01*
X0142382Y0087456D01*
X0142430Y0087571D01*
X0142482Y0087684D01*
X0142538Y0087795D01*
X0142597Y0087905D01*
X0142659Y0088012D01*
X0142725Y0088118D01*
X0142794Y0088221D01*
X0142867Y0088322D01*
X0142943Y0088421D01*
X0143021Y0088517D01*
X0143103Y0088611D01*
X0143188Y0088702D01*
X0143275Y0088791D01*
X0143366Y0088876D01*
X0143459Y0088959D01*
X0143555Y0089038D01*
X0143653Y0089114D01*
X0143753Y0089188D01*
X0143856Y0089258D01*
X0143961Y0089324D01*
X0144068Y0089388D01*
X0144177Y0089448D01*
X0144288Y0089504D01*
X0144400Y0089557D01*
X0144515Y0089606D01*
X0144630Y0089652D01*
X0144748Y0089693D01*
X0144866Y0089732D01*
X0144986Y0089766D01*
X0145106Y0089796D01*
X0145228Y0089823D01*
X0145350Y0089845D01*
X0145473Y0089864D01*
X0145596Y0089879D01*
X0145720Y0089890D01*
X0145845Y0089897D01*
X0145969Y0089900D01*
X0146093Y0089899D01*
X0146218Y0089894D01*
X0146342Y0089885D01*
X0146465Y0089872D01*
X0146589Y0089855D01*
X0146711Y0089835D01*
X0146833Y0089810D01*
X0146954Y0089781D01*
X0147074Y0089749D01*
X0147193Y0089713D01*
X0147311Y0089673D01*
X0147428Y0089629D01*
X0147543Y0089582D01*
X0147656Y0089531D01*
X0147768Y0089476D01*
X0147878Y0089418D01*
X0147986Y0089357D01*
X0148092Y0089292D01*
X0148196Y0089223D01*
X0148297Y0089152D01*
X0148397Y0089077D01*
X0148494Y0088999D01*
X0148588Y0088918D01*
X0148680Y0088834D01*
X0148769Y0088747D01*
X0148855Y0088657D01*
X0148938Y0088565D01*
X0149018Y0088470D01*
X0149096Y0088372D01*
X0149170Y0088272D01*
X0149241Y0088170D01*
X0149308Y0088066D01*
X0149372Y0087959D01*
X0149433Y0087850D01*
X0149490Y0087740D01*
X0149544Y0087628D01*
X0149594Y0087514D01*
X0149641Y0087399D01*
X0149683Y0087282D01*
X0149722Y0087164D01*
X0149758Y0087044D01*
X0149789Y0086924D01*
X0149816Y0086803D01*
X0149840Y0086681D01*
X0149860Y0086558D01*
X0149876Y0086434D01*
X0149888Y0086311D01*
X0149896Y0086187D01*
X0149900Y0086062D01*
X0149900Y0085938D01*
X0149896Y0085813D01*
X0149888Y0085689D01*
X0149876Y0085566D01*
X0149860Y0085442D01*
X0149840Y0085319D01*
X0149816Y0085197D01*
X0149789Y0085076D01*
X0149758Y0084956D01*
X0149722Y0084836D01*
X0149683Y0084718D01*
X0149641Y0084601D01*
X0149594Y0084486D01*
X0149544Y0084372D01*
X0149490Y0084260D01*
X0149433Y0084150D01*
X0149372Y0084041D01*
X0149308Y0083934D01*
X0149241Y0083830D01*
X0149170Y0083728D01*
X0149096Y0083628D01*
X0149018Y0083530D01*
X0148938Y0083435D01*
X0148855Y0083343D01*
X0148769Y0083253D01*
X0148680Y0083166D01*
X0148588Y0083082D01*
X0148494Y0083001D01*
X0148397Y0082923D01*
X0148297Y0082848D01*
X0148196Y0082777D01*
X0148092Y0082708D01*
X0147986Y0082643D01*
X0147878Y0082582D01*
X0147768Y0082524D01*
X0147656Y0082469D01*
X0147543Y0082418D01*
X0147428Y0082371D01*
X0147311Y0082327D01*
X0147193Y0082287D01*
X0147074Y0082251D01*
X0146954Y0082219D01*
X0146833Y0082190D01*
X0146711Y0082165D01*
X0146589Y0082145D01*
X0146465Y0082128D01*
X0146342Y0082115D01*
X0146218Y0082106D01*
X0146093Y0082101D01*
X0145969Y0082100D01*
X0145845Y0082103D01*
X0145720Y0082110D01*
X0145596Y0082121D01*
X0145473Y0082136D01*
X0145350Y0082155D01*
X0145228Y0082177D01*
X0145106Y0082204D01*
X0144986Y0082234D01*
X0144866Y0082268D01*
X0144748Y0082307D01*
X0144630Y0082348D01*
X0144515Y0082394D01*
X0144400Y0082443D01*
X0144288Y0082496D01*
X0144177Y0082552D01*
X0144068Y0082612D01*
X0143961Y0082676D01*
X0143856Y0082742D01*
X0143753Y0082812D01*
X0143653Y0082886D01*
X0143555Y0082962D01*
X0143459Y0083041D01*
X0143366Y0083124D01*
X0143275Y0083209D01*
X0143188Y0083298D01*
X0143103Y0083389D01*
X0143021Y0083483D01*
X0142943Y0083579D01*
X0142867Y0083678D01*
X0142794Y0083779D01*
X0142725Y0083882D01*
X0142659Y0083988D01*
X0142597Y0084095D01*
X0142538Y0084205D01*
X0142482Y0084316D01*
X0142430Y0084429D01*
X0142382Y0084544D01*
X0142338Y0084660D01*
X0142297Y0084777D01*
X0142260Y0084896D01*
X0142226Y0085016D01*
X0142197Y0085136D01*
X0142171Y0085258D01*
X0142149Y0085381D01*
X0142132Y0085504D01*
X0142118Y0085627D01*
X0142108Y0085751D01*
X0142102Y0085876D01*
X0142100Y0086000D01*
X0142000Y0082000D02*
X0150000Y0090000D01*
X0132100Y0086000D02*
X0132102Y0086124D01*
X0132108Y0086249D01*
X0132118Y0086373D01*
X0132132Y0086496D01*
X0132149Y0086619D01*
X0132171Y0086742D01*
X0132197Y0086864D01*
X0132226Y0086984D01*
X0132260Y0087104D01*
X0132297Y0087223D01*
X0132338Y0087340D01*
X0132382Y0087456D01*
X0132430Y0087571D01*
X0132482Y0087684D01*
X0132538Y0087795D01*
X0132597Y0087905D01*
X0132659Y0088012D01*
X0132725Y0088118D01*
X0132794Y0088221D01*
X0132867Y0088322D01*
X0132943Y0088421D01*
X0133021Y0088517D01*
X0133103Y0088611D01*
X0133188Y0088702D01*
X0133275Y0088791D01*
X0133366Y0088876D01*
X0133459Y0088959D01*
X0133555Y0089038D01*
X0133653Y0089114D01*
X0133753Y0089188D01*
X0133856Y0089258D01*
X0133961Y0089324D01*
X0134068Y0089388D01*
X0134177Y0089448D01*
X0134288Y0089504D01*
X0134400Y0089557D01*
X0134515Y0089606D01*
X0134630Y0089652D01*
X0134748Y0089693D01*
X0134866Y0089732D01*
X0134986Y0089766D01*
X0135106Y0089796D01*
X0135228Y0089823D01*
X0135350Y0089845D01*
X0135473Y0089864D01*
X0135596Y0089879D01*
X0135720Y0089890D01*
X0135845Y0089897D01*
X0135969Y0089900D01*
X0136093Y0089899D01*
X0136218Y0089894D01*
X0136342Y0089885D01*
X0136465Y0089872D01*
X0136589Y0089855D01*
X0136711Y0089835D01*
X0136833Y0089810D01*
X0136954Y0089781D01*
X0137074Y0089749D01*
X0137193Y0089713D01*
X0137311Y0089673D01*
X0137428Y0089629D01*
X0137543Y0089582D01*
X0137656Y0089531D01*
X0137768Y0089476D01*
X0137878Y0089418D01*
X0137986Y0089357D01*
X0138092Y0089292D01*
X0138196Y0089223D01*
X0138297Y0089152D01*
X0138397Y0089077D01*
X0138494Y0088999D01*
X0138588Y0088918D01*
X0138680Y0088834D01*
X0138769Y0088747D01*
X0138855Y0088657D01*
X0138938Y0088565D01*
X0139018Y0088470D01*
X0139096Y0088372D01*
X0139170Y0088272D01*
X0139241Y0088170D01*
X0139308Y0088066D01*
X0139372Y0087959D01*
X0139433Y0087850D01*
X0139490Y0087740D01*
X0139544Y0087628D01*
X0139594Y0087514D01*
X0139641Y0087399D01*
X0139683Y0087282D01*
X0139722Y0087164D01*
X0139758Y0087044D01*
X0139789Y0086924D01*
X0139816Y0086803D01*
X0139840Y0086681D01*
X0139860Y0086558D01*
X0139876Y0086434D01*
X0139888Y0086311D01*
X0139896Y0086187D01*
X0139900Y0086062D01*
X0139900Y0085938D01*
X0139896Y0085813D01*
X0139888Y0085689D01*
X0139876Y0085566D01*
X0139860Y0085442D01*
X0139840Y0085319D01*
X0139816Y0085197D01*
X0139789Y0085076D01*
X0139758Y0084956D01*
X0139722Y0084836D01*
X0139683Y0084718D01*
X0139641Y0084601D01*
X0139594Y0084486D01*
X0139544Y0084372D01*
X0139490Y0084260D01*
X0139433Y0084150D01*
X0139372Y0084041D01*
X0139308Y0083934D01*
X0139241Y0083830D01*
X0139170Y0083728D01*
X0139096Y0083628D01*
X0139018Y0083530D01*
X0138938Y0083435D01*
X0138855Y0083343D01*
X0138769Y0083253D01*
X0138680Y0083166D01*
X0138588Y0083082D01*
X0138494Y0083001D01*
X0138397Y0082923D01*
X0138297Y0082848D01*
X0138196Y0082777D01*
X0138092Y0082708D01*
X0137986Y0082643D01*
X0137878Y0082582D01*
X0137768Y0082524D01*
X0137656Y0082469D01*
X0137543Y0082418D01*
X0137428Y0082371D01*
X0137311Y0082327D01*
X0137193Y0082287D01*
X0137074Y0082251D01*
X0136954Y0082219D01*
X0136833Y0082190D01*
X0136711Y0082165D01*
X0136589Y0082145D01*
X0136465Y0082128D01*
X0136342Y0082115D01*
X0136218Y0082106D01*
X0136093Y0082101D01*
X0135969Y0082100D01*
X0135845Y0082103D01*
X0135720Y0082110D01*
X0135596Y0082121D01*
X0135473Y0082136D01*
X0135350Y0082155D01*
X0135228Y0082177D01*
X0135106Y0082204D01*
X0134986Y0082234D01*
X0134866Y0082268D01*
X0134748Y0082307D01*
X0134630Y0082348D01*
X0134515Y0082394D01*
X0134400Y0082443D01*
X0134288Y0082496D01*
X0134177Y0082552D01*
X0134068Y0082612D01*
X0133961Y0082676D01*
X0133856Y0082742D01*
X0133753Y0082812D01*
X0133653Y0082886D01*
X0133555Y0082962D01*
X0133459Y0083041D01*
X0133366Y0083124D01*
X0133275Y0083209D01*
X0133188Y0083298D01*
X0133103Y0083389D01*
X0133021Y0083483D01*
X0132943Y0083579D01*
X0132867Y0083678D01*
X0132794Y0083779D01*
X0132725Y0083882D01*
X0132659Y0083988D01*
X0132597Y0084095D01*
X0132538Y0084205D01*
X0132482Y0084316D01*
X0132430Y0084429D01*
X0132382Y0084544D01*
X0132338Y0084660D01*
X0132297Y0084777D01*
X0132260Y0084896D01*
X0132226Y0085016D01*
X0132197Y0085136D01*
X0132171Y0085258D01*
X0132149Y0085381D01*
X0132132Y0085504D01*
X0132118Y0085627D01*
X0132108Y0085751D01*
X0132102Y0085876D01*
X0132100Y0086000D01*
X0132000Y0082000D02*
X0140000Y0090000D01*
X0122100Y0086000D02*
X0122102Y0086124D01*
X0122108Y0086249D01*
X0122118Y0086373D01*
X0122132Y0086496D01*
X0122149Y0086619D01*
X0122171Y0086742D01*
X0122197Y0086864D01*
X0122226Y0086984D01*
X0122260Y0087104D01*
X0122297Y0087223D01*
X0122338Y0087340D01*
X0122382Y0087456D01*
X0122430Y0087571D01*
X0122482Y0087684D01*
X0122538Y0087795D01*
X0122597Y0087905D01*
X0122659Y0088012D01*
X0122725Y0088118D01*
X0122794Y0088221D01*
X0122867Y0088322D01*
X0122943Y0088421D01*
X0123021Y0088517D01*
X0123103Y0088611D01*
X0123188Y0088702D01*
X0123275Y0088791D01*
X0123366Y0088876D01*
X0123459Y0088959D01*
X0123555Y0089038D01*
X0123653Y0089114D01*
X0123753Y0089188D01*
X0123856Y0089258D01*
X0123961Y0089324D01*
X0124068Y0089388D01*
X0124177Y0089448D01*
X0124288Y0089504D01*
X0124400Y0089557D01*
X0124515Y0089606D01*
X0124630Y0089652D01*
X0124748Y0089693D01*
X0124866Y0089732D01*
X0124986Y0089766D01*
X0125106Y0089796D01*
X0125228Y0089823D01*
X0125350Y0089845D01*
X0125473Y0089864D01*
X0125596Y0089879D01*
X0125720Y0089890D01*
X0125845Y0089897D01*
X0125969Y0089900D01*
X0126093Y0089899D01*
X0126218Y0089894D01*
X0126342Y0089885D01*
X0126465Y0089872D01*
X0126589Y0089855D01*
X0126711Y0089835D01*
X0126833Y0089810D01*
X0126954Y0089781D01*
X0127074Y0089749D01*
X0127193Y0089713D01*
X0127311Y0089673D01*
X0127428Y0089629D01*
X0127543Y0089582D01*
X0127656Y0089531D01*
X0127768Y0089476D01*
X0127878Y0089418D01*
X0127986Y0089357D01*
X0128092Y0089292D01*
X0128196Y0089223D01*
X0128297Y0089152D01*
X0128397Y0089077D01*
X0128494Y0088999D01*
X0128588Y0088918D01*
X0128680Y0088834D01*
X0128769Y0088747D01*
X0128855Y0088657D01*
X0128938Y0088565D01*
X0129018Y0088470D01*
X0129096Y0088372D01*
X0129170Y0088272D01*
X0129241Y0088170D01*
X0129308Y0088066D01*
X0129372Y0087959D01*
X0129433Y0087850D01*
X0129490Y0087740D01*
X0129544Y0087628D01*
X0129594Y0087514D01*
X0129641Y0087399D01*
X0129683Y0087282D01*
X0129722Y0087164D01*
X0129758Y0087044D01*
X0129789Y0086924D01*
X0129816Y0086803D01*
X0129840Y0086681D01*
X0129860Y0086558D01*
X0129876Y0086434D01*
X0129888Y0086311D01*
X0129896Y0086187D01*
X0129900Y0086062D01*
X0129900Y0085938D01*
X0129896Y0085813D01*
X0129888Y0085689D01*
X0129876Y0085566D01*
X0129860Y0085442D01*
X0129840Y0085319D01*
X0129816Y0085197D01*
X0129789Y0085076D01*
X0129758Y0084956D01*
X0129722Y0084836D01*
X0129683Y0084718D01*
X0129641Y0084601D01*
X0129594Y0084486D01*
X0129544Y0084372D01*
X0129490Y0084260D01*
X0129433Y0084150D01*
X0129372Y0084041D01*
X0129308Y0083934D01*
X0129241Y0083830D01*
X0129170Y0083728D01*
X0129096Y0083628D01*
X0129018Y0083530D01*
X0128938Y0083435D01*
X0128855Y0083343D01*
X0128769Y0083253D01*
X0128680Y0083166D01*
X0128588Y0083082D01*
X0128494Y0083001D01*
X0128397Y0082923D01*
X0128297Y0082848D01*
X0128196Y0082777D01*
X0128092Y0082708D01*
X0127986Y0082643D01*
X0127878Y0082582D01*
X0127768Y0082524D01*
X0127656Y0082469D01*
X0127543Y0082418D01*
X0127428Y0082371D01*
X0127311Y0082327D01*
X0127193Y0082287D01*
X0127074Y0082251D01*
X0126954Y0082219D01*
X0126833Y0082190D01*
X0126711Y0082165D01*
X0126589Y0082145D01*
X0126465Y0082128D01*
X0126342Y0082115D01*
X0126218Y0082106D01*
X0126093Y0082101D01*
X0125969Y0082100D01*
X0125845Y0082103D01*
X0125720Y0082110D01*
X0125596Y0082121D01*
X0125473Y0082136D01*
X0125350Y0082155D01*
X0125228Y0082177D01*
X0125106Y0082204D01*
X0124986Y0082234D01*
X0124866Y0082268D01*
X0124748Y0082307D01*
X0124630Y0082348D01*
X0124515Y0082394D01*
X0124400Y0082443D01*
X0124288Y0082496D01*
X0124177Y0082552D01*
X0124068Y0082612D01*
X0123961Y0082676D01*
X0123856Y0082742D01*
X0123753Y0082812D01*
X0123653Y0082886D01*
X0123555Y0082962D01*
X0123459Y0083041D01*
X0123366Y0083124D01*
X0123275Y0083209D01*
X0123188Y0083298D01*
X0123103Y0083389D01*
X0123021Y0083483D01*
X0122943Y0083579D01*
X0122867Y0083678D01*
X0122794Y0083779D01*
X0122725Y0083882D01*
X0122659Y0083988D01*
X0122597Y0084095D01*
X0122538Y0084205D01*
X0122482Y0084316D01*
X0122430Y0084429D01*
X0122382Y0084544D01*
X0122338Y0084660D01*
X0122297Y0084777D01*
X0122260Y0084896D01*
X0122226Y0085016D01*
X0122197Y0085136D01*
X0122171Y0085258D01*
X0122149Y0085381D01*
X0122132Y0085504D01*
X0122118Y0085627D01*
X0122108Y0085751D01*
X0122102Y0085876D01*
X0122100Y0086000D01*
X0122000Y0082000D02*
X0130000Y0090000D01*
X0112100Y0086000D02*
X0112102Y0086124D01*
X0112108Y0086249D01*
X0112118Y0086373D01*
X0112132Y0086496D01*
X0112149Y0086619D01*
X0112171Y0086742D01*
X0112197Y0086864D01*
X0112226Y0086984D01*
X0112260Y0087104D01*
X0112297Y0087223D01*
X0112338Y0087340D01*
X0112382Y0087456D01*
X0112430Y0087571D01*
X0112482Y0087684D01*
X0112538Y0087795D01*
X0112597Y0087905D01*
X0112659Y0088012D01*
X0112725Y0088118D01*
X0112794Y0088221D01*
X0112867Y0088322D01*
X0112943Y0088421D01*
X0113021Y0088517D01*
X0113103Y0088611D01*
X0113188Y0088702D01*
X0113275Y0088791D01*
X0113366Y0088876D01*
X0113459Y0088959D01*
X0113555Y0089038D01*
X0113653Y0089114D01*
X0113753Y0089188D01*
X0113856Y0089258D01*
X0113961Y0089324D01*
X0114068Y0089388D01*
X0114177Y0089448D01*
X0114288Y0089504D01*
X0114400Y0089557D01*
X0114515Y0089606D01*
X0114630Y0089652D01*
X0114748Y0089693D01*
X0114866Y0089732D01*
X0114986Y0089766D01*
X0115106Y0089796D01*
X0115228Y0089823D01*
X0115350Y0089845D01*
X0115473Y0089864D01*
X0115596Y0089879D01*
X0115720Y0089890D01*
X0115845Y0089897D01*
X0115969Y0089900D01*
X0116093Y0089899D01*
X0116218Y0089894D01*
X0116342Y0089885D01*
X0116465Y0089872D01*
X0116589Y0089855D01*
X0116711Y0089835D01*
X0116833Y0089810D01*
X0116954Y0089781D01*
X0117074Y0089749D01*
X0117193Y0089713D01*
X0117311Y0089673D01*
X0117428Y0089629D01*
X0117543Y0089582D01*
X0117656Y0089531D01*
X0117768Y0089476D01*
X0117878Y0089418D01*
X0117986Y0089357D01*
X0118092Y0089292D01*
X0118196Y0089223D01*
X0118297Y0089152D01*
X0118397Y0089077D01*
X0118494Y0088999D01*
X0118588Y0088918D01*
X0118680Y0088834D01*
X0118769Y0088747D01*
X0118855Y0088657D01*
X0118938Y0088565D01*
X0119018Y0088470D01*
X0119096Y0088372D01*
X0119170Y0088272D01*
X0119241Y0088170D01*
X0119308Y0088066D01*
X0119372Y0087959D01*
X0119433Y0087850D01*
X0119490Y0087740D01*
X0119544Y0087628D01*
X0119594Y0087514D01*
X0119641Y0087399D01*
X0119683Y0087282D01*
X0119722Y0087164D01*
X0119758Y0087044D01*
X0119789Y0086924D01*
X0119816Y0086803D01*
X0119840Y0086681D01*
X0119860Y0086558D01*
X0119876Y0086434D01*
X0119888Y0086311D01*
X0119896Y0086187D01*
X0119900Y0086062D01*
X0119900Y0085938D01*
X0119896Y0085813D01*
X0119888Y0085689D01*
X0119876Y0085566D01*
X0119860Y0085442D01*
X0119840Y0085319D01*
X0119816Y0085197D01*
X0119789Y0085076D01*
X0119758Y0084956D01*
X0119722Y0084836D01*
X0119683Y0084718D01*
X0119641Y0084601D01*
X0119594Y0084486D01*
X0119544Y0084372D01*
X0119490Y0084260D01*
X0119433Y0084150D01*
X0119372Y0084041D01*
X0119308Y0083934D01*
X0119241Y0083830D01*
X0119170Y0083728D01*
X0119096Y0083628D01*
X0119018Y0083530D01*
X0118938Y0083435D01*
X0118855Y0083343D01*
X0118769Y0083253D01*
X0118680Y0083166D01*
X0118588Y0083082D01*
X0118494Y0083001D01*
X0118397Y0082923D01*
X0118297Y0082848D01*
X0118196Y0082777D01*
X0118092Y0082708D01*
X0117986Y0082643D01*
X0117878Y0082582D01*
X0117768Y0082524D01*
X0117656Y0082469D01*
X0117543Y0082418D01*
X0117428Y0082371D01*
X0117311Y0082327D01*
X0117193Y0082287D01*
X0117074Y0082251D01*
X0116954Y0082219D01*
X0116833Y0082190D01*
X0116711Y0082165D01*
X0116589Y0082145D01*
X0116465Y0082128D01*
X0116342Y0082115D01*
X0116218Y0082106D01*
X0116093Y0082101D01*
X0115969Y0082100D01*
X0115845Y0082103D01*
X0115720Y0082110D01*
X0115596Y0082121D01*
X0115473Y0082136D01*
X0115350Y0082155D01*
X0115228Y0082177D01*
X0115106Y0082204D01*
X0114986Y0082234D01*
X0114866Y0082268D01*
X0114748Y0082307D01*
X0114630Y0082348D01*
X0114515Y0082394D01*
X0114400Y0082443D01*
X0114288Y0082496D01*
X0114177Y0082552D01*
X0114068Y0082612D01*
X0113961Y0082676D01*
X0113856Y0082742D01*
X0113753Y0082812D01*
X0113653Y0082886D01*
X0113555Y0082962D01*
X0113459Y0083041D01*
X0113366Y0083124D01*
X0113275Y0083209D01*
X0113188Y0083298D01*
X0113103Y0083389D01*
X0113021Y0083483D01*
X0112943Y0083579D01*
X0112867Y0083678D01*
X0112794Y0083779D01*
X0112725Y0083882D01*
X0112659Y0083988D01*
X0112597Y0084095D01*
X0112538Y0084205D01*
X0112482Y0084316D01*
X0112430Y0084429D01*
X0112382Y0084544D01*
X0112338Y0084660D01*
X0112297Y0084777D01*
X0112260Y0084896D01*
X0112226Y0085016D01*
X0112197Y0085136D01*
X0112171Y0085258D01*
X0112149Y0085381D01*
X0112132Y0085504D01*
X0112118Y0085627D01*
X0112108Y0085751D01*
X0112102Y0085876D01*
X0112100Y0086000D01*
X0112000Y0082000D02*
X0120000Y0090000D01*
X0072100Y0101000D02*
X0072102Y0101124D01*
X0072108Y0101249D01*
X0072118Y0101373D01*
X0072132Y0101496D01*
X0072149Y0101619D01*
X0072171Y0101742D01*
X0072197Y0101864D01*
X0072226Y0101984D01*
X0072260Y0102104D01*
X0072297Y0102223D01*
X0072338Y0102340D01*
X0072382Y0102456D01*
X0072430Y0102571D01*
X0072482Y0102684D01*
X0072538Y0102795D01*
X0072597Y0102905D01*
X0072659Y0103012D01*
X0072725Y0103118D01*
X0072794Y0103221D01*
X0072867Y0103322D01*
X0072943Y0103421D01*
X0073021Y0103517D01*
X0073103Y0103611D01*
X0073188Y0103702D01*
X0073275Y0103791D01*
X0073366Y0103876D01*
X0073459Y0103959D01*
X0073555Y0104038D01*
X0073653Y0104114D01*
X0073753Y0104188D01*
X0073856Y0104258D01*
X0073961Y0104324D01*
X0074068Y0104388D01*
X0074177Y0104448D01*
X0074288Y0104504D01*
X0074400Y0104557D01*
X0074515Y0104606D01*
X0074630Y0104652D01*
X0074748Y0104693D01*
X0074866Y0104732D01*
X0074986Y0104766D01*
X0075106Y0104796D01*
X0075228Y0104823D01*
X0075350Y0104845D01*
X0075473Y0104864D01*
X0075596Y0104879D01*
X0075720Y0104890D01*
X0075845Y0104897D01*
X0075969Y0104900D01*
X0076093Y0104899D01*
X0076218Y0104894D01*
X0076342Y0104885D01*
X0076465Y0104872D01*
X0076589Y0104855D01*
X0076711Y0104835D01*
X0076833Y0104810D01*
X0076954Y0104781D01*
X0077074Y0104749D01*
X0077193Y0104713D01*
X0077311Y0104673D01*
X0077428Y0104629D01*
X0077543Y0104582D01*
X0077656Y0104531D01*
X0077768Y0104476D01*
X0077878Y0104418D01*
X0077986Y0104357D01*
X0078092Y0104292D01*
X0078196Y0104223D01*
X0078297Y0104152D01*
X0078397Y0104077D01*
X0078494Y0103999D01*
X0078588Y0103918D01*
X0078680Y0103834D01*
X0078769Y0103747D01*
X0078855Y0103657D01*
X0078938Y0103565D01*
X0079018Y0103470D01*
X0079096Y0103372D01*
X0079170Y0103272D01*
X0079241Y0103170D01*
X0079308Y0103066D01*
X0079372Y0102959D01*
X0079433Y0102850D01*
X0079490Y0102740D01*
X0079544Y0102628D01*
X0079594Y0102514D01*
X0079641Y0102399D01*
X0079683Y0102282D01*
X0079722Y0102164D01*
X0079758Y0102044D01*
X0079789Y0101924D01*
X0079816Y0101803D01*
X0079840Y0101681D01*
X0079860Y0101558D01*
X0079876Y0101434D01*
X0079888Y0101311D01*
X0079896Y0101187D01*
X0079900Y0101062D01*
X0079900Y0100938D01*
X0079896Y0100813D01*
X0079888Y0100689D01*
X0079876Y0100566D01*
X0079860Y0100442D01*
X0079840Y0100319D01*
X0079816Y0100197D01*
X0079789Y0100076D01*
X0079758Y0099956D01*
X0079722Y0099836D01*
X0079683Y0099718D01*
X0079641Y0099601D01*
X0079594Y0099486D01*
X0079544Y0099372D01*
X0079490Y0099260D01*
X0079433Y0099150D01*
X0079372Y0099041D01*
X0079308Y0098934D01*
X0079241Y0098830D01*
X0079170Y0098728D01*
X0079096Y0098628D01*
X0079018Y0098530D01*
X0078938Y0098435D01*
X0078855Y0098343D01*
X0078769Y0098253D01*
X0078680Y0098166D01*
X0078588Y0098082D01*
X0078494Y0098001D01*
X0078397Y0097923D01*
X0078297Y0097848D01*
X0078196Y0097777D01*
X0078092Y0097708D01*
X0077986Y0097643D01*
X0077878Y0097582D01*
X0077768Y0097524D01*
X0077656Y0097469D01*
X0077543Y0097418D01*
X0077428Y0097371D01*
X0077311Y0097327D01*
X0077193Y0097287D01*
X0077074Y0097251D01*
X0076954Y0097219D01*
X0076833Y0097190D01*
X0076711Y0097165D01*
X0076589Y0097145D01*
X0076465Y0097128D01*
X0076342Y0097115D01*
X0076218Y0097106D01*
X0076093Y0097101D01*
X0075969Y0097100D01*
X0075845Y0097103D01*
X0075720Y0097110D01*
X0075596Y0097121D01*
X0075473Y0097136D01*
X0075350Y0097155D01*
X0075228Y0097177D01*
X0075106Y0097204D01*
X0074986Y0097234D01*
X0074866Y0097268D01*
X0074748Y0097307D01*
X0074630Y0097348D01*
X0074515Y0097394D01*
X0074400Y0097443D01*
X0074288Y0097496D01*
X0074177Y0097552D01*
X0074068Y0097612D01*
X0073961Y0097676D01*
X0073856Y0097742D01*
X0073753Y0097812D01*
X0073653Y0097886D01*
X0073555Y0097962D01*
X0073459Y0098041D01*
X0073366Y0098124D01*
X0073275Y0098209D01*
X0073188Y0098298D01*
X0073103Y0098389D01*
X0073021Y0098483D01*
X0072943Y0098579D01*
X0072867Y0098678D01*
X0072794Y0098779D01*
X0072725Y0098882D01*
X0072659Y0098988D01*
X0072597Y0099095D01*
X0072538Y0099205D01*
X0072482Y0099316D01*
X0072430Y0099429D01*
X0072382Y0099544D01*
X0072338Y0099660D01*
X0072297Y0099777D01*
X0072260Y0099896D01*
X0072226Y0100016D01*
X0072197Y0100136D01*
X0072171Y0100258D01*
X0072149Y0100381D01*
X0072132Y0100504D01*
X0072118Y0100627D01*
X0072108Y0100751D01*
X0072102Y0100876D01*
X0072100Y0101000D01*
X0072000Y0097000D02*
X0080000Y0105000D01*
X0062100Y0101000D02*
X0062102Y0101124D01*
X0062108Y0101249D01*
X0062118Y0101373D01*
X0062132Y0101496D01*
X0062149Y0101619D01*
X0062171Y0101742D01*
X0062197Y0101864D01*
X0062226Y0101984D01*
X0062260Y0102104D01*
X0062297Y0102223D01*
X0062338Y0102340D01*
X0062382Y0102456D01*
X0062430Y0102571D01*
X0062482Y0102684D01*
X0062538Y0102795D01*
X0062597Y0102905D01*
X0062659Y0103012D01*
X0062725Y0103118D01*
X0062794Y0103221D01*
X0062867Y0103322D01*
X0062943Y0103421D01*
X0063021Y0103517D01*
X0063103Y0103611D01*
X0063188Y0103702D01*
X0063275Y0103791D01*
X0063366Y0103876D01*
X0063459Y0103959D01*
X0063555Y0104038D01*
X0063653Y0104114D01*
X0063753Y0104188D01*
X0063856Y0104258D01*
X0063961Y0104324D01*
X0064068Y0104388D01*
X0064177Y0104448D01*
X0064288Y0104504D01*
X0064400Y0104557D01*
X0064515Y0104606D01*
X0064630Y0104652D01*
X0064748Y0104693D01*
X0064866Y0104732D01*
X0064986Y0104766D01*
X0065106Y0104796D01*
X0065228Y0104823D01*
X0065350Y0104845D01*
X0065473Y0104864D01*
X0065596Y0104879D01*
X0065720Y0104890D01*
X0065845Y0104897D01*
X0065969Y0104900D01*
X0066093Y0104899D01*
X0066218Y0104894D01*
X0066342Y0104885D01*
X0066465Y0104872D01*
X0066589Y0104855D01*
X0066711Y0104835D01*
X0066833Y0104810D01*
X0066954Y0104781D01*
X0067074Y0104749D01*
X0067193Y0104713D01*
X0067311Y0104673D01*
X0067428Y0104629D01*
X0067543Y0104582D01*
X0067656Y0104531D01*
X0067768Y0104476D01*
X0067878Y0104418D01*
X0067986Y0104357D01*
X0068092Y0104292D01*
X0068196Y0104223D01*
X0068297Y0104152D01*
X0068397Y0104077D01*
X0068494Y0103999D01*
X0068588Y0103918D01*
X0068680Y0103834D01*
X0068769Y0103747D01*
X0068855Y0103657D01*
X0068938Y0103565D01*
X0069018Y0103470D01*
X0069096Y0103372D01*
X0069170Y0103272D01*
X0069241Y0103170D01*
X0069308Y0103066D01*
X0069372Y0102959D01*
X0069433Y0102850D01*
X0069490Y0102740D01*
X0069544Y0102628D01*
X0069594Y0102514D01*
X0069641Y0102399D01*
X0069683Y0102282D01*
X0069722Y0102164D01*
X0069758Y0102044D01*
X0069789Y0101924D01*
X0069816Y0101803D01*
X0069840Y0101681D01*
X0069860Y0101558D01*
X0069876Y0101434D01*
X0069888Y0101311D01*
X0069896Y0101187D01*
X0069900Y0101062D01*
X0069900Y0100938D01*
X0069896Y0100813D01*
X0069888Y0100689D01*
X0069876Y0100566D01*
X0069860Y0100442D01*
X0069840Y0100319D01*
X0069816Y0100197D01*
X0069789Y0100076D01*
X0069758Y0099956D01*
X0069722Y0099836D01*
X0069683Y0099718D01*
X0069641Y0099601D01*
X0069594Y0099486D01*
X0069544Y0099372D01*
X0069490Y0099260D01*
X0069433Y0099150D01*
X0069372Y0099041D01*
X0069308Y0098934D01*
X0069241Y0098830D01*
X0069170Y0098728D01*
X0069096Y0098628D01*
X0069018Y0098530D01*
X0068938Y0098435D01*
X0068855Y0098343D01*
X0068769Y0098253D01*
X0068680Y0098166D01*
X0068588Y0098082D01*
X0068494Y0098001D01*
X0068397Y0097923D01*
X0068297Y0097848D01*
X0068196Y0097777D01*
X0068092Y0097708D01*
X0067986Y0097643D01*
X0067878Y0097582D01*
X0067768Y0097524D01*
X0067656Y0097469D01*
X0067543Y0097418D01*
X0067428Y0097371D01*
X0067311Y0097327D01*
X0067193Y0097287D01*
X0067074Y0097251D01*
X0066954Y0097219D01*
X0066833Y0097190D01*
X0066711Y0097165D01*
X0066589Y0097145D01*
X0066465Y0097128D01*
X0066342Y0097115D01*
X0066218Y0097106D01*
X0066093Y0097101D01*
X0065969Y0097100D01*
X0065845Y0097103D01*
X0065720Y0097110D01*
X0065596Y0097121D01*
X0065473Y0097136D01*
X0065350Y0097155D01*
X0065228Y0097177D01*
X0065106Y0097204D01*
X0064986Y0097234D01*
X0064866Y0097268D01*
X0064748Y0097307D01*
X0064630Y0097348D01*
X0064515Y0097394D01*
X0064400Y0097443D01*
X0064288Y0097496D01*
X0064177Y0097552D01*
X0064068Y0097612D01*
X0063961Y0097676D01*
X0063856Y0097742D01*
X0063753Y0097812D01*
X0063653Y0097886D01*
X0063555Y0097962D01*
X0063459Y0098041D01*
X0063366Y0098124D01*
X0063275Y0098209D01*
X0063188Y0098298D01*
X0063103Y0098389D01*
X0063021Y0098483D01*
X0062943Y0098579D01*
X0062867Y0098678D01*
X0062794Y0098779D01*
X0062725Y0098882D01*
X0062659Y0098988D01*
X0062597Y0099095D01*
X0062538Y0099205D01*
X0062482Y0099316D01*
X0062430Y0099429D01*
X0062382Y0099544D01*
X0062338Y0099660D01*
X0062297Y0099777D01*
X0062260Y0099896D01*
X0062226Y0100016D01*
X0062197Y0100136D01*
X0062171Y0100258D01*
X0062149Y0100381D01*
X0062132Y0100504D01*
X0062118Y0100627D01*
X0062108Y0100751D01*
X0062102Y0100876D01*
X0062100Y0101000D01*
X0062000Y0097000D02*
X0070000Y0105000D01*
X0062100Y0121000D02*
X0062102Y0121124D01*
X0062108Y0121249D01*
X0062118Y0121373D01*
X0062132Y0121496D01*
X0062149Y0121619D01*
X0062171Y0121742D01*
X0062197Y0121864D01*
X0062226Y0121984D01*
X0062260Y0122104D01*
X0062297Y0122223D01*
X0062338Y0122340D01*
X0062382Y0122456D01*
X0062430Y0122571D01*
X0062482Y0122684D01*
X0062538Y0122795D01*
X0062597Y0122905D01*
X0062659Y0123012D01*
X0062725Y0123118D01*
X0062794Y0123221D01*
X0062867Y0123322D01*
X0062943Y0123421D01*
X0063021Y0123517D01*
X0063103Y0123611D01*
X0063188Y0123702D01*
X0063275Y0123791D01*
X0063366Y0123876D01*
X0063459Y0123959D01*
X0063555Y0124038D01*
X0063653Y0124114D01*
X0063753Y0124188D01*
X0063856Y0124258D01*
X0063961Y0124324D01*
X0064068Y0124388D01*
X0064177Y0124448D01*
X0064288Y0124504D01*
X0064400Y0124557D01*
X0064515Y0124606D01*
X0064630Y0124652D01*
X0064748Y0124693D01*
X0064866Y0124732D01*
X0064986Y0124766D01*
X0065106Y0124796D01*
X0065228Y0124823D01*
X0065350Y0124845D01*
X0065473Y0124864D01*
X0065596Y0124879D01*
X0065720Y0124890D01*
X0065845Y0124897D01*
X0065969Y0124900D01*
X0066093Y0124899D01*
X0066218Y0124894D01*
X0066342Y0124885D01*
X0066465Y0124872D01*
X0066589Y0124855D01*
X0066711Y0124835D01*
X0066833Y0124810D01*
X0066954Y0124781D01*
X0067074Y0124749D01*
X0067193Y0124713D01*
X0067311Y0124673D01*
X0067428Y0124629D01*
X0067543Y0124582D01*
X0067656Y0124531D01*
X0067768Y0124476D01*
X0067878Y0124418D01*
X0067986Y0124357D01*
X0068092Y0124292D01*
X0068196Y0124223D01*
X0068297Y0124152D01*
X0068397Y0124077D01*
X0068494Y0123999D01*
X0068588Y0123918D01*
X0068680Y0123834D01*
X0068769Y0123747D01*
X0068855Y0123657D01*
X0068938Y0123565D01*
X0069018Y0123470D01*
X0069096Y0123372D01*
X0069170Y0123272D01*
X0069241Y0123170D01*
X0069308Y0123066D01*
X0069372Y0122959D01*
X0069433Y0122850D01*
X0069490Y0122740D01*
X0069544Y0122628D01*
X0069594Y0122514D01*
X0069641Y0122399D01*
X0069683Y0122282D01*
X0069722Y0122164D01*
X0069758Y0122044D01*
X0069789Y0121924D01*
X0069816Y0121803D01*
X0069840Y0121681D01*
X0069860Y0121558D01*
X0069876Y0121434D01*
X0069888Y0121311D01*
X0069896Y0121187D01*
X0069900Y0121062D01*
X0069900Y0120938D01*
X0069896Y0120813D01*
X0069888Y0120689D01*
X0069876Y0120566D01*
X0069860Y0120442D01*
X0069840Y0120319D01*
X0069816Y0120197D01*
X0069789Y0120076D01*
X0069758Y0119956D01*
X0069722Y0119836D01*
X0069683Y0119718D01*
X0069641Y0119601D01*
X0069594Y0119486D01*
X0069544Y0119372D01*
X0069490Y0119260D01*
X0069433Y0119150D01*
X0069372Y0119041D01*
X0069308Y0118934D01*
X0069241Y0118830D01*
X0069170Y0118728D01*
X0069096Y0118628D01*
X0069018Y0118530D01*
X0068938Y0118435D01*
X0068855Y0118343D01*
X0068769Y0118253D01*
X0068680Y0118166D01*
X0068588Y0118082D01*
X0068494Y0118001D01*
X0068397Y0117923D01*
X0068297Y0117848D01*
X0068196Y0117777D01*
X0068092Y0117708D01*
X0067986Y0117643D01*
X0067878Y0117582D01*
X0067768Y0117524D01*
X0067656Y0117469D01*
X0067543Y0117418D01*
X0067428Y0117371D01*
X0067311Y0117327D01*
X0067193Y0117287D01*
X0067074Y0117251D01*
X0066954Y0117219D01*
X0066833Y0117190D01*
X0066711Y0117165D01*
X0066589Y0117145D01*
X0066465Y0117128D01*
X0066342Y0117115D01*
X0066218Y0117106D01*
X0066093Y0117101D01*
X0065969Y0117100D01*
X0065845Y0117103D01*
X0065720Y0117110D01*
X0065596Y0117121D01*
X0065473Y0117136D01*
X0065350Y0117155D01*
X0065228Y0117177D01*
X0065106Y0117204D01*
X0064986Y0117234D01*
X0064866Y0117268D01*
X0064748Y0117307D01*
X0064630Y0117348D01*
X0064515Y0117394D01*
X0064400Y0117443D01*
X0064288Y0117496D01*
X0064177Y0117552D01*
X0064068Y0117612D01*
X0063961Y0117676D01*
X0063856Y0117742D01*
X0063753Y0117812D01*
X0063653Y0117886D01*
X0063555Y0117962D01*
X0063459Y0118041D01*
X0063366Y0118124D01*
X0063275Y0118209D01*
X0063188Y0118298D01*
X0063103Y0118389D01*
X0063021Y0118483D01*
X0062943Y0118579D01*
X0062867Y0118678D01*
X0062794Y0118779D01*
X0062725Y0118882D01*
X0062659Y0118988D01*
X0062597Y0119095D01*
X0062538Y0119205D01*
X0062482Y0119316D01*
X0062430Y0119429D01*
X0062382Y0119544D01*
X0062338Y0119660D01*
X0062297Y0119777D01*
X0062260Y0119896D01*
X0062226Y0120016D01*
X0062197Y0120136D01*
X0062171Y0120258D01*
X0062149Y0120381D01*
X0062132Y0120504D01*
X0062118Y0120627D01*
X0062108Y0120751D01*
X0062102Y0120876D01*
X0062100Y0121000D01*
X0062000Y0117000D02*
X0070000Y0125000D01*
X0072100Y0121000D02*
X0072102Y0121124D01*
X0072108Y0121249D01*
X0072118Y0121373D01*
X0072132Y0121496D01*
X0072149Y0121619D01*
X0072171Y0121742D01*
X0072197Y0121864D01*
X0072226Y0121984D01*
X0072260Y0122104D01*
X0072297Y0122223D01*
X0072338Y0122340D01*
X0072382Y0122456D01*
X0072430Y0122571D01*
X0072482Y0122684D01*
X0072538Y0122795D01*
X0072597Y0122905D01*
X0072659Y0123012D01*
X0072725Y0123118D01*
X0072794Y0123221D01*
X0072867Y0123322D01*
X0072943Y0123421D01*
X0073021Y0123517D01*
X0073103Y0123611D01*
X0073188Y0123702D01*
X0073275Y0123791D01*
X0073366Y0123876D01*
X0073459Y0123959D01*
X0073555Y0124038D01*
X0073653Y0124114D01*
X0073753Y0124188D01*
X0073856Y0124258D01*
X0073961Y0124324D01*
X0074068Y0124388D01*
X0074177Y0124448D01*
X0074288Y0124504D01*
X0074400Y0124557D01*
X0074515Y0124606D01*
X0074630Y0124652D01*
X0074748Y0124693D01*
X0074866Y0124732D01*
X0074986Y0124766D01*
X0075106Y0124796D01*
X0075228Y0124823D01*
X0075350Y0124845D01*
X0075473Y0124864D01*
X0075596Y0124879D01*
X0075720Y0124890D01*
X0075845Y0124897D01*
X0075969Y0124900D01*
X0076093Y0124899D01*
X0076218Y0124894D01*
X0076342Y0124885D01*
X0076465Y0124872D01*
X0076589Y0124855D01*
X0076711Y0124835D01*
X0076833Y0124810D01*
X0076954Y0124781D01*
X0077074Y0124749D01*
X0077193Y0124713D01*
X0077311Y0124673D01*
X0077428Y0124629D01*
X0077543Y0124582D01*
X0077656Y0124531D01*
X0077768Y0124476D01*
X0077878Y0124418D01*
X0077986Y0124357D01*
X0078092Y0124292D01*
X0078196Y0124223D01*
X0078297Y0124152D01*
X0078397Y0124077D01*
X0078494Y0123999D01*
X0078588Y0123918D01*
X0078680Y0123834D01*
X0078769Y0123747D01*
X0078855Y0123657D01*
X0078938Y0123565D01*
X0079018Y0123470D01*
X0079096Y0123372D01*
X0079170Y0123272D01*
X0079241Y0123170D01*
X0079308Y0123066D01*
X0079372Y0122959D01*
X0079433Y0122850D01*
X0079490Y0122740D01*
X0079544Y0122628D01*
X0079594Y0122514D01*
X0079641Y0122399D01*
X0079683Y0122282D01*
X0079722Y0122164D01*
X0079758Y0122044D01*
X0079789Y0121924D01*
X0079816Y0121803D01*
X0079840Y0121681D01*
X0079860Y0121558D01*
X0079876Y0121434D01*
X0079888Y0121311D01*
X0079896Y0121187D01*
X0079900Y0121062D01*
X0079900Y0120938D01*
X0079896Y0120813D01*
X0079888Y0120689D01*
X0079876Y0120566D01*
X0079860Y0120442D01*
X0079840Y0120319D01*
X0079816Y0120197D01*
X0079789Y0120076D01*
X0079758Y0119956D01*
X0079722Y0119836D01*
X0079683Y0119718D01*
X0079641Y0119601D01*
X0079594Y0119486D01*
X0079544Y0119372D01*
X0079490Y0119260D01*
X0079433Y0119150D01*
X0079372Y0119041D01*
X0079308Y0118934D01*
X0079241Y0118830D01*
X0079170Y0118728D01*
X0079096Y0118628D01*
X0079018Y0118530D01*
X0078938Y0118435D01*
X0078855Y0118343D01*
X0078769Y0118253D01*
X0078680Y0118166D01*
X0078588Y0118082D01*
X0078494Y0118001D01*
X0078397Y0117923D01*
X0078297Y0117848D01*
X0078196Y0117777D01*
X0078092Y0117708D01*
X0077986Y0117643D01*
X0077878Y0117582D01*
X0077768Y0117524D01*
X0077656Y0117469D01*
X0077543Y0117418D01*
X0077428Y0117371D01*
X0077311Y0117327D01*
X0077193Y0117287D01*
X0077074Y0117251D01*
X0076954Y0117219D01*
X0076833Y0117190D01*
X0076711Y0117165D01*
X0076589Y0117145D01*
X0076465Y0117128D01*
X0076342Y0117115D01*
X0076218Y0117106D01*
X0076093Y0117101D01*
X0075969Y0117100D01*
X0075845Y0117103D01*
X0075720Y0117110D01*
X0075596Y0117121D01*
X0075473Y0117136D01*
X0075350Y0117155D01*
X0075228Y0117177D01*
X0075106Y0117204D01*
X0074986Y0117234D01*
X0074866Y0117268D01*
X0074748Y0117307D01*
X0074630Y0117348D01*
X0074515Y0117394D01*
X0074400Y0117443D01*
X0074288Y0117496D01*
X0074177Y0117552D01*
X0074068Y0117612D01*
X0073961Y0117676D01*
X0073856Y0117742D01*
X0073753Y0117812D01*
X0073653Y0117886D01*
X0073555Y0117962D01*
X0073459Y0118041D01*
X0073366Y0118124D01*
X0073275Y0118209D01*
X0073188Y0118298D01*
X0073103Y0118389D01*
X0073021Y0118483D01*
X0072943Y0118579D01*
X0072867Y0118678D01*
X0072794Y0118779D01*
X0072725Y0118882D01*
X0072659Y0118988D01*
X0072597Y0119095D01*
X0072538Y0119205D01*
X0072482Y0119316D01*
X0072430Y0119429D01*
X0072382Y0119544D01*
X0072338Y0119660D01*
X0072297Y0119777D01*
X0072260Y0119896D01*
X0072226Y0120016D01*
X0072197Y0120136D01*
X0072171Y0120258D01*
X0072149Y0120381D01*
X0072132Y0120504D01*
X0072118Y0120627D01*
X0072108Y0120751D01*
X0072102Y0120876D01*
X0072100Y0121000D01*
X0072000Y0117000D02*
X0080000Y0125000D01*
X0132100Y0161000D02*
X0132102Y0161124D01*
X0132108Y0161249D01*
X0132118Y0161373D01*
X0132132Y0161496D01*
X0132149Y0161619D01*
X0132171Y0161742D01*
X0132197Y0161864D01*
X0132226Y0161984D01*
X0132260Y0162104D01*
X0132297Y0162223D01*
X0132338Y0162340D01*
X0132382Y0162456D01*
X0132430Y0162571D01*
X0132482Y0162684D01*
X0132538Y0162795D01*
X0132597Y0162905D01*
X0132659Y0163012D01*
X0132725Y0163118D01*
X0132794Y0163221D01*
X0132867Y0163322D01*
X0132943Y0163421D01*
X0133021Y0163517D01*
X0133103Y0163611D01*
X0133188Y0163702D01*
X0133275Y0163791D01*
X0133366Y0163876D01*
X0133459Y0163959D01*
X0133555Y0164038D01*
X0133653Y0164114D01*
X0133753Y0164188D01*
X0133856Y0164258D01*
X0133961Y0164324D01*
X0134068Y0164388D01*
X0134177Y0164448D01*
X0134288Y0164504D01*
X0134400Y0164557D01*
X0134515Y0164606D01*
X0134630Y0164652D01*
X0134748Y0164693D01*
X0134866Y0164732D01*
X0134986Y0164766D01*
X0135106Y0164796D01*
X0135228Y0164823D01*
X0135350Y0164845D01*
X0135473Y0164864D01*
X0135596Y0164879D01*
X0135720Y0164890D01*
X0135845Y0164897D01*
X0135969Y0164900D01*
X0136093Y0164899D01*
X0136218Y0164894D01*
X0136342Y0164885D01*
X0136465Y0164872D01*
X0136589Y0164855D01*
X0136711Y0164835D01*
X0136833Y0164810D01*
X0136954Y0164781D01*
X0137074Y0164749D01*
X0137193Y0164713D01*
X0137311Y0164673D01*
X0137428Y0164629D01*
X0137543Y0164582D01*
X0137656Y0164531D01*
X0137768Y0164476D01*
X0137878Y0164418D01*
X0137986Y0164357D01*
X0138092Y0164292D01*
X0138196Y0164223D01*
X0138297Y0164152D01*
X0138397Y0164077D01*
X0138494Y0163999D01*
X0138588Y0163918D01*
X0138680Y0163834D01*
X0138769Y0163747D01*
X0138855Y0163657D01*
X0138938Y0163565D01*
X0139018Y0163470D01*
X0139096Y0163372D01*
X0139170Y0163272D01*
X0139241Y0163170D01*
X0139308Y0163066D01*
X0139372Y0162959D01*
X0139433Y0162850D01*
X0139490Y0162740D01*
X0139544Y0162628D01*
X0139594Y0162514D01*
X0139641Y0162399D01*
X0139683Y0162282D01*
X0139722Y0162164D01*
X0139758Y0162044D01*
X0139789Y0161924D01*
X0139816Y0161803D01*
X0139840Y0161681D01*
X0139860Y0161558D01*
X0139876Y0161434D01*
X0139888Y0161311D01*
X0139896Y0161187D01*
X0139900Y0161062D01*
X0139900Y0160938D01*
X0139896Y0160813D01*
X0139888Y0160689D01*
X0139876Y0160566D01*
X0139860Y0160442D01*
X0139840Y0160319D01*
X0139816Y0160197D01*
X0139789Y0160076D01*
X0139758Y0159956D01*
X0139722Y0159836D01*
X0139683Y0159718D01*
X0139641Y0159601D01*
X0139594Y0159486D01*
X0139544Y0159372D01*
X0139490Y0159260D01*
X0139433Y0159150D01*
X0139372Y0159041D01*
X0139308Y0158934D01*
X0139241Y0158830D01*
X0139170Y0158728D01*
X0139096Y0158628D01*
X0139018Y0158530D01*
X0138938Y0158435D01*
X0138855Y0158343D01*
X0138769Y0158253D01*
X0138680Y0158166D01*
X0138588Y0158082D01*
X0138494Y0158001D01*
X0138397Y0157923D01*
X0138297Y0157848D01*
X0138196Y0157777D01*
X0138092Y0157708D01*
X0137986Y0157643D01*
X0137878Y0157582D01*
X0137768Y0157524D01*
X0137656Y0157469D01*
X0137543Y0157418D01*
X0137428Y0157371D01*
X0137311Y0157327D01*
X0137193Y0157287D01*
X0137074Y0157251D01*
X0136954Y0157219D01*
X0136833Y0157190D01*
X0136711Y0157165D01*
X0136589Y0157145D01*
X0136465Y0157128D01*
X0136342Y0157115D01*
X0136218Y0157106D01*
X0136093Y0157101D01*
X0135969Y0157100D01*
X0135845Y0157103D01*
X0135720Y0157110D01*
X0135596Y0157121D01*
X0135473Y0157136D01*
X0135350Y0157155D01*
X0135228Y0157177D01*
X0135106Y0157204D01*
X0134986Y0157234D01*
X0134866Y0157268D01*
X0134748Y0157307D01*
X0134630Y0157348D01*
X0134515Y0157394D01*
X0134400Y0157443D01*
X0134288Y0157496D01*
X0134177Y0157552D01*
X0134068Y0157612D01*
X0133961Y0157676D01*
X0133856Y0157742D01*
X0133753Y0157812D01*
X0133653Y0157886D01*
X0133555Y0157962D01*
X0133459Y0158041D01*
X0133366Y0158124D01*
X0133275Y0158209D01*
X0133188Y0158298D01*
X0133103Y0158389D01*
X0133021Y0158483D01*
X0132943Y0158579D01*
X0132867Y0158678D01*
X0132794Y0158779D01*
X0132725Y0158882D01*
X0132659Y0158988D01*
X0132597Y0159095D01*
X0132538Y0159205D01*
X0132482Y0159316D01*
X0132430Y0159429D01*
X0132382Y0159544D01*
X0132338Y0159660D01*
X0132297Y0159777D01*
X0132260Y0159896D01*
X0132226Y0160016D01*
X0132197Y0160136D01*
X0132171Y0160258D01*
X0132149Y0160381D01*
X0132132Y0160504D01*
X0132118Y0160627D01*
X0132108Y0160751D01*
X0132102Y0160876D01*
X0132100Y0161000D01*
X0132000Y0157000D02*
X0140000Y0165000D01*
X0132100Y0171000D02*
X0132102Y0171124D01*
X0132108Y0171249D01*
X0132118Y0171373D01*
X0132132Y0171496D01*
X0132149Y0171619D01*
X0132171Y0171742D01*
X0132197Y0171864D01*
X0132226Y0171984D01*
X0132260Y0172104D01*
X0132297Y0172223D01*
X0132338Y0172340D01*
X0132382Y0172456D01*
X0132430Y0172571D01*
X0132482Y0172684D01*
X0132538Y0172795D01*
X0132597Y0172905D01*
X0132659Y0173012D01*
X0132725Y0173118D01*
X0132794Y0173221D01*
X0132867Y0173322D01*
X0132943Y0173421D01*
X0133021Y0173517D01*
X0133103Y0173611D01*
X0133188Y0173702D01*
X0133275Y0173791D01*
X0133366Y0173876D01*
X0133459Y0173959D01*
X0133555Y0174038D01*
X0133653Y0174114D01*
X0133753Y0174188D01*
X0133856Y0174258D01*
X0133961Y0174324D01*
X0134068Y0174388D01*
X0134177Y0174448D01*
X0134288Y0174504D01*
X0134400Y0174557D01*
X0134515Y0174606D01*
X0134630Y0174652D01*
X0134748Y0174693D01*
X0134866Y0174732D01*
X0134986Y0174766D01*
X0135106Y0174796D01*
X0135228Y0174823D01*
X0135350Y0174845D01*
X0135473Y0174864D01*
X0135596Y0174879D01*
X0135720Y0174890D01*
X0135845Y0174897D01*
X0135969Y0174900D01*
X0136093Y0174899D01*
X0136218Y0174894D01*
X0136342Y0174885D01*
X0136465Y0174872D01*
X0136589Y0174855D01*
X0136711Y0174835D01*
X0136833Y0174810D01*
X0136954Y0174781D01*
X0137074Y0174749D01*
X0137193Y0174713D01*
X0137311Y0174673D01*
X0137428Y0174629D01*
X0137543Y0174582D01*
X0137656Y0174531D01*
X0137768Y0174476D01*
X0137878Y0174418D01*
X0137986Y0174357D01*
X0138092Y0174292D01*
X0138196Y0174223D01*
X0138297Y0174152D01*
X0138397Y0174077D01*
X0138494Y0173999D01*
X0138588Y0173918D01*
X0138680Y0173834D01*
X0138769Y0173747D01*
X0138855Y0173657D01*
X0138938Y0173565D01*
X0139018Y0173470D01*
X0139096Y0173372D01*
X0139170Y0173272D01*
X0139241Y0173170D01*
X0139308Y0173066D01*
X0139372Y0172959D01*
X0139433Y0172850D01*
X0139490Y0172740D01*
X0139544Y0172628D01*
X0139594Y0172514D01*
X0139641Y0172399D01*
X0139683Y0172282D01*
X0139722Y0172164D01*
X0139758Y0172044D01*
X0139789Y0171924D01*
X0139816Y0171803D01*
X0139840Y0171681D01*
X0139860Y0171558D01*
X0139876Y0171434D01*
X0139888Y0171311D01*
X0139896Y0171187D01*
X0139900Y0171062D01*
X0139900Y0170938D01*
X0139896Y0170813D01*
X0139888Y0170689D01*
X0139876Y0170566D01*
X0139860Y0170442D01*
X0139840Y0170319D01*
X0139816Y0170197D01*
X0139789Y0170076D01*
X0139758Y0169956D01*
X0139722Y0169836D01*
X0139683Y0169718D01*
X0139641Y0169601D01*
X0139594Y0169486D01*
X0139544Y0169372D01*
X0139490Y0169260D01*
X0139433Y0169150D01*
X0139372Y0169041D01*
X0139308Y0168934D01*
X0139241Y0168830D01*
X0139170Y0168728D01*
X0139096Y0168628D01*
X0139018Y0168530D01*
X0138938Y0168435D01*
X0138855Y0168343D01*
X0138769Y0168253D01*
X0138680Y0168166D01*
X0138588Y0168082D01*
X0138494Y0168001D01*
X0138397Y0167923D01*
X0138297Y0167848D01*
X0138196Y0167777D01*
X0138092Y0167708D01*
X0137986Y0167643D01*
X0137878Y0167582D01*
X0137768Y0167524D01*
X0137656Y0167469D01*
X0137543Y0167418D01*
X0137428Y0167371D01*
X0137311Y0167327D01*
X0137193Y0167287D01*
X0137074Y0167251D01*
X0136954Y0167219D01*
X0136833Y0167190D01*
X0136711Y0167165D01*
X0136589Y0167145D01*
X0136465Y0167128D01*
X0136342Y0167115D01*
X0136218Y0167106D01*
X0136093Y0167101D01*
X0135969Y0167100D01*
X0135845Y0167103D01*
X0135720Y0167110D01*
X0135596Y0167121D01*
X0135473Y0167136D01*
X0135350Y0167155D01*
X0135228Y0167177D01*
X0135106Y0167204D01*
X0134986Y0167234D01*
X0134866Y0167268D01*
X0134748Y0167307D01*
X0134630Y0167348D01*
X0134515Y0167394D01*
X0134400Y0167443D01*
X0134288Y0167496D01*
X0134177Y0167552D01*
X0134068Y0167612D01*
X0133961Y0167676D01*
X0133856Y0167742D01*
X0133753Y0167812D01*
X0133653Y0167886D01*
X0133555Y0167962D01*
X0133459Y0168041D01*
X0133366Y0168124D01*
X0133275Y0168209D01*
X0133188Y0168298D01*
X0133103Y0168389D01*
X0133021Y0168483D01*
X0132943Y0168579D01*
X0132867Y0168678D01*
X0132794Y0168779D01*
X0132725Y0168882D01*
X0132659Y0168988D01*
X0132597Y0169095D01*
X0132538Y0169205D01*
X0132482Y0169316D01*
X0132430Y0169429D01*
X0132382Y0169544D01*
X0132338Y0169660D01*
X0132297Y0169777D01*
X0132260Y0169896D01*
X0132226Y0170016D01*
X0132197Y0170136D01*
X0132171Y0170258D01*
X0132149Y0170381D01*
X0132132Y0170504D01*
X0132118Y0170627D01*
X0132108Y0170751D01*
X0132102Y0170876D01*
X0132100Y0171000D01*
X0132000Y0167000D02*
X0140000Y0175000D01*
X0132100Y0181000D02*
X0132102Y0181124D01*
X0132108Y0181249D01*
X0132118Y0181373D01*
X0132132Y0181496D01*
X0132149Y0181619D01*
X0132171Y0181742D01*
X0132197Y0181864D01*
X0132226Y0181984D01*
X0132260Y0182104D01*
X0132297Y0182223D01*
X0132338Y0182340D01*
X0132382Y0182456D01*
X0132430Y0182571D01*
X0132482Y0182684D01*
X0132538Y0182795D01*
X0132597Y0182905D01*
X0132659Y0183012D01*
X0132725Y0183118D01*
X0132794Y0183221D01*
X0132867Y0183322D01*
X0132943Y0183421D01*
X0133021Y0183517D01*
X0133103Y0183611D01*
X0133188Y0183702D01*
X0133275Y0183791D01*
X0133366Y0183876D01*
X0133459Y0183959D01*
X0133555Y0184038D01*
X0133653Y0184114D01*
X0133753Y0184188D01*
X0133856Y0184258D01*
X0133961Y0184324D01*
X0134068Y0184388D01*
X0134177Y0184448D01*
X0134288Y0184504D01*
X0134400Y0184557D01*
X0134515Y0184606D01*
X0134630Y0184652D01*
X0134748Y0184693D01*
X0134866Y0184732D01*
X0134986Y0184766D01*
X0135106Y0184796D01*
X0135228Y0184823D01*
X0135350Y0184845D01*
X0135473Y0184864D01*
X0135596Y0184879D01*
X0135720Y0184890D01*
X0135845Y0184897D01*
X0135969Y0184900D01*
X0136093Y0184899D01*
X0136218Y0184894D01*
X0136342Y0184885D01*
X0136465Y0184872D01*
X0136589Y0184855D01*
X0136711Y0184835D01*
X0136833Y0184810D01*
X0136954Y0184781D01*
X0137074Y0184749D01*
X0137193Y0184713D01*
X0137311Y0184673D01*
X0137428Y0184629D01*
X0137543Y0184582D01*
X0137656Y0184531D01*
X0137768Y0184476D01*
X0137878Y0184418D01*
X0137986Y0184357D01*
X0138092Y0184292D01*
X0138196Y0184223D01*
X0138297Y0184152D01*
X0138397Y0184077D01*
X0138494Y0183999D01*
X0138588Y0183918D01*
X0138680Y0183834D01*
X0138769Y0183747D01*
X0138855Y0183657D01*
X0138938Y0183565D01*
X0139018Y0183470D01*
X0139096Y0183372D01*
X0139170Y0183272D01*
X0139241Y0183170D01*
X0139308Y0183066D01*
X0139372Y0182959D01*
X0139433Y0182850D01*
X0139490Y0182740D01*
X0139544Y0182628D01*
X0139594Y0182514D01*
X0139641Y0182399D01*
X0139683Y0182282D01*
X0139722Y0182164D01*
X0139758Y0182044D01*
X0139789Y0181924D01*
X0139816Y0181803D01*
X0139840Y0181681D01*
X0139860Y0181558D01*
X0139876Y0181434D01*
X0139888Y0181311D01*
X0139896Y0181187D01*
X0139900Y0181062D01*
X0139900Y0180938D01*
X0139896Y0180813D01*
X0139888Y0180689D01*
X0139876Y0180566D01*
X0139860Y0180442D01*
X0139840Y0180319D01*
X0139816Y0180197D01*
X0139789Y0180076D01*
X0139758Y0179956D01*
X0139722Y0179836D01*
X0139683Y0179718D01*
X0139641Y0179601D01*
X0139594Y0179486D01*
X0139544Y0179372D01*
X0139490Y0179260D01*
X0139433Y0179150D01*
X0139372Y0179041D01*
X0139308Y0178934D01*
X0139241Y0178830D01*
X0139170Y0178728D01*
X0139096Y0178628D01*
X0139018Y0178530D01*
X0138938Y0178435D01*
X0138855Y0178343D01*
X0138769Y0178253D01*
X0138680Y0178166D01*
X0138588Y0178082D01*
X0138494Y0178001D01*
X0138397Y0177923D01*
X0138297Y0177848D01*
X0138196Y0177777D01*
X0138092Y0177708D01*
X0137986Y0177643D01*
X0137878Y0177582D01*
X0137768Y0177524D01*
X0137656Y0177469D01*
X0137543Y0177418D01*
X0137428Y0177371D01*
X0137311Y0177327D01*
X0137193Y0177287D01*
X0137074Y0177251D01*
X0136954Y0177219D01*
X0136833Y0177190D01*
X0136711Y0177165D01*
X0136589Y0177145D01*
X0136465Y0177128D01*
X0136342Y0177115D01*
X0136218Y0177106D01*
X0136093Y0177101D01*
X0135969Y0177100D01*
X0135845Y0177103D01*
X0135720Y0177110D01*
X0135596Y0177121D01*
X0135473Y0177136D01*
X0135350Y0177155D01*
X0135228Y0177177D01*
X0135106Y0177204D01*
X0134986Y0177234D01*
X0134866Y0177268D01*
X0134748Y0177307D01*
X0134630Y0177348D01*
X0134515Y0177394D01*
X0134400Y0177443D01*
X0134288Y0177496D01*
X0134177Y0177552D01*
X0134068Y0177612D01*
X0133961Y0177676D01*
X0133856Y0177742D01*
X0133753Y0177812D01*
X0133653Y0177886D01*
X0133555Y0177962D01*
X0133459Y0178041D01*
X0133366Y0178124D01*
X0133275Y0178209D01*
X0133188Y0178298D01*
X0133103Y0178389D01*
X0133021Y0178483D01*
X0132943Y0178579D01*
X0132867Y0178678D01*
X0132794Y0178779D01*
X0132725Y0178882D01*
X0132659Y0178988D01*
X0132597Y0179095D01*
X0132538Y0179205D01*
X0132482Y0179316D01*
X0132430Y0179429D01*
X0132382Y0179544D01*
X0132338Y0179660D01*
X0132297Y0179777D01*
X0132260Y0179896D01*
X0132226Y0180016D01*
X0132197Y0180136D01*
X0132171Y0180258D01*
X0132149Y0180381D01*
X0132132Y0180504D01*
X0132118Y0180627D01*
X0132108Y0180751D01*
X0132102Y0180876D01*
X0132100Y0181000D01*
X0132000Y0177000D02*
X0140000Y0185000D01*
X0132100Y0191000D02*
X0132102Y0191124D01*
X0132108Y0191249D01*
X0132118Y0191373D01*
X0132132Y0191496D01*
X0132149Y0191619D01*
X0132171Y0191742D01*
X0132197Y0191864D01*
X0132226Y0191984D01*
X0132260Y0192104D01*
X0132297Y0192223D01*
X0132338Y0192340D01*
X0132382Y0192456D01*
X0132430Y0192571D01*
X0132482Y0192684D01*
X0132538Y0192795D01*
X0132597Y0192905D01*
X0132659Y0193012D01*
X0132725Y0193118D01*
X0132794Y0193221D01*
X0132867Y0193322D01*
X0132943Y0193421D01*
X0133021Y0193517D01*
X0133103Y0193611D01*
X0133188Y0193702D01*
X0133275Y0193791D01*
X0133366Y0193876D01*
X0133459Y0193959D01*
X0133555Y0194038D01*
X0133653Y0194114D01*
X0133753Y0194188D01*
X0133856Y0194258D01*
X0133961Y0194324D01*
X0134068Y0194388D01*
X0134177Y0194448D01*
X0134288Y0194504D01*
X0134400Y0194557D01*
X0134515Y0194606D01*
X0134630Y0194652D01*
X0134748Y0194693D01*
X0134866Y0194732D01*
X0134986Y0194766D01*
X0135106Y0194796D01*
X0135228Y0194823D01*
X0135350Y0194845D01*
X0135473Y0194864D01*
X0135596Y0194879D01*
X0135720Y0194890D01*
X0135845Y0194897D01*
X0135969Y0194900D01*
X0136093Y0194899D01*
X0136218Y0194894D01*
X0136342Y0194885D01*
X0136465Y0194872D01*
X0136589Y0194855D01*
X0136711Y0194835D01*
X0136833Y0194810D01*
X0136954Y0194781D01*
X0137074Y0194749D01*
X0137193Y0194713D01*
X0137311Y0194673D01*
X0137428Y0194629D01*
X0137543Y0194582D01*
X0137656Y0194531D01*
X0137768Y0194476D01*
X0137878Y0194418D01*
X0137986Y0194357D01*
X0138092Y0194292D01*
X0138196Y0194223D01*
X0138297Y0194152D01*
X0138397Y0194077D01*
X0138494Y0193999D01*
X0138588Y0193918D01*
X0138680Y0193834D01*
X0138769Y0193747D01*
X0138855Y0193657D01*
X0138938Y0193565D01*
X0139018Y0193470D01*
X0139096Y0193372D01*
X0139170Y0193272D01*
X0139241Y0193170D01*
X0139308Y0193066D01*
X0139372Y0192959D01*
X0139433Y0192850D01*
X0139490Y0192740D01*
X0139544Y0192628D01*
X0139594Y0192514D01*
X0139641Y0192399D01*
X0139683Y0192282D01*
X0139722Y0192164D01*
X0139758Y0192044D01*
X0139789Y0191924D01*
X0139816Y0191803D01*
X0139840Y0191681D01*
X0139860Y0191558D01*
X0139876Y0191434D01*
X0139888Y0191311D01*
X0139896Y0191187D01*
X0139900Y0191062D01*
X0139900Y0190938D01*
X0139896Y0190813D01*
X0139888Y0190689D01*
X0139876Y0190566D01*
X0139860Y0190442D01*
X0139840Y0190319D01*
X0139816Y0190197D01*
X0139789Y0190076D01*
X0139758Y0189956D01*
X0139722Y0189836D01*
X0139683Y0189718D01*
X0139641Y0189601D01*
X0139594Y0189486D01*
X0139544Y0189372D01*
X0139490Y0189260D01*
X0139433Y0189150D01*
X0139372Y0189041D01*
X0139308Y0188934D01*
X0139241Y0188830D01*
X0139170Y0188728D01*
X0139096Y0188628D01*
X0139018Y0188530D01*
X0138938Y0188435D01*
X0138855Y0188343D01*
X0138769Y0188253D01*
X0138680Y0188166D01*
X0138588Y0188082D01*
X0138494Y0188001D01*
X0138397Y0187923D01*
X0138297Y0187848D01*
X0138196Y0187777D01*
X0138092Y0187708D01*
X0137986Y0187643D01*
X0137878Y0187582D01*
X0137768Y0187524D01*
X0137656Y0187469D01*
X0137543Y0187418D01*
X0137428Y0187371D01*
X0137311Y0187327D01*
X0137193Y0187287D01*
X0137074Y0187251D01*
X0136954Y0187219D01*
X0136833Y0187190D01*
X0136711Y0187165D01*
X0136589Y0187145D01*
X0136465Y0187128D01*
X0136342Y0187115D01*
X0136218Y0187106D01*
X0136093Y0187101D01*
X0135969Y0187100D01*
X0135845Y0187103D01*
X0135720Y0187110D01*
X0135596Y0187121D01*
X0135473Y0187136D01*
X0135350Y0187155D01*
X0135228Y0187177D01*
X0135106Y0187204D01*
X0134986Y0187234D01*
X0134866Y0187268D01*
X0134748Y0187307D01*
X0134630Y0187348D01*
X0134515Y0187394D01*
X0134400Y0187443D01*
X0134288Y0187496D01*
X0134177Y0187552D01*
X0134068Y0187612D01*
X0133961Y0187676D01*
X0133856Y0187742D01*
X0133753Y0187812D01*
X0133653Y0187886D01*
X0133555Y0187962D01*
X0133459Y0188041D01*
X0133366Y0188124D01*
X0133275Y0188209D01*
X0133188Y0188298D01*
X0133103Y0188389D01*
X0133021Y0188483D01*
X0132943Y0188579D01*
X0132867Y0188678D01*
X0132794Y0188779D01*
X0132725Y0188882D01*
X0132659Y0188988D01*
X0132597Y0189095D01*
X0132538Y0189205D01*
X0132482Y0189316D01*
X0132430Y0189429D01*
X0132382Y0189544D01*
X0132338Y0189660D01*
X0132297Y0189777D01*
X0132260Y0189896D01*
X0132226Y0190016D01*
X0132197Y0190136D01*
X0132171Y0190258D01*
X0132149Y0190381D01*
X0132132Y0190504D01*
X0132118Y0190627D01*
X0132108Y0190751D01*
X0132102Y0190876D01*
X0132100Y0191000D01*
X0132000Y0187000D02*
X0140000Y0195000D01*
X0172100Y0191000D02*
X0172102Y0191124D01*
X0172108Y0191249D01*
X0172118Y0191373D01*
X0172132Y0191496D01*
X0172149Y0191619D01*
X0172171Y0191742D01*
X0172197Y0191864D01*
X0172226Y0191984D01*
X0172260Y0192104D01*
X0172297Y0192223D01*
X0172338Y0192340D01*
X0172382Y0192456D01*
X0172430Y0192571D01*
X0172482Y0192684D01*
X0172538Y0192795D01*
X0172597Y0192905D01*
X0172659Y0193012D01*
X0172725Y0193118D01*
X0172794Y0193221D01*
X0172867Y0193322D01*
X0172943Y0193421D01*
X0173021Y0193517D01*
X0173103Y0193611D01*
X0173188Y0193702D01*
X0173275Y0193791D01*
X0173366Y0193876D01*
X0173459Y0193959D01*
X0173555Y0194038D01*
X0173653Y0194114D01*
X0173753Y0194188D01*
X0173856Y0194258D01*
X0173961Y0194324D01*
X0174068Y0194388D01*
X0174177Y0194448D01*
X0174288Y0194504D01*
X0174400Y0194557D01*
X0174515Y0194606D01*
X0174630Y0194652D01*
X0174748Y0194693D01*
X0174866Y0194732D01*
X0174986Y0194766D01*
X0175106Y0194796D01*
X0175228Y0194823D01*
X0175350Y0194845D01*
X0175473Y0194864D01*
X0175596Y0194879D01*
X0175720Y0194890D01*
X0175845Y0194897D01*
X0175969Y0194900D01*
X0176093Y0194899D01*
X0176218Y0194894D01*
X0176342Y0194885D01*
X0176465Y0194872D01*
X0176589Y0194855D01*
X0176711Y0194835D01*
X0176833Y0194810D01*
X0176954Y0194781D01*
X0177074Y0194749D01*
X0177193Y0194713D01*
X0177311Y0194673D01*
X0177428Y0194629D01*
X0177543Y0194582D01*
X0177656Y0194531D01*
X0177768Y0194476D01*
X0177878Y0194418D01*
X0177986Y0194357D01*
X0178092Y0194292D01*
X0178196Y0194223D01*
X0178297Y0194152D01*
X0178397Y0194077D01*
X0178494Y0193999D01*
X0178588Y0193918D01*
X0178680Y0193834D01*
X0178769Y0193747D01*
X0178855Y0193657D01*
X0178938Y0193565D01*
X0179018Y0193470D01*
X0179096Y0193372D01*
X0179170Y0193272D01*
X0179241Y0193170D01*
X0179308Y0193066D01*
X0179372Y0192959D01*
X0179433Y0192850D01*
X0179490Y0192740D01*
X0179544Y0192628D01*
X0179594Y0192514D01*
X0179641Y0192399D01*
X0179683Y0192282D01*
X0179722Y0192164D01*
X0179758Y0192044D01*
X0179789Y0191924D01*
X0179816Y0191803D01*
X0179840Y0191681D01*
X0179860Y0191558D01*
X0179876Y0191434D01*
X0179888Y0191311D01*
X0179896Y0191187D01*
X0179900Y0191062D01*
X0179900Y0190938D01*
X0179896Y0190813D01*
X0179888Y0190689D01*
X0179876Y0190566D01*
X0179860Y0190442D01*
X0179840Y0190319D01*
X0179816Y0190197D01*
X0179789Y0190076D01*
X0179758Y0189956D01*
X0179722Y0189836D01*
X0179683Y0189718D01*
X0179641Y0189601D01*
X0179594Y0189486D01*
X0179544Y0189372D01*
X0179490Y0189260D01*
X0179433Y0189150D01*
X0179372Y0189041D01*
X0179308Y0188934D01*
X0179241Y0188830D01*
X0179170Y0188728D01*
X0179096Y0188628D01*
X0179018Y0188530D01*
X0178938Y0188435D01*
X0178855Y0188343D01*
X0178769Y0188253D01*
X0178680Y0188166D01*
X0178588Y0188082D01*
X0178494Y0188001D01*
X0178397Y0187923D01*
X0178297Y0187848D01*
X0178196Y0187777D01*
X0178092Y0187708D01*
X0177986Y0187643D01*
X0177878Y0187582D01*
X0177768Y0187524D01*
X0177656Y0187469D01*
X0177543Y0187418D01*
X0177428Y0187371D01*
X0177311Y0187327D01*
X0177193Y0187287D01*
X0177074Y0187251D01*
X0176954Y0187219D01*
X0176833Y0187190D01*
X0176711Y0187165D01*
X0176589Y0187145D01*
X0176465Y0187128D01*
X0176342Y0187115D01*
X0176218Y0187106D01*
X0176093Y0187101D01*
X0175969Y0187100D01*
X0175845Y0187103D01*
X0175720Y0187110D01*
X0175596Y0187121D01*
X0175473Y0187136D01*
X0175350Y0187155D01*
X0175228Y0187177D01*
X0175106Y0187204D01*
X0174986Y0187234D01*
X0174866Y0187268D01*
X0174748Y0187307D01*
X0174630Y0187348D01*
X0174515Y0187394D01*
X0174400Y0187443D01*
X0174288Y0187496D01*
X0174177Y0187552D01*
X0174068Y0187612D01*
X0173961Y0187676D01*
X0173856Y0187742D01*
X0173753Y0187812D01*
X0173653Y0187886D01*
X0173555Y0187962D01*
X0173459Y0188041D01*
X0173366Y0188124D01*
X0173275Y0188209D01*
X0173188Y0188298D01*
X0173103Y0188389D01*
X0173021Y0188483D01*
X0172943Y0188579D01*
X0172867Y0188678D01*
X0172794Y0188779D01*
X0172725Y0188882D01*
X0172659Y0188988D01*
X0172597Y0189095D01*
X0172538Y0189205D01*
X0172482Y0189316D01*
X0172430Y0189429D01*
X0172382Y0189544D01*
X0172338Y0189660D01*
X0172297Y0189777D01*
X0172260Y0189896D01*
X0172226Y0190016D01*
X0172197Y0190136D01*
X0172171Y0190258D01*
X0172149Y0190381D01*
X0172132Y0190504D01*
X0172118Y0190627D01*
X0172108Y0190751D01*
X0172102Y0190876D01*
X0172100Y0191000D01*
X0172000Y0187000D02*
X0180000Y0195000D01*
X0172100Y0181000D02*
X0172102Y0181124D01*
X0172108Y0181249D01*
X0172118Y0181373D01*
X0172132Y0181496D01*
X0172149Y0181619D01*
X0172171Y0181742D01*
X0172197Y0181864D01*
X0172226Y0181984D01*
X0172260Y0182104D01*
X0172297Y0182223D01*
X0172338Y0182340D01*
X0172382Y0182456D01*
X0172430Y0182571D01*
X0172482Y0182684D01*
X0172538Y0182795D01*
X0172597Y0182905D01*
X0172659Y0183012D01*
X0172725Y0183118D01*
X0172794Y0183221D01*
X0172867Y0183322D01*
X0172943Y0183421D01*
X0173021Y0183517D01*
X0173103Y0183611D01*
X0173188Y0183702D01*
X0173275Y0183791D01*
X0173366Y0183876D01*
X0173459Y0183959D01*
X0173555Y0184038D01*
X0173653Y0184114D01*
X0173753Y0184188D01*
X0173856Y0184258D01*
X0173961Y0184324D01*
X0174068Y0184388D01*
X0174177Y0184448D01*
X0174288Y0184504D01*
X0174400Y0184557D01*
X0174515Y0184606D01*
X0174630Y0184652D01*
X0174748Y0184693D01*
X0174866Y0184732D01*
X0174986Y0184766D01*
X0175106Y0184796D01*
X0175228Y0184823D01*
X0175350Y0184845D01*
X0175473Y0184864D01*
X0175596Y0184879D01*
X0175720Y0184890D01*
X0175845Y0184897D01*
X0175969Y0184900D01*
X0176093Y0184899D01*
X0176218Y0184894D01*
X0176342Y0184885D01*
X0176465Y0184872D01*
X0176589Y0184855D01*
X0176711Y0184835D01*
X0176833Y0184810D01*
X0176954Y0184781D01*
X0177074Y0184749D01*
X0177193Y0184713D01*
X0177311Y0184673D01*
X0177428Y0184629D01*
X0177543Y0184582D01*
X0177656Y0184531D01*
X0177768Y0184476D01*
X0177878Y0184418D01*
X0177986Y0184357D01*
X0178092Y0184292D01*
X0178196Y0184223D01*
X0178297Y0184152D01*
X0178397Y0184077D01*
X0178494Y0183999D01*
X0178588Y0183918D01*
X0178680Y0183834D01*
X0178769Y0183747D01*
X0178855Y0183657D01*
X0178938Y0183565D01*
X0179018Y0183470D01*
X0179096Y0183372D01*
X0179170Y0183272D01*
X0179241Y0183170D01*
X0179308Y0183066D01*
X0179372Y0182959D01*
X0179433Y0182850D01*
X0179490Y0182740D01*
X0179544Y0182628D01*
X0179594Y0182514D01*
X0179641Y0182399D01*
X0179683Y0182282D01*
X0179722Y0182164D01*
X0179758Y0182044D01*
X0179789Y0181924D01*
X0179816Y0181803D01*
X0179840Y0181681D01*
X0179860Y0181558D01*
X0179876Y0181434D01*
X0179888Y0181311D01*
X0179896Y0181187D01*
X0179900Y0181062D01*
X0179900Y0180938D01*
X0179896Y0180813D01*
X0179888Y0180689D01*
X0179876Y0180566D01*
X0179860Y0180442D01*
X0179840Y0180319D01*
X0179816Y0180197D01*
X0179789Y0180076D01*
X0179758Y0179956D01*
X0179722Y0179836D01*
X0179683Y0179718D01*
X0179641Y0179601D01*
X0179594Y0179486D01*
X0179544Y0179372D01*
X0179490Y0179260D01*
X0179433Y0179150D01*
X0179372Y0179041D01*
X0179308Y0178934D01*
X0179241Y0178830D01*
X0179170Y0178728D01*
X0179096Y0178628D01*
X0179018Y0178530D01*
X0178938Y0178435D01*
X0178855Y0178343D01*
X0178769Y0178253D01*
X0178680Y0178166D01*
X0178588Y0178082D01*
X0178494Y0178001D01*
X0178397Y0177923D01*
X0178297Y0177848D01*
X0178196Y0177777D01*
X0178092Y0177708D01*
X0177986Y0177643D01*
X0177878Y0177582D01*
X0177768Y0177524D01*
X0177656Y0177469D01*
X0177543Y0177418D01*
X0177428Y0177371D01*
X0177311Y0177327D01*
X0177193Y0177287D01*
X0177074Y0177251D01*
X0176954Y0177219D01*
X0176833Y0177190D01*
X0176711Y0177165D01*
X0176589Y0177145D01*
X0176465Y0177128D01*
X0176342Y0177115D01*
X0176218Y0177106D01*
X0176093Y0177101D01*
X0175969Y0177100D01*
X0175845Y0177103D01*
X0175720Y0177110D01*
X0175596Y0177121D01*
X0175473Y0177136D01*
X0175350Y0177155D01*
X0175228Y0177177D01*
X0175106Y0177204D01*
X0174986Y0177234D01*
X0174866Y0177268D01*
X0174748Y0177307D01*
X0174630Y0177348D01*
X0174515Y0177394D01*
X0174400Y0177443D01*
X0174288Y0177496D01*
X0174177Y0177552D01*
X0174068Y0177612D01*
X0173961Y0177676D01*
X0173856Y0177742D01*
X0173753Y0177812D01*
X0173653Y0177886D01*
X0173555Y0177962D01*
X0173459Y0178041D01*
X0173366Y0178124D01*
X0173275Y0178209D01*
X0173188Y0178298D01*
X0173103Y0178389D01*
X0173021Y0178483D01*
X0172943Y0178579D01*
X0172867Y0178678D01*
X0172794Y0178779D01*
X0172725Y0178882D01*
X0172659Y0178988D01*
X0172597Y0179095D01*
X0172538Y0179205D01*
X0172482Y0179316D01*
X0172430Y0179429D01*
X0172382Y0179544D01*
X0172338Y0179660D01*
X0172297Y0179777D01*
X0172260Y0179896D01*
X0172226Y0180016D01*
X0172197Y0180136D01*
X0172171Y0180258D01*
X0172149Y0180381D01*
X0172132Y0180504D01*
X0172118Y0180627D01*
X0172108Y0180751D01*
X0172102Y0180876D01*
X0172100Y0181000D01*
X0172000Y0177000D02*
X0180000Y0185000D01*
X0172100Y0171000D02*
X0172102Y0171124D01*
X0172108Y0171249D01*
X0172118Y0171373D01*
X0172132Y0171496D01*
X0172149Y0171619D01*
X0172171Y0171742D01*
X0172197Y0171864D01*
X0172226Y0171984D01*
X0172260Y0172104D01*
X0172297Y0172223D01*
X0172338Y0172340D01*
X0172382Y0172456D01*
X0172430Y0172571D01*
X0172482Y0172684D01*
X0172538Y0172795D01*
X0172597Y0172905D01*
X0172659Y0173012D01*
X0172725Y0173118D01*
X0172794Y0173221D01*
X0172867Y0173322D01*
X0172943Y0173421D01*
X0173021Y0173517D01*
X0173103Y0173611D01*
X0173188Y0173702D01*
X0173275Y0173791D01*
X0173366Y0173876D01*
X0173459Y0173959D01*
X0173555Y0174038D01*
X0173653Y0174114D01*
X0173753Y0174188D01*
X0173856Y0174258D01*
X0173961Y0174324D01*
X0174068Y0174388D01*
X0174177Y0174448D01*
X0174288Y0174504D01*
X0174400Y0174557D01*
X0174515Y0174606D01*
X0174630Y0174652D01*
X0174748Y0174693D01*
X0174866Y0174732D01*
X0174986Y0174766D01*
X0175106Y0174796D01*
X0175228Y0174823D01*
X0175350Y0174845D01*
X0175473Y0174864D01*
X0175596Y0174879D01*
X0175720Y0174890D01*
X0175845Y0174897D01*
X0175969Y0174900D01*
X0176093Y0174899D01*
X0176218Y0174894D01*
X0176342Y0174885D01*
X0176465Y0174872D01*
X0176589Y0174855D01*
X0176711Y0174835D01*
X0176833Y0174810D01*
X0176954Y0174781D01*
X0177074Y0174749D01*
X0177193Y0174713D01*
X0177311Y0174673D01*
X0177428Y0174629D01*
X0177543Y0174582D01*
X0177656Y0174531D01*
X0177768Y0174476D01*
X0177878Y0174418D01*
X0177986Y0174357D01*
X0178092Y0174292D01*
X0178196Y0174223D01*
X0178297Y0174152D01*
X0178397Y0174077D01*
X0178494Y0173999D01*
X0178588Y0173918D01*
X0178680Y0173834D01*
X0178769Y0173747D01*
X0178855Y0173657D01*
X0178938Y0173565D01*
X0179018Y0173470D01*
X0179096Y0173372D01*
X0179170Y0173272D01*
X0179241Y0173170D01*
X0179308Y0173066D01*
X0179372Y0172959D01*
X0179433Y0172850D01*
X0179490Y0172740D01*
X0179544Y0172628D01*
X0179594Y0172514D01*
X0179641Y0172399D01*
X0179683Y0172282D01*
X0179722Y0172164D01*
X0179758Y0172044D01*
X0179789Y0171924D01*
X0179816Y0171803D01*
X0179840Y0171681D01*
X0179860Y0171558D01*
X0179876Y0171434D01*
X0179888Y0171311D01*
X0179896Y0171187D01*
X0179900Y0171062D01*
X0179900Y0170938D01*
X0179896Y0170813D01*
X0179888Y0170689D01*
X0179876Y0170566D01*
X0179860Y0170442D01*
X0179840Y0170319D01*
X0179816Y0170197D01*
X0179789Y0170076D01*
X0179758Y0169956D01*
X0179722Y0169836D01*
X0179683Y0169718D01*
X0179641Y0169601D01*
X0179594Y0169486D01*
X0179544Y0169372D01*
X0179490Y0169260D01*
X0179433Y0169150D01*
X0179372Y0169041D01*
X0179308Y0168934D01*
X0179241Y0168830D01*
X0179170Y0168728D01*
X0179096Y0168628D01*
X0179018Y0168530D01*
X0178938Y0168435D01*
X0178855Y0168343D01*
X0178769Y0168253D01*
X0178680Y0168166D01*
X0178588Y0168082D01*
X0178494Y0168001D01*
X0178397Y0167923D01*
X0178297Y0167848D01*
X0178196Y0167777D01*
X0178092Y0167708D01*
X0177986Y0167643D01*
X0177878Y0167582D01*
X0177768Y0167524D01*
X0177656Y0167469D01*
X0177543Y0167418D01*
X0177428Y0167371D01*
X0177311Y0167327D01*
X0177193Y0167287D01*
X0177074Y0167251D01*
X0176954Y0167219D01*
X0176833Y0167190D01*
X0176711Y0167165D01*
X0176589Y0167145D01*
X0176465Y0167128D01*
X0176342Y0167115D01*
X0176218Y0167106D01*
X0176093Y0167101D01*
X0175969Y0167100D01*
X0175845Y0167103D01*
X0175720Y0167110D01*
X0175596Y0167121D01*
X0175473Y0167136D01*
X0175350Y0167155D01*
X0175228Y0167177D01*
X0175106Y0167204D01*
X0174986Y0167234D01*
X0174866Y0167268D01*
X0174748Y0167307D01*
X0174630Y0167348D01*
X0174515Y0167394D01*
X0174400Y0167443D01*
X0174288Y0167496D01*
X0174177Y0167552D01*
X0174068Y0167612D01*
X0173961Y0167676D01*
X0173856Y0167742D01*
X0173753Y0167812D01*
X0173653Y0167886D01*
X0173555Y0167962D01*
X0173459Y0168041D01*
X0173366Y0168124D01*
X0173275Y0168209D01*
X0173188Y0168298D01*
X0173103Y0168389D01*
X0173021Y0168483D01*
X0172943Y0168579D01*
X0172867Y0168678D01*
X0172794Y0168779D01*
X0172725Y0168882D01*
X0172659Y0168988D01*
X0172597Y0169095D01*
X0172538Y0169205D01*
X0172482Y0169316D01*
X0172430Y0169429D01*
X0172382Y0169544D01*
X0172338Y0169660D01*
X0172297Y0169777D01*
X0172260Y0169896D01*
X0172226Y0170016D01*
X0172197Y0170136D01*
X0172171Y0170258D01*
X0172149Y0170381D01*
X0172132Y0170504D01*
X0172118Y0170627D01*
X0172108Y0170751D01*
X0172102Y0170876D01*
X0172100Y0171000D01*
X0172000Y0167000D02*
X0180000Y0175000D01*
X0172100Y0161000D02*
X0172102Y0161124D01*
X0172108Y0161249D01*
X0172118Y0161373D01*
X0172132Y0161496D01*
X0172149Y0161619D01*
X0172171Y0161742D01*
X0172197Y0161864D01*
X0172226Y0161984D01*
X0172260Y0162104D01*
X0172297Y0162223D01*
X0172338Y0162340D01*
X0172382Y0162456D01*
X0172430Y0162571D01*
X0172482Y0162684D01*
X0172538Y0162795D01*
X0172597Y0162905D01*
X0172659Y0163012D01*
X0172725Y0163118D01*
X0172794Y0163221D01*
X0172867Y0163322D01*
X0172943Y0163421D01*
X0173021Y0163517D01*
X0173103Y0163611D01*
X0173188Y0163702D01*
X0173275Y0163791D01*
X0173366Y0163876D01*
X0173459Y0163959D01*
X0173555Y0164038D01*
X0173653Y0164114D01*
X0173753Y0164188D01*
X0173856Y0164258D01*
X0173961Y0164324D01*
X0174068Y0164388D01*
X0174177Y0164448D01*
X0174288Y0164504D01*
X0174400Y0164557D01*
X0174515Y0164606D01*
X0174630Y0164652D01*
X0174748Y0164693D01*
X0174866Y0164732D01*
X0174986Y0164766D01*
X0175106Y0164796D01*
X0175228Y0164823D01*
X0175350Y0164845D01*
X0175473Y0164864D01*
X0175596Y0164879D01*
X0175720Y0164890D01*
X0175845Y0164897D01*
X0175969Y0164900D01*
X0176093Y0164899D01*
X0176218Y0164894D01*
X0176342Y0164885D01*
X0176465Y0164872D01*
X0176589Y0164855D01*
X0176711Y0164835D01*
X0176833Y0164810D01*
X0176954Y0164781D01*
X0177074Y0164749D01*
X0177193Y0164713D01*
X0177311Y0164673D01*
X0177428Y0164629D01*
X0177543Y0164582D01*
X0177656Y0164531D01*
X0177768Y0164476D01*
X0177878Y0164418D01*
X0177986Y0164357D01*
X0178092Y0164292D01*
X0178196Y0164223D01*
X0178297Y0164152D01*
X0178397Y0164077D01*
X0178494Y0163999D01*
X0178588Y0163918D01*
X0178680Y0163834D01*
X0178769Y0163747D01*
X0178855Y0163657D01*
X0178938Y0163565D01*
X0179018Y0163470D01*
X0179096Y0163372D01*
X0179170Y0163272D01*
X0179241Y0163170D01*
X0179308Y0163066D01*
X0179372Y0162959D01*
X0179433Y0162850D01*
X0179490Y0162740D01*
X0179544Y0162628D01*
X0179594Y0162514D01*
X0179641Y0162399D01*
X0179683Y0162282D01*
X0179722Y0162164D01*
X0179758Y0162044D01*
X0179789Y0161924D01*
X0179816Y0161803D01*
X0179840Y0161681D01*
X0179860Y0161558D01*
X0179876Y0161434D01*
X0179888Y0161311D01*
X0179896Y0161187D01*
X0179900Y0161062D01*
X0179900Y0160938D01*
X0179896Y0160813D01*
X0179888Y0160689D01*
X0179876Y0160566D01*
X0179860Y0160442D01*
X0179840Y0160319D01*
X0179816Y0160197D01*
X0179789Y0160076D01*
X0179758Y0159956D01*
X0179722Y0159836D01*
X0179683Y0159718D01*
X0179641Y0159601D01*
X0179594Y0159486D01*
X0179544Y0159372D01*
X0179490Y0159260D01*
X0179433Y0159150D01*
X0179372Y0159041D01*
X0179308Y0158934D01*
X0179241Y0158830D01*
X0179170Y0158728D01*
X0179096Y0158628D01*
X0179018Y0158530D01*
X0178938Y0158435D01*
X0178855Y0158343D01*
X0178769Y0158253D01*
X0178680Y0158166D01*
X0178588Y0158082D01*
X0178494Y0158001D01*
X0178397Y0157923D01*
X0178297Y0157848D01*
X0178196Y0157777D01*
X0178092Y0157708D01*
X0177986Y0157643D01*
X0177878Y0157582D01*
X0177768Y0157524D01*
X0177656Y0157469D01*
X0177543Y0157418D01*
X0177428Y0157371D01*
X0177311Y0157327D01*
X0177193Y0157287D01*
X0177074Y0157251D01*
X0176954Y0157219D01*
X0176833Y0157190D01*
X0176711Y0157165D01*
X0176589Y0157145D01*
X0176465Y0157128D01*
X0176342Y0157115D01*
X0176218Y0157106D01*
X0176093Y0157101D01*
X0175969Y0157100D01*
X0175845Y0157103D01*
X0175720Y0157110D01*
X0175596Y0157121D01*
X0175473Y0157136D01*
X0175350Y0157155D01*
X0175228Y0157177D01*
X0175106Y0157204D01*
X0174986Y0157234D01*
X0174866Y0157268D01*
X0174748Y0157307D01*
X0174630Y0157348D01*
X0174515Y0157394D01*
X0174400Y0157443D01*
X0174288Y0157496D01*
X0174177Y0157552D01*
X0174068Y0157612D01*
X0173961Y0157676D01*
X0173856Y0157742D01*
X0173753Y0157812D01*
X0173653Y0157886D01*
X0173555Y0157962D01*
X0173459Y0158041D01*
X0173366Y0158124D01*
X0173275Y0158209D01*
X0173188Y0158298D01*
X0173103Y0158389D01*
X0173021Y0158483D01*
X0172943Y0158579D01*
X0172867Y0158678D01*
X0172794Y0158779D01*
X0172725Y0158882D01*
X0172659Y0158988D01*
X0172597Y0159095D01*
X0172538Y0159205D01*
X0172482Y0159316D01*
X0172430Y0159429D01*
X0172382Y0159544D01*
X0172338Y0159660D01*
X0172297Y0159777D01*
X0172260Y0159896D01*
X0172226Y0160016D01*
X0172197Y0160136D01*
X0172171Y0160258D01*
X0172149Y0160381D01*
X0172132Y0160504D01*
X0172118Y0160627D01*
X0172108Y0160751D01*
X0172102Y0160876D01*
X0172100Y0161000D01*
X0172000Y0157000D02*
X0180000Y0165000D01*
X0227100Y0126000D02*
X0227102Y0126124D01*
X0227108Y0126249D01*
X0227118Y0126373D01*
X0227132Y0126496D01*
X0227149Y0126619D01*
X0227171Y0126742D01*
X0227197Y0126864D01*
X0227226Y0126984D01*
X0227260Y0127104D01*
X0227297Y0127223D01*
X0227338Y0127340D01*
X0227382Y0127456D01*
X0227430Y0127571D01*
X0227482Y0127684D01*
X0227538Y0127795D01*
X0227597Y0127905D01*
X0227659Y0128012D01*
X0227725Y0128118D01*
X0227794Y0128221D01*
X0227867Y0128322D01*
X0227943Y0128421D01*
X0228021Y0128517D01*
X0228103Y0128611D01*
X0228188Y0128702D01*
X0228275Y0128791D01*
X0228366Y0128876D01*
X0228459Y0128959D01*
X0228555Y0129038D01*
X0228653Y0129114D01*
X0228753Y0129188D01*
X0228856Y0129258D01*
X0228961Y0129324D01*
X0229068Y0129388D01*
X0229177Y0129448D01*
X0229288Y0129504D01*
X0229400Y0129557D01*
X0229515Y0129606D01*
X0229630Y0129652D01*
X0229748Y0129693D01*
X0229866Y0129732D01*
X0229986Y0129766D01*
X0230106Y0129796D01*
X0230228Y0129823D01*
X0230350Y0129845D01*
X0230473Y0129864D01*
X0230596Y0129879D01*
X0230720Y0129890D01*
X0230845Y0129897D01*
X0230969Y0129900D01*
X0231093Y0129899D01*
X0231218Y0129894D01*
X0231342Y0129885D01*
X0231465Y0129872D01*
X0231589Y0129855D01*
X0231711Y0129835D01*
X0231833Y0129810D01*
X0231954Y0129781D01*
X0232074Y0129749D01*
X0232193Y0129713D01*
X0232311Y0129673D01*
X0232428Y0129629D01*
X0232543Y0129582D01*
X0232656Y0129531D01*
X0232768Y0129476D01*
X0232878Y0129418D01*
X0232986Y0129357D01*
X0233092Y0129292D01*
X0233196Y0129223D01*
X0233297Y0129152D01*
X0233397Y0129077D01*
X0233494Y0128999D01*
X0233588Y0128918D01*
X0233680Y0128834D01*
X0233769Y0128747D01*
X0233855Y0128657D01*
X0233938Y0128565D01*
X0234018Y0128470D01*
X0234096Y0128372D01*
X0234170Y0128272D01*
X0234241Y0128170D01*
X0234308Y0128066D01*
X0234372Y0127959D01*
X0234433Y0127850D01*
X0234490Y0127740D01*
X0234544Y0127628D01*
X0234594Y0127514D01*
X0234641Y0127399D01*
X0234683Y0127282D01*
X0234722Y0127164D01*
X0234758Y0127044D01*
X0234789Y0126924D01*
X0234816Y0126803D01*
X0234840Y0126681D01*
X0234860Y0126558D01*
X0234876Y0126434D01*
X0234888Y0126311D01*
X0234896Y0126187D01*
X0234900Y0126062D01*
X0234900Y0125938D01*
X0234896Y0125813D01*
X0234888Y0125689D01*
X0234876Y0125566D01*
X0234860Y0125442D01*
X0234840Y0125319D01*
X0234816Y0125197D01*
X0234789Y0125076D01*
X0234758Y0124956D01*
X0234722Y0124836D01*
X0234683Y0124718D01*
X0234641Y0124601D01*
X0234594Y0124486D01*
X0234544Y0124372D01*
X0234490Y0124260D01*
X0234433Y0124150D01*
X0234372Y0124041D01*
X0234308Y0123934D01*
X0234241Y0123830D01*
X0234170Y0123728D01*
X0234096Y0123628D01*
X0234018Y0123530D01*
X0233938Y0123435D01*
X0233855Y0123343D01*
X0233769Y0123253D01*
X0233680Y0123166D01*
X0233588Y0123082D01*
X0233494Y0123001D01*
X0233397Y0122923D01*
X0233297Y0122848D01*
X0233196Y0122777D01*
X0233092Y0122708D01*
X0232986Y0122643D01*
X0232878Y0122582D01*
X0232768Y0122524D01*
X0232656Y0122469D01*
X0232543Y0122418D01*
X0232428Y0122371D01*
X0232311Y0122327D01*
X0232193Y0122287D01*
X0232074Y0122251D01*
X0231954Y0122219D01*
X0231833Y0122190D01*
X0231711Y0122165D01*
X0231589Y0122145D01*
X0231465Y0122128D01*
X0231342Y0122115D01*
X0231218Y0122106D01*
X0231093Y0122101D01*
X0230969Y0122100D01*
X0230845Y0122103D01*
X0230720Y0122110D01*
X0230596Y0122121D01*
X0230473Y0122136D01*
X0230350Y0122155D01*
X0230228Y0122177D01*
X0230106Y0122204D01*
X0229986Y0122234D01*
X0229866Y0122268D01*
X0229748Y0122307D01*
X0229630Y0122348D01*
X0229515Y0122394D01*
X0229400Y0122443D01*
X0229288Y0122496D01*
X0229177Y0122552D01*
X0229068Y0122612D01*
X0228961Y0122676D01*
X0228856Y0122742D01*
X0228753Y0122812D01*
X0228653Y0122886D01*
X0228555Y0122962D01*
X0228459Y0123041D01*
X0228366Y0123124D01*
X0228275Y0123209D01*
X0228188Y0123298D01*
X0228103Y0123389D01*
X0228021Y0123483D01*
X0227943Y0123579D01*
X0227867Y0123678D01*
X0227794Y0123779D01*
X0227725Y0123882D01*
X0227659Y0123988D01*
X0227597Y0124095D01*
X0227538Y0124205D01*
X0227482Y0124316D01*
X0227430Y0124429D01*
X0227382Y0124544D01*
X0227338Y0124660D01*
X0227297Y0124777D01*
X0227260Y0124896D01*
X0227226Y0125016D01*
X0227197Y0125136D01*
X0227171Y0125258D01*
X0227149Y0125381D01*
X0227132Y0125504D01*
X0227118Y0125627D01*
X0227108Y0125751D01*
X0227102Y0125876D01*
X0227100Y0126000D01*
X0227000Y0122000D02*
X0235000Y0130000D01*
X0237100Y0126000D02*
X0237102Y0126124D01*
X0237108Y0126249D01*
X0237118Y0126373D01*
X0237132Y0126496D01*
X0237149Y0126619D01*
X0237171Y0126742D01*
X0237197Y0126864D01*
X0237226Y0126984D01*
X0237260Y0127104D01*
X0237297Y0127223D01*
X0237338Y0127340D01*
X0237382Y0127456D01*
X0237430Y0127571D01*
X0237482Y0127684D01*
X0237538Y0127795D01*
X0237597Y0127905D01*
X0237659Y0128012D01*
X0237725Y0128118D01*
X0237794Y0128221D01*
X0237867Y0128322D01*
X0237943Y0128421D01*
X0238021Y0128517D01*
X0238103Y0128611D01*
X0238188Y0128702D01*
X0238275Y0128791D01*
X0238366Y0128876D01*
X0238459Y0128959D01*
X0238555Y0129038D01*
X0238653Y0129114D01*
X0238753Y0129188D01*
X0238856Y0129258D01*
X0238961Y0129324D01*
X0239068Y0129388D01*
X0239177Y0129448D01*
X0239288Y0129504D01*
X0239400Y0129557D01*
X0239515Y0129606D01*
X0239630Y0129652D01*
X0239748Y0129693D01*
X0239866Y0129732D01*
X0239986Y0129766D01*
X0240106Y0129796D01*
X0240228Y0129823D01*
X0240350Y0129845D01*
X0240473Y0129864D01*
X0240596Y0129879D01*
X0240720Y0129890D01*
X0240845Y0129897D01*
X0240969Y0129900D01*
X0241093Y0129899D01*
X0241218Y0129894D01*
X0241342Y0129885D01*
X0241465Y0129872D01*
X0241589Y0129855D01*
X0241711Y0129835D01*
X0241833Y0129810D01*
X0241954Y0129781D01*
X0242074Y0129749D01*
X0242193Y0129713D01*
X0242311Y0129673D01*
X0242428Y0129629D01*
X0242543Y0129582D01*
X0242656Y0129531D01*
X0242768Y0129476D01*
X0242878Y0129418D01*
X0242986Y0129357D01*
X0243092Y0129292D01*
X0243196Y0129223D01*
X0243297Y0129152D01*
X0243397Y0129077D01*
X0243494Y0128999D01*
X0243588Y0128918D01*
X0243680Y0128834D01*
X0243769Y0128747D01*
X0243855Y0128657D01*
X0243938Y0128565D01*
X0244018Y0128470D01*
X0244096Y0128372D01*
X0244170Y0128272D01*
X0244241Y0128170D01*
X0244308Y0128066D01*
X0244372Y0127959D01*
X0244433Y0127850D01*
X0244490Y0127740D01*
X0244544Y0127628D01*
X0244594Y0127514D01*
X0244641Y0127399D01*
X0244683Y0127282D01*
X0244722Y0127164D01*
X0244758Y0127044D01*
X0244789Y0126924D01*
X0244816Y0126803D01*
X0244840Y0126681D01*
X0244860Y0126558D01*
X0244876Y0126434D01*
X0244888Y0126311D01*
X0244896Y0126187D01*
X0244900Y0126062D01*
X0244900Y0125938D01*
X0244896Y0125813D01*
X0244888Y0125689D01*
X0244876Y0125566D01*
X0244860Y0125442D01*
X0244840Y0125319D01*
X0244816Y0125197D01*
X0244789Y0125076D01*
X0244758Y0124956D01*
X0244722Y0124836D01*
X0244683Y0124718D01*
X0244641Y0124601D01*
X0244594Y0124486D01*
X0244544Y0124372D01*
X0244490Y0124260D01*
X0244433Y0124150D01*
X0244372Y0124041D01*
X0244308Y0123934D01*
X0244241Y0123830D01*
X0244170Y0123728D01*
X0244096Y0123628D01*
X0244018Y0123530D01*
X0243938Y0123435D01*
X0243855Y0123343D01*
X0243769Y0123253D01*
X0243680Y0123166D01*
X0243588Y0123082D01*
X0243494Y0123001D01*
X0243397Y0122923D01*
X0243297Y0122848D01*
X0243196Y0122777D01*
X0243092Y0122708D01*
X0242986Y0122643D01*
X0242878Y0122582D01*
X0242768Y0122524D01*
X0242656Y0122469D01*
X0242543Y0122418D01*
X0242428Y0122371D01*
X0242311Y0122327D01*
X0242193Y0122287D01*
X0242074Y0122251D01*
X0241954Y0122219D01*
X0241833Y0122190D01*
X0241711Y0122165D01*
X0241589Y0122145D01*
X0241465Y0122128D01*
X0241342Y0122115D01*
X0241218Y0122106D01*
X0241093Y0122101D01*
X0240969Y0122100D01*
X0240845Y0122103D01*
X0240720Y0122110D01*
X0240596Y0122121D01*
X0240473Y0122136D01*
X0240350Y0122155D01*
X0240228Y0122177D01*
X0240106Y0122204D01*
X0239986Y0122234D01*
X0239866Y0122268D01*
X0239748Y0122307D01*
X0239630Y0122348D01*
X0239515Y0122394D01*
X0239400Y0122443D01*
X0239288Y0122496D01*
X0239177Y0122552D01*
X0239068Y0122612D01*
X0238961Y0122676D01*
X0238856Y0122742D01*
X0238753Y0122812D01*
X0238653Y0122886D01*
X0238555Y0122962D01*
X0238459Y0123041D01*
X0238366Y0123124D01*
X0238275Y0123209D01*
X0238188Y0123298D01*
X0238103Y0123389D01*
X0238021Y0123483D01*
X0237943Y0123579D01*
X0237867Y0123678D01*
X0237794Y0123779D01*
X0237725Y0123882D01*
X0237659Y0123988D01*
X0237597Y0124095D01*
X0237538Y0124205D01*
X0237482Y0124316D01*
X0237430Y0124429D01*
X0237382Y0124544D01*
X0237338Y0124660D01*
X0237297Y0124777D01*
X0237260Y0124896D01*
X0237226Y0125016D01*
X0237197Y0125136D01*
X0237171Y0125258D01*
X0237149Y0125381D01*
X0237132Y0125504D01*
X0237118Y0125627D01*
X0237108Y0125751D01*
X0237102Y0125876D01*
X0237100Y0126000D01*
X0237000Y0122000D02*
X0245000Y0130000D01*
X0237100Y0106000D02*
X0237102Y0106124D01*
X0237108Y0106249D01*
X0237118Y0106373D01*
X0237132Y0106496D01*
X0237149Y0106619D01*
X0237171Y0106742D01*
X0237197Y0106864D01*
X0237226Y0106984D01*
X0237260Y0107104D01*
X0237297Y0107223D01*
X0237338Y0107340D01*
X0237382Y0107456D01*
X0237430Y0107571D01*
X0237482Y0107684D01*
X0237538Y0107795D01*
X0237597Y0107905D01*
X0237659Y0108012D01*
X0237725Y0108118D01*
X0237794Y0108221D01*
X0237867Y0108322D01*
X0237943Y0108421D01*
X0238021Y0108517D01*
X0238103Y0108611D01*
X0238188Y0108702D01*
X0238275Y0108791D01*
X0238366Y0108876D01*
X0238459Y0108959D01*
X0238555Y0109038D01*
X0238653Y0109114D01*
X0238753Y0109188D01*
X0238856Y0109258D01*
X0238961Y0109324D01*
X0239068Y0109388D01*
X0239177Y0109448D01*
X0239288Y0109504D01*
X0239400Y0109557D01*
X0239515Y0109606D01*
X0239630Y0109652D01*
X0239748Y0109693D01*
X0239866Y0109732D01*
X0239986Y0109766D01*
X0240106Y0109796D01*
X0240228Y0109823D01*
X0240350Y0109845D01*
X0240473Y0109864D01*
X0240596Y0109879D01*
X0240720Y0109890D01*
X0240845Y0109897D01*
X0240969Y0109900D01*
X0241093Y0109899D01*
X0241218Y0109894D01*
X0241342Y0109885D01*
X0241465Y0109872D01*
X0241589Y0109855D01*
X0241711Y0109835D01*
X0241833Y0109810D01*
X0241954Y0109781D01*
X0242074Y0109749D01*
X0242193Y0109713D01*
X0242311Y0109673D01*
X0242428Y0109629D01*
X0242543Y0109582D01*
X0242656Y0109531D01*
X0242768Y0109476D01*
X0242878Y0109418D01*
X0242986Y0109357D01*
X0243092Y0109292D01*
X0243196Y0109223D01*
X0243297Y0109152D01*
X0243397Y0109077D01*
X0243494Y0108999D01*
X0243588Y0108918D01*
X0243680Y0108834D01*
X0243769Y0108747D01*
X0243855Y0108657D01*
X0243938Y0108565D01*
X0244018Y0108470D01*
X0244096Y0108372D01*
X0244170Y0108272D01*
X0244241Y0108170D01*
X0244308Y0108066D01*
X0244372Y0107959D01*
X0244433Y0107850D01*
X0244490Y0107740D01*
X0244544Y0107628D01*
X0244594Y0107514D01*
X0244641Y0107399D01*
X0244683Y0107282D01*
X0244722Y0107164D01*
X0244758Y0107044D01*
X0244789Y0106924D01*
X0244816Y0106803D01*
X0244840Y0106681D01*
X0244860Y0106558D01*
X0244876Y0106434D01*
X0244888Y0106311D01*
X0244896Y0106187D01*
X0244900Y0106062D01*
X0244900Y0105938D01*
X0244896Y0105813D01*
X0244888Y0105689D01*
X0244876Y0105566D01*
X0244860Y0105442D01*
X0244840Y0105319D01*
X0244816Y0105197D01*
X0244789Y0105076D01*
X0244758Y0104956D01*
X0244722Y0104836D01*
X0244683Y0104718D01*
X0244641Y0104601D01*
X0244594Y0104486D01*
X0244544Y0104372D01*
X0244490Y0104260D01*
X0244433Y0104150D01*
X0244372Y0104041D01*
X0244308Y0103934D01*
X0244241Y0103830D01*
X0244170Y0103728D01*
X0244096Y0103628D01*
X0244018Y0103530D01*
X0243938Y0103435D01*
X0243855Y0103343D01*
X0243769Y0103253D01*
X0243680Y0103166D01*
X0243588Y0103082D01*
X0243494Y0103001D01*
X0243397Y0102923D01*
X0243297Y0102848D01*
X0243196Y0102777D01*
X0243092Y0102708D01*
X0242986Y0102643D01*
X0242878Y0102582D01*
X0242768Y0102524D01*
X0242656Y0102469D01*
X0242543Y0102418D01*
X0242428Y0102371D01*
X0242311Y0102327D01*
X0242193Y0102287D01*
X0242074Y0102251D01*
X0241954Y0102219D01*
X0241833Y0102190D01*
X0241711Y0102165D01*
X0241589Y0102145D01*
X0241465Y0102128D01*
X0241342Y0102115D01*
X0241218Y0102106D01*
X0241093Y0102101D01*
X0240969Y0102100D01*
X0240845Y0102103D01*
X0240720Y0102110D01*
X0240596Y0102121D01*
X0240473Y0102136D01*
X0240350Y0102155D01*
X0240228Y0102177D01*
X0240106Y0102204D01*
X0239986Y0102234D01*
X0239866Y0102268D01*
X0239748Y0102307D01*
X0239630Y0102348D01*
X0239515Y0102394D01*
X0239400Y0102443D01*
X0239288Y0102496D01*
X0239177Y0102552D01*
X0239068Y0102612D01*
X0238961Y0102676D01*
X0238856Y0102742D01*
X0238753Y0102812D01*
X0238653Y0102886D01*
X0238555Y0102962D01*
X0238459Y0103041D01*
X0238366Y0103124D01*
X0238275Y0103209D01*
X0238188Y0103298D01*
X0238103Y0103389D01*
X0238021Y0103483D01*
X0237943Y0103579D01*
X0237867Y0103678D01*
X0237794Y0103779D01*
X0237725Y0103882D01*
X0237659Y0103988D01*
X0237597Y0104095D01*
X0237538Y0104205D01*
X0237482Y0104316D01*
X0237430Y0104429D01*
X0237382Y0104544D01*
X0237338Y0104660D01*
X0237297Y0104777D01*
X0237260Y0104896D01*
X0237226Y0105016D01*
X0237197Y0105136D01*
X0237171Y0105258D01*
X0237149Y0105381D01*
X0237132Y0105504D01*
X0237118Y0105627D01*
X0237108Y0105751D01*
X0237102Y0105876D01*
X0237100Y0106000D01*
X0237000Y0102000D02*
X0245000Y0110000D01*
X0227100Y0106000D02*
X0227102Y0106124D01*
X0227108Y0106249D01*
X0227118Y0106373D01*
X0227132Y0106496D01*
X0227149Y0106619D01*
X0227171Y0106742D01*
X0227197Y0106864D01*
X0227226Y0106984D01*
X0227260Y0107104D01*
X0227297Y0107223D01*
X0227338Y0107340D01*
X0227382Y0107456D01*
X0227430Y0107571D01*
X0227482Y0107684D01*
X0227538Y0107795D01*
X0227597Y0107905D01*
X0227659Y0108012D01*
X0227725Y0108118D01*
X0227794Y0108221D01*
X0227867Y0108322D01*
X0227943Y0108421D01*
X0228021Y0108517D01*
X0228103Y0108611D01*
X0228188Y0108702D01*
X0228275Y0108791D01*
X0228366Y0108876D01*
X0228459Y0108959D01*
X0228555Y0109038D01*
X0228653Y0109114D01*
X0228753Y0109188D01*
X0228856Y0109258D01*
X0228961Y0109324D01*
X0229068Y0109388D01*
X0229177Y0109448D01*
X0229288Y0109504D01*
X0229400Y0109557D01*
X0229515Y0109606D01*
X0229630Y0109652D01*
X0229748Y0109693D01*
X0229866Y0109732D01*
X0229986Y0109766D01*
X0230106Y0109796D01*
X0230228Y0109823D01*
X0230350Y0109845D01*
X0230473Y0109864D01*
X0230596Y0109879D01*
X0230720Y0109890D01*
X0230845Y0109897D01*
X0230969Y0109900D01*
X0231093Y0109899D01*
X0231218Y0109894D01*
X0231342Y0109885D01*
X0231465Y0109872D01*
X0231589Y0109855D01*
X0231711Y0109835D01*
X0231833Y0109810D01*
X0231954Y0109781D01*
X0232074Y0109749D01*
X0232193Y0109713D01*
X0232311Y0109673D01*
X0232428Y0109629D01*
X0232543Y0109582D01*
X0232656Y0109531D01*
X0232768Y0109476D01*
X0232878Y0109418D01*
X0232986Y0109357D01*
X0233092Y0109292D01*
X0233196Y0109223D01*
X0233297Y0109152D01*
X0233397Y0109077D01*
X0233494Y0108999D01*
X0233588Y0108918D01*
X0233680Y0108834D01*
X0233769Y0108747D01*
X0233855Y0108657D01*
X0233938Y0108565D01*
X0234018Y0108470D01*
X0234096Y0108372D01*
X0234170Y0108272D01*
X0234241Y0108170D01*
X0234308Y0108066D01*
X0234372Y0107959D01*
X0234433Y0107850D01*
X0234490Y0107740D01*
X0234544Y0107628D01*
X0234594Y0107514D01*
X0234641Y0107399D01*
X0234683Y0107282D01*
X0234722Y0107164D01*
X0234758Y0107044D01*
X0234789Y0106924D01*
X0234816Y0106803D01*
X0234840Y0106681D01*
X0234860Y0106558D01*
X0234876Y0106434D01*
X0234888Y0106311D01*
X0234896Y0106187D01*
X0234900Y0106062D01*
X0234900Y0105938D01*
X0234896Y0105813D01*
X0234888Y0105689D01*
X0234876Y0105566D01*
X0234860Y0105442D01*
X0234840Y0105319D01*
X0234816Y0105197D01*
X0234789Y0105076D01*
X0234758Y0104956D01*
X0234722Y0104836D01*
X0234683Y0104718D01*
X0234641Y0104601D01*
X0234594Y0104486D01*
X0234544Y0104372D01*
X0234490Y0104260D01*
X0234433Y0104150D01*
X0234372Y0104041D01*
X0234308Y0103934D01*
X0234241Y0103830D01*
X0234170Y0103728D01*
X0234096Y0103628D01*
X0234018Y0103530D01*
X0233938Y0103435D01*
X0233855Y0103343D01*
X0233769Y0103253D01*
X0233680Y0103166D01*
X0233588Y0103082D01*
X0233494Y0103001D01*
X0233397Y0102923D01*
X0233297Y0102848D01*
X0233196Y0102777D01*
X0233092Y0102708D01*
X0232986Y0102643D01*
X0232878Y0102582D01*
X0232768Y0102524D01*
X0232656Y0102469D01*
X0232543Y0102418D01*
X0232428Y0102371D01*
X0232311Y0102327D01*
X0232193Y0102287D01*
X0232074Y0102251D01*
X0231954Y0102219D01*
X0231833Y0102190D01*
X0231711Y0102165D01*
X0231589Y0102145D01*
X0231465Y0102128D01*
X0231342Y0102115D01*
X0231218Y0102106D01*
X0231093Y0102101D01*
X0230969Y0102100D01*
X0230845Y0102103D01*
X0230720Y0102110D01*
X0230596Y0102121D01*
X0230473Y0102136D01*
X0230350Y0102155D01*
X0230228Y0102177D01*
X0230106Y0102204D01*
X0229986Y0102234D01*
X0229866Y0102268D01*
X0229748Y0102307D01*
X0229630Y0102348D01*
X0229515Y0102394D01*
X0229400Y0102443D01*
X0229288Y0102496D01*
X0229177Y0102552D01*
X0229068Y0102612D01*
X0228961Y0102676D01*
X0228856Y0102742D01*
X0228753Y0102812D01*
X0228653Y0102886D01*
X0228555Y0102962D01*
X0228459Y0103041D01*
X0228366Y0103124D01*
X0228275Y0103209D01*
X0228188Y0103298D01*
X0228103Y0103389D01*
X0228021Y0103483D01*
X0227943Y0103579D01*
X0227867Y0103678D01*
X0227794Y0103779D01*
X0227725Y0103882D01*
X0227659Y0103988D01*
X0227597Y0104095D01*
X0227538Y0104205D01*
X0227482Y0104316D01*
X0227430Y0104429D01*
X0227382Y0104544D01*
X0227338Y0104660D01*
X0227297Y0104777D01*
X0227260Y0104896D01*
X0227226Y0105016D01*
X0227197Y0105136D01*
X0227171Y0105258D01*
X0227149Y0105381D01*
X0227132Y0105504D01*
X0227118Y0105627D01*
X0227108Y0105751D01*
X0227102Y0105876D01*
X0227100Y0106000D01*
X0227000Y0102000D02*
X0235000Y0110000D01*
X0252100Y0061000D02*
X0252102Y0061124D01*
X0252108Y0061249D01*
X0252118Y0061373D01*
X0252132Y0061496D01*
X0252149Y0061619D01*
X0252171Y0061742D01*
X0252197Y0061864D01*
X0252226Y0061984D01*
X0252260Y0062104D01*
X0252297Y0062223D01*
X0252338Y0062340D01*
X0252382Y0062456D01*
X0252430Y0062571D01*
X0252482Y0062684D01*
X0252538Y0062795D01*
X0252597Y0062905D01*
X0252659Y0063012D01*
X0252725Y0063118D01*
X0252794Y0063221D01*
X0252867Y0063322D01*
X0252943Y0063421D01*
X0253021Y0063517D01*
X0253103Y0063611D01*
X0253188Y0063702D01*
X0253275Y0063791D01*
X0253366Y0063876D01*
X0253459Y0063959D01*
X0253555Y0064038D01*
X0253653Y0064114D01*
X0253753Y0064188D01*
X0253856Y0064258D01*
X0253961Y0064324D01*
X0254068Y0064388D01*
X0254177Y0064448D01*
X0254288Y0064504D01*
X0254400Y0064557D01*
X0254515Y0064606D01*
X0254630Y0064652D01*
X0254748Y0064693D01*
X0254866Y0064732D01*
X0254986Y0064766D01*
X0255106Y0064796D01*
X0255228Y0064823D01*
X0255350Y0064845D01*
X0255473Y0064864D01*
X0255596Y0064879D01*
X0255720Y0064890D01*
X0255845Y0064897D01*
X0255969Y0064900D01*
X0256093Y0064899D01*
X0256218Y0064894D01*
X0256342Y0064885D01*
X0256465Y0064872D01*
X0256589Y0064855D01*
X0256711Y0064835D01*
X0256833Y0064810D01*
X0256954Y0064781D01*
X0257074Y0064749D01*
X0257193Y0064713D01*
X0257311Y0064673D01*
X0257428Y0064629D01*
X0257543Y0064582D01*
X0257656Y0064531D01*
X0257768Y0064476D01*
X0257878Y0064418D01*
X0257986Y0064357D01*
X0258092Y0064292D01*
X0258196Y0064223D01*
X0258297Y0064152D01*
X0258397Y0064077D01*
X0258494Y0063999D01*
X0258588Y0063918D01*
X0258680Y0063834D01*
X0258769Y0063747D01*
X0258855Y0063657D01*
X0258938Y0063565D01*
X0259018Y0063470D01*
X0259096Y0063372D01*
X0259170Y0063272D01*
X0259241Y0063170D01*
X0259308Y0063066D01*
X0259372Y0062959D01*
X0259433Y0062850D01*
X0259490Y0062740D01*
X0259544Y0062628D01*
X0259594Y0062514D01*
X0259641Y0062399D01*
X0259683Y0062282D01*
X0259722Y0062164D01*
X0259758Y0062044D01*
X0259789Y0061924D01*
X0259816Y0061803D01*
X0259840Y0061681D01*
X0259860Y0061558D01*
X0259876Y0061434D01*
X0259888Y0061311D01*
X0259896Y0061187D01*
X0259900Y0061062D01*
X0259900Y0060938D01*
X0259896Y0060813D01*
X0259888Y0060689D01*
X0259876Y0060566D01*
X0259860Y0060442D01*
X0259840Y0060319D01*
X0259816Y0060197D01*
X0259789Y0060076D01*
X0259758Y0059956D01*
X0259722Y0059836D01*
X0259683Y0059718D01*
X0259641Y0059601D01*
X0259594Y0059486D01*
X0259544Y0059372D01*
X0259490Y0059260D01*
X0259433Y0059150D01*
X0259372Y0059041D01*
X0259308Y0058934D01*
X0259241Y0058830D01*
X0259170Y0058728D01*
X0259096Y0058628D01*
X0259018Y0058530D01*
X0258938Y0058435D01*
X0258855Y0058343D01*
X0258769Y0058253D01*
X0258680Y0058166D01*
X0258588Y0058082D01*
X0258494Y0058001D01*
X0258397Y0057923D01*
X0258297Y0057848D01*
X0258196Y0057777D01*
X0258092Y0057708D01*
X0257986Y0057643D01*
X0257878Y0057582D01*
X0257768Y0057524D01*
X0257656Y0057469D01*
X0257543Y0057418D01*
X0257428Y0057371D01*
X0257311Y0057327D01*
X0257193Y0057287D01*
X0257074Y0057251D01*
X0256954Y0057219D01*
X0256833Y0057190D01*
X0256711Y0057165D01*
X0256589Y0057145D01*
X0256465Y0057128D01*
X0256342Y0057115D01*
X0256218Y0057106D01*
X0256093Y0057101D01*
X0255969Y0057100D01*
X0255845Y0057103D01*
X0255720Y0057110D01*
X0255596Y0057121D01*
X0255473Y0057136D01*
X0255350Y0057155D01*
X0255228Y0057177D01*
X0255106Y0057204D01*
X0254986Y0057234D01*
X0254866Y0057268D01*
X0254748Y0057307D01*
X0254630Y0057348D01*
X0254515Y0057394D01*
X0254400Y0057443D01*
X0254288Y0057496D01*
X0254177Y0057552D01*
X0254068Y0057612D01*
X0253961Y0057676D01*
X0253856Y0057742D01*
X0253753Y0057812D01*
X0253653Y0057886D01*
X0253555Y0057962D01*
X0253459Y0058041D01*
X0253366Y0058124D01*
X0253275Y0058209D01*
X0253188Y0058298D01*
X0253103Y0058389D01*
X0253021Y0058483D01*
X0252943Y0058579D01*
X0252867Y0058678D01*
X0252794Y0058779D01*
X0252725Y0058882D01*
X0252659Y0058988D01*
X0252597Y0059095D01*
X0252538Y0059205D01*
X0252482Y0059316D01*
X0252430Y0059429D01*
X0252382Y0059544D01*
X0252338Y0059660D01*
X0252297Y0059777D01*
X0252260Y0059896D01*
X0252226Y0060016D01*
X0252197Y0060136D01*
X0252171Y0060258D01*
X0252149Y0060381D01*
X0252132Y0060504D01*
X0252118Y0060627D01*
X0252108Y0060751D01*
X0252102Y0060876D01*
X0252100Y0061000D01*
X0252000Y0057000D02*
X0260000Y0065000D01*
X0252100Y0051000D02*
X0252102Y0051124D01*
X0252108Y0051249D01*
X0252118Y0051373D01*
X0252132Y0051496D01*
X0252149Y0051619D01*
X0252171Y0051742D01*
X0252197Y0051864D01*
X0252226Y0051984D01*
X0252260Y0052104D01*
X0252297Y0052223D01*
X0252338Y0052340D01*
X0252382Y0052456D01*
X0252430Y0052571D01*
X0252482Y0052684D01*
X0252538Y0052795D01*
X0252597Y0052905D01*
X0252659Y0053012D01*
X0252725Y0053118D01*
X0252794Y0053221D01*
X0252867Y0053322D01*
X0252943Y0053421D01*
X0253021Y0053517D01*
X0253103Y0053611D01*
X0253188Y0053702D01*
X0253275Y0053791D01*
X0253366Y0053876D01*
X0253459Y0053959D01*
X0253555Y0054038D01*
X0253653Y0054114D01*
X0253753Y0054188D01*
X0253856Y0054258D01*
X0253961Y0054324D01*
X0254068Y0054388D01*
X0254177Y0054448D01*
X0254288Y0054504D01*
X0254400Y0054557D01*
X0254515Y0054606D01*
X0254630Y0054652D01*
X0254748Y0054693D01*
X0254866Y0054732D01*
X0254986Y0054766D01*
X0255106Y0054796D01*
X0255228Y0054823D01*
X0255350Y0054845D01*
X0255473Y0054864D01*
X0255596Y0054879D01*
X0255720Y0054890D01*
X0255845Y0054897D01*
X0255969Y0054900D01*
X0256093Y0054899D01*
X0256218Y0054894D01*
X0256342Y0054885D01*
X0256465Y0054872D01*
X0256589Y0054855D01*
X0256711Y0054835D01*
X0256833Y0054810D01*
X0256954Y0054781D01*
X0257074Y0054749D01*
X0257193Y0054713D01*
X0257311Y0054673D01*
X0257428Y0054629D01*
X0257543Y0054582D01*
X0257656Y0054531D01*
X0257768Y0054476D01*
X0257878Y0054418D01*
X0257986Y0054357D01*
X0258092Y0054292D01*
X0258196Y0054223D01*
X0258297Y0054152D01*
X0258397Y0054077D01*
X0258494Y0053999D01*
X0258588Y0053918D01*
X0258680Y0053834D01*
X0258769Y0053747D01*
X0258855Y0053657D01*
X0258938Y0053565D01*
X0259018Y0053470D01*
X0259096Y0053372D01*
X0259170Y0053272D01*
X0259241Y0053170D01*
X0259308Y0053066D01*
X0259372Y0052959D01*
X0259433Y0052850D01*
X0259490Y0052740D01*
X0259544Y0052628D01*
X0259594Y0052514D01*
X0259641Y0052399D01*
X0259683Y0052282D01*
X0259722Y0052164D01*
X0259758Y0052044D01*
X0259789Y0051924D01*
X0259816Y0051803D01*
X0259840Y0051681D01*
X0259860Y0051558D01*
X0259876Y0051434D01*
X0259888Y0051311D01*
X0259896Y0051187D01*
X0259900Y0051062D01*
X0259900Y0050938D01*
X0259896Y0050813D01*
X0259888Y0050689D01*
X0259876Y0050566D01*
X0259860Y0050442D01*
X0259840Y0050319D01*
X0259816Y0050197D01*
X0259789Y0050076D01*
X0259758Y0049956D01*
X0259722Y0049836D01*
X0259683Y0049718D01*
X0259641Y0049601D01*
X0259594Y0049486D01*
X0259544Y0049372D01*
X0259490Y0049260D01*
X0259433Y0049150D01*
X0259372Y0049041D01*
X0259308Y0048934D01*
X0259241Y0048830D01*
X0259170Y0048728D01*
X0259096Y0048628D01*
X0259018Y0048530D01*
X0258938Y0048435D01*
X0258855Y0048343D01*
X0258769Y0048253D01*
X0258680Y0048166D01*
X0258588Y0048082D01*
X0258494Y0048001D01*
X0258397Y0047923D01*
X0258297Y0047848D01*
X0258196Y0047777D01*
X0258092Y0047708D01*
X0257986Y0047643D01*
X0257878Y0047582D01*
X0257768Y0047524D01*
X0257656Y0047469D01*
X0257543Y0047418D01*
X0257428Y0047371D01*
X0257311Y0047327D01*
X0257193Y0047287D01*
X0257074Y0047251D01*
X0256954Y0047219D01*
X0256833Y0047190D01*
X0256711Y0047165D01*
X0256589Y0047145D01*
X0256465Y0047128D01*
X0256342Y0047115D01*
X0256218Y0047106D01*
X0256093Y0047101D01*
X0255969Y0047100D01*
X0255845Y0047103D01*
X0255720Y0047110D01*
X0255596Y0047121D01*
X0255473Y0047136D01*
X0255350Y0047155D01*
X0255228Y0047177D01*
X0255106Y0047204D01*
X0254986Y0047234D01*
X0254866Y0047268D01*
X0254748Y0047307D01*
X0254630Y0047348D01*
X0254515Y0047394D01*
X0254400Y0047443D01*
X0254288Y0047496D01*
X0254177Y0047552D01*
X0254068Y0047612D01*
X0253961Y0047676D01*
X0253856Y0047742D01*
X0253753Y0047812D01*
X0253653Y0047886D01*
X0253555Y0047962D01*
X0253459Y0048041D01*
X0253366Y0048124D01*
X0253275Y0048209D01*
X0253188Y0048298D01*
X0253103Y0048389D01*
X0253021Y0048483D01*
X0252943Y0048579D01*
X0252867Y0048678D01*
X0252794Y0048779D01*
X0252725Y0048882D01*
X0252659Y0048988D01*
X0252597Y0049095D01*
X0252538Y0049205D01*
X0252482Y0049316D01*
X0252430Y0049429D01*
X0252382Y0049544D01*
X0252338Y0049660D01*
X0252297Y0049777D01*
X0252260Y0049896D01*
X0252226Y0050016D01*
X0252197Y0050136D01*
X0252171Y0050258D01*
X0252149Y0050381D01*
X0252132Y0050504D01*
X0252118Y0050627D01*
X0252108Y0050751D01*
X0252102Y0050876D01*
X0252100Y0051000D01*
X0252000Y0047000D02*
X0260000Y0055000D01*
X0252100Y0041000D02*
X0252102Y0041124D01*
X0252108Y0041249D01*
X0252118Y0041373D01*
X0252132Y0041496D01*
X0252149Y0041619D01*
X0252171Y0041742D01*
X0252197Y0041864D01*
X0252226Y0041984D01*
X0252260Y0042104D01*
X0252297Y0042223D01*
X0252338Y0042340D01*
X0252382Y0042456D01*
X0252430Y0042571D01*
X0252482Y0042684D01*
X0252538Y0042795D01*
X0252597Y0042905D01*
X0252659Y0043012D01*
X0252725Y0043118D01*
X0252794Y0043221D01*
X0252867Y0043322D01*
X0252943Y0043421D01*
X0253021Y0043517D01*
X0253103Y0043611D01*
X0253188Y0043702D01*
X0253275Y0043791D01*
X0253366Y0043876D01*
X0253459Y0043959D01*
X0253555Y0044038D01*
X0253653Y0044114D01*
X0253753Y0044188D01*
X0253856Y0044258D01*
X0253961Y0044324D01*
X0254068Y0044388D01*
X0254177Y0044448D01*
X0254288Y0044504D01*
X0254400Y0044557D01*
X0254515Y0044606D01*
X0254630Y0044652D01*
X0254748Y0044693D01*
X0254866Y0044732D01*
X0254986Y0044766D01*
X0255106Y0044796D01*
X0255228Y0044823D01*
X0255350Y0044845D01*
X0255473Y0044864D01*
X0255596Y0044879D01*
X0255720Y0044890D01*
X0255845Y0044897D01*
X0255969Y0044900D01*
X0256093Y0044899D01*
X0256218Y0044894D01*
X0256342Y0044885D01*
X0256465Y0044872D01*
X0256589Y0044855D01*
X0256711Y0044835D01*
X0256833Y0044810D01*
X0256954Y0044781D01*
X0257074Y0044749D01*
X0257193Y0044713D01*
X0257311Y0044673D01*
X0257428Y0044629D01*
X0257543Y0044582D01*
X0257656Y0044531D01*
X0257768Y0044476D01*
X0257878Y0044418D01*
X0257986Y0044357D01*
X0258092Y0044292D01*
X0258196Y0044223D01*
X0258297Y0044152D01*
X0258397Y0044077D01*
X0258494Y0043999D01*
X0258588Y0043918D01*
X0258680Y0043834D01*
X0258769Y0043747D01*
X0258855Y0043657D01*
X0258938Y0043565D01*
X0259018Y0043470D01*
X0259096Y0043372D01*
X0259170Y0043272D01*
X0259241Y0043170D01*
X0259308Y0043066D01*
X0259372Y0042959D01*
X0259433Y0042850D01*
X0259490Y0042740D01*
X0259544Y0042628D01*
X0259594Y0042514D01*
X0259641Y0042399D01*
X0259683Y0042282D01*
X0259722Y0042164D01*
X0259758Y0042044D01*
X0259789Y0041924D01*
X0259816Y0041803D01*
X0259840Y0041681D01*
X0259860Y0041558D01*
X0259876Y0041434D01*
X0259888Y0041311D01*
X0259896Y0041187D01*
X0259900Y0041062D01*
X0259900Y0040938D01*
X0259896Y0040813D01*
X0259888Y0040689D01*
X0259876Y0040566D01*
X0259860Y0040442D01*
X0259840Y0040319D01*
X0259816Y0040197D01*
X0259789Y0040076D01*
X0259758Y0039956D01*
X0259722Y0039836D01*
X0259683Y0039718D01*
X0259641Y0039601D01*
X0259594Y0039486D01*
X0259544Y0039372D01*
X0259490Y0039260D01*
X0259433Y0039150D01*
X0259372Y0039041D01*
X0259308Y0038934D01*
X0259241Y0038830D01*
X0259170Y0038728D01*
X0259096Y0038628D01*
X0259018Y0038530D01*
X0258938Y0038435D01*
X0258855Y0038343D01*
X0258769Y0038253D01*
X0258680Y0038166D01*
X0258588Y0038082D01*
X0258494Y0038001D01*
X0258397Y0037923D01*
X0258297Y0037848D01*
X0258196Y0037777D01*
X0258092Y0037708D01*
X0257986Y0037643D01*
X0257878Y0037582D01*
X0257768Y0037524D01*
X0257656Y0037469D01*
X0257543Y0037418D01*
X0257428Y0037371D01*
X0257311Y0037327D01*
X0257193Y0037287D01*
X0257074Y0037251D01*
X0256954Y0037219D01*
X0256833Y0037190D01*
X0256711Y0037165D01*
X0256589Y0037145D01*
X0256465Y0037128D01*
X0256342Y0037115D01*
X0256218Y0037106D01*
X0256093Y0037101D01*
X0255969Y0037100D01*
X0255845Y0037103D01*
X0255720Y0037110D01*
X0255596Y0037121D01*
X0255473Y0037136D01*
X0255350Y0037155D01*
X0255228Y0037177D01*
X0255106Y0037204D01*
X0254986Y0037234D01*
X0254866Y0037268D01*
X0254748Y0037307D01*
X0254630Y0037348D01*
X0254515Y0037394D01*
X0254400Y0037443D01*
X0254288Y0037496D01*
X0254177Y0037552D01*
X0254068Y0037612D01*
X0253961Y0037676D01*
X0253856Y0037742D01*
X0253753Y0037812D01*
X0253653Y0037886D01*
X0253555Y0037962D01*
X0253459Y0038041D01*
X0253366Y0038124D01*
X0253275Y0038209D01*
X0253188Y0038298D01*
X0253103Y0038389D01*
X0253021Y0038483D01*
X0252943Y0038579D01*
X0252867Y0038678D01*
X0252794Y0038779D01*
X0252725Y0038882D01*
X0252659Y0038988D01*
X0252597Y0039095D01*
X0252538Y0039205D01*
X0252482Y0039316D01*
X0252430Y0039429D01*
X0252382Y0039544D01*
X0252338Y0039660D01*
X0252297Y0039777D01*
X0252260Y0039896D01*
X0252226Y0040016D01*
X0252197Y0040136D01*
X0252171Y0040258D01*
X0252149Y0040381D01*
X0252132Y0040504D01*
X0252118Y0040627D01*
X0252108Y0040751D01*
X0252102Y0040876D01*
X0252100Y0041000D01*
X0252000Y0037000D02*
X0260000Y0045000D01*
X0252100Y0031000D02*
X0252102Y0031124D01*
X0252108Y0031249D01*
X0252118Y0031373D01*
X0252132Y0031496D01*
X0252149Y0031619D01*
X0252171Y0031742D01*
X0252197Y0031864D01*
X0252226Y0031984D01*
X0252260Y0032104D01*
X0252297Y0032223D01*
X0252338Y0032340D01*
X0252382Y0032456D01*
X0252430Y0032571D01*
X0252482Y0032684D01*
X0252538Y0032795D01*
X0252597Y0032905D01*
X0252659Y0033012D01*
X0252725Y0033118D01*
X0252794Y0033221D01*
X0252867Y0033322D01*
X0252943Y0033421D01*
X0253021Y0033517D01*
X0253103Y0033611D01*
X0253188Y0033702D01*
X0253275Y0033791D01*
X0253366Y0033876D01*
X0253459Y0033959D01*
X0253555Y0034038D01*
X0253653Y0034114D01*
X0253753Y0034188D01*
X0253856Y0034258D01*
X0253961Y0034324D01*
X0254068Y0034388D01*
X0254177Y0034448D01*
X0254288Y0034504D01*
X0254400Y0034557D01*
X0254515Y0034606D01*
X0254630Y0034652D01*
X0254748Y0034693D01*
X0254866Y0034732D01*
X0254986Y0034766D01*
X0255106Y0034796D01*
X0255228Y0034823D01*
X0255350Y0034845D01*
X0255473Y0034864D01*
X0255596Y0034879D01*
X0255720Y0034890D01*
X0255845Y0034897D01*
X0255969Y0034900D01*
X0256093Y0034899D01*
X0256218Y0034894D01*
X0256342Y0034885D01*
X0256465Y0034872D01*
X0256589Y0034855D01*
X0256711Y0034835D01*
X0256833Y0034810D01*
X0256954Y0034781D01*
X0257074Y0034749D01*
X0257193Y0034713D01*
X0257311Y0034673D01*
X0257428Y0034629D01*
X0257543Y0034582D01*
X0257656Y0034531D01*
X0257768Y0034476D01*
X0257878Y0034418D01*
X0257986Y0034357D01*
X0258092Y0034292D01*
X0258196Y0034223D01*
X0258297Y0034152D01*
X0258397Y0034077D01*
X0258494Y0033999D01*
X0258588Y0033918D01*
X0258680Y0033834D01*
X0258769Y0033747D01*
X0258855Y0033657D01*
X0258938Y0033565D01*
X0259018Y0033470D01*
X0259096Y0033372D01*
X0259170Y0033272D01*
X0259241Y0033170D01*
X0259308Y0033066D01*
X0259372Y0032959D01*
X0259433Y0032850D01*
X0259490Y0032740D01*
X0259544Y0032628D01*
X0259594Y0032514D01*
X0259641Y0032399D01*
X0259683Y0032282D01*
X0259722Y0032164D01*
X0259758Y0032044D01*
X0259789Y0031924D01*
X0259816Y0031803D01*
X0259840Y0031681D01*
X0259860Y0031558D01*
X0259876Y0031434D01*
X0259888Y0031311D01*
X0259896Y0031187D01*
X0259900Y0031062D01*
X0259900Y0030938D01*
X0259896Y0030813D01*
X0259888Y0030689D01*
X0259876Y0030566D01*
X0259860Y0030442D01*
X0259840Y0030319D01*
X0259816Y0030197D01*
X0259789Y0030076D01*
X0259758Y0029956D01*
X0259722Y0029836D01*
X0259683Y0029718D01*
X0259641Y0029601D01*
X0259594Y0029486D01*
X0259544Y0029372D01*
X0259490Y0029260D01*
X0259433Y0029150D01*
X0259372Y0029041D01*
X0259308Y0028934D01*
X0259241Y0028830D01*
X0259170Y0028728D01*
X0259096Y0028628D01*
X0259018Y0028530D01*
X0258938Y0028435D01*
X0258855Y0028343D01*
X0258769Y0028253D01*
X0258680Y0028166D01*
X0258588Y0028082D01*
X0258494Y0028001D01*
X0258397Y0027923D01*
X0258297Y0027848D01*
X0258196Y0027777D01*
X0258092Y0027708D01*
X0257986Y0027643D01*
X0257878Y0027582D01*
X0257768Y0027524D01*
X0257656Y0027469D01*
X0257543Y0027418D01*
X0257428Y0027371D01*
X0257311Y0027327D01*
X0257193Y0027287D01*
X0257074Y0027251D01*
X0256954Y0027219D01*
X0256833Y0027190D01*
X0256711Y0027165D01*
X0256589Y0027145D01*
X0256465Y0027128D01*
X0256342Y0027115D01*
X0256218Y0027106D01*
X0256093Y0027101D01*
X0255969Y0027100D01*
X0255845Y0027103D01*
X0255720Y0027110D01*
X0255596Y0027121D01*
X0255473Y0027136D01*
X0255350Y0027155D01*
X0255228Y0027177D01*
X0255106Y0027204D01*
X0254986Y0027234D01*
X0254866Y0027268D01*
X0254748Y0027307D01*
X0254630Y0027348D01*
X0254515Y0027394D01*
X0254400Y0027443D01*
X0254288Y0027496D01*
X0254177Y0027552D01*
X0254068Y0027612D01*
X0253961Y0027676D01*
X0253856Y0027742D01*
X0253753Y0027812D01*
X0253653Y0027886D01*
X0253555Y0027962D01*
X0253459Y0028041D01*
X0253366Y0028124D01*
X0253275Y0028209D01*
X0253188Y0028298D01*
X0253103Y0028389D01*
X0253021Y0028483D01*
X0252943Y0028579D01*
X0252867Y0028678D01*
X0252794Y0028779D01*
X0252725Y0028882D01*
X0252659Y0028988D01*
X0252597Y0029095D01*
X0252538Y0029205D01*
X0252482Y0029316D01*
X0252430Y0029429D01*
X0252382Y0029544D01*
X0252338Y0029660D01*
X0252297Y0029777D01*
X0252260Y0029896D01*
X0252226Y0030016D01*
X0252197Y0030136D01*
X0252171Y0030258D01*
X0252149Y0030381D01*
X0252132Y0030504D01*
X0252118Y0030627D01*
X0252108Y0030751D01*
X0252102Y0030876D01*
X0252100Y0031000D01*
X0252000Y0027000D02*
X0260000Y0035000D01*
X0297000Y0015000D02*
X0305000Y0007000D01*
X0297000Y0007000D02*
X0305000Y0015000D01*
X0202100Y0031000D02*
X0202102Y0031124D01*
X0202108Y0031249D01*
X0202118Y0031373D01*
X0202132Y0031496D01*
X0202149Y0031619D01*
X0202171Y0031742D01*
X0202197Y0031864D01*
X0202226Y0031984D01*
X0202260Y0032104D01*
X0202297Y0032223D01*
X0202338Y0032340D01*
X0202382Y0032456D01*
X0202430Y0032571D01*
X0202482Y0032684D01*
X0202538Y0032795D01*
X0202597Y0032905D01*
X0202659Y0033012D01*
X0202725Y0033118D01*
X0202794Y0033221D01*
X0202867Y0033322D01*
X0202943Y0033421D01*
X0203021Y0033517D01*
X0203103Y0033611D01*
X0203188Y0033702D01*
X0203275Y0033791D01*
X0203366Y0033876D01*
X0203459Y0033959D01*
X0203555Y0034038D01*
X0203653Y0034114D01*
X0203753Y0034188D01*
X0203856Y0034258D01*
X0203961Y0034324D01*
X0204068Y0034388D01*
X0204177Y0034448D01*
X0204288Y0034504D01*
X0204400Y0034557D01*
X0204515Y0034606D01*
X0204630Y0034652D01*
X0204748Y0034693D01*
X0204866Y0034732D01*
X0204986Y0034766D01*
X0205106Y0034796D01*
X0205228Y0034823D01*
X0205350Y0034845D01*
X0205473Y0034864D01*
X0205596Y0034879D01*
X0205720Y0034890D01*
X0205845Y0034897D01*
X0205969Y0034900D01*
X0206093Y0034899D01*
X0206218Y0034894D01*
X0206342Y0034885D01*
X0206465Y0034872D01*
X0206589Y0034855D01*
X0206711Y0034835D01*
X0206833Y0034810D01*
X0206954Y0034781D01*
X0207074Y0034749D01*
X0207193Y0034713D01*
X0207311Y0034673D01*
X0207428Y0034629D01*
X0207543Y0034582D01*
X0207656Y0034531D01*
X0207768Y0034476D01*
X0207878Y0034418D01*
X0207986Y0034357D01*
X0208092Y0034292D01*
X0208196Y0034223D01*
X0208297Y0034152D01*
X0208397Y0034077D01*
X0208494Y0033999D01*
X0208588Y0033918D01*
X0208680Y0033834D01*
X0208769Y0033747D01*
X0208855Y0033657D01*
X0208938Y0033565D01*
X0209018Y0033470D01*
X0209096Y0033372D01*
X0209170Y0033272D01*
X0209241Y0033170D01*
X0209308Y0033066D01*
X0209372Y0032959D01*
X0209433Y0032850D01*
X0209490Y0032740D01*
X0209544Y0032628D01*
X0209594Y0032514D01*
X0209641Y0032399D01*
X0209683Y0032282D01*
X0209722Y0032164D01*
X0209758Y0032044D01*
X0209789Y0031924D01*
X0209816Y0031803D01*
X0209840Y0031681D01*
X0209860Y0031558D01*
X0209876Y0031434D01*
X0209888Y0031311D01*
X0209896Y0031187D01*
X0209900Y0031062D01*
X0209900Y0030938D01*
X0209896Y0030813D01*
X0209888Y0030689D01*
X0209876Y0030566D01*
X0209860Y0030442D01*
X0209840Y0030319D01*
X0209816Y0030197D01*
X0209789Y0030076D01*
X0209758Y0029956D01*
X0209722Y0029836D01*
X0209683Y0029718D01*
X0209641Y0029601D01*
X0209594Y0029486D01*
X0209544Y0029372D01*
X0209490Y0029260D01*
X0209433Y0029150D01*
X0209372Y0029041D01*
X0209308Y0028934D01*
X0209241Y0028830D01*
X0209170Y0028728D01*
X0209096Y0028628D01*
X0209018Y0028530D01*
X0208938Y0028435D01*
X0208855Y0028343D01*
X0208769Y0028253D01*
X0208680Y0028166D01*
X0208588Y0028082D01*
X0208494Y0028001D01*
X0208397Y0027923D01*
X0208297Y0027848D01*
X0208196Y0027777D01*
X0208092Y0027708D01*
X0207986Y0027643D01*
X0207878Y0027582D01*
X0207768Y0027524D01*
X0207656Y0027469D01*
X0207543Y0027418D01*
X0207428Y0027371D01*
X0207311Y0027327D01*
X0207193Y0027287D01*
X0207074Y0027251D01*
X0206954Y0027219D01*
X0206833Y0027190D01*
X0206711Y0027165D01*
X0206589Y0027145D01*
X0206465Y0027128D01*
X0206342Y0027115D01*
X0206218Y0027106D01*
X0206093Y0027101D01*
X0205969Y0027100D01*
X0205845Y0027103D01*
X0205720Y0027110D01*
X0205596Y0027121D01*
X0205473Y0027136D01*
X0205350Y0027155D01*
X0205228Y0027177D01*
X0205106Y0027204D01*
X0204986Y0027234D01*
X0204866Y0027268D01*
X0204748Y0027307D01*
X0204630Y0027348D01*
X0204515Y0027394D01*
X0204400Y0027443D01*
X0204288Y0027496D01*
X0204177Y0027552D01*
X0204068Y0027612D01*
X0203961Y0027676D01*
X0203856Y0027742D01*
X0203753Y0027812D01*
X0203653Y0027886D01*
X0203555Y0027962D01*
X0203459Y0028041D01*
X0203366Y0028124D01*
X0203275Y0028209D01*
X0203188Y0028298D01*
X0203103Y0028389D01*
X0203021Y0028483D01*
X0202943Y0028579D01*
X0202867Y0028678D01*
X0202794Y0028779D01*
X0202725Y0028882D01*
X0202659Y0028988D01*
X0202597Y0029095D01*
X0202538Y0029205D01*
X0202482Y0029316D01*
X0202430Y0029429D01*
X0202382Y0029544D01*
X0202338Y0029660D01*
X0202297Y0029777D01*
X0202260Y0029896D01*
X0202226Y0030016D01*
X0202197Y0030136D01*
X0202171Y0030258D01*
X0202149Y0030381D01*
X0202132Y0030504D01*
X0202118Y0030627D01*
X0202108Y0030751D01*
X0202102Y0030876D01*
X0202100Y0031000D01*
X0202000Y0027000D02*
X0210000Y0035000D01*
X0305000Y0192000D02*
X0297000Y0200000D01*
X0297000Y0192000D02*
X0305000Y0200000D01*
X0015000Y0192000D02*
X0007000Y0200000D01*
X0007000Y0192000D02*
X0015000Y0200000D01*
M02*
