G75*
%MOIN*%
%OFA0B0*%
%FSLAX25Y25*%
%IPPOS*%
%LPD*%
%AMOC8*
5,1,8,0,0,1.08239X$1,22.5*
%
%ADD10C,0.00600*%
%ADD11C,0.00300*%
D10*
X0021448Y0012100D02*
X0025718Y0012100D01*
X0023583Y0012100D02*
X0023583Y0018505D01*
X0025718Y0016370D01*
X0027893Y0016370D02*
X0027893Y0017438D01*
X0028961Y0018505D01*
X0031096Y0018505D01*
X0032164Y0017438D01*
X0034339Y0018505D02*
X0038609Y0018505D01*
X0036474Y0018505D02*
X0036474Y0012100D01*
X0040784Y0012100D02*
X0040784Y0018505D01*
X0045055Y0018505D02*
X0045055Y0012100D01*
X0047230Y0013168D02*
X0048297Y0012100D01*
X0050432Y0012100D01*
X0051500Y0013168D01*
X0050432Y0015303D02*
X0048297Y0015303D01*
X0047230Y0014235D01*
X0047230Y0013168D01*
X0045055Y0015303D02*
X0040784Y0015303D01*
X0047230Y0017438D02*
X0048297Y0018505D01*
X0050432Y0018505D01*
X0051500Y0017438D01*
X0051500Y0016370D01*
X0050432Y0015303D01*
X0032164Y0012100D02*
X0027893Y0016370D01*
X0027893Y0012100D02*
X0032164Y0012100D01*
D11*
X0031033Y0021950D02*
X0029798Y0021950D01*
X0029181Y0022567D01*
X0029181Y0023184D01*
X0029798Y0023802D01*
X0031033Y0023802D01*
X0031650Y0024419D01*
X0031650Y0025036D01*
X0031033Y0025653D01*
X0029798Y0025653D01*
X0029181Y0025036D01*
X0027967Y0025036D02*
X0027967Y0022567D01*
X0027350Y0021950D01*
X0026115Y0021950D01*
X0025498Y0022567D01*
X0024284Y0021950D02*
X0021815Y0021950D01*
X0024284Y0021950D02*
X0024284Y0025653D01*
X0025498Y0025036D02*
X0026115Y0025653D01*
X0027350Y0025653D01*
X0027967Y0025036D01*
X0031033Y0021950D02*
X0031650Y0022567D01*
X0031033Y0031950D02*
X0029798Y0031950D01*
X0029181Y0032567D01*
X0029181Y0033184D01*
X0029798Y0033802D01*
X0031033Y0033802D01*
X0031650Y0034419D01*
X0031650Y0035036D01*
X0031033Y0035653D01*
X0029798Y0035653D01*
X0029181Y0035036D01*
X0027967Y0035653D02*
X0026115Y0035653D01*
X0025498Y0035036D01*
X0025498Y0032567D01*
X0026115Y0031950D01*
X0027967Y0031950D01*
X0027967Y0035653D01*
X0024284Y0034419D02*
X0023049Y0035653D01*
X0021815Y0034419D01*
X0021815Y0031950D01*
X0024284Y0031950D02*
X0024284Y0034419D01*
X0024284Y0033802D02*
X0021815Y0033802D01*
X0031033Y0031950D02*
X0031650Y0032567D01*
X0046815Y0032567D02*
X0047432Y0031950D01*
X0049284Y0031950D01*
X0049284Y0035653D01*
X0047432Y0035653D01*
X0046815Y0035036D01*
X0046815Y0032567D01*
X0050498Y0031950D02*
X0050498Y0035653D01*
X0052967Y0035653D02*
X0050498Y0031950D01*
X0052967Y0031950D02*
X0052967Y0035653D01*
X0054181Y0035036D02*
X0054798Y0035653D01*
X0056033Y0035653D01*
X0056650Y0035036D01*
X0056650Y0032567D01*
X0056033Y0031950D01*
X0054798Y0031950D01*
X0054181Y0032567D01*
X0054181Y0033802D01*
X0055416Y0033802D01*
X0055416Y0041950D02*
X0054181Y0043184D01*
X0054181Y0045653D01*
X0052967Y0045036D02*
X0052967Y0042567D01*
X0052350Y0041950D01*
X0051115Y0041950D01*
X0050498Y0042567D01*
X0049284Y0042567D02*
X0048667Y0041950D01*
X0047432Y0041950D01*
X0046815Y0042567D01*
X0049284Y0042567D02*
X0049284Y0045036D01*
X0048667Y0045653D01*
X0047432Y0045653D01*
X0046815Y0045036D01*
X0050498Y0045036D02*
X0051115Y0045653D01*
X0052350Y0045653D01*
X0052967Y0045036D01*
X0056650Y0045653D02*
X0056650Y0043184D01*
X0055416Y0041950D01*
M02*
