G75*
%MOIN*%
%OFA0B0*%
%FSLAX25Y25*%
%IPPOS*%
%LPD*%
%AMOC8*
5,1,8,0,0,1.08239X$1,22.5*
%
%ADD10R,0.07400X0.07400*%
%ADD11C,0.07400*%
%ADD12C,0.01600*%
D10*
X0011800Y0041800D03*
X0061800Y0041800D03*
D11*
X0011800Y0011800D03*
X0011800Y0021800D03*
X0011800Y0031800D03*
X0061800Y0031800D03*
X0061800Y0021800D03*
X0061800Y0011800D03*
D12*
X0055068Y0006600D02*
X0054647Y0007021D01*
X0053363Y0010122D01*
X0053363Y0013478D01*
X0054647Y0016579D01*
X0054868Y0016800D01*
X0054647Y0017021D01*
X0053363Y0020122D01*
X0053363Y0023478D01*
X0054647Y0026579D01*
X0057021Y0028953D01*
X0057068Y0028972D01*
X0056703Y0029689D01*
X0056435Y0030512D01*
X0056300Y0031367D01*
X0056300Y0031600D01*
X0061600Y0031600D01*
X0061600Y0032000D01*
X0056300Y0032000D01*
X0056300Y0032233D01*
X0056435Y0033088D01*
X0056600Y0033594D01*
X0055417Y0034084D01*
X0054084Y0035417D01*
X0053363Y0037158D01*
X0053363Y0046442D01*
X0053578Y0046961D01*
X0020022Y0046961D01*
X0020237Y0046442D01*
X0020237Y0037158D01*
X0019516Y0035417D01*
X0019458Y0035359D01*
X0020237Y0033478D01*
X0020237Y0030122D01*
X0018953Y0027021D01*
X0018732Y0026800D01*
X0018953Y0026579D01*
X0020237Y0023478D01*
X0020237Y0020122D01*
X0018953Y0017021D01*
X0018732Y0016800D01*
X0018953Y0016579D01*
X0020237Y0013478D01*
X0020237Y0010122D01*
X0018953Y0007021D01*
X0018532Y0006600D01*
X0055068Y0006600D01*
X0054161Y0008194D02*
X0019438Y0008194D01*
X0020101Y0009793D02*
X0053499Y0009793D01*
X0053363Y0011391D02*
X0020237Y0011391D01*
X0020237Y0012990D02*
X0053363Y0012990D01*
X0053823Y0014588D02*
X0019777Y0014588D01*
X0019115Y0016187D02*
X0054485Y0016187D01*
X0054331Y0017785D02*
X0019269Y0017785D01*
X0019931Y0019384D02*
X0053669Y0019384D01*
X0053363Y0020982D02*
X0020237Y0020982D01*
X0020237Y0022581D02*
X0053363Y0022581D01*
X0053653Y0024179D02*
X0019947Y0024179D01*
X0019285Y0025778D02*
X0054315Y0025778D01*
X0055444Y0027376D02*
X0019100Y0027376D01*
X0019762Y0028975D02*
X0057067Y0028975D01*
X0056426Y0030573D02*
X0020237Y0030573D01*
X0020237Y0032172D02*
X0056300Y0032172D01*
X0056175Y0033770D02*
X0020116Y0033770D01*
X0019468Y0035369D02*
X0054132Y0035369D01*
X0053442Y0036967D02*
X0020158Y0036967D01*
X0020237Y0038566D02*
X0053363Y0038566D01*
X0053363Y0040164D02*
X0020237Y0040164D01*
X0020237Y0041763D02*
X0053363Y0041763D01*
X0053363Y0043361D02*
X0020237Y0043361D01*
X0020237Y0044960D02*
X0053363Y0044960D01*
X0053411Y0046558D02*
X0020189Y0046558D01*
M02*
