G75*
%MOIN*%
%OFA0B0*%
%FSLAX25Y25*%
%IPPOS*%
%LPD*%
%AMOC8*
5,1,8,0,0,1.08239X$1,22.5*
%
%ADD10C,0.00000*%
%ADD11C,0.00600*%
%ADD12C,0.00100*%
%ADD13C,0.00800*%
%ADD14C,0.00500*%
%ADD15C,0.00039*%
%ADD16C,0.00400*%
D10*
X0001000Y0001000D02*
X0001000Y0050961D01*
X0069701Y0050961D01*
X0069701Y0001000D01*
X0001000Y0001000D01*
D11*
X0029819Y0028638D02*
X0032181Y0028638D01*
X0032181Y0033362D02*
X0029819Y0033362D01*
X0029819Y0038638D02*
X0032181Y0038638D01*
X0032181Y0043362D02*
X0029819Y0043362D01*
D12*
X0030024Y0044300D02*
X0030024Y0045801D01*
X0029523Y0045301D01*
X0029051Y0045551D02*
X0028801Y0045801D01*
X0028300Y0045801D01*
X0028050Y0045551D01*
X0028050Y0044550D01*
X0028300Y0044300D01*
X0028801Y0044300D01*
X0029051Y0044550D01*
X0029523Y0044300D02*
X0030524Y0044300D01*
X0030274Y0035801D02*
X0029773Y0035801D01*
X0029523Y0035551D01*
X0029051Y0035551D02*
X0028801Y0035801D01*
X0028300Y0035801D01*
X0028050Y0035551D01*
X0028050Y0034550D01*
X0028300Y0034300D01*
X0028801Y0034300D01*
X0029051Y0034550D01*
X0029523Y0034300D02*
X0030524Y0035301D01*
X0030524Y0035551D01*
X0030274Y0035801D01*
X0030524Y0034300D02*
X0029523Y0034300D01*
D13*
X0016000Y0033500D02*
X0016000Y0028500D01*
X0013500Y0026000D01*
X0016000Y0023500D01*
X0016000Y0018500D01*
X0013500Y0016000D01*
X0016000Y0013500D01*
X0016000Y0008500D01*
X0013500Y0006000D01*
X0008500Y0006000D01*
X0006000Y0008500D01*
X0006000Y0013500D01*
X0008500Y0016000D01*
X0006000Y0018500D01*
X0006000Y0023500D01*
X0008500Y0026000D01*
X0006000Y0028500D01*
X0006000Y0033500D01*
X0008500Y0036000D01*
X0006000Y0038500D01*
X0006000Y0043500D01*
X0008500Y0046000D01*
X0013500Y0046000D01*
X0016000Y0043500D01*
X0016000Y0038500D01*
X0013500Y0036000D01*
X0016000Y0033500D01*
X0051000Y0033500D02*
X0051000Y0028500D01*
X0053500Y0026000D01*
X0051000Y0023500D01*
X0051000Y0018500D01*
X0053500Y0016000D01*
X0051000Y0013500D01*
X0051000Y0008500D01*
X0053500Y0006000D01*
X0058500Y0006000D01*
X0061000Y0008500D01*
X0061000Y0013500D01*
X0058500Y0016000D01*
X0061000Y0018500D01*
X0061000Y0023500D01*
X0058500Y0026000D01*
X0061000Y0028500D01*
X0061000Y0033500D01*
X0058500Y0036000D01*
X0061000Y0038500D01*
X0061000Y0043500D01*
X0058500Y0046000D01*
X0053500Y0046000D01*
X0051000Y0043500D01*
X0051000Y0038500D01*
X0053500Y0036000D01*
X0051000Y0033500D01*
D14*
X0063446Y0034239D02*
X0063446Y0035741D01*
X0063446Y0034990D02*
X0067199Y0034990D01*
X0067950Y0034239D01*
X0067950Y0033489D01*
X0067199Y0032738D01*
X0066449Y0037342D02*
X0066449Y0039594D01*
X0065698Y0040345D01*
X0064197Y0040345D01*
X0063446Y0039594D01*
X0063446Y0037342D01*
X0067950Y0037342D01*
X0067950Y0041946D02*
X0064947Y0044949D01*
X0064197Y0044949D01*
X0063446Y0044198D01*
X0063446Y0042697D01*
X0064197Y0041946D01*
X0067950Y0041946D02*
X0067950Y0044949D01*
X0022950Y0044949D02*
X0022950Y0041946D01*
X0022950Y0043447D02*
X0018446Y0043447D01*
X0019947Y0041946D01*
X0019197Y0040345D02*
X0020698Y0040345D01*
X0021449Y0039594D01*
X0021449Y0037342D01*
X0022950Y0037342D02*
X0018446Y0037342D01*
X0018446Y0039594D01*
X0019197Y0040345D01*
X0018446Y0035741D02*
X0018446Y0034239D01*
X0018446Y0034990D02*
X0022199Y0034990D01*
X0022950Y0034239D01*
X0022950Y0033489D01*
X0022199Y0032738D01*
D15*
X0026157Y0021000D02*
X0026157Y0011157D01*
X0036000Y0011157D01*
X0036000Y0021000D01*
X0026157Y0021000D01*
D16*
X0026992Y0010804D02*
X0026992Y0008502D01*
X0028527Y0009269D01*
X0029294Y0009269D01*
X0030061Y0008502D01*
X0030061Y0006967D01*
X0029294Y0006200D01*
X0027759Y0006200D01*
X0026992Y0006967D01*
X0025457Y0006200D02*
X0022388Y0006200D01*
X0025457Y0009269D01*
X0025457Y0010037D01*
X0024690Y0010804D01*
X0023155Y0010804D01*
X0022388Y0010037D01*
X0020854Y0010037D02*
X0020086Y0010804D01*
X0018552Y0010804D01*
X0017784Y0010037D01*
X0017784Y0009269D01*
X0018552Y0008502D01*
X0020086Y0008502D01*
X0020854Y0007735D01*
X0020854Y0006967D01*
X0020086Y0006200D01*
X0018552Y0006200D01*
X0017784Y0006967D01*
X0016250Y0008502D02*
X0015482Y0007735D01*
X0013180Y0007735D01*
X0013180Y0006200D02*
X0013180Y0010804D01*
X0015482Y0010804D01*
X0016250Y0010037D01*
X0016250Y0008502D01*
X0011646Y0006200D02*
X0008576Y0006200D01*
X0008576Y0010804D01*
X0026992Y0010804D02*
X0030061Y0010804D01*
X0031596Y0010804D02*
X0031596Y0006200D01*
X0034665Y0006200D02*
X0034665Y0010804D01*
X0034665Y0008502D02*
X0031596Y0008502D01*
M02*
