G75*
%MOIN*%
%OFA0B0*%
%FSLAX25Y25*%
%IPPOS*%
%LPD*%
%AMOC8*
5,1,8,0,0,1.08239X$1,22.5*
%
%ADD10C,0.00600*%
%ADD11C,0.00800*%
%ADD12C,0.00039*%
D10*
X0035619Y0029438D02*
X0037981Y0029438D01*
X0037981Y0034162D02*
X0035619Y0034162D01*
X0035619Y0039438D02*
X0037981Y0039438D01*
X0037981Y0044162D02*
X0035619Y0044162D01*
D11*
X0014300Y0006800D02*
X0009300Y0006800D01*
X0006800Y0009300D01*
X0006800Y0014300D01*
X0009300Y0016800D01*
X0006800Y0019300D01*
X0006800Y0024300D01*
X0009300Y0026800D01*
X0006800Y0029300D01*
X0006800Y0034300D01*
X0009300Y0036800D01*
X0006800Y0039300D01*
X0006800Y0044300D01*
X0009300Y0046800D01*
X0014300Y0046800D01*
X0016800Y0044300D01*
X0016800Y0039300D01*
X0014300Y0036800D01*
X0016800Y0034300D01*
X0016800Y0029300D01*
X0014300Y0026800D01*
X0016800Y0024300D01*
X0016800Y0019300D01*
X0014300Y0016800D01*
X0016800Y0014300D01*
X0016800Y0009300D01*
X0014300Y0006800D01*
X0056800Y0009300D02*
X0056800Y0014300D01*
X0059300Y0016800D01*
X0056800Y0019300D01*
X0056800Y0024300D01*
X0059300Y0026800D01*
X0056800Y0029300D01*
X0056800Y0034300D01*
X0059300Y0036800D01*
X0056800Y0039300D01*
X0056800Y0044300D01*
X0059300Y0046800D01*
X0064300Y0046800D01*
X0066800Y0044300D01*
X0066800Y0039300D01*
X0064300Y0036800D01*
X0066800Y0034300D01*
X0066800Y0029300D01*
X0064300Y0026800D01*
X0066800Y0024300D01*
X0066800Y0019300D01*
X0064300Y0016800D01*
X0066800Y0014300D01*
X0066800Y0009300D01*
X0064300Y0006800D01*
X0059300Y0006800D01*
X0056800Y0009300D01*
D12*
X0041800Y0011957D02*
X0041800Y0021800D01*
X0031957Y0021800D01*
X0031957Y0011957D01*
X0041800Y0011957D01*
M02*
