G75*
%MOIN*%
%OFA0B0*%
%FSLAX25Y25*%
%IPPOS*%
%LPD*%
%AMOC8*
5,1,8,0,0,1.08239X$1,22.5*
%
%ADD10C,0.00600*%
%ADD11C,0.00400*%
D10*
X0015002Y0012100D02*
X0015002Y0018505D01*
X0015002Y0015303D02*
X0019273Y0015303D01*
X0021448Y0015303D02*
X0021448Y0013168D01*
X0022515Y0012100D01*
X0024650Y0012100D01*
X0025718Y0013168D01*
X0027893Y0012100D02*
X0032164Y0012100D01*
X0027893Y0016370D01*
X0027893Y0017438D01*
X0028961Y0018505D01*
X0031096Y0018505D01*
X0032164Y0017438D01*
X0034339Y0017438D02*
X0035406Y0018505D01*
X0037541Y0018505D01*
X0038609Y0017438D01*
X0038609Y0016370D01*
X0037541Y0015303D01*
X0035406Y0015303D01*
X0034339Y0014235D01*
X0034339Y0013168D01*
X0035406Y0012100D01*
X0037541Y0012100D01*
X0038609Y0013168D01*
X0040784Y0015303D02*
X0041852Y0014235D01*
X0045055Y0014235D01*
X0045055Y0012100D02*
X0045055Y0018505D01*
X0041852Y0018505D01*
X0040784Y0017438D01*
X0040784Y0015303D01*
X0047230Y0012100D02*
X0051500Y0012100D01*
X0051500Y0018505D01*
X0025718Y0018505D02*
X0025718Y0015303D01*
X0023583Y0016370D01*
X0022515Y0016370D01*
X0021448Y0015303D01*
X0021448Y0018505D02*
X0025718Y0018505D01*
X0019273Y0018505D02*
X0019273Y0012100D01*
D11*
X0019323Y0022000D02*
X0022392Y0022000D01*
X0022392Y0026604D01*
X0023927Y0025837D02*
X0024694Y0026604D01*
X0026229Y0026604D01*
X0026996Y0025837D01*
X0026996Y0022767D01*
X0026229Y0022000D01*
X0024694Y0022000D01*
X0023927Y0022767D01*
X0028531Y0022767D02*
X0029298Y0022000D01*
X0030833Y0022000D01*
X0031600Y0022767D01*
X0030833Y0024302D02*
X0029298Y0024302D01*
X0028531Y0023535D01*
X0028531Y0022767D01*
X0030833Y0024302D02*
X0031600Y0025069D01*
X0031600Y0025837D01*
X0030833Y0026604D01*
X0029298Y0026604D01*
X0028531Y0025837D01*
X0029298Y0032000D02*
X0030833Y0032000D01*
X0031600Y0032767D01*
X0030833Y0034302D02*
X0029298Y0034302D01*
X0028531Y0033535D01*
X0028531Y0032767D01*
X0029298Y0032000D01*
X0026996Y0032000D02*
X0024694Y0032000D01*
X0023927Y0032767D01*
X0023927Y0035837D01*
X0024694Y0036604D01*
X0026996Y0036604D01*
X0026996Y0032000D01*
X0030833Y0034302D02*
X0031600Y0035069D01*
X0031600Y0035837D01*
X0030833Y0036604D01*
X0029298Y0036604D01*
X0028531Y0035837D01*
X0022392Y0035069D02*
X0022392Y0032000D01*
X0022392Y0034302D02*
X0019323Y0034302D01*
X0019323Y0035069D02*
X0019323Y0032000D01*
X0019323Y0035069D02*
X0020858Y0036604D01*
X0022392Y0035069D01*
X0041254Y0022000D02*
X0044323Y0022000D01*
X0042788Y0022000D02*
X0042788Y0026604D01*
X0044323Y0025069D01*
X0045858Y0026604D02*
X0048927Y0026604D01*
X0050461Y0026604D02*
X0050461Y0022000D01*
X0053531Y0026604D01*
X0053531Y0022000D01*
X0055065Y0022000D02*
X0056600Y0022000D01*
X0055833Y0022000D02*
X0055833Y0026604D01*
X0056600Y0026604D02*
X0055065Y0026604D01*
X0054298Y0032000D02*
X0053531Y0032767D01*
X0053531Y0034302D01*
X0055065Y0034302D01*
X0056600Y0035837D02*
X0056600Y0032767D01*
X0055833Y0032000D01*
X0054298Y0032000D01*
X0051996Y0032000D02*
X0051996Y0036604D01*
X0048927Y0032000D01*
X0048927Y0036604D01*
X0047392Y0036604D02*
X0045090Y0036604D01*
X0044323Y0035837D01*
X0044323Y0032767D01*
X0045090Y0032000D01*
X0047392Y0032000D01*
X0047392Y0036604D01*
X0053531Y0035837D02*
X0054298Y0036604D01*
X0055833Y0036604D01*
X0056600Y0035837D01*
X0055065Y0042000D02*
X0053531Y0043535D01*
X0053531Y0046604D01*
X0051996Y0045837D02*
X0051996Y0042767D01*
X0051229Y0042000D01*
X0049694Y0042000D01*
X0048927Y0042767D01*
X0047392Y0042767D02*
X0046625Y0042000D01*
X0045090Y0042000D01*
X0044323Y0042767D01*
X0047392Y0042767D02*
X0047392Y0045837D01*
X0046625Y0046604D01*
X0045090Y0046604D01*
X0044323Y0045837D01*
X0048927Y0045837D02*
X0049694Y0046604D01*
X0051229Y0046604D01*
X0051996Y0045837D01*
X0056600Y0046604D02*
X0056600Y0043535D01*
X0055065Y0042000D01*
X0047392Y0026604D02*
X0047392Y0022000D01*
M02*
