G75*
%MOIN*%
%OFA0B0*%
%FSLAX25Y25*%
%IPPOS*%
%LPD*%
%AMOC8*
5,1,8,0,0,1.08239X$1,22.5*
%
%ADD10C,0.00000*%
%ADD11R,0.03150X0.04724*%
%ADD12R,0.07400X0.07400*%
%ADD13C,0.07400*%
%ADD14R,0.01575X0.01181*%
%ADD15R,0.01181X0.01575*%
%ADD16C,0.00984*%
%ADD17C,0.02584*%
%ADD18C,0.01200*%
%ADD19C,0.01600*%
D10*
X0001800Y0001800D02*
X0001800Y0051761D01*
X0070501Y0051761D01*
X0070501Y0001800D01*
X0001800Y0001800D01*
D11*
X0033257Y0031800D03*
X0040343Y0031800D03*
X0040343Y0041800D03*
X0033257Y0041800D03*
D12*
X0011800Y0041800D03*
X0061800Y0041800D03*
D13*
X0061800Y0031800D03*
X0061800Y0021800D03*
X0061800Y0011800D03*
X0011800Y0011800D03*
X0011800Y0021800D03*
X0011800Y0031800D03*
D14*
X0033139Y0019044D03*
X0033139Y0016682D03*
X0033139Y0014320D03*
X0040619Y0014320D03*
X0040619Y0016682D03*
X0040619Y0019044D03*
D15*
X0038060Y0020619D03*
X0035698Y0020619D03*
X0035698Y0013139D03*
X0038060Y0013139D03*
D16*
X0038217Y0012627D01*
X0038217Y0011643D01*
X0037233Y0010658D01*
X0023454Y0010658D01*
X0012627Y0021485D01*
X0011800Y0021800D01*
X0005737Y0025422D02*
X0011643Y0031328D01*
X0011800Y0031800D01*
X0005737Y0025422D02*
X0005737Y0009674D01*
X0009674Y0005737D01*
X0040186Y0005737D01*
X0047076Y0012627D01*
X0047076Y0014595D01*
X0045107Y0016564D01*
X0041170Y0016564D01*
X0040619Y0016682D01*
X0038217Y0017548D02*
X0034280Y0013611D01*
X0033296Y0014595D01*
X0033139Y0014320D01*
X0033296Y0014595D02*
X0031328Y0014595D01*
X0030343Y0015580D01*
X0030343Y0029359D01*
X0032312Y0031328D01*
X0033257Y0031800D01*
X0033296Y0032312D01*
X0033296Y0041170D01*
X0033257Y0041800D01*
X0033296Y0042154D01*
X0037233Y0046091D01*
X0056918Y0046091D01*
X0060855Y0042154D01*
X0061800Y0041800D01*
X0060855Y0032312D02*
X0061800Y0031800D01*
X0061839Y0031328D01*
X0067745Y0025422D01*
X0067745Y0009674D01*
X0063808Y0005737D01*
X0059871Y0005737D01*
X0046091Y0019517D01*
X0041170Y0019517D01*
X0040619Y0019044D01*
X0038217Y0020501D02*
X0038217Y0017548D01*
X0040186Y0014595D02*
X0040619Y0014320D01*
X0040186Y0014595D02*
X0041170Y0013611D01*
X0044123Y0013611D01*
X0035698Y0013139D02*
X0035265Y0012627D01*
X0034280Y0013611D01*
X0033139Y0019044D02*
X0033296Y0019517D01*
X0032312Y0020501D01*
X0032312Y0023454D01*
X0040186Y0031328D01*
X0040343Y0031800D01*
X0041170Y0032312D01*
X0060855Y0032312D01*
X0059871Y0023454D02*
X0060855Y0022469D01*
X0061800Y0021800D01*
X0059871Y0023454D02*
X0037233Y0023454D01*
X0035265Y0021485D01*
X0035265Y0020501D01*
X0035698Y0020619D01*
X0038060Y0020619D02*
X0038217Y0020501D01*
X0040343Y0031800D02*
X0040186Y0032312D01*
X0040186Y0041170D01*
X0040343Y0041800D01*
D17*
X0044123Y0013611D03*
D18*
X0033139Y0016682D02*
X0033139Y0019044D01*
D19*
X0033139Y0018972D02*
X0033139Y0017127D01*
X0033139Y0017127D01*
X0033139Y0018972D01*
X0033139Y0018972D01*
X0033139Y0017785D02*
X0033139Y0017785D01*
X0027851Y0017785D02*
X0019851Y0017785D01*
X0021450Y0016187D02*
X0027851Y0016187D01*
X0027851Y0015084D02*
X0028231Y0014168D01*
X0028932Y0013467D01*
X0029248Y0013150D01*
X0024486Y0013150D01*
X0017345Y0020291D01*
X0017500Y0020666D01*
X0017500Y0022934D01*
X0016632Y0025029D01*
X0015029Y0026632D01*
X0014624Y0026800D01*
X0015029Y0026968D01*
X0016632Y0028571D01*
X0017500Y0030666D01*
X0017500Y0032934D01*
X0016632Y0035029D01*
X0015561Y0036100D01*
X0016328Y0036100D01*
X0017500Y0037272D01*
X0017500Y0046328D01*
X0016328Y0047500D01*
X0007272Y0047500D01*
X0006100Y0046328D01*
X0006100Y0037272D01*
X0007272Y0036100D01*
X0008039Y0036100D01*
X0006968Y0035029D01*
X0006100Y0032934D01*
X0006100Y0030666D01*
X0006497Y0029707D01*
X0003800Y0027009D01*
X0003800Y0049761D01*
X0068501Y0049761D01*
X0068501Y0003800D01*
X0041773Y0003800D01*
X0042299Y0004325D01*
X0049188Y0011215D01*
X0049568Y0012131D01*
X0049568Y0015091D01*
X0049188Y0016007D01*
X0048487Y0016708D01*
X0046519Y0018676D01*
X0045603Y0019056D01*
X0043206Y0019056D01*
X0043206Y0019872D01*
X0043084Y0020329D01*
X0042847Y0020740D01*
X0042625Y0020961D01*
X0056100Y0020961D01*
X0056100Y0020666D01*
X0056968Y0018571D01*
X0058571Y0016968D01*
X0058976Y0016800D01*
X0058571Y0016632D01*
X0056968Y0015029D01*
X0056100Y0012934D01*
X0056100Y0010666D01*
X0056968Y0008571D01*
X0058571Y0006968D01*
X0060666Y0006100D01*
X0062934Y0006100D01*
X0065029Y0006968D01*
X0066632Y0008571D01*
X0067500Y0010666D01*
X0067500Y0012934D01*
X0066632Y0015029D01*
X0065029Y0016632D01*
X0064624Y0016800D01*
X0065029Y0016968D01*
X0066632Y0018571D01*
X0067500Y0020666D01*
X0067500Y0022934D01*
X0066632Y0025029D01*
X0065029Y0026632D01*
X0064336Y0026919D01*
X0064683Y0027096D01*
X0065383Y0027605D01*
X0065995Y0028217D01*
X0066504Y0028917D01*
X0066897Y0029689D01*
X0067165Y0030512D01*
X0067300Y0031367D01*
X0067300Y0031600D01*
X0062000Y0031600D01*
X0062000Y0032000D01*
X0067300Y0032000D01*
X0067300Y0032233D01*
X0067165Y0033088D01*
X0066897Y0033911D01*
X0066504Y0034683D01*
X0065995Y0035383D01*
X0065383Y0035995D01*
X0065239Y0036100D01*
X0066328Y0036100D01*
X0067500Y0037272D01*
X0067500Y0046328D01*
X0066328Y0047500D01*
X0059034Y0047500D01*
X0058330Y0048204D01*
X0057414Y0048583D01*
X0036737Y0048583D01*
X0035821Y0048204D01*
X0035120Y0047503D01*
X0033780Y0046162D01*
X0030853Y0046162D01*
X0029682Y0044991D01*
X0029682Y0038609D01*
X0030804Y0037487D01*
X0030804Y0036113D01*
X0029682Y0034991D01*
X0029682Y0032222D01*
X0028231Y0030771D01*
X0027851Y0029855D01*
X0027851Y0015084D01*
X0028057Y0014588D02*
X0023048Y0014588D01*
X0018253Y0019384D02*
X0027851Y0019384D01*
X0027851Y0020982D02*
X0017500Y0020982D01*
X0017500Y0022581D02*
X0027851Y0022581D01*
X0027851Y0024179D02*
X0016984Y0024179D01*
X0015883Y0025778D02*
X0027851Y0025778D01*
X0027851Y0027376D02*
X0015437Y0027376D01*
X0016799Y0028975D02*
X0027851Y0028975D01*
X0028149Y0030573D02*
X0017461Y0030573D01*
X0017500Y0032172D02*
X0029632Y0032172D01*
X0029682Y0033770D02*
X0017154Y0033770D01*
X0016292Y0035369D02*
X0030060Y0035369D01*
X0030804Y0036967D02*
X0017196Y0036967D01*
X0017500Y0038566D02*
X0029725Y0038566D01*
X0029682Y0040164D02*
X0017500Y0040164D01*
X0017500Y0041763D02*
X0029682Y0041763D01*
X0029682Y0043361D02*
X0017500Y0043361D01*
X0017500Y0044960D02*
X0029682Y0044960D01*
X0034176Y0046558D02*
X0017270Y0046558D01*
X0006330Y0046558D02*
X0003800Y0046558D01*
X0003800Y0044960D02*
X0006100Y0044960D01*
X0006100Y0043361D02*
X0003800Y0043361D01*
X0003800Y0041763D02*
X0006100Y0041763D01*
X0006100Y0040164D02*
X0003800Y0040164D01*
X0003800Y0038566D02*
X0006100Y0038566D01*
X0006404Y0036967D02*
X0003800Y0036967D01*
X0003800Y0035369D02*
X0007308Y0035369D01*
X0006446Y0033770D02*
X0003800Y0033770D01*
X0003800Y0032172D02*
X0006100Y0032172D01*
X0006139Y0030573D02*
X0003800Y0030573D01*
X0003800Y0028975D02*
X0005765Y0028975D01*
X0004167Y0027376D02*
X0003800Y0027376D01*
X0003800Y0048157D02*
X0035774Y0048157D01*
X0036969Y0042302D02*
X0036968Y0041800D01*
X0040343Y0041800D01*
X0040343Y0041800D01*
X0036969Y0041800D01*
X0036969Y0039201D01*
X0037091Y0038743D01*
X0037328Y0038333D01*
X0037663Y0037997D01*
X0038074Y0037760D01*
X0038532Y0037638D01*
X0040343Y0037638D01*
X0040343Y0041800D01*
X0040343Y0041800D01*
X0040343Y0037638D01*
X0040343Y0040862D01*
X0040343Y0040862D01*
X0040343Y0037638D01*
X0039213Y0037638D01*
X0038866Y0036800D01*
X0039213Y0035962D01*
X0040343Y0035962D01*
X0038532Y0035962D01*
X0038074Y0035840D01*
X0037663Y0035603D01*
X0037328Y0035267D01*
X0037091Y0034857D01*
X0036969Y0034399D01*
X0036968Y0031800D01*
X0040343Y0031800D01*
X0040343Y0031800D01*
X0036969Y0031800D01*
X0036969Y0029201D01*
X0037091Y0028743D01*
X0037328Y0028333D01*
X0037663Y0027997D01*
X0038074Y0027760D01*
X0038532Y0027638D01*
X0040343Y0027638D01*
X0040343Y0031800D01*
X0040343Y0031800D01*
X0040343Y0035962D01*
X0040343Y0031800D01*
X0040343Y0031800D01*
X0040343Y0031800D01*
X0040343Y0035962D01*
X0042155Y0035962D01*
X0042613Y0035840D01*
X0043023Y0035603D01*
X0043358Y0035267D01*
X0043595Y0034857D01*
X0043718Y0034399D01*
X0043718Y0031800D01*
X0040343Y0031800D01*
X0040343Y0035962D01*
X0042155Y0035962D01*
X0042613Y0035840D01*
X0043023Y0035603D01*
X0043358Y0035267D01*
X0043595Y0034857D01*
X0043718Y0034399D01*
X0043718Y0031800D01*
X0040343Y0031800D01*
X0040343Y0027638D01*
X0042155Y0027638D01*
X0042613Y0027760D01*
X0043023Y0027997D01*
X0043358Y0028333D01*
X0043595Y0028743D01*
X0043718Y0029201D01*
X0043718Y0031800D01*
X0040343Y0031800D01*
X0040343Y0031800D01*
X0040343Y0031800D01*
X0043718Y0031800D01*
X0043718Y0029201D01*
X0043595Y0028743D01*
X0043561Y0028683D01*
X0056751Y0028683D01*
X0057021Y0028953D01*
X0057068Y0028972D01*
X0056703Y0029689D01*
X0057096Y0028917D01*
X0057605Y0028217D01*
X0058217Y0027605D01*
X0058917Y0027096D01*
X0059264Y0026919D01*
X0058571Y0026632D01*
X0057885Y0025946D01*
X0036737Y0025946D01*
X0035821Y0025566D01*
X0035120Y0024865D01*
X0033152Y0022897D01*
X0032835Y0022133D01*
X0032835Y0027438D01*
X0035660Y0027438D01*
X0036831Y0028609D01*
X0036831Y0034991D01*
X0035788Y0036034D01*
X0035788Y0037566D01*
X0036831Y0038609D01*
X0036831Y0042165D01*
X0036969Y0042302D01*
X0036969Y0041763D02*
X0036831Y0041763D01*
X0036831Y0040164D02*
X0036969Y0040164D01*
X0036788Y0038566D02*
X0037193Y0038566D01*
X0035788Y0036967D02*
X0056404Y0036967D01*
X0056100Y0037272D02*
X0057272Y0036100D01*
X0058361Y0036100D01*
X0058217Y0035995D01*
X0057605Y0035383D01*
X0057096Y0034683D01*
X0056703Y0033911D01*
X0056435Y0033088D01*
X0056300Y0032233D01*
X0056300Y0032000D01*
X0061600Y0032000D01*
X0061600Y0031600D01*
X0056300Y0031600D01*
X0056300Y0031367D01*
X0056435Y0030512D01*
X0056703Y0029689D01*
X0056435Y0030512D01*
X0056300Y0031367D01*
X0056300Y0031600D01*
X0061600Y0031600D01*
X0061600Y0027500D01*
X0062000Y0027500D01*
X0062000Y0031600D01*
X0061600Y0031600D01*
X0061600Y0032000D01*
X0056300Y0032000D01*
X0056300Y0032233D01*
X0056435Y0033088D01*
X0056600Y0033594D01*
X0055417Y0034084D01*
X0054084Y0035417D01*
X0053363Y0037158D01*
X0053363Y0040862D01*
X0043718Y0040862D01*
X0043718Y0039201D01*
X0043718Y0041800D01*
X0043718Y0043599D01*
X0055886Y0043599D01*
X0056100Y0043385D01*
X0056100Y0037272D01*
X0056100Y0038566D02*
X0043493Y0038566D01*
X0053363Y0038566D01*
X0053363Y0040164D02*
X0043718Y0040164D01*
X0056100Y0040164D01*
X0056100Y0041763D02*
X0043718Y0041763D01*
X0043718Y0041800D02*
X0040343Y0041800D01*
X0043718Y0041800D01*
X0043718Y0043361D02*
X0056100Y0043361D01*
X0058377Y0048157D02*
X0068501Y0048157D01*
X0068501Y0049755D02*
X0003800Y0049755D01*
X0032835Y0027376D02*
X0058532Y0027376D01*
X0057067Y0028975D02*
X0043658Y0028975D01*
X0057067Y0028975D01*
X0056426Y0030573D02*
X0043718Y0030573D01*
X0056426Y0030573D01*
X0056300Y0032172D02*
X0043718Y0032172D01*
X0056300Y0032172D01*
X0056175Y0033770D02*
X0043718Y0033770D01*
X0056657Y0033770D01*
X0057594Y0035369D02*
X0043257Y0035369D01*
X0054132Y0035369D01*
X0053442Y0036967D02*
X0038935Y0036967D01*
X0040343Y0037638D02*
X0042155Y0037638D01*
X0042613Y0037760D01*
X0043023Y0037997D01*
X0043358Y0038333D01*
X0043595Y0038743D01*
X0043718Y0039201D01*
X0043595Y0038743D01*
X0043358Y0038333D01*
X0043023Y0037997D01*
X0042613Y0037760D01*
X0042155Y0037638D01*
X0040343Y0037638D01*
X0040343Y0038566D02*
X0040343Y0038566D01*
X0040343Y0038566D01*
X0040343Y0040164D02*
X0040343Y0040164D01*
X0040343Y0040164D01*
X0040343Y0041763D02*
X0040343Y0041763D01*
X0040343Y0041800D02*
X0040343Y0041800D01*
X0040343Y0035369D02*
X0040343Y0035369D01*
X0040343Y0035369D01*
X0040343Y0033770D02*
X0040343Y0033770D01*
X0040343Y0033770D01*
X0040343Y0032172D02*
X0040343Y0032172D01*
X0040343Y0032172D01*
X0040343Y0030573D02*
X0040343Y0030573D01*
X0040343Y0028975D02*
X0040343Y0028975D01*
X0037029Y0028975D02*
X0036831Y0028975D01*
X0036831Y0030573D02*
X0036969Y0030573D01*
X0036969Y0032172D02*
X0036831Y0032172D01*
X0036831Y0033770D02*
X0036969Y0033770D01*
X0037429Y0035369D02*
X0036453Y0035369D01*
X0036332Y0025778D02*
X0032835Y0025778D01*
X0032835Y0024179D02*
X0034434Y0024179D01*
X0035120Y0024865D02*
X0035120Y0024865D01*
X0033021Y0022581D02*
X0032835Y0022581D01*
X0043206Y0019384D02*
X0056631Y0019384D01*
X0057754Y0017785D02*
X0047410Y0017785D01*
X0049009Y0016187D02*
X0058126Y0016187D01*
X0056785Y0014588D02*
X0049568Y0014588D01*
X0049568Y0012990D02*
X0056123Y0012990D01*
X0056100Y0011391D02*
X0049261Y0011391D01*
X0047766Y0009793D02*
X0056462Y0009793D01*
X0057345Y0008194D02*
X0046167Y0008194D01*
X0044569Y0006596D02*
X0059470Y0006596D01*
X0064130Y0006596D02*
X0068501Y0006596D01*
X0068501Y0008194D02*
X0066255Y0008194D01*
X0067138Y0009793D02*
X0068501Y0009793D01*
X0068501Y0011391D02*
X0067500Y0011391D01*
X0067477Y0012990D02*
X0068501Y0012990D01*
X0068501Y0014588D02*
X0066815Y0014588D01*
X0065474Y0016187D02*
X0068501Y0016187D01*
X0068501Y0017785D02*
X0065846Y0017785D01*
X0066969Y0019384D02*
X0068501Y0019384D01*
X0068501Y0020982D02*
X0067500Y0020982D01*
X0067500Y0022581D02*
X0068501Y0022581D01*
X0068501Y0024179D02*
X0066984Y0024179D01*
X0065883Y0025778D02*
X0068501Y0025778D01*
X0068501Y0027376D02*
X0065068Y0027376D01*
X0066533Y0028975D02*
X0068501Y0028975D01*
X0068501Y0030573D02*
X0067174Y0030573D01*
X0067300Y0032172D02*
X0068501Y0032172D01*
X0068501Y0033770D02*
X0066943Y0033770D01*
X0066006Y0035369D02*
X0068501Y0035369D01*
X0068501Y0036967D02*
X0067196Y0036967D01*
X0067500Y0038566D02*
X0068501Y0038566D01*
X0068501Y0040164D02*
X0067500Y0040164D01*
X0067500Y0041763D02*
X0068501Y0041763D01*
X0068501Y0043361D02*
X0067500Y0043361D01*
X0067500Y0044960D02*
X0068501Y0044960D01*
X0068501Y0046558D02*
X0067270Y0046558D01*
X0062000Y0031600D02*
X0062000Y0030237D01*
X0061600Y0030237D01*
X0061600Y0031600D01*
X0062000Y0031600D01*
X0062000Y0030573D02*
X0061600Y0030573D01*
X0062000Y0030573D01*
X0062000Y0028975D02*
X0061600Y0028975D01*
X0044535Y0013611D02*
X0044075Y0014072D01*
X0043206Y0014072D01*
X0043206Y0013492D01*
X0043084Y0013034D01*
X0042847Y0012624D01*
X0042512Y0012289D01*
X0042101Y0012052D01*
X0041643Y0011929D01*
X0040709Y0011929D01*
X0040709Y0011147D01*
X0040330Y0010231D01*
X0039346Y0009247D01*
X0038645Y0008546D01*
X0037881Y0008229D01*
X0039154Y0008229D01*
X0044535Y0013611D01*
X0043914Y0012990D02*
X0043058Y0012990D01*
X0042316Y0011391D02*
X0040709Y0011391D01*
X0040717Y0009793D02*
X0039892Y0009793D01*
X0042970Y0004997D02*
X0068501Y0004997D01*
M02*
