G75*
%MOIN*%
%OFA0B0*%
%FSLAX25Y25*%
%IPPOS*%
%LPD*%
%AMOC8*
5,1,8,0,0,1.08239X$1,22.5*
%
%ADD10R,0.03150X0.04724*%
%ADD11R,0.07400X0.07400*%
%ADD12C,0.07400*%
%ADD13R,0.01575X0.01181*%
%ADD14R,0.01181X0.01575*%
%ADD15C,0.00984*%
%ADD16C,0.02584*%
D10*
X0027457Y0031000D03*
X0034543Y0031000D03*
X0034543Y0041000D03*
X0027457Y0041000D03*
D11*
X0011000Y0041000D03*
X0056000Y0041000D03*
D12*
X0056000Y0031000D03*
X0056000Y0021000D03*
X0056000Y0011000D03*
X0011000Y0011000D03*
X0011000Y0021000D03*
X0011000Y0031000D03*
D13*
X0027339Y0018244D03*
X0027339Y0015882D03*
X0027339Y0013520D03*
X0034819Y0013520D03*
X0034819Y0015882D03*
X0034819Y0018244D03*
D14*
X0032260Y0019819D03*
X0029898Y0019819D03*
X0029898Y0012339D03*
X0032260Y0012339D03*
D15*
X0008874Y0004937D02*
X0004937Y0008874D01*
X0004937Y0024622D01*
X0010843Y0030528D01*
X0011000Y0031000D01*
X0023638Y0027575D02*
X0026591Y0030528D01*
X0027457Y0031000D01*
X0027575Y0031512D01*
X0027575Y0040370D01*
X0027457Y0041000D01*
X0027575Y0041354D01*
X0031512Y0045291D01*
X0051197Y0045291D01*
X0055134Y0041354D01*
X0056000Y0041000D01*
X0055134Y0031512D02*
X0056000Y0031000D01*
X0056118Y0030528D01*
X0062024Y0024622D01*
X0062024Y0008874D01*
X0058087Y0004937D01*
X0054150Y0004937D01*
X0040370Y0018717D01*
X0035449Y0018717D01*
X0034819Y0018244D01*
X0032496Y0019701D02*
X0032496Y0016748D01*
X0028559Y0012811D01*
X0027575Y0013795D01*
X0027339Y0013520D01*
X0027575Y0013795D02*
X0026591Y0012811D01*
X0023638Y0015764D01*
X0023638Y0027575D01*
X0026591Y0022654D02*
X0034465Y0030528D01*
X0034543Y0031000D01*
X0035449Y0031512D01*
X0055134Y0031512D01*
X0054150Y0022654D02*
X0055134Y0021669D01*
X0056000Y0021000D01*
X0054150Y0022654D02*
X0031512Y0022654D01*
X0029543Y0020685D01*
X0029543Y0019701D01*
X0029898Y0019819D01*
X0032260Y0019819D02*
X0032496Y0019701D01*
X0034819Y0015882D02*
X0035449Y0015764D01*
X0036433Y0015764D01*
X0038402Y0013795D01*
X0038402Y0008874D01*
X0034465Y0004937D01*
X0008874Y0004937D01*
X0022654Y0009858D02*
X0011827Y0020685D01*
X0011000Y0021000D01*
X0026591Y0022654D02*
X0026591Y0018717D01*
X0027339Y0018244D01*
X0026591Y0017732D01*
X0026591Y0015764D01*
X0027339Y0015882D01*
X0028559Y0012811D02*
X0029543Y0011827D01*
X0029898Y0012339D01*
X0032260Y0012339D02*
X0032496Y0011827D01*
X0032496Y0010843D01*
X0031512Y0009858D01*
X0022654Y0009858D01*
X0034465Y0012811D02*
X0035449Y0011827D01*
X0035449Y0009858D01*
X0034465Y0012811D02*
X0034465Y0013795D01*
X0034819Y0013520D01*
X0034543Y0031000D02*
X0034465Y0031512D01*
X0034465Y0040370D01*
X0034543Y0041000D01*
D16*
X0035449Y0009858D03*
M02*
